<?xml version="1.0" encoding="UTF-8"?>
<svg id="Layer_2" data-name="Layer 2" xmlns="http://www.w3.org/2000/svg" viewBox="0 0 46.3 89.58">
  <defs>
    <style>
      .cls-1 {
        fill: #f7eaa2;
      }

      .cls-1, .cls-2, .cls-3 {
        stroke-width: 0px;
      }

      .cls-2 {
        fill: #fffad0;
      }

      .cls-3 {
        fill: #ffff56;
      }
    </style>
  </defs>
  <g id="Layer_1-2" data-name="Layer 1">
    <g>
      <path class="cls-2" d="M23.7,89.56c-9.01-.18-12.03-.56-13.98-1.03-3.98-1.97-5.34-6.64-6.22-9.76C.28,67.35-1.63,54.82,1.88,44.55c1.46-4.27,5.75-6.08,7.37-6.71,8.41-1.7,18.87-2.46,27.79-.04,1.62.63,5.91,2.44,7.38,6.71,3.51,10.27,1.6,22.8-1.62,34.22-.85,3.02-2.14,7.54-5.95,9.48-1.46.46-4.14,1.54-13.14,1.35h0Z"/>
      <path class="cls-1" d="M27.68,87.1c5.26-19.57,5.01-30.14-.5-25.05-.33-5.79-.63-16.33-4.39-16.33s-4.06,10.71-4.39,16.5c-5.69-4.92-5.77,5.14.34,24.71,3.2,1.66,5.75,1.5,8.94.17h0Z"/>
      <path class="cls-3" d="M9.26,37.84c.13-2.55,1.01-8.32,4-10.88-.11-3.02,2.12-7.29,5.66-8.02,1.12-3.8.43-6.81.79-9.18.87,1.23,1.13,2.48,1.42,3.72.76-2.63-.62-9.01,1.1-13.49.16,3.72,1.48,7.54,2.95,9.74.43-1.96.22-2.91-.25-5.27,2.38,4.79,4.04,10.07,2.6,14.57,3.54.73,5.62,5.29,5.52,8.3,2.99,2.55,3.87,7.9,4,10.45-8.25,2.79-19.94,2.12-27.79.04h0Z"/>
    </g>
  </g>
</svg>