<?xml version="1.0" encoding="UTF-8"?>
<svg id="Layer_2" data-name="Layer 2" xmlns="http://www.w3.org/2000/svg" viewBox="0 0 46.3 93.56">
  <defs>
    <style>
      .cls-1 {
        fill: #2b1100;
      }

      .cls-1, .cls-2, .cls-3, .cls-4, .cls-5, .cls-6, .cls-7, .cls-8 {
        stroke-width: 0px;
      }

      .cls-2 {
        fill: #ccc;
      }

      .cls-3 {
        fill: #b3b3b3;
      }

      .cls-4 {
        fill: #ff9797;
      }

      .cls-5 {
        fill: #fffad0;
      }

      .cls-6 {
        fill: #ffff56;
      }

      .cls-7 {
        fill: #e9afaf;
      }

      .cls-8 {
        fill: #ff4848;
      }
    </style>
  </defs>
  <g id="Layer_1-2" data-name="Layer 1">
    <g>
      <path class="cls-5" d="M15.72,88.5c2.13.87,11.45.93,14.97.14,1.91.45,4.46-.72,6.1-1.35,3.78-1.72,5.13-5.37,6.01-8.49,3.23-11.42,5.14-23.96,1.62-34.23-1.46-4.27-5.75-6.07-7.38-6.71-5.61-2.11-22.58-1.51-27.79-.04-1.62.63-5.91,2.44-7.37,6.71-3.52,10.27-1.61,22.81,1.62,34.23.85,3.02,2.14,6.51,5.53,8.23,1.29,1.14,4.17,2.71,6.69,1.51h0Z"/>
      <path class="cls-6" d="M36.97,37.84c-.13-2.55-1.01-8.33-4-10.88.1-3.02-2.12-7.29-5.66-8.02-1.12-3.8-.42-6.81-.78-9.18-.88,1.23-1.13,2.48-1.42,3.71-.76-2.63.62-9.01-1.1-13.49-.15,3.72-1.48,7.54-2.95,9.74-.43-1.96-.22-2.91.25-5.27-2.39,4.79-4.04,10.07-2.6,14.57-3.54.73-5.62,5.29-5.52,8.3-2.99,2.55-3.87,7.9-4,10.45,8.3,3.92,17.92,4.36,27.79.04h0Z"/>
      <path class="cls-1" d="M15.5,25.43c-1.46.06-2.23,3.47-.03,3.5,1.79.02,1.66-3.56.03-3.5h0Z"/>
      <path class="cls-7" d="M26.3,28.09c-.54-1.67-2.13-1.72-3.15-.09-1.02-1.67-2.62-1.62-3.15.05-.38,1.18-.45,2.63.42,3.07,1.36-.82,4.38-.77,5.42-.04.88-.49.84-1.8.46-2.98h0Z"/>
      <path class="cls-3" d="M25.89,31.02c-.04.97-.07,5.68-2.74,5.84-2.67-.2-2.74-4.81-2.77-5.78l5.51-.06Z"/>
      <path class="cls-1" d="M30.8,25.34c1.45.06,2.23,3.47.03,3.5-1.79.02-1.66-3.56-.03-3.5h0Z"/>
      <path class="cls-8" d="M12.65,27.88c1.15,3.28.35,7.85-3.45,9.11.13-3.64,1.48-7.25,3.45-9.11h0Z"/>
      <path class="cls-8" d="M33.42,27.39c-1.15,3.28-.35,7.84,3.45,9.11-.13-3.65-1.48-7.26-3.45-9.11h0Z"/>
      <path class="cls-2" d="M25.91,31.09c-.23,2.53-2.15,3.34-2.76,6.59-.52-3.2-2.53-4.11-2.76-6.64.59-.69,1.74-1.38,2.76-1.36,1.02.02,2.17.32,2.76,1.4h0Z"/>
      <path class="cls-4" d="M10.47,86.81c-2.13.81-6.91,2.95-4.03,5.5.19-2.96,4.99-2.44,6.45-4.32-.68,2.29-.26,4.32,2.12,5.57-1.28-2.32-.63-4.23.7-4.98-1.2-1.9-3.21-2.54-5.24-1.77h0Z"/>
      <path class="cls-4" d="M35.79,87.16c2.13.81,6.69,2.51,3.82,5.07-.19-2.96-4.63-2.22-6.09-4.1.68,2.29-.1,4.11-2.48,5.35,1.28-2.32,1.21-4.01-.13-4.77.34-2.33,2.86-2.32,4.89-1.55h0Z"/>
    </g>
  </g>
</svg>