<?xml version="1.0" encoding="UTF-8"?>
<svg id="Layer_2" data-name="Layer 2" xmlns="http://www.w3.org/2000/svg" viewBox="0 0 101.59 152.92">
  <defs>
    <style>
      .cls-1 {
        fill: #faa557;
      }

      .cls-1, .cls-2, .cls-3, .cls-4, .cls-5, .cls-6, .cls-7 {
        stroke-width: 0px;
      }

      .cls-2 {
        fill: #2b1100;
      }

      .cls-3 {
        fill: #ff8c1c;
      }

      .cls-4 {
        fill: #e3af59;
      }

      .cls-5 {
        fill: #ffd289;
      }

      .cls-6 {
        fill: #f0f;
      }

      .cls-7 {
        fill: #ffd5d5;
      }
    </style>
  </defs>
  <g id="Layer_1-2" data-name="Layer 1">
    <g>
      <path class="cls-4" d="M17.87,151.15c-13.39,4.1-22.69-13.87-15.19-32.63-.21-8.64-2.1-18.53,6.45-32.25,24.92-16.93,61.38-8.03,83.37-.88,8.59,13.56,6.7,23.45,6.49,32.09,7.5,18.76-2.02,37.78-17.4,33.96-5.27,2.48-10.34,0-13.17-.63-5.44,1.88-33.39,2.38-36.26.15-4.71,2.35-8.74,2.54-14.27.18h0Z"/>
      <path class="cls-5" d="M33.64,149.68c-3.79,3.3-7.1,3.91-14.34,2.59-4.53-.82-4.62-10.81-.71-13.35-11.62-23.1-16.35-52.32-.24-78.1-8.75-11.2-7.22-30.88.43-42.45,1.55-6.69.86-11.76,4.37-18.38,6.78,3.67,11.37,8.87,14.3,13.74,7.54-2.7,16.61-2.94,26.12-.33,3.95-5.09,7.83-10.05,13.64-13.15,5.04,6.48,5.21,12.37,5.52,18.8,7.98,13.32,7.36,33.43.33,42.48,16.11,25.78,11.38,55-.24,78.1,3.91,2.53,1.97,11.57-2.29,12.33-5.43.97-8.97,1.72-12.76-1.58-11.2-9.75.9-40.58-17.06-40.97-17.96-.39-5.86,30.51-17.06,40.27h0Z"/>
      <path class="cls-3" d="M38.52,40.88c6.14-.45,6.57-11.92-1.64-11.21-7.53.65-7.45,11.87,1.64,11.21h0Z"/>
      <path class="cls-2" d="M36.99,32.02c-3.56.35-4.05,6.41.8,6.05,4.21-.31,2.87-6.42-.8-6.05h0Z"/>
      <path class="cls-3" d="M65.09,40.57c-6.14-.45-6.57-11.92,1.65-11.21,7.53.65,7.45,11.87-1.65,11.21h0Z"/>
      <path class="cls-2" d="M66.62,31.71c3.57.36,4.05,6.41-.8,6.06-4.21-.31-2.87-6.43.8-6.06h0Z"/>
      <path class="cls-1" d="M40.32,17.98c-2.88,3.23-1.89,6.65,0,9.81,1.9-3.48,2.73-6.94,0-9.81h0Z"/>
      <path class="cls-1" d="M42.98,18.35c.16,3.39,4.41,6.83,7.12,8.46,0-3.95-2.95-8.42-7.12-8.46h0Z"/>
      <path class="cls-1" d="M27.13,31.84c-4.85-1.13-7.96,6.03-12.85,8.12,8.25,2.7,9.05-3.37,12.85-8.12h0Z"/>
      <path class="cls-1" d="M17.66,44.36c1.98,5.66,7.16,8.84,13.53,7.78-2.79-4.58-9.98-3.34-13.53-7.78h0Z"/>
      <path class="cls-1" d="M12.71,71.88c4.21,3.23,18.23-.95,26.26-.46-6.58-3.95-21.36-.99-23.09-6.14-.94,1.53-2.25,4.2-3.17,6.6h0Z"/>
      <path class="cls-1" d="M9.2,84.27c1.08,2.75,9.23,2.78,14.21,4.44-5.4,3.42-9.27,4.33-15.23,3.34-.07-2.03.23-5.23,1.02-7.78h0Z"/>
      <path class="cls-1" d="M32.54,99.49c-8.13-1.68-8.92,5.18-19.62,5.07,8.44,6.26,16.17-.77,19.62-5.07h0Z"/>
      <path class="cls-1" d="M9.54,113.7c3.55,2.02,8.34,2.46,13.87,3.38-4.45,1.54-7.82,3.2-12.59,1.87-.52-1.45-.88-3.08-1.27-5.25h0Z"/>
      <path class="cls-1" d="M39.99,123.59c-6.66-2.79-12.55,3.93-16.92,4.66,7.02,2.74,12.06-2.23,16.42.92,0-1.14.34-3.89.5-5.57h0Z"/>
      <path class="cls-1" d="M62.12,18.05c2.88,3.23,1.89,6.65,0,9.81-1.9-3.48-2.73-6.95,0-9.81h0Z"/>
      <path class="cls-1" d="M59.46,18.43c-.15,3.39-4.41,6.83-7.11,8.46,0-3.95,2.95-8.42,7.11-8.46h0Z"/>
      <path class="cls-1" d="M74.41,32.82c4.84-1.13,7.96,6.03,12.85,8.12-8.25,2.7-9.06-3.37-12.85-8.12h0Z"/>
      <path class="cls-1" d="M83.88,45.33c-1.98,5.66-7.16,8.84-13.53,7.78,2.79-4.58,9.98-3.34,13.53-7.78h0Z"/>
      <path class="cls-1" d="M88.83,72.86c-4.21,3.23-18.23-.95-26.26-.47,6.59-3.95,21.37-.99,23.09-6.13.95,1.52,2.25,4.19,3.17,6.6h0Z"/>
      <path class="cls-1" d="M92.33,85.25c-1.08,2.75-15,1.37-19.99,3.03,5.4,3.42,15.05,5.74,21.01,4.75.07-2.02-.23-5.23-1.02-7.78h0Z"/>
      <path class="cls-1" d="M68.99,100.47c8.14-1.68,8.92,5.19,19.62,5.07-8.44,6.26-16.17-.77-19.62-5.07h0Z"/>
      <path class="cls-1" d="M91.99,113.13c-3.55,2.01-8.33,2.46-13.87,3.38,4.45,1.53,7.82,3.19,12.6,1.86.51-1.44.88-3.09,1.27-5.25h0Z"/>
      <path class="cls-1" d="M61.54,126.23c6.66-2.79,12.55,3.92,16.93,4.65-7.02,2.73-12.06-2.23-16.42.92,0-1.14-.34-3.89-.5-5.57h0Z"/>
      <path class="cls-7" d="M71.09,8.39c.82-1.92,5.19-6.13,6-5.76,1.75.82,3.22,8.01,2.88,9.9-.64,1.3-2.06,3.04-2.99,4.75-2.3-.99-4.66-1.86-7.12-2.81.48-1.75.73-4.52,1.24-6.08h0Z"/>
      <path class="cls-7" d="M30.31,8.02c-.93-1.88-5.54-5.82-6.32-5.4-1.71.92-2.76,8.18-2.3,10.04.71,1.26,2.23,2.92,3.26,4.57,2.24-1.12,4.55-2.13,6.95-3.22-.59-1.72-1-4.47-1.59-5.99h0Z"/>
      <path class="cls-2" d="M51.8,40.91c-.32.01-.6.33-.57.65.05,1.12.03,3.02.07,4.32.02.31.31.59.62.57.32-.01.59-.31.58-.62-.05-1.24-.03-3.14-.08-4.32,0-.32-.3-.61-.63-.6h0Z"/>
      <path class="cls-2" d="M51.88,45.11c-.19.05-.36.19-.43.38-.32.82-.9,2.01-1.68,3.05-.78,1.04-1.76,1.91-2.85,2.23-.32.06-.56.43-.46.75.09.32.48.51.79.39,1.46-.42,2.6-1.51,3.47-2.68.61-.81.92-1.55,1.28-2.3.35.77.66,1.55,1.27,2.38.87,1.17,2.01,2.25,3.48,2.67.31.12.7-.07.79-.39.09-.32-.14-.69-.47-.75-1.09-.31-2.07-1.2-2.85-2.25-.78-1.05-1.35-2.25-1.68-3.1-.1-.26-.4-.42-.67-.38h0Z"/>
      <path class="cls-6" d="M49.24,38.47c1.36-.55,3.58-.47,5.36-.14-.9,1.1-1.56,2.09-2.41,3.16-1.13-.8-2.13-1.67-2.94-3.03h0Z"/>
      <path class="cls-2" d="M48.88,37.97c-.39.03-.66.53-.48.87.55,1.09,1.77,2.67,3.27,3.27.16.07.35.05.5-.02,1.47-.75,2.4-2.41,2.88-3.2.16-.27.07-.66-.2-.82-.27-.16-.66-.07-.82.2-.44.72-1.27,1.93-2.15,2.52-.93-.51-2.05-1.74-2.43-2.47-.1-.22-.34-.36-.57-.35h0Z"/>
    </g>
  </g>
</svg>