<?xml version="1.0" encoding="UTF-8"?>
<svg id="Layer_2" data-name="Layer 2" xmlns="http://www.w3.org/2000/svg" viewBox="0 0 57.1 119.69">
  <defs>
    <style>
      .cls-1 {
        fill: #4c4c4c;
      }

      .cls-1, .cls-2, .cls-3, .cls-4 {
        stroke-width: 0px;
      }

      .cls-2 {
        fill: #888;
      }

      .cls-3 {
        fill: #bebebe;
      }

      .cls-4 {
        fill: #303030;
      }
    </style>
  </defs>
  <g id="Layer_1-2" data-name="Layer 1">
    <g>
      <path class="cls-3" d="M49.24,117.94c12.17-6.13,7.88-36.68,2.62-43.24,1.69-17.52-6.31-27.09-4.38-32.66,2.8-8.07,6.45-12.12.16-24.99,1.18-2.39,1.85-15.5-1.37-16.9-3.48-1.51-9.99,9.07-11.48,11.65-.73.35-2.33-.46-5.57-.48-3.25-.02-4.93,1.21-5.82.86-.94-2.58-8.12-13.4-11.49-11.65-3.41,1.78-2.18,14.14-1.37,16.9-6.28,12.88-2.64,16.92.16,24.99,1.93,5.57-6.07,14.82-4.28,32.39-5.53,6.43-11.12,36.9,1.05,43.03,3.25,1.64,5.36,1.8,7.94,1.84,11.08.01,15.08-.04,23.37-.29,4.46.04,7.21.18,10.46-1.46h0Z"/>
      <path class="cls-1" d="M23.39,12.19c.56,18.41,1.96,32.56-11.62,33.49,16.57.65,14.18-11.66,13.93-33.89-.5.14-1.75.5-2.31.4h0Z"/>
      <path class="cls-1" d="M26.66,11.57c-.04,6.24.44,25.38,1.22,33.13,1.16-8.34.62-28.32.75-33.39-.47-.04-1.42.11-1.97.25h0Z"/>
      <path class="cls-1" d="M34.74,11.77c-.56,18.41-2.38,32.53,11.07,33.46-16.43.65-13.58-11.44-13.33-33.68.8.23,1.73.35,2.26.22h0Z"/>
      <path class="cls-1" d="M31.75,11.48c.04,6.24-.68,25.61-1.46,33.37-1.16-8.34-.34-28.46-.48-33.53.66.02,1.45.02,1.94.16h0Z"/>
      <path class="cls-1" d="M29.07,47.6c-.58,11.34-3.8,49.19.2,67.73,4.04-18.02.46-56.39-.2-67.73h0Z"/>
      <path class="cls-1" d="M26.58,61.72c-14.28,5.93-14.06,47.96-1.06,54.88-1.42-9.44-3.51-47.01,1.06-54.88h0Z"/>
      <path class="cls-1" d="M31.06,61.52c13.95,5.93,14.85,47.96,2.16,54.88,1.38-9.44,2.31-47.01-2.16-54.88h0Z"/>
      <path class="cls-1" d="M28.37,59.28c-7.64-3.82-19.33,5.47-22.26,8.79,0-1.36.1-2.05.16-3.06,4.6-7.29,14-15.28,22.1-12.58.24,1.98.16,5,0,6.86h0Z"/>
      <path class="cls-1" d="M29.82,59.18c7.64-3.82,19.33,5.47,22.26,8.79,0-1.36-.1-2.05-.16-3.06-4.6-7.29-14-15.28-22.1-12.58-.18,2.32.27,4.57,0,6.86h0Z"/>
      <path class="cls-1" d="M10.55,47.48c6.19,2.58,1.38,11.1-3.55,11.93.91-4.69,2.41-8.51,3.55-11.93h0Z"/>
      <path class="cls-1" d="M3.96,114.95c6.8-10.68,4.97-23.85-1.92-30.54.63-2.26,1.26-4.29,2.34-6.18,10.19,6.23,13.84,31.57,3.41,39.91-1.54-.95-3.08-1.82-3.83-3.2h0Z"/>
      <path class="cls-1" d="M.88,90.63c1.21-.38,5.27,10.14,2.57,11.87-1.29.83-1.73-1.92-3.28-2.16-.45-2.45.11-5.96.71-9.71h0Z"/>
      <path class="cls-1" d="M47.81,47.97c-6.19,2.58-1.38,11.11,3.55,11.93-.91-4.69-2.41-8.51-3.55-11.93h0Z"/>
      <path class="cls-1" d="M54.09,113.22c-6.81-10.68-5.08-21.62,1.8-28.32-.62-2.26-1.12-4.14-1.92-6.17-10.19,6.23-13.5,29.75-3.07,38.1.98-.56,2.57-2.66,3.18-3.61h0Z"/>
      <path class="cls-4" d="M26.17,107.95c13.84-8,8.66-24.36,3.27-38.7-5.84-15.55-5.52-27.84-1.09-27.26,6.09.8,5.08,12.66,10.35,25.62,7.66,18.82,12.49,32.5-1.63,47.43-6.17,3.17-11.87.26-10.9-7.09h0Z"/>
      <path class="cls-2" d="M32.67,101.73c2.01,2.7,6.56,5.16,9.9,5.96,1.01-1.27,1.92-3.5,2.17-4.77-4.89-.95-8.37-3.07-10.73-4.28-.42,1.16-.93,2.49-1.34,3.09h0Z"/>
      <path class="cls-2" d="M33.45,81.25c2.27.87,6.53.68,9.75-1.9-.39-1.22-1.2-3.34-1.62-4.63-2.57,2.21-4.96,2.73-9.19,2.95.29,1.28.63,2.39,1.05,3.58h0Z"/>
      <path class="cls-2" d="M29.8,70.23c2.36.72,6.79.48,9.05-2.31-.87-2.21-1.48-4.58-2.11-5.97-1.67,2.12-5.45,3.16-8.7,3.09.47,1.66,1.35,3.88,1.75,5.19h0Z"/>
      <path class="cls-2" d="M34.92,89.6c1.56.67,5.88,1.19,10.73-.42.21.75.42,2.84.35,4.14-3.2,2.38-8.87,1.91-11.01.28-.06-.88,0-2.36-.07-4h0Z"/>
    </g>
  </g>
</svg>