<?xml version="1.0" encoding="UTF-8"?>
<svg id="Layer_2" data-name="Layer 2" xmlns="http://www.w3.org/2000/svg" viewBox="0 0 101.73 152.73">
  <defs>
    <style>
      .cls-1 {
        fill: #faa557;
      }

      .cls-1, .cls-2, .cls-3, .cls-4 {
        stroke-width: 0px;
      }

      .cls-2 {
        fill: #ee913b;
      }

      .cls-3 {
        fill: #ffd289;
      }

      .cls-4 {
        fill: #ffb771;
      }
    </style>
  </defs>
  <g id="Layer_1-2" data-name="Layer 1">
    <g>
      <path class="cls-3" d="M2.61,117.48c-.21-8.64-2.1-18.53,6.66-32.68,1.73-8.17,4.63-15.86,9.26-23.26-7.03-9.05-7.65-29.16.33-42.48.3-6.43.47-12.32,5.52-18.8,5.81,3.1,9.69,8.06,13.64,13.16,9.51-2.61,18.58-2.37,26.12.32,2.94-4.87,7.53-10.07,14.3-13.73,3.51,6.62,2.82,11.68,4.37,18.38,7.65,11.57,9.18,31.25.43,42.45,5.15,8.25,8.17,16.84,9.37,25.46,8.4,13.7,6.51,23.59,6.3,32.23,7.5,18.76-.92,36.88-14.19,32.83-2.69,1.84-58.1,1.85-64.34,0-15.75,3.91-25.27-15.1-17.77-33.86h0Z"/>
      <path class="cls-1" d="M44.6,62.23c-5.02,14.77-4.55,70.37.21,86.5,3.77-15.59,3.94-72.59-.21-86.5h0Z"/>
      <path class="cls-1" d="M32.12,72.69c-5.89-2.96-13.54-1.51-17.73,5.07,7.48,3.71,15.24,1.4,17.73-5.07h0Z"/>
      <path class="cls-1" d="M30.26,88.72c-5.92-3.31-17.59-.75-21.2,5.25,5.24,4.09,17.35,1.8,21.2-5.25h0Z"/>
      <path class="cls-1" d="M31.67,103.47c-6.71-2.95-18.39.52-25.96,7.6,9.97,1.98,20.96-.03,25.96-7.6h0Z"/>
      <path class="cls-1" d="M31.67,122.34c-7.11-4.11-18.37-4.1-25.96,3.8,9.97,3.5,20.04,2.16,25.96-3.8h0Z"/>
      <path class="cls-1" d="M34.7,136.21c-5.91-2.39-20.49.96-24.87,8.25,9.61,1.96,20.7-.41,24.87-8.25h0Z"/>
      <path class="cls-1" d="M36.99,80.12c-2.21-1.99-6.42-1.68-6.74,3.12,3.74,3.53,7.39.89,6.74-3.12h0Z"/>
      <path class="cls-1" d="M36.8,110.88c-3.24-1.2-6.65-1.14-9.44,3.41,4.98,1.63,8.52,0,9.44-3.41h0Z"/>
      <path class="cls-1" d="M37.93,93.32c.36,3.31-2.8,6.08-5.8,3.72-.04-3.26,2.65-4.68,5.8-3.72h0Z"/>
      <path class="cls-1" d="M37.51,126.65c-3.19-.63-5.08,1.66-4.13,4.24,2.72,1.87,6.13-.74,4.13-4.24h0Z"/>
      <path class="cls-1" d="M35.74,62.12c-2.91-.38-6.06,3.34-4.19,6.29,4.31.62,6.55-3.51,4.19-6.29h0Z"/>
      <path class="cls-1" d="M39.74,13.09c.05,10.83,1.74,39.53-9.78,43.15,11.77-.51,13.79-12.22,12.84-43.84-1,.06-2.06.4-3.06.69h0Z"/>
      <path class="cls-1" d="M45.07,12.02c-.14,7.02.27,31.13,1.53,43.06,1.68-12.92,2.94-33.78,2.31-43.51-1.12.03-2.65.15-3.84.46h0Z"/>
      <path class="cls-1" d="M61.71,13.11c-.05,10.82-1.84,39.33,9.68,42.96-11.77-.51-13.89-12.03-12.94-43.65,1.2-.04,2.35.39,3.26.69h0Z"/>
      <path class="cls-1" d="M56.28,11.85c.14,7.02-.27,31.13-1.54,43.05-1.68-12.92-2.94-33.68-2.31-43.41,1.02.02,2.65.05,3.84.36h0Z"/>
      <path class="cls-1" d="M55.58,62.06c5.01,14.77,4.55,70.38-.21,86.5-3.77-15.59-3.94-72.58.21-86.5h0Z"/>
      <path class="cls-1" d="M68.05,72.52c5.89-2.95,13.54-1.51,17.73,5.07-7.48,3.72-15.24,1.41-17.73-5.07h0Z"/>
      <path class="cls-1" d="M69.91,88.55c5.93-3.31,17.59-.75,21.2,5.26-5.25,4.08-17.35,1.8-21.2-5.26h0Z"/>
      <path class="cls-1" d="M68.51,103.3c6.71-2.95,18.39.52,25.96,7.6-9.97,1.98-20.96-.03-25.96-7.6h0Z"/>
      <path class="cls-1" d="M68.51,122.17c7.11-4.11,18.37-4.1,25.96,3.8-9.97,3.5-20.05,2.16-25.96-3.8h0Z"/>
      <path class="cls-1" d="M65.47,136.04c5.9-2.4,20.49.96,24.87,8.26-9.61,1.96-20.7-.41-24.87-8.26h0Z"/>
      <path class="cls-1" d="M63.19,79.95c2.21-1.99,6.42-1.68,6.74,3.13-3.74,3.52-7.39.89-6.74-3.13h0Z"/>
      <path class="cls-1" d="M63.37,110.71c3.24-1.21,6.65-1.15,9.44,3.4-4.98,1.63-8.52.01-9.44-3.4h0Z"/>
      <path class="cls-1" d="M62.24,93.15c-.36,3.31,2.8,6.09,5.8,3.72.04-3.26-2.64-4.67-5.8-3.72h0Z"/>
      <path class="cls-1" d="M62.67,126.48c3.19-.63,5.08,1.66,4.13,4.24-2.72,1.87-6.13-.74-4.13-4.24h0Z"/>
      <path class="cls-1" d="M64.43,61.95c2.91-.38,6.06,3.34,4.19,6.29-4.31.62-6.55-3.51-4.19-6.29h0Z"/>
      <path class="cls-4" d="M54.4,130.09c30.98-17.12-18.81-50.5,3.95-53.2,10.16-1.21,22.87,25.41,24.08,39.54,1.59,18.54-14.82,31.61-26.96,31.99-9.33-1.51-6.96-13.08-1.08-18.33h0Z"/>
      <path class="cls-2" d="M58.36,96.21c1.6-3.14,10.49-7.61,14.64-6.92-4.55-7.5-11.68-17.83-19.96-10.56-3.75,3.29,3.53,14.47,5.32,17.48h0Z"/>
      <path class="cls-2" d="M64.86,115.98c5.2-1.23,14.86-.57,17.64,1.66.12,3.9-.37,8.82-2.28,12-4.04-2.6-11.07-5.69-17.51-6.93.81-1.57,2.23-4.54,2.15-6.74h0Z"/>
      <path class="cls-2" d="M54.27,130.05c-4.26,2.73-10.19,16.81,1.05,18.39,6.2.1,10.91-2.87,14.26-5.25-5.88-3.17-11.2-11.02-9.96-16.86-2.56,2.04-3.61,2.66-5.35,3.72h0Z"/>
      <path class="cls-2" d="M64.29,109.68c3.23-2.9,12.36-4.55,15.93-3.8-.96-4.05-2.33-7.37-3.67-9.6-5.05.04-11.11,2.45-14.65,6.66.6,1.54,1.86,4.51,2.39,6.74h0Z"/>
    </g>
  </g>
</svg>