<?xml version="1.0" encoding="UTF-8"?>
<svg id="Layer_2" data-name="Layer 2" xmlns="http://www.w3.org/2000/svg" viewBox="0 0 56.88 120.79">
  <defs>
    <style>
      .cls-1 {
        fill: #f7f7f7;
      }

      .cls-1, .cls-2, .cls-3, .cls-4, .cls-5, .cls-6, .cls-7, .cls-8, .cls-9 {
        stroke-width: 0px;
      }

      .cls-2 {
        fill: #4c4c4c;
      }

      .cls-3 {
        fill: #777;
      }

      .cls-4 {
        fill: #2b1100;
      }

      .cls-5 {
        fill: #c54171;
      }

      .cls-6 {
        fill: #dfdfdf;
      }

      .cls-7 {
        fill: #bebebe;
      }

      .cls-8 {
        fill: #b2ee56;
      }

      .cls-9 {
        fill: #ffd5d5;
      }
    </style>
  </defs>
  <g id="Layer_1-2" data-name="Layer 1">
    <g>
      <path class="cls-3" d="M41.45,120.04c2.59-.04,4.93-.56,8.18-2.2,12.17-6.13,6.58-36.6.71-42.38-8.4-6.15-32.77-10.14-45.11-.54C-.01,81.26-4.31,111.81,7.86,117.94c3.25,1.64,6.23,2.44,9.19,2.1,3.73,1.3,5.93.4,7.38-.15,1.86.83,6.71.84,8.63.13,2.27.46,5.02.59,8.39.02h0Z"/>
      <path class="cls-7" d="M17.33,120.06c-3.22-1.36-2.29-6.25-.24-8.41-4.06-12.18-10.39-22.62-11.83-37.17-1.71-17.29,6.3-26.86,4.36-32.43-2.79-8.07-6.45-12.12-.16-24.99-1.18-2.39-1.85-15.5,1.38-16.91,3.48-1.51,9.99,9.07,11.48,11.65.73.35,2.33-.46,5.57-.48,3.24-.02,4.93,1.21,5.82.86.94-2.58,8.12-13.4,11.49-11.65,3.41,1.78,2.18,14.14,1.37,16.9,6.29,12.88,2.64,16.92-.16,24.99-1.93,5.57,6.07,14.82,4.37,32.11-1.43,14.55-5.89,25-9.95,37.18,1.41,2.16,2.34,7.27.19,8.2-3.83,1.66-8.8.62-10.12-.88-5.31-6.03,4.83-27.54,1.95-33.32-2.5,1.31-6.19.91-8.66-.03-1.98,6.54,7.48,26.99,2.91,32.66-1.62,2.02-5.91,3.35-9.76,1.72h0Z"/>
      <path class="cls-2" d="M22.72,16.12c-2.28.81-2.95,2.96-1.09,4.66.2-1.44,1.34-2.83,1.09-4.66h0Z"/>
      <path class="cls-2" d="M23.62,12.48c-1.58,6.21,2.04,3.57,2.25,8.55,1.79-5.93-1.32-4.04-2.25-8.55h0Z"/>
      <path class="cls-2" d="M33.07,16.01c2.27.8,2.95,2.96,1.08,4.65-.2-1.44-1.34-2.83-1.08-4.65h0Z"/>
      <path class="cls-2" d="M32.16,12.36c1.58,6.21-2.03,3.57-2.25,8.55-1.8-5.93,1.32-4.03,2.25-8.55h0Z"/>
      <path class="cls-2" d="M28.01,12.6c-1.34,2.35-1.25,5.76-.12,7.94,1.16-1.71,1.32-5.44.12-7.94h0Z"/>
      <path class="cls-2" d="M6.13,26.62c.43-1.32,5.09-3.46,8.45-3.2-5.1,1.22-6.36,4.19-8.56,6.64,0-1.13-.12-2.43.11-3.44h0Z"/>
      <path class="cls-2" d="M49.66,26.22c-.43-1.33-4.56-3.17-7.93-2.91,5.1,1.22,6.07,3.89,8.27,6.34,0-1.13-.12-2.43-.34-3.43h0Z"/>
      <path class="cls-6" d="M7.09,35.26c.24.47.37,1.04.54,1.46,6.64,3.1,15.78,6.91,20.61,6.82,4.83-.09,13.52-2.91,20.43-6.99.23-.6.42-1.08.58-1.59-9.46-3.47-16-6.35-21.22-6.39-5.22-.04-11.48,3.4-20.94,6.69h0Z"/>
      <path class="cls-2" d="M6.53,33.27c2.66-.1,7.46-1.07,12.03-2.42-3.2,1.88-5.96,3.97-11.4,4.59-.3-.71-.54-1.62-.63-2.17h0Z"/>
      <path class="cls-2" d="M49.62,33.16c-2.66-.1-6.99-1.12-11.85-2.42,2.96,2.12,5.84,3.86,11.28,4.48.3-.71.48-1.5.57-2.05h0Z"/>
      <path class="cls-1" d="M22.58,38.13c-2.88-5.2,2.02-8.34,5.29-8.3,3.27.04,8.79,2.7,6.46,7.97-2.52,5.35-9.32,5.66-11.75.33h0Z"/>
      <path class="cls-5" d="M26.46,29.97c1.07-.95,3.3-.28,3.55-.08-.35,2.54-2.41,2.35-3.55.08h0Z"/>
      <path class="cls-2" d="M7.39,36.24c4.73.48,13.14,6.72,19.65,7.24-6.5.78-14.63-3.34-18.67-4.75-.42-.64-.56-1.6-.98-2.48h0Z"/>
      <path class="cls-2" d="M48.83,36.15c-4.73.48-12.52,6.8-19.02,7.33,6.5.78,13.95-3.31,17.98-4.72.3-.52.75-1.6,1.04-2.61h0Z"/>
      <path class="cls-4" d="M26.12,29.55c-.34.05-.58.43-.49.75.37,1.45,1.41,2.31,2.51,2.3,1.1-.01,2.1-.91,2.39-2.3.1-.32-.12-.7-.45-.77-.32-.07-.68.2-.72.53-.2.99-.75,1.33-1.22,1.34-.48,0-1.06-.32-1.34-1.39-.07-.29-.38-.5-.68-.45h0Z"/>
      <path class="cls-4" d="M28.07,31.4c-.27.06-.48.32-.47.6l-.04,2.56c0,.32.28.61.59.61.32,0,.61-.28.61-.59l.02-2.58c.01-.36-.36-.67-.72-.6h0Z"/>
      <path class="cls-4" d="M28.07,34c-.25.04-.46.24-.51.49-.21,1.27-1.23,1.89-2.11,1.96-.44.04-.81-.07-1.02-.26-.21-.19-.33-.45-.24-1,.05-.31-.19-.64-.5-.69-.31-.05-.64.19-.69.5-.14.86.12,1.61.64,2.07.52.47,1.21.64,1.9.59.98-.07,2-.64,2.64-1.58.66.92,1.69,1.47,2.68,1.58.7.08,1.42-.04,1.96-.49.54-.46.78-1.24.62-2.11-.02-.34-.38-.62-.71-.55-.33.06-.56.46-.45.78.11.57-.03.79-.23.96-.2.17-.59.28-1.05.23-.93-.11-2.02-.81-2.26-2-.06-.29-.36-.51-.66-.47h0Z"/>
      <path class="cls-8" d="M33.05,25.58c-.68-5.69,7.12-6.05,7.76-1.3.64,4.8-7.25,5.62-7.76,1.3h0Z"/>
      <path class="cls-4" d="M36.99,26.82c3.18-.27,2.22-4.7-.46-4.33-2.68.37-2.72,4.59.46,4.33h0Z"/>
      <path class="cls-8" d="M23.09,25.74c.68-5.69-7.12-6.05-7.76-1.3-.64,4.8,7.25,5.62,7.76,1.3h0Z"/>
      <path class="cls-4" d="M19.15,26.98c-3.18-.27-2.22-4.7.46-4.33,2.68.37,2.72,4.59-.46,4.33h0Z"/>
      <path class="cls-2" d="M46.29,46.51c-4.14,4.79-11.08,6.13-18.21,5.16-7.14,1.12-14.13-.33-18.28-5.12,2.95-.15,9.76,2.91,18.28,2.84,8.51-.08,15.27-3.02,18.21-2.87h0Z"/>
      <path class="cls-2" d="M8.12,52.04c-.47,8.21,16.4,7,18.76,9.96-8.39,1.18-15.75-1.91-20.16-5.44.36-1.39,1.11-3.87,1.39-4.52h0Z"/>
      <path class="cls-2" d="M48.49,53.64c-.94.41-2.61.79-3.3,1.49-6.36,6.35-9.16,3.75-15.4,6.87,7.57,1.26,14.25-2.25,19.8-4.1-.3-1.06-.6-2.44-1.1-4.25h0Z"/>
      <path class="cls-2" d="M5.42,63.87c.58,3.67,15.99,1.81,17.04,7.18-5.42-3.87-14.42-2.38-17.43-.87,0-1.69-.16-4.13.39-6.31h0Z"/>
      <path class="cls-2" d="M14.47,81.49c-2.8-1.4-6.59-1.1-8.91-4.68.21,2.67.9,5.14,1.25,6.7,1.97-3.29,4.74-.11,7.66-2.02h0Z"/>
      <path class="cls-2" d="M23.91,88.85c-2.77-1.24-6.71,1.2-10.77,1.87,3.26.83,7.91-.16,11.36,2.32-.16-1.35-.46-3.13-.59-4.19h0Z"/>
      <path class="cls-2" d="M11.98,98.51c3.62-.8,8.09,1,10.73.11-1.43,2.43-7.3,2.98-9.25,3.63-.46-1.21-.93-2.3-1.49-3.74h0Z"/>
      <path class="cls-2" d="M50.87,66.34c-1.81-.06-3.57.53-6.26,1.16-2.27.54-6.58-.75-10.43,4.02,5.95-3.65,13.39-2.16,16.91-.19.05-2.13.07-3.9-.21-4.99h0Z"/>
      <path class="cls-2" d="M50.19,79.06c-2.87-.82-5.15-.04-8.48.26,3.52,1.8,1.7,1.6,4.95,3.23,1.89,2.14.23,1.7,2.64,2.1.36-1.66.69-3.8.89-5.59h0Z"/>
      <path class="cls-2" d="M33.3,87.95c.53.35,7.54,1.7,10.23,2.14-2.03,2.74-5.15.58-7.91,1.04-1,1.33-1.7,1.51-2.82,2.08.48-2.16.56-4.01.5-5.26h0Z"/>
      <path class="cls-2" d="M45.64,97.67c-1.43-1.33-7.66.75-10.23.33,2,1.36,4.85,1.22,6.45,2.29,1.23.56,1.72.49,2.88.3.41-1,.73-1.92.89-2.91h0Z"/>
      <path class="cls-2" d="M30.89,102.49c1.58-.79,4.41.79,6.39,2.38-2.17,1.11-5.2.87-6.89.03.15-.84.43-1.71.5-2.41h0Z"/>
      <path class="cls-9" d="M36.59,9.59c1.16-2.49,6.14-9.21,8.01-8.55,2.3,1.04,1.86,8.48,1.57,11.24-1.08.64-2.69,1.9-3.03,3.83-2.1-1.49-4.08-2.09-5.35-2.54.04-1.46-.59-2.99-1.2-3.97h0Z"/>
      <path class="cls-9" d="M19.31,9.6C18.16,7.11,13.18.39,11.31,1.05c-2.3,1.04-1.87,8.48-1.57,11.24,1.09.63,2.69,1.9,3.03,3.82,2.09-1.48,4.08-2.09,5.34-2.55-.04-1.46.59-2.99,1.2-3.97h0Z"/>
    </g>
  </g>
</svg>