<?xml version="1.0" encoding="UTF-8"?>
<svg id="Layer_2" data-name="Layer 2" xmlns="http://www.w3.org/2000/svg" viewBox="0 0 100.54 113.16">
  <defs>
    <style>
      .cls-1 {
        fill: #f9f9f9;
      }

      .cls-1, .cls-2, .cls-3, .cls-4, .cls-5 {
        stroke-width: 0px;
      }

      .cls-2 {
        fill: #713e00;
      }

      .cls-3 {
        fill: #c68335;
      }

      .cls-4 {
        fill: #a96f2b;
      }

      .cls-5 {
        fill: #946224;
      }
    </style>
  </defs>
  <g id="Layer_1-2" data-name="Layer 1">
    <g>
      <path class="cls-1" d="M37.32,6.47c-2.12-1.09-9.75,1.5-11.59,4.42,2.65-3.24,8.09-4.48,11.66-4.08.12-.27.1-.21-.07-.34h0Z"/>
      <path class="cls-1" d="M26.26,7.59c2.46-2.14,9.36-2.41,10.16-1.87.24-.29.27-.55-.13-.67-1.8-.38-8.51.59-10.03,2.54h0Z"/>
      <path class="cls-1" d="M37.91,7.65c-2.22-.32-7.4,1.52-8.77,4.26,1.8-2.89,6.48-4.06,8.77-3.77.32-.21.34-.38,0-.49h0Z"/>
      <path class="cls-1" d="M62.8,6.41c2.12-1.08,9.75,1.51,11.6,4.42-2.65-3.23-8.09-4.48-11.67-4.08-.12-.27-.1-.21.07-.34h0Z"/>
      <path class="cls-1" d="M73.85,7.54c-2.45-2.14-9.35-2.41-10.16-1.87-.24-.29-.27-.55.12-.67,1.8-.37,8.51.59,10.03,2.54h0Z"/>
      <path class="cls-1" d="M64,7.42c2.22-.32,7.4,1.52,8.77,4.26-1.81-2.89-6.48-4.06-8.77-3.77-.31-.21-.34-.38,0-.48h0Z"/>
      <path class="cls-3" d="M37.48,112.37c-3.07,0-5.22-.3-7.91-.17-1.75.58-4.16.29-6.1.54-4.04-.68-5.12-3.07-7.5-6.57.25,1.52.36,1.68,1.64,3.05-3.5-.58-5.66-2.08-6.1-5.63-2.33-1.16-3.34-3.41-3.75-6.33-.42,1.25-.99,2.17-.7,3.99-1.68-2.1-4.45-5.34-2.58-9.14-1.62-2.02-3.17-4.66-1.64-8.21-1.02.82-1.64,1.27-1.64,3.05-2.3-2.88-1.03-7.62,1.64-9.62-1.28-3.84-.48-7.94,2.82-10.55-.81.65-1.59.77-2.35,2.35-.84-5.04,1.88-8.46,5.63-10.79-.57.32-1.19-.09-1.64.94-.65-3.9,2.33-7.15,5.39-9.85-1.07.54-1.94.81-2.34,2.11-.68-4.07,1.22-7.26,5.16-7.97.5-3.04.99-5.82,4.22-7.74-1.23.62-1.38-1.12-2.34,1.18-.75-4.49,2.27-7.78,5.63-10.32-1.33.44-3.09,1.29-3.99,2.81-.84-5.04,2.71-9.38,7.5-10.32-2.1-.35-3.48.1-5.4,1.41,1.39-4.17,4.3-5.88,8.68-7.27,0-4,.43-9.62,3.05-12.9,2.81,2.25,7.15,5.08,8.57,8.7,2.64-1.32,4.99-.77,8.97.03,3.98-1.21,6.33-1.76,8.97-.44.79-2.74,5.51-6.45,8.32-8.7,2.62,3.28,3.05,8.9,3.05,12.9,4.38,1.39,7.29,3.1,8.68,7.27-1.91-1.3-3.29-1.76-5.4-1.41,4.79.93,8.34,5.28,7.5,10.32-.89-1.53-2.66-2.37-3.98-2.82,3.35,2.54,6.38,5.84,5.62,10.32-.96-2.3-1.11-.56-2.34-1.17,3.23,1.93,3.72,4.7,4.22,7.74,3.93.71,5.84,3.91,5.16,7.97-.41-1.31-1.28-1.57-2.35-2.11,3.07,2.7,6.05,5.95,5.4,9.85-.45-1.03-1.07-.61-1.64-.94,3.76,2.33,6.47,5.75,5.63,10.79-.76-1.57-1.53-1.7-2.35-2.34,3.3,2.61,4.09,6.71,2.82,10.55,2.68,1.99,3.94,6.73,1.64,9.61,0-1.78-.62-2.23-1.64-3.05,1.53,3.55-.03,6.19-1.64,8.21,1.87,3.81-.9,7.04-2.58,9.15.28-1.82-.28-2.73-.7-3.99-.41,2.92-1.42,5.17-3.75,6.33-.44,3.55-2.59,5.04-6.1,5.63,1.28-1.37,1.39-1.54,1.65-3.05-2.39,3.5-3.47,5.89-7.51,6.57-2.28.93-4.34,1.06-6.1.47-2.68-.13-4.67,0-7.74,0-4.89-.32-9.18,1.04-12.95-.5-3.77,1.94-7.9-.26-12.79.06h0Z"/>
      <path class="cls-5" d="M53.64,20.66c.2,1.18.37,2.49.9,3.6,1.94-3.87,2.23-13.83,1.57-16.34-1.65-.02-4.25.44-5.76,1.09-1.51-.44-4.92-.94-5.75-.67-.67,2.51-.37,12.26,1.57,16.13.53-1.12.7-2.42.9-3.6-.22,3.07,2.07,6.58,3.29,7.7,1.22-1.33,3.52-4.84,3.29-7.91h0Z"/>
      <path class="cls-5" d="M56.84,42.83c-.61-1.65-.89-2.39-.8-3.25,2.36,2.95,5.18,3.77,8.55,5.05-.94-1.12-2.21-2.83-2.07-3.91,2.74,2.74,8.76,4.51,12.28,5.65-1.58-1.36-1.62-1.81-2.54-2.89,3.4.82,6.33,2.27,10.88,2.65-.89-1.12-2.15-2.03-5.46-3.64,1.22-.17.26-.68,3.53-1.06-5.64-1.18-10.61-1.72-13.79-3.45,1.06-.05,1.93-.77,4.66-2.23-3.57.6-9.82-.37-13.53-1,1.65-.48,2.1-.82,3.19-1.82-4.68,0-10.73-2.04-10.83-2.82-.09.77-6.15,2.8-10.82,2.8,1.09,1,1.53,1.34,3.18,1.82-3.7.62-9.95,1.59-13.52,1,2.73,1.47,3.59,2.18,4.66,2.23-3.17,1.74-8.15,2.28-13.78,3.45,3.27.38,2.32.89,3.53,1.06-3.31,1.62-4.57,2.53-5.46,3.64,4.55-.37,7.49-1.83,10.88-2.64-.92,1.08-.97,1.53-2.54,2.89,3.52-1.13,9.53-2.9,12.27-5.65.14,1.08-1.13,2.8-2.07,3.92,3.38-1.29,6.2-2.1,8.56-5.06.09.85-.19,1.6-.8,3.25,1.83-1.12,4.77-1.77,5.93-3.09,1.16,1.33,4.1,1.98,5.93,3.11h0Z"/>
      <path class="cls-5" d="M25.14,84.75c1.11-.83,2.45-1.32,3.65-.67-3.85-3.2-7.08-3.85-10.88-4.56,1.25-.91,2.6-1.22,3.65-.79-6.53-2.98-8.11-1.7-12.62-.47.98-1.59,1.79-2.12,2.45-2.59-2.47.41-2.82-.97-6.4,1.26,2.53-2.87,6.05-3.95,13.11-2.27-.66-.97-1.05-1.52-1.98-2.31,6.51,1.66,8.93,4.76,13.07,8.1-.62-.5-1.97-2.57-2.46-3.8,6.1,2.06,13.16,11.07,12,14.27-4.46-2.78-10.01-5.56-13.61-6.16h0Z"/>
      <path class="cls-5" d="M73.13,85.63c-1.11-.83-2.45-1.32-3.65-.67,3.85-3.2,7.08-3.85,10.88-4.55-1.25-.91-2.6-1.22-3.65-.79,6.53-2.98,8.1-1.7,12.62-.48-.98-1.59-1.79-2.12-2.45-2.59,2.47.41,2.82-.96,6.39,1.26-2.53-2.87-6.05-3.95-13.1-2.27.66-.97,1.05-1.52,1.97-2.31-6.51,1.66-8.93,4.76-13.07,8.1.61-.5,1.97-2.57,2.46-3.8-6.1,2.06-13.16,11.08-12,14.27,4.45-2.78,10.01-5.56,13.6-6.16h0Z"/>
      <path class="cls-4" d="M57.51,99.84c-9.84-6.18,8.98-15.42,5.41-22.55-.51,1.83-1.71,1.5-2.41,2.11,4.54-4.79,3.97-13.24.6-17.44-.2,2.25-.59,3-1.8,4.51,2.06-6.46,0-14.94-6.02-15.94l.3,1.5c-2.03-5.53-4.76-7.36-9.32-8.12,1.76.97.65,1.14,1.2,2.11-3.32-3.55-6.28-7.79-11.13-3.91,1.68.32,2.14.8,3.01,1.5-5.48-1.13-9.82.56-10.52,4.81,1.87-2.08,2.21-.97,3.31-.6-4.45,1.16-6.28,3.99-6.62,6.01,2.44-1.6,2.42-.13,3.01.6-2.26-.88-3.26.2-4.51,1.2,4.11-.06,5.62,1.01,6.92,3.61-.8-.09-1.61.2-2.41.3,1.6,2.42,2.48,4.54,3.91,6.32-1.97-1.04-3.4-.9-5.11-.9,2.37,2,3.08,4.17,4.51,6.32-2.13-1.49-2.59-1.52-4.51-1.2,2.27,1.42,2.6,5.96,2.71,6.61-1.63-.25-1.51-1.5-2.11-2.11-.27,3.92-.14,7.41.9,10.53-2.12.2-1.6-.49-2.11-1.5-1.86,7.82,2.33,9.08,5.41,12.93-1.61-.49-1.63-.41-2.41-.6,1.58,3.31,3.61,4.06,6.31,5.41-1.32.28-1.23.35-2.1.6,2.79,1.99,5.63,2.08,8.42,3.01-1.17.67-1.49.85-2.11,1.2,3.61,1.99,7.25,2.84,10.53,1.2,1.52,1.09,2.5-.23,3.3-.3,3.86-.78,4.78-3.38,5.41-7.22h0Z"/>
      <path class="cls-2" d="M26.54,59.54c.8-.1,1.6-.39,2.41-.3-1.3-2.6-2.81-3.67-6.92-3.61,1.25-1,2.25-2.08,4.51-1.2-.59-.73-.57-2.2-3.01-.6.34-2.02,2.17-4.85,6.62-6.01-1.1-.37-1.44-1.48-3.31.6.71-4.25,5.05-5.94,10.52-4.81-.87-.7-1.33-1.19-3.01-1.5,4.85-3.88,7.81.36,11.13,3.91-.55-.97.56-1.14-1.2-2.11,5.3.16,8.02,4.28,9.34,8.06-.84.14-2.12-1.11-2.88-.98.88.42,1.09,1.59,1.12,1.77-1.32-.48-2.86.15-3.86.48.89.24,1.2,1.27,1.29,1.44-2.03.53-4.51.64-6.26.64.12,1.27-.05,2.5-.48,3.38-1.23-1.38-2.27-2.7-4.01-2.41.95,1.38.35,2.63,0,3.69-.93-1.02-2.25-1.63-3.05-1.77.11,1.62-.42,2.44-.97,3.54-.99-.57-1.46-.89-2.25-1.29.07.91-.45,1.16-.81,1.61-2.32-.29-3.41-1-4.93-2.53h0Z"/>
    </g>
  </g>
</svg>