<?xml version="1.0" encoding="UTF-8"?>
<svg id="Layer_2" data-name="Layer 2" xmlns="http://www.w3.org/2000/svg" viewBox="0 0 100.54 113.35">
  <defs>
    <style>
      .cls-1 {
        fill: #f4cb9d;
      }

      .cls-1, .cls-2, .cls-3, .cls-4, .cls-5, .cls-6, .cls-7, .cls-8, .cls-9, .cls-10, .cls-11 {
        stroke-width: 0px;
      }

      .cls-2 {
        fill: #f9f9f9;
      }

      .cls-3 {
        fill: #2b1100;
      }

      .cls-4 {
        fill: #713e00;
      }

      .cls-5 {
        fill: #c54171;
      }

      .cls-6 {
        fill: #ca9c66;
      }

      .cls-7 {
        fill: #c68335;
      }

      .cls-8 {
        fill: #97c14d;
      }

      .cls-9 {
        fill: #946224;
      }

      .cls-10 {
        fill: #e7ac68;
      }

      .cls-11 {
        fill: #ffd5d5;
      }
    </style>
  </defs>
  <g id="Layer_1-2" data-name="Layer 1">
    <g>
      <path class="cls-7" d="M63.06,112.37c3.07,0,5.22-.3,7.91-.17,1.75.58,4.15.29,6.1.54,4.04-.68,5.12-3.07,7.5-6.57-.25,1.52-.37,1.68-1.64,3.05,3.5-.58,5.66-2.08,6.1-5.63,2.33-1.16,3.34-3.41,3.75-6.33.42,1.25.99,2.16.7,3.99,1.68-2.11,4.45-5.34,2.58-9.15,1.61-2.02,3.17-4.66,1.64-8.21,1.02.82,1.64,1.27,1.64,3.05,2.3-2.88,1.04-7.62-1.64-9.62,1.28-3.84.48-7.94-2.82-10.55.82.65,1.59.77,2.35,2.35.84-5.04-1.87-8.46-5.63-10.79.57.32,1.19-.09,1.64.94.65-3.9-2.33-7.15-5.4-9.85,1.07.54,1.94.8,2.35,2.11.68-4.07-1.23-7.27-5.16-7.98-.51-3.04-.99-5.81-4.22-7.74,1.23.62,1.38-1.12,2.35,1.17.75-4.48-2.27-7.78-5.63-10.32,1.33.44,3.09,1.28,3.98,2.81.84-5.04-2.72-9.38-7.5-10.32,2.11-.35,3.49.11,5.4,1.41-1.39-4.17-4.3-5.88-8.68-7.27,0-4-.43-9.62-3.05-12.9-2.81,2.25-7.14,5.08-8.57,8.7-2.64-1.32-4.99-.77-8.97.03-3.98-1.21-6.33-1.76-8.97-.44-.8-2.74-5.51-6.45-8.32-8.7-2.62,3.28-3.05,8.89-3.05,12.9-4.38,1.39-7.29,3.1-8.68,7.27,1.91-1.3,3.29-1.76,5.39-1.41-4.79.93-8.34,5.28-7.5,10.32.9-1.53,2.66-2.37,3.99-2.81-3.36,2.54-6.38,5.84-5.63,10.32.96-2.3,1.11-.56,2.34-1.17-3.23,1.93-3.71,4.7-4.22,7.74-3.94.71-5.84,3.91-5.16,7.97.41-1.3,1.27-1.57,2.34-2.11-3.07,2.7-6.04,5.95-5.39,9.85.45-1.03,1.07-.61,1.64-.94-3.75,2.33-6.47,5.75-5.62,10.79.75-1.57,1.53-1.7,2.34-2.34-3.29,2.61-4.09,6.71-2.82,10.55-2.68,2-3.94,6.74-1.64,9.62,0-1.78.62-2.23,1.64-3.05-1.53,3.55.03,6.19,1.64,8.21-1.87,3.81.9,7.04,2.58,9.14-.28-1.82.28-2.73.7-3.98.42,2.92,1.42,5.16,3.75,6.33.44,3.55,2.59,5.04,6.1,5.63-1.28-1.37-1.39-1.54-1.64-3.05,2.38,3.5,3.46,5.89,7.5,6.57,2.28.93,4.35,1.06,6.1.47,2.68-.13,4.67,0,7.74,0,4.89-.32,9.19,1.04,12.96-.5,3.77,1.94,7.9-.26,12.79.07h0Z"/>
      <path class="cls-6" d="M37.94,80.99c-13.86-1.51-15.45,6.17-19.57,15.32.82-1.63.98-2.68,3.5-3.5-1.84,3.69-3.08,6.47-.44,10.94.09-.24-.77-2.62,1.31-3.5-1.08,3.25,1.71,11.82,3.57,12.94,2.67-.27,4.37-.44,6.25-.13,3.42-.41,7.77.38,10.75-.12,1.86.88,6.19.06,6.58.11.39.17,8.5-.1,10.36-.98,2.99.5,2.84.14,6.25.54,1.88-.31,3.83-.43,6.25-.16,1.85-1.12,5.37-8.73,4.29-11.98,2.08.87,1.22,3.26,1.31,3.5,2.65-4.47,1.41-7.25-.44-10.94,2.52.82,2.69,1.87,3.5,3.5-4.12-9.15-4.32-17.59-19.82-15.32-4.62-3.18-8.45-1.03-11.83.77-3.38-2.01-7.21-4.16-11.83-.98h0Z"/>
      <path class="cls-7" d="M24.74,83.01c.41,6.65,6.79,12.93,7.85,19.86-2.84,2.96-2.62,9.49,1.31,9.89,3.83.39,8.72,1.28,10.95-1.55,7-8.87-4.04-28.88.97-31.96-6.15-3.86-16.41-2.01-21.09,3.76h0Z"/>
      <path class="cls-7" d="M75.57,83.45c-.41,6.65-5.81,11.95-6.87,18.88,2.84,2.96,2.61,9.49-1.31,9.89-3.83.39-8.71,1.28-10.95-1.55-7-8.88,3.05-27.9-1.96-30.97,5.86-3.06,17.38-.23,21.09,3.76h0Z"/>
      <path class="cls-4" d="M44,20.46c-1.9-2.34-2.2-5-1.76-7.8,1.64,2.16,2.69,4.87,1.76,7.8h0Z"/>
      <path class="cls-4" d="M48.15,20.84c1-6.66-5.66-7.25-1.7-11.13-6.46,3.4,1.74,6.08,1.7,11.13h0Z"/>
      <path class="cls-4" d="M49.79,9.89c-1.19,3.46-1.04,5.86,0,8.68,1.22-2.7.97-5.49,0-8.68h0Z"/>
      <path class="cls-4" d="M55.85,20.49c1.89-2.34,2.2-5,1.76-7.8-1.64,2.16-2.7,4.87-1.76,7.8h0Z"/>
      <path class="cls-4" d="M51.7,20.87c-.99-6.66,5.66-7.25,1.7-11.13,6.46,3.4-1.74,6.08-1.7,11.13h0Z"/>
      <path class="cls-9" d="M23.37,29.89c5.39,1.11,6.83-7.7,10.82-6.41-4.65-2.43-7.9,6.41-10.82,6.41h0Z"/>
      <path class="cls-9" d="M38.09,29.77c-3.06,3.71-9.47,3.43-13.46,1.82,5.42.02,9.87-.04,13.46-1.82h0Z"/>
      <path class="cls-9" d="M78.03,30.27c-5.39,1.11-6.83-7.7-10.82-6.41,4.65-2.44,7.9,6.41,10.82,6.41h0Z"/>
      <path class="cls-9" d="M63.31,30.14c3.06,3.71,9.48,3.43,13.46,1.82-5.42.02-9.87-.03-13.46-1.82h0Z"/>
      <path class="cls-11" d="M69.03,12.16c0-1.33.32-.6.38-1.76.56-3.38-1.46-5.24-1.76-8.43-1.3,1.04-6.76,5.48-6.92,7.42,2.2-.62,3.59.96,4.91,2.01,1.33.3,2.02.75,3.4.75h0Z"/>
      <path class="cls-11" d="M31.28,11.72c0-1.33-.32-.6-.38-1.76-.57-3.38,1.46-5.24,1.76-8.43,1.31,1.05,6.77,5.48,6.92,7.42-2.2-.62-3.59.96-4.9,2.01-1.33.3-2.02.75-3.4.75h0Z"/>
      <path class="cls-2" d="M63.04,6.92c2.12-1.08,9.75,1.51,11.6,4.42-2.65-3.23-8.09-4.48-11.66-4.08-.12-.27-.1-.21.07-.34h0Z"/>
      <path class="cls-2" d="M74.1,8.04c-2.46-2.14-9.35-2.41-10.16-1.87-.24-.29-.27-.55.12-.67,1.8-.38,8.51.59,10.03,2.54h0Z"/>
      <path class="cls-2" d="M62.46,8.1c2.22-.32,7.4,1.52,8.77,4.26-1.8-2.89-6.48-4.07-8.77-3.78-.31-.21-.34-.38,0-.48h0Z"/>
      <path class="cls-2" d="M37.57,6.87c-2.12-1.08-9.75,1.5-11.6,4.42,2.65-3.23,8.09-4.48,11.67-4.08.12-.27.1-.21-.07-.34h0Z"/>
      <path class="cls-2" d="M26.51,7.99c2.46-2.14,9.35-2.41,10.16-1.87.24-.29.27-.55-.13-.67-1.8-.38-8.51.59-10.03,2.54h0Z"/>
      <path class="cls-2" d="M36.37,7.87c-2.22-.32-7.4,1.52-8.77,4.26,1.8-2.89,6.48-4.07,8.77-3.78.31-.21.34-.38,0-.48h0Z"/>
      <path class="cls-10" d="M59.64,37.39c3.09.59,18.17,4.16,15.27,12.87-.53-1.66-1.81-2.23-2.84-2.4,3.31,3.23,5.36,6.83,3.93,11.12-.49-1.33-1.71-1.76-1.96-1.96,3.26,3.86.94,7.92-.88,11.56.12-1.48-1.04-2.61-1.74-3.49-.23,5.11-1.22,7.34-4.58,10.04.19-1.56-.38-2.07-.87-3.05-1.04,4-2.3,5.68-5.02,7.85-.12-1.73-.74-2.35-1.31-3.49-1.55,2.61-2.95,3.8-5.02,5.45-.04-1.54.3-2.89-.22-3.93-.25,2.16-1.95,3.31-4.85,5.32-2.9-1.84-4.59-2.99-4.84-5.15-.52,1.04-.18,2.39-.22,3.93-2.06-1.65-3.47-2.84-5.02-5.45-.57,1.13-1.19,1.76-1.31,3.49-2.72-2.17-3.98-3.85-5.02-7.85-.49.98-1.06,1.5-.87,3.05-3.36-2.69-4.36-4.93-4.58-10.04-.7.88-1.86,2.01-1.74,3.49-1.82-3.64-4.14-7.7-.88-11.56-.25.2-1.47.63-1.96,1.96-1.43-4.29.62-7.89,3.93-11.12-1.03.17-2.31.73-2.84,2.4-2.9-8.71,12.17-12.28,15.26-12.87,3.69-1.95,7.16,2.09,10.08.57,2.92,1.35,6.4-2.69,10.08-.74h0Z"/>
      <path class="cls-1" d="M41.36,37.82c-1.3,1.28-4.97,1.73-4.71,4.14,1.16-.71,2.25-.39,3.98-.58-4.39,1.96-8.27,3.34-7.58,8.91,1.05-3.03,3.59-1.87,4.94-2.95-1.37,2.37-6.19,3.36-5.72,7.71,1.46-1.5,4.38-1.22,4.78-1.82-2.7,3.83-3.45,6.25-1.85,9.85.47-1.62,1.42-2.97,3.57-4.01-.84,2.41.18,4.24,2.29,7.14.27-1.32-.03-3.35,1.25-4.26.68,2.65,2.19,5.1,6.7,7.46,4.5-2.84,6.02-5.29,6.69-7.94,1.28.91.98,2.95,1.25,4.26,2.11-2.9,3.12-4.72,2.29-7.14,2.14,1.04,3.09,2.39,3.57,4.02,1.59-3.6.85-6.02-1.85-9.86.4.61,3.33.32,4.78,1.82.47-4.36-4.35-5.35-5.72-7.71,1.35,1.08,3.9-.09,4.94,2.95.69-5.57-3.19-6.95-7.58-8.91,1.73.2,2.81-.12,3.98.58.27-2.41-3.4-2.86-4.7-4.15-3.32.56-5.94.97-7.65,1.33-1.71.12-4.34-.29-7.65-.85h0Z"/>
      <path class="cls-10" d="M49.52,26.71c-5.08-.12-15.91,13.02-4.64,11.73,2.27,3.25,6.88,3.26,9.06.38,11.71,1.22.66-11.99-4.42-12.11h0Z"/>
      <path class="cls-5" d="M47.27,27.02c-.14.56,2.22,2.19,2.39,2.25,1.34-.15,1.65-1.25,2.26-2.01-1.38-.84-3.55-.66-4.65-.23h0Z"/>
      <path class="cls-8" d="M56.04,22.14c2.73-1.22,5.42-.89,8.09.35,2.04,7.06-8.97,7.01-8.09-.35h0Z"/>
      <path class="cls-3" d="M59.85,22.08c-2.16.15-2.85,3.85.05,4.05,3.3.23,2.64-4.25-.05-4.05h0Z"/>
      <path class="cls-3" d="M47.44,26.75c-.45,0-.75.6-.49.96.54.79,1.51,1.73,2.43,2.45.21.16.53.16.74,0,.85-.66,1.74-1.56,2.41-2.39.22-.24.18-.67-.08-.87-.26-.2-.68-.14-.86.12-.5.62-1.18,1.26-1.83,1.81-.71-.61-1.48-1.33-1.81-1.81-.11-.16-.31-.27-.51-.27h0Z"/>
      <path class="cls-3" d="M49.65,29.23c-.32,0-.61.28-.62.6l-.07,2.1c-.04.33.25.66.58.67.33.01.64-.31.62-.64l.07-2.1c.02-.32-.26-.62-.58-.64h0Z"/>
      <path class="cls-3" d="M49.52,31.33c-.27.02-.5.24-.54.51-.23,1.48-1.5,3.07-2.84,3.94-.67.44-1.35.7-1.86.73-.51.03-.81-.1-1.05-.47-.17-.27-.57-.35-.84-.18-.26.17-.35.57-.18.83.47.75,1.32,1.06,2.14,1.01.82-.05,1.65-.39,2.44-.9,1.1-.72,2.13-1.8,2.77-3.04.63,1.28,1.66,2.4,2.77,3.13.79.52,1.64.87,2.46.92.82.05,1.64-.27,2.12-1.01.17-.27.08-.66-.18-.83-.27-.17-.66-.09-.83.18-.23.37-.52.5-1.03.47-.51-.03-1.2-.3-1.86-.74-1.34-.89-2.61-2.49-2.84-4.04-.05-.3-.34-.53-.63-.51h0Z"/>
      <path class="cls-8" d="M43.62,21.9c-2.73-1.22-5.42-.9-8.09.35-2.04,7.06,8.96,7.01,8.09-.35h0Z"/>
      <path class="cls-3" d="M39.81,21.83c2.16.16,2.86,3.86-.05,4.06-3.3.23-2.64-4.25.05-4.06h0Z"/>
      <path class="cls-9" d="M27.4,84.98c-.02.2,1.29,1.9,2.47,2.84-.65-.91.13-.93.19-1.33,1.36.8,2.73,1.31,3.98,1.51-.53-.45-.56-.98-.76-1.32,1.86,1.13,3.64,1.25,5.5.95-2.45-1.16-3.99-2.97-5.88-3.6-.35.89.25,1.23.38,1.9-1.22-.96-2.68-1.54-3.79-2.09,2.02,2.37-.32.84-2.09,1.14h0Z"/>
      <path class="cls-9" d="M43.14,92.94c-.16.46-1.44,1.91-3.6,2.28,3,.15-.18,1.32-2.46,1.71.7.39,1.21.24,1.9.38-1.03.95-1.93,1.15-3.04,1.52,2.68.14,4.46-.62,6.26-1.52l-.76-.38v-.19c2.01-.46,2.34-.96,2.84-2.46-2.38.1.88,1.03-1.14-1.33h0Z"/>
      <path class="cls-9" d="M71.76,84.03c-.1,1-1.4,1.88-4.17,2.28,1.02-.32.9-1.62.95-1.71-1.24,1.94-2.81,1.44-4.74,2.09.29-.53.38-1.14.57-1.71-1.25,1.76-2.79,2.36-4.55,2.65,1.43.83,3.48.29,4.36,0,1.45.99,2.46.25,3.79-.19.56,1.53-.22.66-.38,1.14,2.75-.65,4.17-2.16,4.17-4.55h0Z"/>
      <path class="cls-9" d="M57.16,96.92c.08,0,2.74-1.51,3.22-1.9.13.78-.24.85-.38,1.33,1.35-.42,1.87-.93,2.66-1.33.63.8-.15,1.31-.19,1.71,1.99-.92,2.59-1.95,3.6-3.22-.19,2.52-1.43,4.09-4.17,4.55-.92-.41.15-.73.19-.95-1.34,1.58-2.35,2-3.79,1.51-.28-.6.53-.79.76-1.14-1.39,1.29-2.23,1.41-3.6.95.95-.85.96-.1,1.71-1.52h0Z"/>
      <path class="cls-9" d="M86.72,52.13c.68,1.69-1.58,2.02-2.86,2.66.94-.3,1.4.62,1.84.82-1.68.96-3.6,1.8-4.9,2.45.78.2,1.5.43,2.04.61-2.24,1.55-3.71,2.06-5.72,3.07,3.07,1.2,6.92.02,8.99-1.64-1.04-.44-1.65-.95-2.25-1.43,2.97.25,4.14-.79,4.9-3.07-.82.41-1.55,0-2.04,0,2.61-1.13,3.38-1.08,2.45-3.88-.42,1.4-.83-.13-2.45.41h0Z"/>
      <path class="cls-9" d="M13.57,50.09c-1.72,1.55-1.94,3.83-.21,4.7-.26-.87.64-1.43.82-1.84.2,2.29,1.41,3.26,3.48,4.29-1.06-1.2-.45-1.53-.21-2.25.51,2.51,1.76,3.94,3.68,4.9-1.13-1.85-1.7-3.63-2.04-5.72l-.61.82c-.65-1.72-1.16-2.66-1.64-4.09-1.38,1.09-1.06,1.66-1.22,2.66-.63-1.49-.95-2.11-2.04-3.47h0Z"/>
    </g>
  </g>
</svg>