<?xml version="1.0" encoding="UTF-8"?>
<svg id="Layer_2" data-name="Layer 2" xmlns="http://www.w3.org/2000/svg" viewBox="0 0 51.59 111.8">
  <defs>
    <style>
      .cls-1, .cls-2, .cls-3, .cls-4, .cls-5, .cls-6, .cls-7 {
        stroke-width: 0px;
      }

      .cls-2 {
        fill: #2b1100;
      }

      .cls-3 {
        fill: #1a1a1a;
      }

      .cls-4 {
        fill: #42c042;
      }

      .cls-5 {
        fill: #c88989;
      }

      .cls-6 {
        fill: #ccc;
      }

      .cls-7 {
        fill: #333;
      }
    </style>
  </defs>
  <g id="Layer_1-2" data-name="Layer 1">
    <g>
      <path class="cls-3" d="M31.83,110.47c2.59.96,5.78,1.22,8.46.3,9.66.81,11.39-7.36,9.33-12.23,3.43-10.1,1.92-20.17-1.03-25.02-11.01-6.7-35.42-8.07-45.25-.58-3.32,4.77-4.83,14.84-1.4,24.94-2.05,4.87-1.34,13.9,8.32,13.09,2.14.42,6.43.16,9.22-.11,3.59.91,9.03.28,12.35-.39h0Z"/>
      <path class="cls-7" d="M30.62,87.18c.83,4.98-2.92,16.76,1.4,22.56,1.37,1.84,5.16,2.72,8.05.55,2.31-1.73,1.72-3.57.28-6.94,1.47-9.18,7.75-22.24,8.29-30.05,1.09-15.61-7.73-24.76-5.55-33.02,3.71-7.96,3.53-12.52,1.67-20.54,1.39-4.75.32-18.1-2.78-19.71-2.6-.7-9.8,9.75-10.27,11.93-.59.72-1.68-.65-5.61-.57-3.94.08-5.34,1.42-5.71.7C19.64,9.78,12.44-.67,9.84.03c-3.1,1.61-4.16,14.95-2.77,19.71-1.86,8.02-2.04,12.57,1.66,20.54,2.18,8.26-6.63,17.16-5.54,32.78.54,7.81,7.26,21.37,8.05,30.53-1.22,3.19-2.03,5.21.28,6.94,2.89,2.16,6.68,1.29,8.05-.55,4.32-5.8,1.42-18.06,2.25-23.04,3.11,2.51,5.95,1.83,8.81.25h0Z"/>
      <path class="cls-4" d="M30.92,23.88c-.46-4.79,6.77-5.56,7.02-.48.23,4.57-6.64,4.44-7.02.48h0Z"/>
      <path class="cls-2" d="M34.25,21.14c-2.62-.02-3.02,4.41.24,4.24,3.27-.18,2.38-4.22-.24-4.24h0Z"/>
      <path class="cls-4" d="M21.29,23.82c.46-4.78-6.77-5.56-7.02-.48-.23,4.57,6.64,4.44,7.02.48h0Z"/>
      <path class="cls-2" d="M17.96,21.09c2.62-.02,3.03,4.41-.24,4.23-3.27-.18-2.38-4.22.24-4.23h0Z"/>
      <path class="cls-1" d="M24.46,29.56c1.14-.45,2.5-.61,3.82.09-1.09,1.66-2.41,1.75-3.82-.09h0Z"/>
      <path class="cls-2" d="M24.23,29.02c-.42.08-.62.69-.32,1,.6.71,1.11,1.41,2.23,1.85.14.06.31.06.45,0,1.02-.4,1.68-1.34,2.12-1.85.21-.24.19-.64-.05-.85-.23-.21-.64-.18-.85.05-.43.5-1,1.06-1.5,1.35-.6-.31-.93-.71-1.48-1.35-.14-.17-.38-.25-.6-.2h0Z"/>
      <path class="cls-2" d="M26.31,30.59c-.27.07-.47.35-.45.62l.13,2.32c.02.32.32.58.64.56.31-.02.58-.32.56-.64l-.12-2.3c0-.36-.4-.66-.75-.57h0Z"/>
      <path class="cls-2" d="M26.48,33.12c-.06.02-.12.04-.17.08-.7.44-1.48,1-2.05,1.2-.28.1-.48.11-.57.07-.1-.04-.2-.09-.33-.43-.08-.32-.47-.54-.78-.42-.32.11-.48.52-.34.82.21.55.58.98,1.05,1.15.47.17.95.1,1.38-.05.74-.26,1.39-.76,1.98-1.15.59.39,1.24.87,1.97,1.12.42.15.9.24,1.37.07.47-.17.84-.59,1.05-1.15.11-.3-.05-.66-.35-.78-.3-.11-.66.05-.78.35-.12.34-.23.41-.32.45-.1.03-.29.02-.57-.07-.57-.2-1.35-.76-2.05-1.2-.14-.09-.32-.12-.48-.08h0Z"/>
      <path class="cls-6" d="M35.65,42.78c-6.45,2.23-12.31,2.02-18.64.14.37,5.79,6.73,11.8,9.79,12.16,2.82.33,8.57-5.38,8.84-12.3h0Z"/>
      <path class="cls-5" d="M33.8,10.92c.74-2.25,6.41-10.59,7.95-9.71,2,1.41,3.09,9.38,2.4,13.5-.47.26-1.73,1.7-2.22,3.05-.86-1.03-2.25-2-3.79-2.41-.94-1.62-1.98-3.47-4.34-4.43h0Z"/>
      <path class="cls-5" d="M18.2,11.09c-.75-2.24-6.41-10.59-7.95-9.7-2,1.41-3.09,9.38-2.41,13.5.48.26,1.73,1.7,2.22,3.05.86-1.03,2.25-2,3.79-2.4.94-1.63,1.98-3.47,4.35-4.44h0Z"/>
    </g>
  </g>
</svg>