<?xml version="1.0" encoding="UTF-8"?>
<svg id="Layer_2" data-name="Layer 2" xmlns="http://www.w3.org/2000/svg" viewBox="0 0 400.13 768.23">
  <defs>
    <style>
      .cls-1, .cls-2, .cls-3, .cls-4, .cls-5, .cls-6, .cls-7, .cls-8, .cls-9, .cls-10, .cls-11, .cls-12 {
        stroke-width: 0px;
      }

      .cls-2 {
        fill: #f2f2f2;
      }

      .cls-3 {
        fill: #f9f9f9;
      }

      .cls-4 {
        fill: #1a1a1a;
      }

      .cls-5 {
        fill: #130700;
      }

      .cls-6 {
        fill: #ccc;
      }

      .cls-7 {
        fill: #666;
      }

      .cls-8 {
        fill: #9a4a14;
      }

      .cls-9 {
        fill: #999;
      }

      .cls-10 {
        fill: #7e3300;
      }

      .cls-11 {
        fill: #fff;
      }

      .cls-12 {
        fill: #e6e6e6;
      }
    </style>
  </defs>
  <g id="set">
    <g id="border">
      <g id="g11361">
        <g id="g10952">
          <g id="g16468">
            <g id="g14167">
              <path id="path19696-1-2" class="cls-9" d="M237.71,757.73c-12.76,2.55-16.92,7.96-31.32-1.25-9.33,7-23.7,2.98-38.47,2.5-9.22,3.69-25.15,6.54-35.02-2.36-13.51-2.5-32.4-7.68-51.79,3.81-16.34,0-23.92-5.89-33.49-17.28-12.91-9.69-24.02-23.95-23.77-44.29-9.64-16.08-22.69-33.81-15.12-60.49-4.75-11.88-8.15-29.97,4.32-43.21-2.68-13.37,4.78-30.03,20.52-37.22.43-14.06,7.46-24.85,23.27-27.4,29.77-149.22,279.87-104.53,299.38-2.07,15.02,3.47,19.69,13.08,18.94,34.22,12.2,6.02,18.47,19.13,15.8,32.5,12.47,13.24,9.07,31.33,4.32,43.21,7.57,26.67-5.47,44.41-15.12,60.49.26,20.34-10.85,34.6-23.76,44.29-9.56,11.39-17.16,17.28-33.49,17.28-5.21,9.56-30.87-2.89-49.93-3.11-10.79,9.22-25.99,7.73-35.29.39h0Z"/>
              <path id="path19641-9-8" class="cls-2" d="M22.45,452.97c-2.1,8.42-.41,14.21,2.41,20.52,2.71,11.77-2.19,13.2,3.67,20.19-7.28,14.35-4.64,24.19-.66,33.11-4.01-7.56,3.84-7.66,5.73-11.88-.63,11.71,2.21,21.61,6.01,30.11-4.43,10.48-2.88,20.58,2.41,26.88-1.82,18.74,6.13,32.33,8.24,42.74-1.31,26.07,2.91,34.96,7.73,56.55.04,10.03-4,30.75-3.08,39.87-9.43,10.25-20.54,54.71,11.26,55.62,27.56.79,58.95,4.66,70.17-14.67,9.16-15.79,12.08-37.37,9.16-55.99.46-15.85-1-40.79-3.56-52.22,2.91-15.79,2.38-29.55-1.27-45.88,1.25-10.61,4.05-19.8.35-28.08,5.14-10.62,4.42-24.67,3.97-26.69,1.14-5.35-.15-11.14-2.41-16.2,3.96-87.47-14.87-146.3-88.35-179.2-6.21-2.78-23.85-1.65-27.84,1.92-10.04,8.99-7.2,31.56-12.11,44.94-4.92,13.37,4.75,43.08,8.17,58.39h0Z"/>
              <path id="path19641-3-0-9" class="cls-2" d="M381.76,453.68c2.1,8.42.41,14.21-2.41,20.52-2.71,11.77,2.19,13.2-3.67,20.19,7.28,14.35,4.63,24.19.65,33.11,4.01-7.57-3.84-7.66-5.73-11.88.63,11.71-2.21,21.61-6.01,30.11,4.42,10.48,2.87,20.58-2.41,26.88,1.82,18.74-6.13,32.33-8.24,42.74,1.31,26.07-2.91,34.96-7.73,56.55-.04,10.03,4,30.75,3.08,39.87,9.43,10.25,20.54,54.71-11.26,55.62-27.56.79-58.95,4.66-70.17-14.68-9.16-15.79-12.08-37.37-9.16-55.99-.46-15.85,1-40.78,3.56-52.22-2.91-15.79-2.38-29.55,1.27-45.88-1.25-10.61-4.05-19.8-.35-28.08-5.14-10.62-4.42-24.67-3.97-26.69-1.13-5.36.15-11.14,2.41-16.2-3.95-87.47,14.87-146.3,88.36-179.2,6.21-2.78,23.85-1.65,27.84,1.92,10.04,8.99,7.19,31.56,12.11,44.94,4.92,13.37-4.75,43.08-8.17,58.39h0Z"/>
              <path id="path19637-2-6-9-6" class="cls-12" d="M232.36,565.58c-2.19,5.78-.01,6.16-6.18,9.81,22.03-3.75,44.56-17.03,56.67-28.49,0,8.24-2.37,6.2-3.63,10.51,18.16-3.57,28.86-10.14,41.43-23.17,1.11,5.38-4.73,6.37-7.7,11.28,16.21-5.65,34.98-20.97,41.25-33.13,11.15-12.13,11.72-23.65,11.45-33.43,2.7,5.8,2.45,12.36,2.45,12.36,8.4-10.8,14.41-23.6,15.21-35.73,7.29-12.27,7.92-30,6.83-40.05,6.81-18.27,6.25-26.04.86-41.29,14.44-57.53-52.59-146.54-189.74-175.27C101.64,214.94-1.46,304.95,11.51,374.45c-5.4,15.25-5.96,23.02.86,41.29-1.09,10.05-.46,27.79,6.83,40.05.8,12.13,6.81,24.92,15.21,35.73,0,0-.25-6.56,2.45-12.35-.28,9.79.3,21.31,11.45,33.43,6.27,12.15,25.04,27.48,41.25,33.13-2.97-4.91-8.82-5.91-7.71-11.28,12.56,13.03,23.27,19.6,41.43,23.17-1.26-4.31-3.63-2.26-3.63-10.5,12.11,11.46,34.63,24.74,56.67,28.49-6.16-3.66-3.99-4.03-6.18-9.81,6.89,4.36,27.5,13.62,31.11,16.88,3.6-3.48,24.22-12.74,31.11-17.09h0Z"/>
              <path id="path14092" class="cls-8" d="M44.34,263.4c-15.23,15.11-20.16,29.39-20.16,40.97-7.14,7.67-17.51,24.77-13.06,33.27-8.51,13.6-11.59,36.78-5.74,49.98,3.74-8.13,2.66-8.67,6.13-13.17,2.47,7.91,7.01,5.19,7.58,5.19-3.52-5.45-3.56-9.86-3.56-16.02,2.81-9.19.89-18.4.89-26.7,1.22-8.7,6.38-17.11,8.9-20.47,8.34-7.37,14.6-20.93,25.8-18.69,3.14-11.61,4.23-33.49-6.78-34.37h0Z"/>
              <path id="path19637-2-6-9-6-5" class="cls-8" d="M390.99,374.24c3.47,4.5,2.38,5.04,6.13,13.17,5.85-13.21,2.78-36.39-5.74-49.99,4.45-8.5-5.92-25.6-13.06-33.27,0-11.58-10.65-33.72-23.02-43.83-9.81.68-3.97,20.68-6.05,25.88,7.17,4.35,13.37,7.15,16.02,10.68,8.82,4.98-4.78,3.23-2.67,5.34,10.37,10.37,13.44-.66,20.47,16.91-1.79,8.17,3.56,12.62-.89,25.81,12.33,19.46-12.64,29.79,6.23,22.25-2.53,3.76-4.41,7.95-7.12,11.57,6.25.18,6.87-.54,9.7-4.51h0Z"/>
              <path id="path19620-9-8-0" class="cls-6" d="M330.09,213.6c10.32,4.92,21.33,13.18,21.33,28.85,10.18,7.85,10.72,18.42,7.06,29.26,8.82,10.8,6.43,20.29,1.18,30.66-.45-8.71-3.12-9.27-5.88-12.54,8.33,21.86,3.13,35.58-12.94,43.2-5.71-20.64,5.48,16.26-20,22.29,2.68,12.98-3.13,20.25-11.76,22.29-8.39,6.73-10.53,10.3-20,12.54,13.82-30.15-4.59,6.66-17.64,9.75-8.46,8.05-14.03,12.01-23.53,9.76-9.58,5.54-17.74,7.78-27.05,5.57-5.7,4.33-10.29,2.79-20.89,2.85-10.6.06-15.19,1.6-20.89-2.72-9.32,2.21-17.47-.03-27.06-5.57-9.5,2.25-15.06-1.71-23.53-9.75-13.05-3.09-31.46-39.9-17.65-9.76-9.47-2.24-11.61-5.81-20-12.54-8.63-2.04-14.45-9.32-11.77-22.29-25.47-6.04-14.28-42.93-20-22.29-16.07-7.61-21.28-21.33-12.94-43.2-2.76,3.27-5.43,3.83-5.88,12.54-5.25-10.36-7.65-19.85,1.18-30.65-3.66-10.85-3.12-21.42,7.05-29.26,0-15.67,11-23.94,21.33-28.85,58.18-106.16,209.7-60.59,260.29-.13h0Z"/>
            </g>
            <g id="g14073">
              <path id="path19524-5-5-0" class="cls-10" d="M321.71,220.43c-.54-10.47-3.3-4.41-6.48-8.64,6.88,10.93.15,19.6-7.56,22.68,1.07-4.22-3.43-6-4.32-7.56.32,11.73-6.93,13.44-15.12,18.36-3.47,6.5-8.36,11.53-21.19,10.06-.17,8.57-6.46,7.26-17.47,12.75-22.28,6.41-79.24,3.02-95.83,3.31-11-5.49-21.62-8.49-21.79-17.06-12.84,1.46-17.72-3.56-21.19-10.06-8.19-4.91-15.43-6.62-15.12-18.35-.89,1.56-5.39,3.34-4.32,7.56-7.71-3.08-14.44-11.75-7.56-22.68-3.18,4.23-5.94-1.83-6.48,8.64-4.93-6.57-2.46-12.82.18-23.46-8.66-44.98-16.8-131.33,32.27-164.19C125.43,16.88,165.13.58,198.65.75c33.52.17,80.79,18.76,91.07,30.4,20.29,36.98,63.69,125.58,33.06,165.8,1.38,10.66,3.86,16.91-1.07,23.48h0Z"/>
              <path id="path19508-84-1" class="cls-5" d="M83.8,24.34c7,2.34,10.56,7.95,11.48,9.18-11.59,2.93-14.62,4.76-25.25,6.88,6.05,12.86,4.76,2.64,10.33,5.73-16.58,4.07-22.08,4.8-25.25,20.65-13.32,5.74-17.62,15.93-21.81,26.38-13.6,8.48-20.68,16.75-33.29,21.79,8.86,9.41,13.11,5.08,18.37,1.15-8.21,6.11-9.35,7.22-8.03,13.76,3.12-3.3,7.11-3.95,10.33-5.73-11.22,10.74-6.8,21.39,3.44,27.52-4.82-6.32-2.47-7.04,0-10.32-4.53,18.9,13.37,25.79,21.81,32.12,1.38,6.6,2.29,11.14,2.29,14.91,4.5-4.36,4.77-3.97,6.89-5.73-.21,8.28-.44,22.88-2.3,27.53,8.71-3.51,10.09-5.69,11.48-12.62.46,2.66-.77,5.35-1.15,8.03,11.88-5.48,14.77-8.2,18.37-17.21,12.18-17.77,10.66-37.03,10.66-64.1-.49-31.45,18.09-68.97,20.02-95.47-4.32-9.53-17.96-4.44-28.38-4.44h0Z"/>
              <path id="path19508-8-3-7" class="cls-5" d="M315.66,24.68c-6.99,2.34-10.56,7.95-11.48,9.18,11.6,2.93,14.63,4.76,25.25,6.88-6.05,12.86-4.76,2.65-10.33,5.74,16.58,4.07,22.08,4.8,25.25,20.64,13.32,5.74,17.62,15.93,21.81,26.38,13.6,8.48,20.68,16.75,33.29,21.79-8.86,9.41-13.11,5.09-18.36,1.15,8.21,6.11,9.35,7.22,8.03,13.76-3.12-3.3-7.11-3.95-10.33-5.74,11.21,10.74,6.8,21.39-3.45,27.53,4.82-6.32,2.47-7.04,0-10.32,4.54,18.9-13.37,25.79-21.81,32.11-1.38,6.6-2.3,11.14-2.3,14.91-4.49-4.36-4.76-3.97-6.88-5.74.21,8.28.44,22.88,2.3,27.53-8.71-3.5-10.1-5.69-11.48-12.62-.46,2.66.76,5.35,1.15,8.03-11.89-5.48-14.77-8.2-18.37-17.2-14.34-25.35-11.74-37.03-11.74-64.1.49-31.45-10.52-70.06-18.93-94.93,4.32-10.07,17.96-4.98,28.38-4.98h0Z"/>
              <path id="path13893" class="cls-4" d="M153.11,83.52c-5.78,5-12.69,14.04-17.27,20.15-10.59,8.42-24.22,26.91-19.44,38.87,2.86,6.83,3.93,8.05,4.36,15.49,1.11,18.96-1.27,29.9-2.65,48.62,1.14,9.32,10.56,19.79,18.45,20.82,7.76-13.85,35.98-71.97,47.5-80.61,1.41-28.83,5.99-50.93-14.4-66.22-6.54-.79-10.92.63-16.55,2.88h0Z"/>
              <g id="g19532-3-0">
                <path id="path19518-7-1" class="cls-11" d="M158.03,129.84c-.51-31.07-29.03-5.35-24.09,6.24,2.12,4.97,24.22,1.35,24.09-6.24Z"/>
                <path id="path19528-1-3" class="cls-1" d="M149.11,120.03c-11.55.29-10.24,12.98-1.78,14.27,8.98,1.37,9.59-14.47,1.78-14.27Z"/>
              </g>
              <path id="path13893-6" class="cls-4" d="M250.17,83.43c5.78,5,12.7,14.04,17.27,20.15,10.59,8.42,24.22,26.91,19.44,38.87-2.86,6.83-3.92,8.04-4.36,15.49-1.11,18.96,1.27,29.9,2.65,48.62-1.13,9.32-10.56,19.79-18.45,20.82-7.77-13.85-35.98-71.97-47.51-80.61-1.41-28.82-5.98-50.93,14.4-66.22,6.54-.79,10.92.63,16.55,2.88h0Z"/>
              <g id="g19532-2-0-2">
                <path id="path19518-3-9-6" class="cls-11" d="M243.59,130.9c.51-31.07,29.03-5.35,24.09,6.25-2.12,4.97-24.22,1.35-24.09-6.25Z"/>
                <path id="path19528-7-7-4" class="cls-1" d="M252.51,121.08c11.56.29,10.24,12.98,1.79,14.27-8.98,1.37-9.6-14.47-1.79-14.27Z"/>
              </g>
              <path id="path13891" class="cls-12" d="M165.77,27.85c-10.8,16.27-17.13,30.46-15.54,49.92,1.07,13.21,18.56,20.32,24.98,34.64,6.13,13.7-2.51,26.1,2.37,35.17,6.6.04,17.82.18,22.31-.64,4.49.98,18.59.84,25.19.8,4.88-9.08-3.76-21.47,2.37-35.17,6.41-14.32,23.91-21.43,24.98-34.64,1.58-19.46-4.75-33.65-15.54-49.92-5.23-7.88-8.04-15.51-11.81-24.94-16.95-3.96-33.6-4.01-44.6-.61-5.23,5.56-9.49,17.51-14.71,25.39Z"/>
              <path id="path19522-2-8-7" class="cls-7" d="M227.62,271.43c-14.12,18.28-46.19,19.58-59.63-1.78-24.54-39.74,17.58-49.49,32.23-49.34,14.19.15,48.89,14.62,27.4,51.12Z"/>
              <path id="path19512-9-9-5" class="cls-3" d="M251.81,282.89c23.44-16.8,15.3-99.52-.77-117.9-12.62-14.42-33.23-25.03-50.83-24.49-17.61.54-39.88,7.83-52.49,22.25-16.08,18.38-21.8,103.12,1.38,120.28,14.07,10.41,33.5-49.88,49.92-50.77,16.41-.88,32.24,65.36,52.79,50.63Z"/>
              <path id="path19514-9-2" class="cls-1" d="M199.84,161.48c35.88.22,23.4,37.71,0,37.25-23.39-.46-35.88-37.47,0-37.25Z"/>
              <path id="path19516-3-0" class="cls-1" d="M199.81,192.84c-1.15.02-2.07,1.13-2.06,2.47v35.27c-.05,1.34.86,2.48,2,2.53,1.15.05,2.13-1,2.17-2.34,0-.06,0-.13,0-.19v-35.27c.02-1.35-.9-2.46-2.06-2.47h-.06Z"/>
            </g>
          </g>
        </g>
      </g>
    </g>
  </g>
</svg>