<?xml version="1.0" encoding="UTF-8"?>
<svg id="Layer_2" data-name="Layer 2" xmlns="http://www.w3.org/2000/svg" viewBox="0 0 61.1 109.05">
  <defs>
    <style>
      .cls-1 {
        fill: #777;
      }

      .cls-1, .cls-2, .cls-3, .cls-4, .cls-5 {
        stroke-width: 0px;
      }

      .cls-2 {
        fill: #520429;
      }

      .cls-3 {
        fill: #636060;
      }

      .cls-4 {
        fill: #d9d9d9;
      }

      .cls-5 {
        fill: #858585;
      }
    </style>
  </defs>
  <g id="Layer_1-2" data-name="Layer 1">
    <g>
      <path class="cls-2" d="M9.85,15.08c-1.06,2.54-1.53,7.3-4,9.43C2.21,19.83-.15,8.87.51,4.94c3.69,4.15,7.62,9.1,9.34,10.14h0Z"/>
      <path class="cls-2" d="M50.4,17.47c.22,1.87,1.7,4.63,5.01,6.92,3.64-4.67,5.99-15.63,5.34-19.57-3.88,4.24-6.75,8.73-10.34,12.65h0Z"/>
      <path class="cls-4" d="M35.95,35.8c3.7.33,1.8,7.08,4.57,13.8.77-1.89,1.85-3,1.66-5.12,1.14,1.25,1.92,2.93,2.89,4.83.65-2.63.61-4.72-.66-7.75,1.18.94,2.83,2.8,3.93,5.46.53-2.64.24-5.25-1.33-9.25,1.11.86,1.87,1.65,3.65,4.52.97-9.25-2.57-12.77-4.12-14.49-3.57-3.97-9.91-4.89-16.23-1.72-6.32-3.41-12.66-2.49-16.23,1.48-1.55,1.72-5.09,5.24-4.12,14.49,1.79-2.87,2.55-3.66,3.66-4.52-1.57,4-1.86,6.61-1.33,9.25,1.09-2.66,2.75-4.52,3.93-5.46-1.27,3.03-1.31,5.12-.66,7.75.97-1.9,1.75-3.58,2.89-4.83-.19,2.11.47,3.51,1.24,5.4,2.76-6.72.76-13.36,4.47-13.69,4-.91,8.06.04,11.8-.16h0Z"/>
      <path class="cls-5" d="M47,27.61c-2.02,5.01-4.34,15.02,1.96,18.53,3.07,2.39,6.25,7.58,5.93,13.04,2.98,3.3,2.52,9.59,1.06,13.19,1.48,4.72,1.14,7.47-.26,9.62,1.88.71,4.2,3.91,2.64,7.8,3.27,1.71,3.69,7.26,1.06,9.76,2.3,3.03.93,6.88-2.38,9.5-2.09.11-24.29-.53-27.12-.5-2.84.04-23.69.42-25.78.31-3.31-2.62-4.68-6.2-2.38-9.23-2.64-2.5-2.21-8.06,1.05-9.77-1.56-3.88.75-7.08,2.64-7.85-1.4-2.22-1.73-4.96-.26-9.68-1.46-3.6-1.92-9.89,1.05-13.19-.32-5.46,2.71-10.93,6-13.32,3.29-4.11,3.51-12.24,1.15-18.27-.85-2.53-2.74-8.47-2.18-10.11-1.12-4.82,1.94-14.25,6.87-13.09,1.59-2.37,8.62-1.77,12.74-1.91,4.12-.14,10.57-.36,12.73,2.01,5.32-.05,7.3,8.87,5.3,12.05.59,2.36-.38,8.58-1.84,11.12h0Z"/>
      <path class="cls-1" d="M43.21.25c.05,6.22.86,15.16,5.51,22.3,4.98-3.67,12.68-13.79,12.03-17.73C57.53,1.71,49.48-.82,43.21.25h0Z"/>
      <path class="cls-1" d="M18.05.36c-.72,7.89-1.7,18.17-6.68,21.8C7.73,17.49-.15,8.87.51,4.94,3.73,1.82,11.77-.71,18.05.36h0Z"/>
      <path class="cls-3" d="M33.92,79.33c6.34-5.98,11.47-10.99,11.43-14.38-3.98,2.23-8.24,6.19-9.84,7.79-.12-.66-.07-2.01-.07-2.01-2.3,1.91-7.45,5.12-11.08,11.92.11-.81-.18-1.95-.02-3.09-10.66,15.23-3.94,24.41,4.69,27.29,2.96-.59,4.22-2.69,3.7-6.33-9.54-6.4-6-14.4,1.2-21.19h0Z"/>
    </g>
  </g>
</svg>