<?xml version="1.0" encoding="UTF-8"?>
<svg id="Layer_2" data-name="Layer 2" xmlns="http://www.w3.org/2000/svg" viewBox="0 0 77.43 164.21">
  <defs>
    <style>
      .cls-1, .cls-2, .cls-3 {
        fill-rule: evenodd;
      }

      .cls-1, .cls-2, .cls-3, .cls-4, .cls-5, .cls-6, .cls-7, .cls-8, .cls-9, .cls-10, .cls-11, .cls-12, .cls-13, .cls-14, .cls-15, .cls-16, .cls-17 {
        stroke-width: 0px;
      }

      .cls-1, .cls-10 {
        fill: #1a1a1a;
      }

      .cls-2 {
        fill: #c3966f;
      }

      .cls-3 {
        fill: #f9f9f9;
      }

      .cls-5 {
        fill: #f2f2f2;
      }

      .cls-6 {
        fill: #4d4d4d;
      }

      .cls-7 {
        fill: gray;
      }

      .cls-8 {
        fill: #868686;
      }

      .cls-9 {
        fill: #966060;
      }

      .cls-11 {
        fill: #c5c5c5;
      }

      .cls-12 {
        fill: #afe8e8;
      }

      .cls-13 {
        fill: #a5a5a5;
      }

      .cls-14 {
        fill: #ececec;
      }

      .cls-15 {
        fill: #ea8935;
      }

      .cls-16 {
        fill: #e671a3;
      }

      .cls-17 {
        fill: #e4e4e4;
      }
    </style>
  </defs>
  <g id="svg6613">
    <g id="layer5">
      <g id="g5142">
        <g id="g4973">
          <path id="path4550-6" class="cls-11" d="M68.35,119.26c1.27,3.49,3.09,2.86,4.88,5.75-1.3.61-1.62.89-2.45.75,3.82.66,4.35,2.56,5.5,4.79-1.04-.64-1.7-.17-2.67-.54,2.37,1.89,4.25,4.44,3.74,7.49-.8,1.23-1.66,0-1.87,0,2.31,2.28,2.22,6.65,1.34,8.29-.21-1.19-.96-.96-1.87-1.87,1.55,2.26,2.24,5.89.53,8.02-.25-1.65-.82-1.15-1.07-2.14.31,1.86.41,3.83-.73,5.02.16,2.02-.78,3.87-2.69,4.67-3.2,2.35-6.57,3.25-11.63,3.67-1.37.36-3.83.62-5.88-.4-3.7,1.27-6.66.36-8.74-.29-.6-.08-3.69.26-5.62-.3-.92.31-4.15,1.48-6.62.35-1.9.63-4.86,1.54-8.56.27-2.05,1.02-4.51.76-5.88.4-6.3-1.19-8.97-2.34-11.68-3.83-1.86-.65-2.8-2.5-2.64-4.52-1.13-1.2-1.04-3.17-.73-5.02-.25.99-.82.49-1.07,2.14-1.7-2.13-1.01-5.77.53-8.02-.91.91-1.66.68-1.87,1.87-.88-1.63-.97-6,1.34-8.29-.21,0-1.07,1.23-1.87,0-.51-3.05,1.37-5.59,3.74-7.49-.97.36-1.63-.11-2.67.54,1.15-2.24,1.68-4.13,5.5-4.79-.83.14-1.15-.15-2.45-.75,1.79-2.89,3.6-2.27,4.88-5.75,6.24-12.49,22-17.52,29.72-18.69,10.86,2.55,23.94,7.69,29.56,18.65Z"/>
          <path id="path4952-0" class="cls-2" d="M40.74,158.53c.88.66,1.75,1.33,3.41,2.1h-.26c.18-.44.35-.88.53-1.31,1.27.95,2.53,1.12,4.73,1.31-.35-.53-.77-1.01-1.05-1.58,1.6.64,2.48,1,4.73.26,1.13.23,2.72.02,4.46-.26-.89-.89-.28,2.9-1.31-1.31,1.94-.39,2.53-.79,4.33-2.1-.39-.18-1.23-.2-1.97-.53,7.88-4.73,7.1-19.04.79-25.47-1.65-1.24-3.7.12-5.51,2.36.2-.92-.67-2.74.26-3.68-1.64-.33-2.41,1.95-3.94,4.46-.26-.79-.53-1.57-.79-2.36-1.25,1.25-2.23,2.23-2.89,4.46-.26-.26-1.14-2.3-1.31-2.63-.93.7-1.04,2.68-2.1,4.2-.13-.19.36-1.05-1.31-1.84-1.47.73-2.26,2.86-2.81,3.98-.55-1.04-1.34-3.17-2.81-3.9-1.67.78-1.18,1.65-1.31,1.84-1.06-1.52-1.17-3.5-2.1-4.2-.17.33-1.05,2.36-1.31,2.63-.66-2.23-1.64-3.22-2.89-4.46-.25.79-.53,1.58-.79,2.36-1.53-2.51-2.3-4.79-3.94-4.46.93.94.06,2.76.26,3.68-1.81-2.25-3.86-3.6-5.51-2.36-6.31,6.43-7.1,20.74.79,25.47-.74.32-1.58.35-1.97.53,1.8,1.31,2.39,1.71,4.33,2.1-1.03,4.21-.42.42-1.31,1.31,1.75.29,3.33.49,4.46.26,2.24.74,3.13.38,4.73-.26-.28.57-.7,1.05-1.05,1.58,2.2-.19,3.46-.36,4.73-1.31.18.44.35.88.53,1.31h-.26c1.66-.77,2.53-1.44,3.41-2.1l2.02-.04,2.02-.04Z"/>
        </g>
        <g id="g4792">
          <path id="path4542-4" class="cls-5" d="M6.79,73.89c-2.45,6.48-2.4,21.72-.28,32.33,3.6,17.51,4.93,36.67,2.92,47.78-2.6,1.8-3.71,7.54-1.9,8.66,4.32,2.69,11.84,1.96,12.69-2.87,2.78-15.73,3.2-32.9,4.41-45.39.54-1.35.68-2.11,1.25-3.06-.14,2.67.39,4.34,2.94,5.88.12-1.06.06-1.73.27-2.67,1.21,2.68,2.8,3.78,4.66,4.3-.27-1.32.38-1.83.84-2.37.55,1.25,1.97,2.8,4.23,3.52,2.26-.54,3.69-2.08,4.23-3.33.47.55,1.11,1.05.84,2.37,1.86-.52,3.45-1.62,4.66-4.3.2.94.15,1.61.27,2.67,2.55-1.54,3.08-3.21,2.94-5.88.57.94.71,1.7,1.14,2.94,1.1,12.38,1.53,29.55,4.3,45.27.85,4.82,8.37,5.56,12.69,2.87,1.81-1.13.69-6.87-1.9-8.66-2-11.11-.68-29.36,2.92-46.87.58-9.21,2.73-26-1.18-33.2H6.79Z"/>
          <path id="path11097" class="cls-13" d="M4.14,81.03c-2.37,9.49,1.09,17.58,2.35,25.14.48-1.72.78-2.39.47-4.23,2.33.75.73,0,1.88,0-.8-1.75-.97-2.67-1.41-3.99.33.41.91.52,1.36.77-.71-1.55-1.14-2.5-1.55-3.72.27-1.4-.24-2.28-.62-3.41.27.07.52-.21.77-.31-.67-.84-.62-1.28-.62-2.32.6-1.1.04-2.26-.46-3.1,1.39-4.17-.1-8.25-2.17-4.84Z"/>
          <path id="path11097-2" class="cls-13" d="M73.07,82.03c2.37,9.49-1.09,17.58-2.35,25.14-.48-1.72-.78-2.39-.47-4.23-2.33.75-.73,0-1.88,0,.8-1.75.97-2.67,1.41-3.99-.33.41-.91.52-1.36.77.71-1.55,1.14-2.5,1.55-3.72-.27-1.4.24-2.28.62-3.41-.27.07-.52-.21-.77-.31.67-.84.62-1.28.62-2.32-.6-1.1-.04-2.26.46-3.1-.93-5.08,1.25-7.34,2.17-4.84h0Z"/>
        </g>
        <g id="g4816">
          <path id="path4534-5" class="cls-14" d="M10.8,58.98c-2.31,4.07-6.62,17.01-3.58,28.16-.02-.96.14-1.83,1.01-2.66.42,2.92.85,4.65.67,5.75.77-.03,1.52-.62,1.87-1.34-.39,2.43.54,4.12,1.39,5.35-.02-1.59.71-1.32,1.02-2.14-.3,3.46,1.07,5.73,2.94,7.22-.45-1.75.03-1.92.8-3.21.37,2.23,1.33,3.58,2.94,4.54-.07-.96.71-1.78,1.07-2.67.15,3.03,1.54,4.56,3.74,5.88-.03-1.13.17-1.94.8-2.67.47,2.01,1.35,2.99,3.88,3.61-.32-.55-.14-1.57.53-2.27.58,1.78,2.13,3.27,3.77,3.82-.19-1.24-.26-2.88.32-3.16-.21,1.73,1.62,2.87,2.15,3.64-.02-.67-.01-1.42.96-2.19.41,1.24.7,1.83,1.87,2.75.26-.43.9-1.43,1.12-2.62.16.47,1.03,1.14,1.77,1.78.82-.96,1.66-1.85,1.82-3.46.58.28.89,1.67.69,2.91,1.64-.55,2.82-1.78,3.39-3.57.68.7.86,1.72.53,2.27,2.52-.62,3.4-1.6,3.88-3.61.64.73.83,1.55.8,2.67,2.2-1.32,3.59-2.85,3.74-5.88.36.89,1.14,1.72,1.07,2.67,1.61-.97,2.57-2.32,2.94-4.54.77,1.29,1.25,1.45.8,3.21,1.87-1.49,3.24-3.76,2.94-7.22.31.82,1.04.55,1.02,2.14.85-1.22,1.77-2.92,1.39-5.35.35.72,1.1,1.31,1.87,1.34-.18-1.1.24-2.82.67-5.75.88.82,1.03,1.7,1.01,2.66,3.62-10.98-1.87-24.34-5.21-28.99l-54.41.93Z"/>
          <path id="path4431" class="cls-8" d="M6.41,63.94c-2.96,6.58-4.58,15.65.27,22.05-.09-2.01-.04-4.35.47-5.89.25.5.79.79,1.18,1.18-.49-1.57,0-1.37,0-2.59.39.09.79.16,1.18.24-.27-2.22-.78-3.36-.47-5.18.84.72,1.32.22,1.41.24-.41-.63-.24-3.07-.24-3.3,4.05-7.04,1.52-11.52-.26-10.08-1.55.75-2.87,1.07-3.55,3.35h0Z"/>
          <path id="path4431-3" class="cls-8" d="M71.06,64c2.96,6.58,4.58,15.65-.27,22.05.09-2.01.04-4.35-.47-5.89-.25.5-.79.79-1.18,1.18.49-1.57,0-1.37,0-2.59-.39.09-.79.16-1.18.24.27-2.22.78-3.36.47-5.18-.84.72-1.32.22-1.41.24.41-.63.24-3.07.24-3.3-4.96-6.81-.83-11.98.94-10.76,1.55.75,1.96,1.53,2.86,4.03h0Z"/>
        </g>
        <path id="path4532" class="cls-17" d="M13.98,43.09c-1.41,1.41-2.24,3.45-3.79,5.15-.19,3.43-5.62,5.83-3.55,9.28.48-1.92,1.34-.76,2-1.51-2.03,3.18-3.38,6.29-1.34,8.83-.11-1.67,1.15-2.36,1.88-2.95-.86,3.18-1.36,6.83,1.17,8.35.36-1.71.9-1.78,2.04-2.46-1.62,3.42.1,5.25,1.6,7.75-.15-1.42.49-2.51,1.07-3.48-.29,3.24,1.46,4.1,2.67,5.61-.05-1.91,1.08-2.89,1.34-3.21-.39,3.55.99,4.31,2.67,6.42-.29-2.17.52-2.4,1.6-3.48-.38,1.9.51,3.3,2.14,4.28,0-1.69.13-1.19.92-2.37.55,1.7.95,3.14,1.22,4.78,1.65-1.1,1.67-1.18,2.41-2.41.02,1.9,1.25,2.25,2.41,2.94.8-.88.94-1.5,1.37-2.07,1.03,3.08,2.08,4.02,3.55,5.05.7-1.54,1.15-2.4,1.87-3.37-.69,1.52,1.24,2.15,1.87,2.99.89-1.01,1.88-1.79,2.62-3.55,1.15.57,1.61.85,2.25,1.82,1.17-.55,1.65-2.02,1.67-3.92.73,1.22.75,1.31,2.41,2.41.27-1.63.68-3.08,1.22-4.78.78,1.18.92.69.92,2.37,1.63-.98,2.52-2.38,2.14-4.28,1.08,1.08,1.9,1.31,1.6,3.48,1.69-2.11,3.07-2.87,2.67-6.42.26.32,1.38,1.29,1.34,3.21,1.21-1.52,2.97-2.37,2.67-5.61.58.97,1.22,2.05,1.07,3.48,1.5-2.5,3.22-4.33,1.6-7.75,1.14.68,1.68.75,2.04,2.46,2.53-1.52,2.03-5.16,1.17-8.35.73.58,1.99,1.27,1.88,2.95,2.03-2.54.69-5.65-1.34-8.83.65.75,1.39.22,1.87,2.14,2.07-4.2-3.36-5.85-3.68-10.28-1.37-2.83-3.57-4.78-5.17-5.98l-48.05,1.31Z"/>
        <g id="g4768">
          <g id="g4464">
            <g id="g11044">
              <path id="path4366-3" class="cls-7" d="M16.38,3.99c1.38-1.79,3.34-2.72,5.9-3.99,2.46.1,6.07,2.8,6.98,4.69-3.84,6.22-9.33,12.89-14.18,15.28-.72-.09-2.73-.91-3.52-.96.78-.55,1.62-1.13,2.14-2.06-.8.27-1.45.58-2.52.57.59-.51,1.12-1.32,1.2-2.03-.45.59-1.71.72-2.86,1.09.91-1.16.42-.89,1.87-3.35-.18-2.97,2.82-6.76,4.99-9.25h0Z"/>
              <path id="path4368-9" class="cls-9" d="M16.43,3.99c1.28.1,2.45.23,3.44-.1-.63,1.04-1.47,1.77-2.53,2.13,1.59.14,2.73-.46,3.65-1.01-.53.86-1.21,1.25-2.03,1.52,1.15-.07,2.12.31,3.14-.3-.04,1.36,1.74,1.67,2.53,1.8.81,3.38-4.44,10.62-6.86,10.28.99.79.25-1.59-1.94-1.32-.4-.69.38-.76.6-1.75-.1.1-1.67.49-1.83,1.11-.76-1.26-.32-3.08.51-4.46-.54.67-1.49,1.68-1.72,2.73.19-1.15.19-1.96.71-3.04-.61.76-1.42,1.59-2.35,1.63.84-1.39,1.92-7.68,4.68-9.23h0Z"/>
            </g>
            <path id="path4317-3" class="cls-6" d="M6.15,8.6c-3,2.63-2.74,5.9-3.73,8.04,2.09-1.21,2.61-1.78,2.58-3.44.1,1.92.08,2.76-.41,4.75,1.44-1.25,1.97-1.56,2.7-4.18.69,1.41.27,2.52.08,3.49,4.52-.86,4.58-4.27,5.71-7.68C14.1,6.76,19.85,1.33,22.4.01c-4.95.74-12.43,5.23-16.24,8.58h0Z"/>
            <path id="path11037" class="cls-10" d="M10.92,6.51c-1.55,1.35-2.89,2.62-2.89,5.03.43-.34.83-.25,1.26-.38-.57.76-.63,1.16-.75,1.89.59-.34,1.19-.53,1.64-.75-.17.81-.43,1.09-.75,1.64,2.87-1.25,3.75-5.88,4.15-8.3-1.23-.03-1.73.33-2.64.88Z"/>
          </g>
          <g id="g4606">
            <path id="path4366-3-6" class="cls-7" d="M60.83,4.28c-1.38-1.79-3.34-2.72-5.9-3.99-2.46.1-6.07,2.8-6.98,4.69,3.84,6.22,9.33,12.89,14.18,15.28.72-.09,2.73-.91,3.52-.96-.78-.55-1.62-1.13-2.14-2.06.8.27,1.45.58,2.52.57-.59-.51-1.12-1.32-1.2-2.03.45.59,1.71.72,2.86,1.09-.91-1.16-.42-.89-1.87-3.35.18-2.97-2.82-6.76-4.99-9.25h0Z"/>
            <path id="path4368-9-4" class="cls-9" d="M60.77,4.28c-1.28.1-2.45.23-3.44-.1.63,1.04,1.47,1.77,2.53,2.13-1.59.14-2.73-.46-3.65-1.01.53.86,1.21,1.25,2.03,1.52-1.15-.07-2.12.31-3.14-.3.04,1.36-1.74,1.67-2.53,1.8-.81,3.38,4.44,10.62,6.86,10.28-.99.79-.25-1.59,1.94-1.32.4-.69-.38-.76-.6-1.75.1.1,1.67.49,1.83,1.11.76-1.26.32-3.08-.51-4.46.54.67,1.49,1.68,1.72,2.73-.19-1.15-.19-1.96-.71-3.04.61.76,1.42,1.59,2.35,1.63-.84-1.39-1.92-7.68-4.68-9.23h0Z"/>
            <path id="path4317-3-3" class="cls-6" d="M71.05,8.88c3,2.63,2.74,5.9,3.73,8.04-2.09-1.21-2.61-1.78-2.58-3.44-.1,1.92-.08,2.76.41,4.75-1.44-1.25-1.97-1.56-2.7-4.18-.69,1.41-.27,2.52-.08,3.49-4.52-.86-4.58-4.27-5.71-7.68-1-2.81-6.75-8.24-9.3-9.56,4.95.74,12.43,5.23,16.24,8.58h0Z"/>
            <path id="path4594" class="cls-1" d="M67.88,8.23c-1.17,1.3.22,2.41,1,3,1.58.63,1.37,1.76,2.4.4-.09-1.33-.39-1.54-1-2-.91-1.64-1.29-1.4-2.4-1.4Z"/>
          </g>
          <path id="path4333-0" class="cls-13" d="M61.37,54.08c2.82-1.96,3.4-5.11,3.03-8.68,1.24,1.55,2.27,2.27,2.2,4.68,1.23-2.05.75-5.68-1.38-8.9,2.25,1.3,3.1,3.65,3.31,5.59,1.69-3.17-.48-8.47-3.03-10.47,1.69-.12,3.33,1,4.17,3.23.65-3.87-3.78-8.27-6.57-11.06,2.08.09,3.99,1.37,4.76,3.58-.79-5-4.51-8.53-6.77-10.9,2.4.8,4.15,1.62,5.31,4.13-.3-5.92-3.59-5.03-4.44-7.78-.38-.05-2.69-1.53-4.92-1.41,1.51-1,2.67-1.46,4.55-.66-1.93-2.55-3.68-2.35-6.44-3.65l3.12-.66c-1.42-1.33-3.32-2.36-5.99-3.07,1.07-.32,1.28-.67,2.87-.86-1.31-2.46-2.95-.95-6.16-2.2-3.71-.96-7.7-1.03-10.18-.83-2.49.2-6.81-.07-10.47.84-3.17,1.2-4.8-.31-6.11,2.15,1.59.2,1.8.54,2.87.86-2.66.71-4.56,1.74-5.99,3.07l3.12.66c-2.75,1.3-4.5,1.1-6.44,3.65,1.88-.81,3.05-.34,4.55.66-2.23-.12-4.54,1.35-4.8,1.54-.73,2.9-4.02,2-4.32,7.92,1.16-2.52,2.92-3.33,5.31-4.13-2.26,2.37-5.98,5.89-6.77,10.9.78-2.22,2.69-3.49,4.76-3.58-2.8,2.78-7.22,7.19-6.57,11.06.84-2.23,2.48-3.35,4.17-3.23-2.55,2-4.72,7.3-3.03,10.47.21-1.94,1.06-4.29,3.31-5.59-2.13,3.22-2.61,6.84-1.38,8.9-.06-2.42.96-3.13,2.2-4.68-.37,3.56.21,6.72,3.03,8.68-1.03-1.9.49-3.61,1.4-5.08,6.89-3.49,39.76-2.02,42.35-.05.87,1.29,2.38,2.99,1.36,4.9h0Z"/>
          <path id="path4333-0-3" class="cls-5" d="M60.01,49.18c1.46,3.86-.64,6.6-2.78,8.21.56-2.42-.15-4.41-1.2-5.81.78,4.65-2.95,6.97-5.41,8.82,1.1-1.76.48-3.82.2-5.21-.32,2.99-3.26,5.5-5.81,6.01,1.27-1.27,1.14-2.66.6-4.01-.41,2.41-2.69,3.5-4.21,3.81-.53-1.99-1.36-2.89-2.54-4.07-1.18,1.06-2.01,1.95-2.54,3.94-1.52-.3-3.79-1.39-4.21-3.81-.54,1.35-.67,2.73.6,4.01-2.55-.51-5.49-3.02-5.81-6.01-.28,1.39-.9,3.45.2,5.21-2.46-1.85-6.19-4.16-5.41-8.82-1.05,1.4-1.76,3.39-1.2,5.81-2.15-1.61-4.25-4.35-2.83-8.03.18-.7.39-1.38.79-2.08-.94.38-1.69,1.45-1.99,1.96.65-8.06,16.04-14.35,22.03-15.52,6.65.24,18.76,6.07,22.12,14.01-.58-.48-1.11-.72-1.49-1.01.26.7.75,1.68.89,2.59h0Z"/>
          <path id="path10987" class="cls-15" d="M32.68,21.03c1.76-2.26-.7-3.23-1.76-4.08-.23.12-.5.08-.75.13-.45-1.14-1.74-.88-2.01-.88.17.25.17.59.25.88-1.03-.81-1.06-.21-1.64.25-.3.34-.34.84-.5,1.26,1.58-.02.38.11.88.25-1.52-.4-1.51.28-1.64,1.01-.78.52-.27.68-.5,1.26.75.2.61,0,.63,0-.7.7-.5,1.59-.5,2.52-1.77,2.12-4.57,2.04-6.16,4.03.63-.25.77.08,1.26.13-1.38.45-2.43,1.7-3.14,2.89.58-.41,1.11-.19,1.51-.13-1.51.83-2.01,2-2.52,3.52.76-.38,1.58-.23,2.26,0-1.45,1.26-1.81,2.58-2.14,4.53.54-.08.89-.13,1.51-.13-1.11.84-1.21,1.82-1.01,3.02.89-.49,1.28-.33,1.89-.13-1.01,1.1-.82,2.63-.63,3.77.69-.72,1.03-.9,1.64-1.26-.28.56-.06,1.03,0,1.38,1.2-.69,2.65-1.38,3.65-1.38-.54.38-.45.81-.63,1.13,1.74-1.45,5.8-2.35,6.57-2.22,0-4.63,4.3-10.18,4.59-14.27-3.16-.57-2.78-2.52-2.78-2.52-.7-2.11.32-2.92-.45-5.65,0,0,1.22,1.66,2.13.68h0Z"/>
          <path id="path10987-9" class="cls-15" d="M46.32,17.04c.23.12.5.08.75.13.45-1.14,1.74-.88,2.01-.88-.17.25-.17.59-.25.88,1.03-.81,1.06-.21,1.64.25.3.34.34.84.5,1.26-1.58-.02-.38.11-.88.25,1.52-.4,1.51.28,1.64,1.01.78.52.27.68.5,1.26-.75.2-.61,0-.63,0,.7.7.5,1.59.5,2.52,1.77,2.12,4.57,2.04,6.16,4.03-.63-.25-.77.08-1.26.13,1.38.45,2.43,1.7,3.14,2.89-.58-.41-1.11-.19-1.51-.13,1.51.83,2.01,2,2.52,3.52-.76-.38-1.58-.23-2.26,0,1.45,1.26,1.81,2.58,2.14,4.53-.54-.08-.89-.13-1.51-.13,1.11.84,1.21,1.82,1.01,3.02-.89-.49-1.28-.33-1.89-.13,1.01,1.1.82,2.63.63,3.77-.69-.72-1.03-.9-1.64-1.26.28.56.06,1.03,0,1.38-1.2-.69-2.65-1.38-3.65-1.38.54.38.45.81.63,1.13-1.74-1.45-6.38-2.92-7.14-2.79,0-4.63.25-6.12-1.87-9.51-1.01-1.81-3.1-3.76-3.09-6.16,1.38,1.15,3.04,1.2,4.52-.81-1.52-1.05-1.36-2.15-1.61-3.85-2.46-1.38-.52-4.21.54-5.05l.34.11Z"/>
          <path id="path11091" class="cls-10" d="M49.2,10.37c-1.72,1.84-1.5,2.57.22,2.85,1.24.27,2.07.09,2.63,0,.51-2.1.04-2.39-1.1-3.07-.58-2.21-1.28-1.22-1.76.22h0Z"/>
          <path id="path11093" class="cls-10" d="M55.19,17.83c-1.49,2.24.2,2.85,1.76,2.85.99-1.65.31-2.49-1.76-2.85Z"/>
          <path id="path11095" class="cls-10" d="M26.01,10.81c-1.81.57-2.2,1.32-2.85,2.41.4,1.06.15,1.71,0,2.63-1.48,1.15-1.96,1.27-2.41,2.63.16.5-.39,1.74-.44,1.98,1.2-.49,2.26-1.1,3.07-1.76,1.63-1.47,2.1-1.64,2.41-3.51,1.68-.64,2.1-1.37,2.85-1.98.13-1.28-.02-2.03-.22-2.63,1.24-2.63-1.72-.65-2.41.22h0Z"/>
          <path id="path4345" class="cls-12" d="M31.08,26.04c1-.49.53-5.19-1.07-5.63-2.37-.21-4.88,3.41-4.52,4.63.69,1.23,4.49,1.61,5.59,1Z"/>
          <path id="path4345-1" class="cls-12" d="M46.2,25.98c-1-.49-.53-5.19,1.07-5.63,2.37-.21,4.88,3.41,4.52,4.63-.69,1.23-4.49,1.61-5.59,1h0Z"/>
          <path id="path4347" class="cls-4" d="M28.71,22.07c-2.2.23-1.72,3.34.23,3.15,1.94-.19,1.97-3.38-.23-3.15Z"/>
          <path id="path4341" class="cls-4" d="M31.45,45.39c1.51.32,3.25.61,4.06.72-.26,1.38.12,2.85.5,3.96-2.41-.58-3.92-3.25-4.56-4.69Z"/>
          <path id="path4341-9" class="cls-4" d="M42,45.93c-.44.8-2.66,4.12-1.08,4.31,2.87-.69,4.89-3.57,4.84-4.74-.89-.18-2.95.2-3.76.43h0Z"/>
          <path id="path4347-9" class="cls-4" d="M48.57,22.01c2.2.23,1.72,3.34-.23,3.15s-1.97-3.38.23-3.15Z"/>
          <path id="path4343-6" class="cls-16" d="M34.76,46.61c-1.33-5.99,9.65-8.42,7.87-.08.17,2.32-.55,5.69-3.92,5.8-3.37.11-4.16-3.8-3.96-5.72h0Z"/>
          <path id="path3694" class="cls-3" d="M33.51,7.78c2.01-.22,4.35-.95,5.01-2.6,2.19,1.26,3.58,2.47,5.41,3.21,1.64.85,1.6,2.11,2.8,3.01.26,1.9.89,3.14.6,4.61-1.42.23-1.69,1.05-2.4,2-.93.93-1.21,1.65-1.4,2.6-.56,1.44-.6,2.28-.6,3.81-.27,1.63.02,2.5.2,3.41.99,2.18,2.41,3.24,2.85,4.98,1.34,1.74,4.28,6.24,2.57,10.09-.73,1.64-3.27,3.35-5.33,3.49-1.77.12-3.15-1.2-4.54-2.31l-.08.07c-1.39,1.11-2.76,2.44-4.54,2.31-2.06-.14-4.6-1.85-5.33-3.49-1.71-3.84,1.23-8.34,2.53-10.32.61-1.64,1.11-2.23,1.85-3.21.94-1.34.34-2.72.6-4.01.79-2.01-.15-2.87-1-4.01.97-2.15-.29-4.63-1-5.81-.51-1.73-1.92-2.41-1.5-4.31.81-2.11,2.42-2.84,3.31-3.51h0Z"/>
          <path id="path4335" class="cls-4" d="M38.6,42.05c-3.66.07-6.47-6.79.01-6.85,6.48-.06,3.65,6.78-.01,6.85Z"/>
          <path id="path4337" class="cls-4" d="M38.59,44.09c-.46-.71-.46-2.18-.08-2.8.53.67.46,2.15.08,2.8Z"/>
        </g>
      </g>
    </g>
  </g>
</svg>