<?xml version="1.0" encoding="UTF-8"?>
<svg id="Layer_2" data-name="Layer 2" xmlns="http://www.w3.org/2000/svg" viewBox="0 0 438.25 652.95">
  <defs>
    <style>
      .cls-1, .cls-2, .cls-3, .cls-4, .cls-5, .cls-6, .cls-7, .cls-8 {
        stroke-width: 0px;
      }

      .cls-2 {
        fill: #f7ddbe;
      }

      .cls-3 {
        fill: #e2ae7c;
      }

      .cls-4 {
        fill: #c19a6c;
      }

      .cls-5 {
        fill: #cf8b53;
      }

      .cls-6 {
        fill: #bb6623;
      }

      .cls-7 {
        fill: #e3a169;
      }

      .cls-8 {
        fill: #ffdfbb;
      }
    </style>
  </defs>
  <g id="set">
    <g id="border">
      <g id="g7615">
        <path id="path21324" class="cls-1" d="M.8,631.81h-.07c-.43.06-.76.75-.72,1.54.03.76.38,1.34.8,1.32"/>
        <g id="g7318">
          <g id="g4794">
            <g id="g4766">
              <path id="path6145-2-4" class="cls-7" d="M176.86,346.28c-.96-4.34.5-10.57-.2-16.13-2.91,2.18-9.72,11.67-14.8,13.77,0-3.37-7.93-6.4-3.29-13.15-6.75,5.07-6.78,8.82-11.5,14.58-2.75-3.66-4.66-4.63-5.03-12.84-6.89,2.76-10.08,2.24-14.57,11.7-1.1-4.94-7.2-1.49-2.67-12.01-9.26,1.85-12.93,3.21-18.69,13.35-.23-.57-4.51-6.58-3.21-12.88-4.9.46-8.55-1.57-12.28.46-2.21-2.73-3.87-4.41-3.78-9.62-3.19,1.18-6.24.48-9.46,3.5-.51-2.36-2.12-6.64,0-10.49-2.04-.38-5.89-2.41-9.46-1.75-1.32-3.05-3.67-5.42,0-11.36-4.15,0-8.21-.2-12.29.87,0-1.22.04-9.29,0-13.11-3.27.67-4.84-1.74-8.51,1.75-1.14-5.26-2.14-10.83,2.84-15.74-3.96.74-7.68,1.45-12.29.87.88-4.06,3.79-8.43,3.78-13.99h-.95c-1.58-1.17-3.15-2.33-4.73-3.5,1.22-2.83,2.8-5.19,3.78-9.62-2.83-1.05-5.03-2.36-9.46-4.37,0-6.66,1.71-8.24,7.56-13.12-4.55-1.68-7.34-3.42-14.18-2.62,1.21-5.6,5.23-10.09,8.51-15.74-2.98-1.1-5.09-1.62-6.62-6.12,2.35-5.43,4.66-9.84,8.51-14.86-1.76-1.39-1.91-3.87-6.62-5.25,1.93-4.46,2.8-6.64,9.46-8.74-2.52-3.11-3.18-3.89-8.51-6.99,4.49-3.12,7.43-7.04,16.08-7.87-3.21-2.97-5.49-4.87-7.56-9.62,2.63-2.43,7.13-7.01,11.35-8.74-2-2.77-.15-4.91-5.67-7.87,3.73-2.58,5.15-5.17,11.35-7-1.9-2.92-3.04-5.5-5.67-8.74,3.95-4.87,6.02-5.54,13.24-6.12-1.28-2.96-3.93-5.17-4.73-10.49,2.8-1.55,8.72-3.55,13.24-6.12v-.87c-.31-1.75-.63-3.5-.95-5.25,2.78-.51,8.08-1.76,12.29-.87.89-4.1-1.15-7.19-.97-12.03,4.24.78,8.42-1.38,13.01-.24.87-4-2.58-5.03-.02-9.62,4.91.91,9.69-1.93,14.67,1.54,1.16-1.8,1.16-7.81-.49-11.15,3.49-1.29,10.44-.22,15.87,1.75,0-4.1,1.24-8.55-.97-12.47,3.63-.67,11.05.93,15.87,1.11.95-1.97-3.92-9.15-1.43-11.82,3.63-2.52,9.14.47,15.84,3.73,1.23-2.84.49-8,1.64-11.39,4.68.87,8.16,3.37,13.49,3.95.13-.96.8-5.24,2.38-8.06,4.16,0,10.14,2.4,14.18,4.37.43-3.59,1.42-2.91.95-7.87,5.07,0,7.43-.18,13.24,4.37,2.29-3.18,3.39-1.28,8.79-6.72,2.75,1.91,1.19,5.91,6.02,6.38,1.51-1.4,3.2-4.92,6.44-6.85,3.96,3.59,3.5,5.79,5.01,7.19,4.83-.47,6.39-5.05,9.13-6.96,6.03,4.29,4.63,6.42,6.92,9.6,5.81-4.55,5.67-6.68,10.75-6.68-.47,4.95,5.52,3.62,5.95,7.21,4.04-1.31,7.17-5.7,11.32-5.7,1.57,2.82,2.98,7.76,5.24,11.37,5.33-.57,5.24-5.07,9.92-5.93,1.15,3.38,4.7,9.21,5.93,12.05,6.71-3.27,7.21-2.94,10.84-4.39,2.49,2.66,2.63,11.17,3.58,13.14,4.82-.18,8.67-3.1,12.29-2.43-2.21,3.93,2.61,9.04,2.61,13.14,5.43-1.97,8.81-3.04,12.29-1.75-1.65,3.34-.21,8.69.95,10.49,4.98-3.47,7.61-.63,12.52-1.54,2.55,4.58-2.32,8.26-1.45,12.26,4.58-1.14,5.91-.3,10.15-1.09.18,4.83,1,7.27,1.89,11.37,4.22-.89,9.52.36,12.29.87-.31,1.75-.63,3.5-.95,5.25v.87c4.52,2.58,10.44,4.57,13.24,6.12-.8,5.32-3.45,7.53-4.73,10.49,7.22.58,9.29,1.26,13.24,6.12-2.64,3.24-3.78,5.82-5.67,8.75,6.19,1.82,7.62,4.41,11.34,6.99-5.52,2.96-3.68,5.1-5.67,7.87,4.22,1.73,8.72,6.31,11.35,8.74-2.08,4.75-4.36,6.65-7.57,9.62,8.65.83,11.58,4.75,16.08,7.87-5.33,3.1-5.99,3.88-8.51,6.99,6.66,2.1,7.52,4.28,9.46,8.75-4.7,1.38-4.86,3.85-6.62,5.24,3.85,5.02,6.16,9.44,8.51,14.87-1.53,4.5-3.64,5.02-6.62,6.12,3.28,5.64,7.3,10.14,8.51,15.74-6.84-.8-9.63.94-14.19,2.62,5.85,4.88,7.56,6.46,7.56,13.11-4.42,2.01-6.63,3.33-9.45,4.37.98,4.44,2.56,6.79,3.78,9.62-1.58,1.17-3.15,2.33-4.73,3.5h-.95c0,5.56,2.9,9.93,3.78,13.99-4.61.57-8.34-.15-12.29-.88,4.97,4.9,3.97,10.48,2.84,15.74-3.67-3.49-5.24-1.08-8.51-1.75-.04,3.83,0,11.89,0,13.12-4.08-1.08-8.14-.87-12.29-.87,3.66,5.94,1.32,8.32,0,11.36-3.57-.66-7.41,1.37-9.46,1.75,2.12,3.85.51,8.13,0,10.49-3.22-3.01-6.27-2.32-9.46-3.5.09,5.21-1.57,6.89-3.79,9.62-3.73-2.03-9.03-3.29-12.2-3.15,3.03,6.92-1.26,12.93-1.49,13.5-5.76-10.14-9.43-11.5-18.69-13.35,4.52,10.53-1.57,7.08-2.67,12.01-4.5-9.47-7.68-8.94-14.57-11.7-.37,8.21-2.28,9.18-5.03,12.84-4.72-5.75-4.75-9.51-11.5-14.57,4.63,6.75-3.29,9.79-3.29,13.15-5.08-2.11-11.89-11.59-14.8-13.77-.71,5.56.76,11.79-.2,16.13-5.85-2.88-12.79-10.12-14.1-13.39-2.84,3.69-3.88,4.86-5.37,8.58-5.97-4-7.07-7.46-10.73-12.34-5.02,3.65-1.22,7.49,0,9.12-6.55-.39-10.77-7.18-11.8-12.34-3.74,7.27-5.91,10.95-13.42,13.95,1.64-5.33-.27-8.76-2.15-11.27-2.3,7.88-7.29,12.92-13.41,15.02-1.1-4.77,2.42-8.29,1.61-12.34-4.76,6.97-10.32,14.22-15.38,16.74h0Z"/>
              <path id="path10001" class="cls-6" d="M334.6.37c-20.74,5.79-58.78,35.69-69.02,54.32,7.5,1.77,13.5.21,17.52,1.52-2.95,5.99,3.16,7.02-.88,13.21,4.24,1.44,10.42,1.56,14.09,0,1.24,5.26,2.82,7.27,5.28,10.56,5.26.46,9.64-2.63,14.09-3.52,2.08,5.96,3.5,10.52,5.72,17.17,4.83-.64,10.13.62,13.65,1.32,2.95,5.55,2.45,6.98,3.96,14.09,4.66-1.56,11.41.09,16.29-.88.13,5.34,1.79,8.88,3.52,13.21,4.58,2.03,8.28.88,11.01,2.07,3.09-27.08-9.01-130.37-35.24-123.05h0Z"/>
              <path id="path10001-4" class="cls-6" d="M66.49,127.95C63.85,99.69,75.96-3.6,102.18,3.72c20.73,5.79,68.46,40.97,71.67,51.54-4.51,1.61-6.2.07-12.24-2.58-6.21,5.12-7.46,9.85-8.8,13.21-3.54-1.91-6.23-1.95-9.68-2.64-.4,4.32-.97,7.51-1.76,11.45-4.08,1.11-8.17.88-12.33.88-5.18,3.89-4.4,9.07-4.4,11.45-6.52,1.1-11.29.38-17.61-.88-2.2,3.79-1.76,7.33-1.76,11.45-6.46,4.71-13.58,0-14.97-.88-1.21,5.19-3.52,14.19-3.52,16.73-6.07.48-11.08.5-14.09-1.76-.15,6.42-2.31,10.53-6.2,16.28h0Z"/>
              <path id="path10314" class="cls-8" d="M379.48,221.03c10.56,7.74,20.97,7.48,33.93,15.24-3.42.83,3.45,1.27-5.48,5.24,5.57,9.95,3.9,8.11,10.72,13.11.07,9.09-5.75,7.49-8.04,10.49,7.01,5.93,9.87,8.5,13.4,13.11-4.24,3.78-11.82,7.68-12.06,7.87,7.99,7.61,10.8,8.84,16.08,15.73-4.14,8.42-5.89,1.7-10.72,5.24,8.32,6.86,16.08,22.82,16.08,32.77-12.99-5.7,5.36,14.43-5.36,31.46-4.55-2.36-6.04-3.38-9.38-5.24,6.25,10.51,7.61,22.67,3.35,35.39-3.73-3.27-5.29-1.75-10.05-5.24,4.33,13.16.79,22.36-8.05,28.84-9.38,4.15-15.67,18.7-24.12,24.91-.89-2.62-1.79-5.24-2.68-7.86h-1.34c-7.2,13.05-10.2,17.99-25.46,20.97.04-6.73-4.09-11.31-5.36-14.42-.95,21.44-16.55,23.08-30.82,31.46,5.26-6.23,0-8.77,0-13.11-6.37,17.14-22.18,23.97-37.53,20.97,13.1-11.02,1.99-6.49,4.02-13.11-4.72,19-22.55,14.25-33.51,22.28,3.13-5.89,2.68-10.89,2.68-17.04-7.58,11.36-12.61,19.51-25.16,21.44-12.56-3.62-17.58-11.76-25.16-23.12,0,6.15-.45,11.16,2.68,17.04-10.96-8.04-28.79-3.28-33.51-22.28,2.03,6.62-9.08,2.09,4.02,13.11-15.35,3-31.15-3.83-37.53-20.97,0,4.34-5.25,6.88,0,13.11-14.27-8.38-29.87-10.02-30.82-31.46-1.27,3.11-5.4,7.69-5.36,14.42-15.27-2.99-18.26-7.92-25.46-20.97h-1.34c-.89,2.62-1.79,5.24-2.68,7.87-8.45-6.2-14.74-20.75-24.12-24.91-8.83-6.48-12.37-15.67-8.04-28.84-4.76,3.49-6.33,1.97-10.05,5.24-4.26-12.72-2.9-24.88,3.35-35.39-3.34,1.87-4.83,2.88-9.38,5.24-10.72-17.03,7.63-37.16-5.36-31.46,0-9.95,7.76-25.91,16.08-32.77-4.83-3.55-6.59,3.18-10.72-5.24,5.28-6.89,8.1-8.12,16.08-15.73-.24-.18-7.83-4.08-12.06-7.87,3.53-4.61,6.39-7.18,13.4-13.11-2.29-2.99-8.12-1.4-8.04-10.49,6.82-5,5.15-3.15,10.72-13.11-8.93-3.98.55-5.72-2.86-6.56h0c3.23-4.69,31.11-6.75,25.53-10.56,18.63-12.33,18.14-4.93,50.08-19.48-8.57,0-15.84.35-25.53.88,22.41-10.73,62.12-4.55,87.16-15.85-4.47.89-19.23,1.17-24.65-.88,21.22-4.24,57.76-15.18,73.07-15.63,19.51,1.07,38.41,12.99,63.4,12.99-7.5,2.03-16.3,3.08-22.89,1.76,38.25,7.95,67.08,7.63,84.52,14.09-14.66.7-22.15-2.09-32.57,0,44.32,7.46,48.7,16.32,81.88,16.73-6.04,3.79-12.09,4.9-18.96,3.71h0Z"/>
              <path id="path10322" class="cls-3" d="M44.85,477.6c-3.49-9.89-4.98-21.23-1.48-31.8-5.23,8.91-8.81,18.04-7.86,29.46-9.2-12.53-12.3-35.5-5.24-53.57-5.99,3.67-9.33,4.52-7.87,16.07-4-20.45-2.34-43.53,5.24-61.6,31.63-50.02,109.76-110.83,192.61-109.34,82.86,1.5,170.32,45.15,200.04,111.05h0c7.59,18.07,9.25,41.15,5.24,61.6,1.46-11.55-1.88-12.4-7.86-16.07,7.06,18.06,3.96,41.04-5.24,53.56.95-11.42-2.63-20.55-7.86-29.46,3.54,10.71,1.97,22.2-1.61,32.17,4.34,13.51-38.49,20.89-56.16,20.89-27.51,0-69.86,3.18-95.77,11.82-57.16,19.05-162.92-13.81-206.16-34.79h0Z"/>
              <path id="path6210-6-7" class="cls-5" d="M35.46,485.12c-5.39,1.43-7.41,7.2-10,9.26,2.14,4.32,3.32,7.91,4.43,10.57-7.9.32-7.64,2.23-11.08,5.87,4.07,3.77,3.95,5.86,5.54,8.22-8.07-.54-10.12,3.35-14.4,9.4,4.01,2.8,7.68,7.58,9.97,9.4-7.62.42-8.62,4.36-12.18,9.4,3.47,7.9,4.81,3.64,7.75,5.87-3.79,6.3-8.73,11.17-9.97,12.92,4.21,4.6,3.83,4.88,5.54,7.05-4.74,5.19-3.84,7.25-5.54,11.75,6.79,1.02,6.53,5.2,8.86,7.05-4.93,6.74-5.34,8.37-6.65,15.27,3.76,2.11,4.99,3.02,7.75,4.7-1.15,3.71-2.85,9.23-3.32,11.75,4.78,1.92,6.16,1.45,9.97,2.35,3.7,4.69,3.32,6.71,3.32,11.75,5.69-2.74,7.76-4.12,11.08-5.87,16.77,3.37,35.64,3.07,45.41-4.7,5.95,5.16,6.58,9.81,7.75,12.92l5.54-4.7c-.09,6.13,4.21,7.14,5.54,9.4l5.54-5.87h1.11c.86,6.25,3.02,6.41,4.43,9.4,7.17-4.04,8.58-4.58,14.4-7.05-1.48,2.35-2.96,4.7-4.43,7.05h-1.11c6.21-.57,12.19-1.18,17.72-2.35,6.35,5.35,9.8.04,15.5-1.18-1.41,2.43-1.48,5.48-2.21,8.22,7.34-3.2,15.35-6.98,21.04-9.4,1.52,5.41-4.47,6.64-5.54,8.22,10.42-.13,15.94-4.16,21.04-8.22v8.22c6.42-4.46,14.61-8.39,18.83-11.75v5.87l-5.54,5.87c8.74-2.17,14.81-6.55,19.54-11.47,4.73,4.26,12.36,8.64,21.09,10.81l-5.54-5.87v-5.87c4.22,3.35,12.41,7.29,18.83,11.75v-8.22c5.11,4.06,10.62,8.09,21.04,8.22-1.06-1.58-7.06-2.81-5.54-8.22,5.7,2.42,13.7,6.2,21.04,9.4-.74-2.74-.81-5.79-2.21-8.22,5.7,1.2,9.16,6.53,15.5,1.17,5.53,1.17,11.51,1.78,17.72,2.35h-1.11c-1.48-2.35-2.95-4.7-4.43-7.05,5.82,2.47,7.22,3.01,14.4,7.05,1.41-2.99,3.57-3.15,4.43-9.4h1.11l5.54,5.87c1.33-2.26,5.63-3.27,5.54-9.4l5.54,4.7c1.17-3.1,1.8-7.76,7.75-12.92,9.77,7.77,28.64,8.07,45.41,4.7,3.31,1.76,5.38,3.13,11.07,5.87,0-5.04-.38-7.06,3.32-11.75,3.81-.9,5.19-.42,9.97-2.35-.47-2.51-2.17-8.04-3.32-11.75,2.77-1.68,3.99-2.58,7.75-4.7-1.3-6.9-1.72-8.53-6.65-15.27,2.33-1.85,2.08-6.03,8.86-7.05-1.7-4.5-.8-6.56-5.54-11.75,1.71-2.17,1.32-2.44,5.54-7.05-1.24-1.76-6.18-6.62-9.97-12.92,2.94-2.23,4.29,2.02,7.75-5.87-3.56-5.03-4.56-8.98-12.18-9.4,2.29-1.81,5.96-6.59,9.97-9.4-4.28-6.05-9.56-6.71-14.4-9.4,1.59-2.36,1.47-4.45,5.54-8.22-3.43-3.64-4.25-6.63-12.15-6.95,1.11-2.66,9.81-6.25,11.96-10.57-2.59-2.06-5.69-4.44-12.32-8.88.91-4.43,6.63-8.52,10.6-11.56-3.59-5.07-7.31-9.47-13.85-9.41,6.74-4.42,16.09-8.79,16.09-11.59-4.21-2.66-13.42-10.6-15.86-12.21,4.88-6.1,11.51-10.4,13.48-15.58-6.36-3.09-10.43-.98-14.72-5.48,2.05-5.59,9.87-7.68,13.59-14.73-6.6-1.37-16.86-5.26-20.77-9.36,2.29-6.3,11.27-8.81,12.94-13.19-2.91-.84-11.46-8.63-17.17-12.51,2.43-9.75,8.78-11.11,10.13-18.52-4.47-3.59-14.7-4.4-18.61-9.25,2.45-5.35,5.53-12.62,5.3-17.53-7.23-2.77-18.42.92-21.36-3.22-.28-5.22-1.25-6.54.59-14.12-6.91-.11-14.82.6-21.1.32,1.63-7.65,1.78-10.83,2.3-16.65-4.85-1.26-8.68-1.09-14.86-2-1.43-2.8,1.53-8.42-1.28-13.01-5.25.35-13.4,1-17.48,3.13-1.4-4.58.25-10.55-2.43-17.22-7.62,2.6-9.79,4.83-14.68,5.41-3.47-3.84-5.62-10.13-8.95-15.3-5.16,2.91-8.49,4.08-14.24,7.63-3.3-4.66-5.26-9.15-9.53-13.08-2.85,1-9.42,5.25-15.46,6.46-2.94-3.35-7.03-7.8-9.88-10.3-5.44,3.96-10.1,7.55-11.83,9.9-2.64-5.78-12.74-11.71-14.77-13.31-5.67,4.8-6.35,10.47-6.45,14.77-.11-2.57-11.22-7.25-16.67-11.2-2.85,2.49-4.75,9.82-7.69,13.17-6.04-1.21-16.91-8.69-19.76-9.69-4.27,3.93-6.23,8.42-9.53,13.08-5.75-3.56-9.08-4.72-14.24-7.63-3.33,5.17-5.49,11.46-8.95,15.3-4.89-.57-7.05-2.81-14.68-5.41-2.68,6.67-1.03,12.65-2.43,17.23-4.08-2.13-9-1.71-14.25-2.05-2.82,4.6.15,10.22-1.29,13.02-6.18.91-10.01.74-14.86,2,.51,5.82-2.92,13.05-3.45,17.47-6.29.28-10.21-2.7-17.11-2.59,1.84,7.58-1.6,13.83-1.87,19.05-2.94,4.15-11.53-1.81-18.76.96-.23,4.9,2.08,17.41,4.54,22.76-3.9,4.85-13.43,5.09-17.9,8.68,1.35,7.41,11.92,9.34,14.36,19.09-5.72,3.88-13.81,8.19-16.72,9.03,4.13,8.49,16.76,8.73,19.05,15.03-3.9,4.1-12.64,8.3-19.24,9.67,3.72,4.19,10.07,5.29,12.12,10.88-4.29,4.51-4.62,7.58-10.99,10.67,1.97,5.18,3.23,8.4,8.11,14.5-2.45,1.61-8.42,4.17-12.63,6.83,0,2.79,6.1,8.97,12.96,13.22-6.88,1.39-14.99,2.09-16.43,8.36l11.58,11.45Z"/>
            </g>
            <g id="g4782">
              <path id="path4768" class="cls-2" d="M292.16,574.22c7.86,11,17.33,19.85,14.88,29.76,7.35-5.51,9.99-12.43,13.64-27.28,5.91,17.71,4.21,35.77-2.48,52.08,26.39-10.56,38.08-37.96,39.06-62,4.56,17.23,1.19,26.38-4.34,38.44,36.79-14.72,22.53-54.93,17.36-81.83,5.63,7.51,10.76,11.43,9.92,22.32,11.15-27.88-19.19-49.26-29.76-71.91,9.82,3.93,15.39,8.75,14.88,19.84,0-29.66-22.74-49.66-49.59-59.52,7.75-1.55,12.65-2.34,19.84,3.72-8.7-21.75-36.94-38.21-60.75-31,8.72-6.54,12.01-10.97,23.56-6.2-19.4-19.4-53.7-11.23-64.47,9.92-1.83-9.13-1.25-15.46,8.68-21.08-18.86,0-31.55,9.1-42.16,26.04,0-11.56,1.75-22.51,13.64-26.04-31.98-6.4-45.4,27.43-44.64,54.55-7.93-7.93-15.79-12.64-12.4-26.04-19.07,19.07-22.47,47.83-3.72,65.71-13.56,0-25.22-11.68-29.14-21.7-1.66,24.25,6.48,44.95,21.7,58.89-12,2.4-18.44-2.75-22.32-9.92,2.48,26.64,12.01,43.38,33.48,47.12-9.16,0-21.34.73-31-6.2,7.67,19.16,20.86,39.37,42.16,35.34-15.05,4.37-23.96,14.81-38.44,8.06,5.94,14.86,27.38,14.04,47.11,11.16-11.73,7.04-23.8,11.18-40.91,9.92,17.2,12.9,50.95,23.05,79.35,11.16,21.77,17.16,59.92,5.4,64.47-17.36-12.11,4.75-21.51.82-29.76-2.48,11.22-3.16,31,.15,31-12.4-11.11,2.09-19.42.28-24.8-8.68,8.32,1.51,30.58-5.24,35.96-12.4h0Z"/>
              <path id="path4778" class="cls-4" d="M289.68,570.5c-6.62-13.39-27.28-16.25-30.82-4.66,15.26-4.67,25.24,3.18,30.82,4.66Z"/>
            </g>
          </g>
        </g>
      </g>
    </g>
  </g>
</svg>