<?xml version="1.0" encoding="UTF-8"?>
<svg id="Layer_2" data-name="Layer 2" xmlns="http://www.w3.org/2000/svg" viewBox="0 0 61.1 110.35">
  <defs>
    <style>
      .cls-1 {
        fill: #777;
      }

      .cls-1, .cls-2, .cls-3, .cls-4, .cls-5, .cls-6, .cls-7 {
        stroke-width: 0px;
      }

      .cls-2 {
        fill: #2b1100;
      }

      .cls-3 {
        fill: #d49468;
      }

      .cls-4 {
        fill: #d9d9d9;
      }

      .cls-5 {
        fill: #858585;
      }

      .cls-6 {
        fill: #909090;
      }

      .cls-7 {
        fill: #806a6a;
      }
    </style>
  </defs>
  <g id="Layer_1-2" data-name="Layer 1">
    <g>
      <path class="cls-7" d="M44.03,108.41c2.43.61,5.14,1.96,8.49.44,1.8.53,2.39.11,4.48,0,3.31-2.62,4.68-6.2,2.38-9.23,2.64-2.5,2.22-8.05-1.05-9.76,1.56-3.88-.75-7.09-2.27-8.18-.76-2.05-12.4-21.84-25.3-21.68-12.9.16-23.87,14.53-25.86,21.87-1.36.83-3.67,4.04-2.11,7.91-3.27,1.71-3.69,7.26-1.05,9.76-2.3,3.03-.93,6.88,2.38,9.5,2.09.11,2.68.27,4.49-.26,2.54,1.24,7.09,1.93,9.28-.15,5.96,1.26,21.83,1.24,26.17-.22h0Z"/>
      <path class="cls-5" d="M6.21,59.17c-2.98,3.3-2.52,9.59-1.05,13.19-1.48,4.72-.88,9.07,1.05,11.35-1.82,3.62-1.61,7.03,1.32,9.23-2.47,2.48-1.54,7.8,2.38,9.23-2.64-.2-3.61,5.3-1.32,6.6,2.01,1.13,6.18,1,8.18.53,2.74-.66,3.43-3.12,2.9-5.28,4.61-.96,6.06-5.57,4.22-8.71,3.48-2.23,4.14-6.46,1.85-9.76,2.96-2.72,3.75-7.59.79-10.29,2.41-2.08.3-5.88.25-8.58,2.45.6,5.1,1.85,7.79-.17-.3,2.57-2.41,6.63,0,8.71-2.96,2.7-2.18,7.57.79,10.29-2.29,3.3-1.64,7.53,1.85,9.77-1.84,3.13-.39,7.74,4.22,8.71-.53,2.16.16,4.62,2.9,5.28,2,.48,6.17.61,8.18-.53,2.29-1.29,1.32-6.79-1.32-6.6,3.91-1.44,4.84-6.76,2.37-9.23,2.93-2.2,3.14-5.61,1.32-9.24,1.93-2.28,2.53-6.62,1.05-11.34,1.46-3.6,1.92-9.89-1.05-13.2.32-5.46-2.72-10.93-5.67-12.9-11.51-10.02-23.12-11.39-36.91-.06-3.25,2.36-6.42,7.54-6.1,13h0Z"/>
      <path class="cls-6" d="M26.44,66.33c.56,1.11,3.96,5.79.23,9.14,2.28,1.82,4.56,8.36-1.05,10.27,3.88,5.29-.2,8.37-1.61,9.3,2.44,3.41.1,9-4.21,9,1.24,2.95-.42,3.96-1.53,4.7-2.88,1.87-7.95,2.19-10.17,0-1.96-2.8-.3-6.07,1.53-6.67-2.74-.5-5.9-5.84-2.44-9.21-1.22-1.5-3.66-2.68-1.29-9.16.86-3.06,2.68-4.4,5.03-5.56,0-4.34,2.62-7.25,5.39-7.59,0-5.12.5-7.99,4.65-10.85-3.26-6.52-.57-13.29,3.41-14.57,1.78-3,3.78-3.07,6.48-1.82,2.7-1.17,4.7-1.11,6.48,1.9,3.98,1.27,6.67,8.05,3.41,14.57,4.14,2.86,4.65,5.72,4.65,10.85,3.35.93,5.38,3.37,4.68,7.71,2.12-.02,4.06,2.85,4.8,5.33,2.72,5.19.28,7.08-1.06,9.04,3.46,3.37,1,8.94-1.74,9.44,1.83.59,3.49,3.87,1.53,6.67-2.22,2.19-7.29,1.87-10.17,0-1.11-.74-3.36-1.76-2.12-4.7-4.3,0-6.76-5.36-4.32-8.77-3.05-1.75-4.43-6.59-1.61-9.89-4.2-3.2-3.09-8.45-.81-10.27-4.08-2.76-.67-7.44-.12-8.55-2.01,1.47-5.17,1.29-8.03-.31h0Z"/>
      <path class="cls-5" d="M47.14,26.92c1.65-3.5,1.57-8.35,1.99-10.73-.46-4.08-.77-10.91-6.09-11.85-1.59-2.37-8.62-1.77-12.74-1.91-4.12-.14-10.57-.36-12.73,2.01-4.47,1.32-6.05,8.56-5.05,11.71-.85,2.71.13,8.92,1.59,11.46,4.63,7.09,27.88,3.79,33.04-.69h0Z"/>
      <path class="cls-1" d="M43.05.36c.72,7.89,7.22,20.52,12.2,24.14,3.64-4.68,5.99-15.64,5.34-19.57C57.37,1.82,49.33-.71,43.05.36h0Z"/>
      <path class="cls-4" d="M27.62,14.25c.62-2.94-.72-7.76-6.41-7.18.77.43,1.69,1.42,1.5,2.19-2.3-1.47-4.19-.88-5.4.62,1.49-.41,2.1.54,2.59.77-2.2.23-3.6.26-4.7,2.69,1.45-.74,2.09-.36,3.14-.19-1.61.65-2.76,1.86-2.7,4.5,1.59-2.34,6.09-3.88,7.77-1.72,2.08.97,4.28.34,4.2-1.68h0Z"/>
      <path class="cls-4" d="M33.87,14.28c-.62-2.94.72-7.76,6.41-7.18-.76.43-1.69,1.42-1.5,2.19,2.29-1.47,4.19-.88,5.4.62-1.49-.41-2.1.54-2.59.77,2.2.23,3.6.26,4.7,2.69-1.45-.74-2.09-.36-3.14-.19,1.61.65,2.76,1.86,2.7,4.5-1.59-2.34-6.09-3.88-7.77-1.72-2.07.22-3.1-.15-4.2-1.68h0Z"/>
      <path class="cls-3" d="M21.84,45.88c.73,1.32,1.29,2.73,2.12,3.4.8-1.13,1.71-2.8,2.41-3.68.68.99,1.02,2.8,2.27,3.9,1.28-1.38,2.15-2.62,2.55-3.76.66,1.4,1.37,2.71,2.12,3.83,1.02-1.08,1.82-2.88,2.69-3.97.39,2.04,1.62,3.11,1.98,3.83,1.14-1.12,2.08-2.6,2.27-3.69,3.86-8.07-.86-13.09-8.63-13.71-7.77-.63-12.7,3.64-9.78,13.86h0Z"/>
      <path class="cls-4" d="M36.95,35.95c3.71.33,1.71,6.97,4.47,13.69.77-1.89,1.43-3.29,1.24-5.4,1.14,1.25,1.92,2.93,2.89,4.82.65-2.63.61-4.72-.66-7.75,1.18.93,2.83,2.8,3.93,5.46.53-2.64.24-5.25-1.33-9.25,1.11.86,1.87,1.66,3.66,4.52.97-9.25-2.57-12.77-4.12-14.49-3.57-3.97-9.91-4.89-16.23-1.48-6.32-3.17-12.66-2.25-16.24,1.72-1.55,1.72-5.09,5.23-4.12,14.49,1.79-2.87,2.55-3.66,3.65-4.52-1.57,4-1.86,6.61-1.33,9.25,1.09-2.66,2.75-4.53,3.93-5.46-1.27,3.03-1.31,5.12-.66,7.75.97-1.9,1.75-3.57,2.89-4.82-.19,2.11.9,3.23,1.66,5.12,2.76-6.72.86-13.47,4.57-13.8,2.29.36,4.46-.27,5.82-.95,2.34.6,3.91.77,5.99,1.1h0Z"/>
      <path class="cls-2" d="M30.42,26.3c-5.73.09-5.42,7.09.2,7.3,5.62.21,5.52-7.39-.2-7.3h0Z"/>
      <path class="cls-2" d="M30.59,32.81c-.27.07-.46.34-.44.62l.1,1.98c-.04.34.28.68.62.66.35-.02.63-.38.56-.72l-.08-1.98c0-.37-.42-.67-.77-.57h0Z"/>
      <path class="cls-2" d="M30.61,35.15s-.04.02-.05.02l-2.91,1.08c-.34.06-.58.47-.45.8.12.33.57.48.87.31l2.73-.98,2.99,1c.3.13.7-.05.8-.36.1-.31-.1-.69-.41-.77l-3.2-1.08c-.11-.04-.24-.05-.36-.02h0Z"/>
      <path class="cls-2" d="M20.99,13.39c-4.12,0-4.05,5.88,0,5.92,4.05.03,4.12-5.91,0-5.92h0Z"/>
      <path class="cls-2" d="M39.84,13.42c4.12,0,4.05,5.88,0,5.92-4.05.04-4.12-5.91,0-5.92h0Z"/>
      <path class="cls-1" d="M17.89.25c-.72,7.89-7.22,20.52-12.2,24.14C2.05,19.72-.3,8.76.35,4.83,3.57,1.71,11.62-.82,17.89.25h0Z"/>
    </g>
  </g>
</svg>