<?xml version="1.0" encoding="UTF-8"?>
<svg id="Layer_2" data-name="Layer 2" xmlns="http://www.w3.org/2000/svg" viewBox="0 0 85.48 174.63">
  <defs>
    <style>
      .cls-1 {
        fill: #d9853c;
      }

      .cls-1, .cls-2, .cls-3, .cls-4, .cls-5, .cls-6, .cls-7, .cls-8, .cls-9 {
        fill-rule: evenodd;
      }

      .cls-1, .cls-2, .cls-3, .cls-4, .cls-5, .cls-6, .cls-7, .cls-8, .cls-9, .cls-10, .cls-11 {
        stroke-width: 0px;
      }

      .cls-2 {
        fill: #c67d3c;
      }

      .cls-3 {
        fill: #ffc094;
      }

      .cls-4 {
        fill: #eb8452;
      }

      .cls-5 {
        fill: #eb9853;
      }

      .cls-6 {
        fill: #eea05c;
      }

      .cls-7 {
        fill: #ef9f66;
      }

      .cls-8 {
        fill: #f9b483;
      }

      .cls-9 {
        fill: #f7c498;
      }

      .cls-11 {
        fill: #f59b70;
      }
    </style>
  </defs>
  <g id="svg6613">
    <g id="layer5">
      <g id="g6641">
        <path id="path6257-6" class="cls-2" d="M77.68,135.25c1.65.12,2.44,1.69,2.99,2.42-.74-.23-.96-.04-1.42.14.85.85,1.57,1.27,1.57,2.42,2.24.44,2.2,2.26,1.57,3.85.88.58,1.1.7,1.85.85-1.23,1.24-1.7,2.34-3.42,1.99.99,1.16,2.06,1.43,3.13,1,.07,1.24-.88,1.91-1.99,2.14,1.43,1.51,3.64,1.75,3.13,4.27-.86-.68-1.62-.62-2.56-.43,1.4.56,3.04,1.6,2.42,3.13-2.29.47-2.52,3.03-1.85,4.7,1.49.42,1.91.04,2.28-.57.52,2.52-.98,2.94-2.85,2.56,2.56.57,2.34,3.36.85,4.84.31-1.3-.65-1.64-1.71-1.85,2.07,1.76,1.57,4.45-.28,5.84.69-1.41-.72-2.67-1.28-3.42,1.46,1.96.08,4.27-1.99,4.27.48-.99.23-1.14,0-1.71-.83,1.75-2.37,2.2-4.13,1.85-4.43-.72-10.18-2.18-17.38-2.14-1.24,1.11-2.54.61-3.7.14-1.25.73-1.82.71-2.56-.28-.98,1.36-2.35.43-3.42,0-1.55.84-3.05,0-3.42-.28-.19.28-.38.57-.57.85h-.18s-.18,0-.18,0c-.19-.28-.38-.57-.57-.85-.37.28-1.87,1.12-3.42.28-1.06.43-2.43,1.36-3.42,0-.75,1-1.32,1.02-2.56.28-1.16.47-2.46.97-3.7-.14-6.8.36-10.94,2.22-17.38,2.14-1.76.35-3.31-.1-4.13-1.85-.23.57-.48.72,0,1.71-2.07,0-3.45-2.32-1.99-4.27-.56.75-1.97,2-1.28,3.42-1.85-1.39-2.35-4.08-.28-5.84-1.06.21-2.02.55-1.71,1.85-1.48-1.48-1.71-4.28.85-4.84-1.87.37-3.37-.05-2.85-2.56.37.61.79.99,2.28.57.67-1.68.43-4.23-1.85-4.7-.62-1.54,1.02-2.58,2.42-3.13-.95-.19-1.7-.25-2.56.43-.5-2.52,1.7-2.76,3.13-4.27-1.12-.22-2.07-.9-1.99-2.14,1.07.43,2.14.17,3.13-1-1.72.34-2.19-.76-3.42-1.99.75-.15.97-.28,1.85-.85-.63-1.58-.67-3.41,1.57-3.85,0-1.15.71-1.57,1.57-2.42-.47-.19-.68-.38-1.42-.14.55-.73,1.34-2.3,2.99-2.42,37.82-42.71,40.6-23.97,69.89,0h0Z"/>
        <path id="path6255-3" class="cls-6" d="M68.56,58.9c-.09,3.39,3.63,2.92,5.27,4.56,2.34,2.34,1.98,5.44,5.41,6.13-.89,1.71-2.43,1.45-3.99,1.14,2.4.05,2.61,3.11,1.57,4.84.07-1.67-1.03-1.85-2.56-1.85,1.96.73,2.93,4.18,1.28,5.41,2.68.88,3.56,2.45,3.56,5.27-.96-1.16-2.14-1.17-3.28-.71,1.92,1.25,3.75,3.98,2.14,6.13-.25-1.36-.89-1.62-1.85-1.42,1.64,2.38,1.46,4,4.27,4.56-.85,1.31-2.41,1.82-3.56,2.28,2.36,2.08,1.43,4.08,0,5.98,2.63.46.52,4.34,3.7,3.7-.25,1.62-2.06,2.04-3.7,1.71,1.17.85,3.17,1.42,4.13.14-.7,1.71-2.55,2.5-4.27,2.85,1.27,1.3,2.69.97,3.42,0,.14,2.54-1.36,3.42-3.85,3.42.1,2.43,3.67,3.59,5.41,2.28-1.16,2.23-2.86,3.93-5.56,2.85.58,1.7,2.13,3.19,3.85,2.85-.89,1.46-2.15,2.22-3.99,1.85.38,2.11,2.38,3.1,3.85,1.99-1.32,1.5-2.11,1.99-4.27,1.99,1.38,1.03,3.77,1.98,3.13,3.56-1.41-1.19-2.36-.42-3.42,0,1.27.85,1.66,1.89,3.28,1.57-1.43,1.16-1.47,2.06-3.28,2.42,1.37.77,2.09,1,2.85.43-.87,1.46-1.41,2.42-3.42,2.42,1.3,1.07,2.5,1.12,2.85,2.85-1.48-.28-1.94.71-3.28.71.84,1.5,2.05,1.56,2.56,2.85-.57-.16-1.49.07-1.85.14,1.04,1.12,1.76,1.93,1.28,3.13,1.14.89,1.44,1.05,2.28.71-1.38,1.33-2.34,2.38-4.27,1.99,2.15.5,3.29,1.76,2.85,3.99-.79-.84-1.51-.71-2.56-.71,1.55.83,1.9,2.51.85,3.13-.28-.24-.57-.47-.85-.71.22,2.11,1.57,3.28,3.7,2.85-.27,1.41-1.62,2.51-3.28,1.85,1.25,1.24,2.15,2.39,3.42,2.14-1.13.96-1.9,1-3.13,1,1.6.94,3.19,2.39,1.99,3.99-.2-1.23-1.23-1.16-1.85-1.28,2.32-.06.71.71.71.71,1.4,3.62-.14,5.41-2.28,6.7-2.73,1.63-6.69,1.71-9.54.57-4.51-.25-5.54-1.88-7.62-4.84-.12-.3-2.21-1.21-3.49-1.71,1.36.27,1.64-.86,2.99-1.42-.88-.66-2.02-.79-3.13.28,0-1.21.74-2.7,2.14-2.14-.22-1.3-1.48-1.43-2.85-.28-.32-1.62.2-2.33,1.28-3.56-.66.26-.76.43-1.99-.57.8-.6,1.82-.53,2.71-1.71-1.82.36-2.69-.01-4.13-1,1.65-.33,1.93-.92,2.85-2.42-.62.46-1.42.88-2.56.71,0-1.76.97-2.63,2.42-3.56-.39-.08-1.93-.29-2.85.43,0-1.84.83-3.12,3.13-2.71-.34-.07-1.87-1.16-3.42-1.71,1.09-.22,1.41-.93,2.99-1-.97.39-1.8-.1-2.99-.71,1.19-.48,1.51-1.21,2.56-2.28-1.3.98-2.26.08-3.85-1.28,2.34.47,2.69-1.03,2.85-3.28-.53.71-1.14,1.52-1.99,2.28,0-1.88-.18-3.48,1.57-4.7-.57-.23-1.03-.49-1.99,0,.26-1.32.43-2.32,1.85-3.13-.57.11-3.01-.45-1.28-1.57-.7-.28-1.71-.64-2.42-1.85,1.75.35,2.47-1.15,2.71-2.99-.47.19-1.28.41-1.99.28.49-.65.9-1.31,1.42-2.28-.49-.36-1.42-1.22-1.85-2.14-.65-.54-1.23-.43-1.99-.43.53-1.17.16-1.64-.43-2.42.67,2.15-1.15,2.86-2.18,3.7-1.02-.84-2.85-1.56-2.18-3.7-.58.78-.96,1.25-.43,2.42-.77,0-1.34-.11-1.99.43-.43.91-1.37,1.77-1.85,2.14.52.97.94,1.63,1.42,2.28-.72.12-1.52-.1-1.99-.28.23,1.84.96,3.34,2.71,2.99-.71,1.21-1.72,1.57-2.42,1.85,1.73,1.12-.71,1.68-1.28,1.57,1.42.82,1.59,1.81,1.85,3.13-.96-.49-1.42-.23-1.99,0,1.74,1.22,1.57,2.82,1.57,4.7-.85-.76-1.46-1.57-1.99-2.28.16,2.25.51,3.74,2.85,3.28-1.58,1.36-2.55,2.26-3.85,1.28,1.06,1.07,1.38,1.8,2.56,2.28-1.2.61-2.02,1.1-2.99.71,1.58.07,1.91.78,2.99,1-1.55.55-3.08,1.64-3.42,1.71,2.31-.41,3.13.87,3.13,2.71-.92-.71-2.46-.5-2.85-.43,1.46.94,2.42,1.8,2.42,3.56-1.15.17-1.95-.25-2.56-.71.92,1.51,1.2,2.09,2.85,2.42-1.44.98-2.31,1.36-4.13,1,.89,1.18,1.9,1.11,2.71,1.71-1.23,1-1.33.83-1.99.57,1.08,1.23,1.61,1.94,1.28,3.56-1.37-1.15-2.63-1.01-2.85.28,1.4-.56,2.14.93,2.14,2.14-1.11-1.08-2.26-.94-3.13-.28,1.35.56,1.64,1.7,2.99,1.42-1.28.49-3.37,1.41-3.49,1.71-2.08,2.96-3.12,4.6-7.62,4.84-2.86,1.14-6.81,1.06-9.54-.57-2.14-1.29-3.68-3.07-2.28-6.7,0,0-1.6-.78.71-.71-.63.13-1.65.05-1.85,1.28-1.2-1.6.39-3.05,1.99-3.99-1.23,0-2-.04-3.13-1,1.27.25,2.17-.9,3.42-2.14-1.66.66-3.01-.44-3.28-1.85,2.13.43,3.48-.74,3.7-2.85-.28.24-.57.47-.85.71-1.04-.63-.7-2.3.85-3.13-1.05,0-1.77-.13-2.56.71-.45-2.23.7-3.48,2.85-3.99-1.93.39-2.9-.67-4.27-1.99.84.34,1.14.18,2.28-.71-.48-1.2.24-2.01,1.28-3.13-.36-.07-1.28-.3-1.85-.14.52-1.29,1.72-1.35,2.56-2.85-1.33,0-1.8-.99-3.28-.71.35-1.73,1.55-1.78,2.85-2.85-2.01,0-2.55-.96-3.42-2.42.76.57,1.48.34,2.85-.43-1.8-.36-1.85-1.26-3.28-2.42,1.61.32,2.01-.72,3.28-1.57-1.06-.42-2.01-1.19-3.42,0-.63-1.58,1.76-2.53,3.13-3.56-2.16,0-2.95-.49-4.27-1.99,1.47,1.1,3.46.11,3.85-1.99-1.84.37-3.1-.39-3.99-1.85,1.71.34,3.27-1.15,3.85-2.85-2.69,1.08-4.39-.62-5.56-2.85,1.75,1.31,5.32.15,5.41-2.28-2.49,0-3.99-.88-3.85-3.42.73.97,2.15,1.3,3.42,0-1.72-.34-3.58-1.14-4.27-2.85.96,1.28,2.96.71,4.13-.14-1.64.33-3.45-.09-3.7-1.71,3.18.64,1.07-3.25,3.7-3.7-1.43-1.9-2.36-3.91,0-5.98-1.15-.46-2.71-.97-3.56-2.28,2.82-.56,2.63-2.18,4.27-4.56-.96-.19-1.6.07-1.85,1.42-1.61-2.15.21-4.88,2.14-6.13-1.13-.45-2.31-.45-3.28.71,0-2.82.88-4.39,3.56-5.27-1.64-1.23-.68-4.68,1.28-5.41-1.53,0-2.63.18-2.56,1.85-1.04-1.73-.83-4.8,1.57-4.84-1.56.31-3.1.57-3.99-1.14,3.43-.69,3.07-3.78,5.41-6.13,1.64-1.64,5.36-1.16,5.27-4.56h51.65Z"/>
        <path id="path6245" class="cls-9" d="M12.64,78.56c-1.17,2.2-1.58,5.05.43,6.55.09-1.26,1.06-1.58,1.71-1.71-2.02,1.65-.19,3.56,1.14,4.56-.48,1.2-.83,1.14-1.57,1.14,2.19,1.05,5.23,2.05,5.84-1-1.08,2.69-.63,4.49,1.85,4.99-.08-1.23.31-1.58,1-1.99-.38,3.51,2.57,5.98,5.41,5.41-2.91-1.32-3.99-3.32-3.99-6.55-1.58-.96-2.64-.24-3.13,1-.66-1.32-.62-2.69-.85-3.85-1.58.72-2.34,1.42-4.27,1.42,1.13-2.61-2.2-4.05.57-6.13-1.3-1.41-2.92-.92-3.56-.28-.2-1.36-.57-2.11-.57-3.56h0Z"/>
        <path id="path6247" class="cls-9" d="M11.07,99.36c-.67,3.92,2.97,3.66,3.99,6.2-2.83.72-5.34-2.43-3.99-6.2Z"/>
        <path id="path6253" class="cls-9" d="M22.18,110.33c1.7,1.25,1.11,2.85-.85,2.85,1.41,1.59,3.55.77,4.56.57-3.46,1.84.22,3.55,1.57,4.56-.91-1.27.57-1.74,1.14-1.85-1.26,2.02,1.15,2.88,2.28,3.56.27-1.06.52-1.45.71-2.42.89,1.69,1.33,3.99,0,4.99,1.67-.81,2.55-1.62,2.85-3.13,0,1.68.71,2.53,2.28,2.85-.66-1.75-1-2.9-1-4.7-1.63-.37-2.15.66-2.56,1.71-.54-1.58-.93-2.65-.14-3.7-2.08.35-2.85,1.22-2.85,2.71-1.8-.77-1.8-2.07-.57-2.99-1.45-.13-3.32.36-3.85.57.6-1.77,1.26-2.4,2.14-3.56-1.02-.04-2.47.28-2.71.28-.5-2.2-1.84-3.15-2.99-2.28h0Z"/>
        <path id="path6245-2" class="cls-9" d="M72.84,78.56c1.17,2.2,1.58,5.05-.43,6.55-.09-1.26-1.06-1.58-1.71-1.71,2.02,1.65.19,3.56-1.14,4.56.48,1.2.83,1.14,1.57,1.14-2.19,1.05-5.23,2.05-5.84-1,1.08,2.69.63,4.49-1.85,4.99.08-1.23-.31-1.58-1-1.99.38,3.51-2.57,5.98-5.41,5.41,2.91-1.32,3.99-3.32,3.99-6.55,1.58-.96,2.64-.24,3.13,1,.66-1.32.62-2.69.85-3.85,1.58.72,2.34,1.42,4.27,1.42-1.13-2.61,2.2-4.05-.57-6.13,1.3-1.41,2.92-.92,3.56-.28.2-1.36.57-2.11.57-3.56h0Z"/>
        <path id="path6247-8" class="cls-9" d="M74.41,99.36c.67,3.92-2.97,3.66-3.99,6.2,2.83.72,5.34-2.43,3.99-6.2Z"/>
        <path id="path6253-9" class="cls-9" d="M63.29,110.33c-1.7,1.25-1.11,2.85.85,2.85-1.41,1.59-3.55.77-4.56.57,3.46,1.84-.22,3.55-1.57,4.56.91-1.27-.57-1.74-1.14-1.85,1.26,2.02-1.15,2.88-2.28,3.56-.27-1.06-.52-1.45-.71-2.42-.89,1.69-1.33,3.99,0,4.99-1.67-.81-2.55-1.62-2.85-3.13,0,1.68-.71,2.53-2.28,2.85.66-1.75,1-2.9,1-4.7,1.63-.37,2.15.66,2.56,1.71.54-1.58.93-2.65.14-3.7,2.08.35,2.85,1.22,2.85,2.71,1.8-.77,1.8-2.07.57-2.99,1.45-.13,3.32.36,3.85.57-.6-1.77-1.26-2.4-2.14-3.56,1.02-.04,2.47.28,2.71.28.5-2.2,1.84-3.15,2.99-2.28h0Z"/>
        <path id="path6237-1" class="cls-5" d="M66.43,41.38c1.48.59,2.01,2.54,1.99,4.7-1.98,2.89,1.04,5.78,4.27,5.13-.29,1.88-1.3,2.14-2.99,2.14,2.4-.43,5.24,3.02,3.28,4.99-.52-1.58-2.28-1.17-3.13-1,3.21-.06,2.62,2.26,2.14,4.7-1.18-.25-1.25-.39-1.71-1-.2,1.99,1.8,2.85,3.13,1.85-.75,1.79-1.82,2.99-4.13,2.99,1.51,2.56-1.71,3.6-2.99,4.56.29-1.03-.17-1.61-.57-2.14.62,3.38-3.55,4.32-2.99,7.12-1.64-.71-2.11-2.13-1.85-3.42.9,3.31-1.88,5.22-4.27,5.7,1.19-1.14.57-1.95,0-2.71-.02,3.02-3.52,4.05-5.98,3.56.91-1.01.63-1.26.43-2.28.34,2.33-3.12,2.06-2.71,4.13-.95-1.31-2.33-.19-1-3.13-.06,2.06-3.42,3.39-4.6,4.52-1.68-.63-4.54-2.46-4.6-4.52,1.83,1.96-.05,1.82-1,3.13.41-2.07-3.05-1.8-2.71-4.13-.2,1.02-.48,1.27.43,2.28-2.46.49-5.96-.55-5.98-3.56-.57.75-1.19,1.57,0,2.71-2.39-.48-5.18-2.39-4.27-5.7.26,1.29-.21,2.71-1.85,3.42.56-2.8-3.61-3.74-2.99-7.12-.4.53-.86,1.1-.57,2.14-1.28-.96-4.5-2-2.99-4.56-2.31,0-3.38-1.2-4.13-2.99,1.34,1,3.33.14,3.13-1.85-.46.61-.53.75-1.71,1-.49-2.44-1.08-4.76,2.14-4.7-.86-.17-2.61-.58-3.13,1-1.97-1.97.87-5.42,3.28-4.99-1.69,0-2.71-.25-2.99-2.14,3.24.65,6.25-2.24,4.27-5.13-.01-2.16.52-4.11,1.99-4.7l23.69-.43,23.69.43Z"/>
        <path id="path5292-7" class="cls-7" d="M52.31,53.95c2.01,0,4.97-.47,4.75-3.11.15.77.43,1.65-.49,2.46,3.2-.64,5.06-2.45,4.42-6.55.82,1.1,1.26,2.59.16,3.77,1.59-1.19,2.46-3.11,1.8-5.73.52.69,1.29,1.83.33,3.11.86-1.14,1.66-2.24,1.47-4.58.4.53.64.46.33,1.64,5.73-7.64,1.51-20.76-4.91-27.18-3.48-3.48-10.54-3.8-17.62-3.89-7.08.16-14.14.49-17.62,3.96-6.42,6.42-10.64,19.54-4.91,27.18-.31-1.18-.07-1.11.33-1.64-.19,2.35.62,3.44,1.47,4.58-.96-1.28-.19-2.42.33-3.11-.66,2.62.21,4.54,1.8,5.73-1.1-1.18-.66-2.67.16-3.77-.64,4.1,1.22,5.91,4.42,6.55-.92-.8-.64-1.69-.49-2.46-.23,2.64,2.74,3.11,4.75,3.11,2.76-1.05,5.73-.16,9.76-.2,4.03-.03,7-.92,9.76.13h0Z"/>
        <path id="path5296-4" class="cls-4" d="M54.44,47.89c1.23,3.6-.45,7.98-3.11,8.51.91-.94.81-1.65.49-2.46.1,2.2-1.25,3.6-3.44,3.6.83-.77.65-1.45.65-2.46-.35,2.55-1.7,2.78-4.26,2.78,1.54-.46,1.56-1.34,1.31-2.62-.56,2.05-1.73,2.75-3.54,3.47-1.82-.65-2.98-1.35-3.54-3.4-.25,1.27-.23,2.16,1.31,2.62-2.56,0-3.91-.23-4.26-2.78,0,1.01-.17,1.68.65,2.46-2.18,0-3.54-1.4-3.44-3.6-.32.81-.42,1.51.49,2.46-2.66-.53-4.34-4.91-3.11-8.51-.8-4.47,7.62-10.44,10.97-10.31,5.35.2,13.02,6.19,12.81,10.24h0Z"/>
        <path id="path4959-1-3" class="cls-11" d="M50.36,46.55c-2.74,3.85-6.65.66-8.06.31-1.41.36-5.32,3.55-8.06-.3-6.92-10.76,8.65-17.55,16.38-9.82,3.14,3.85,2.3,6.77-.26,9.82h0Z"/>
        <path id="path5294-5" class="cls-8" d="M50.68,51.33c2.65,0,4.14-2.72,3.93-5.73.37,1.83.67,3.71-.82,5.24,2.62.52,4.53-3.59,3.44-6.22.77,1.03,1.66,2.69.98,4.58,2.13-1.6,1.75-5.15-.33-7.37,1.22.73,2.09,1.48,1.47,2.95,3.24-2.43.49-7.01-2.29-8.68.53.21,1.61.69,2.29,1.31-.99-4.69-4.9-8.36-10.81-7.37.39-.96.67-1.12,1.96-1.47-1.32-1.32-2.33-1.21-3.27.49.14-.7.47-1.75.82-2.62-1.23.25-1.77.17-2.46,1.64-.14-.68-.21-1.72-.33-2.62-.69.51-.9.73-1.64,1.8-.08-.42-.4-1.02-1.09-1.6-.69.65-1,1.25-1.09,1.67-.74-1.07-.95-1.29-1.64-1.8-.12.9-.19,1.94-.33,2.62-.69-1.46-1.22-1.39-2.46-1.64.34.87.68,1.92.82,2.62-.94-1.71-1.96-1.81-3.27-.49,1.3.35,1.58.51,1.96,1.47-5.91-.99-9.81,2.68-10.81,7.37.68-.62,1.76-1.1,2.29-1.31-2.79,1.67-5.53,6.25-2.29,8.68-.61-1.47.26-2.22,1.47-2.95-2.08,2.22-2.46,5.77-.33,7.37-.67-1.89.21-3.55.98-4.58-1.09,2.63.82,6.74,3.44,6.22-1.49-1.53-1.18-3.41-.82-5.24-.21,3.01,1.28,5.73,3.93,5.73-2.41-5.03.88-8.51,8.13-9.86,7.24,1.28,10.54,4.76,8.13,9.79h0Z"/>
        <path id="path5290" class="cls-1" d="M23.46,8.34c-3.13-3.57-5.05,4.14-8.84,2.62,1.12,1.36,1.65,1.8,3.27,1.47-1.75.93-3.33.78-4.58-.16.31,1.01.87,1.33,1.64,1.64-2.26.16-7.56,1.05-5.89,3.27-1.97.2-1.8,1.33-1.8,2.62.61-.62,1.18-.12,1.64-.16-3.63-.24-5.96,2.47-5.4,5.24.68-1.17,1.33-1.64,2.62-1.64-3.06,1.17-4.8,3.9-3.11,6.71.15-1.36.66-2.16,1.8-2.62-1.38,1.85-1.25,4.44-.16,5.89-.38-1.32.46-1.61,1.15-2.13-1.92,2.37-.41,6.57,1.31,7.86-.98-1.14-.53-1.53-.16-2.46-.66,2.41,1.78,5.05.16,7.2,1.54-.17,1.96-1.38,1.96-2.62-.28,2-2.42,4.29-.49,5.73.05-1.34.51-1.32,1.15-1.8-1.52,2.21-.61,4.41,1.47,5.24-1.51-1-.61-2.75,0-3.77.02,2.52.72,4.55,2.29,5.73.39-1.93,2.4-3.84.98-5.73.91,1.29,1.28,2.11.98,3.6,1.47-1.75,3.43-3.73,1.8-5.89,1.4.48,1.41.99,1.8,1.96.62-2.16,1.22-3.7,0-5.73,1.19.5,1.51,1.03,1.96,1.64.42-2.65-.18-4.83-.98-5.89.98,1.08,1.26,1.19,1.64,2.13.66-2.31.24-4.15-.82-5.57,1.16.58,1.43.93,1.64,1.96.41-2.66-.14-4.16-1.31-5.73-1.1-5.4,5.9-11.29,3.27-16.54-.67-1.34-.98-2.74-.98-4.09Z"/>
        <path id="path5290-7" class="cls-1" d="M61.65,8.27c3.13-3.57,5.05,4.14,8.84,2.62-1.12,1.36-1.65,1.8-3.27,1.47,1.75.93,3.33.78,4.58-.16-.31,1.01-.87,1.33-1.64,1.64,2.26.16,7.56,1.05,5.89,3.27,1.97.2,1.8,1.33,1.8,2.62-.61-.62-1.18-.12-1.64-.16,3.63-.24,5.96,2.47,5.4,5.24-.68-1.17-1.33-1.64-2.62-1.64,3.06,1.17,4.8,3.9,3.11,6.71-.15-1.36-.66-2.16-1.8-2.62,1.38,1.85,1.25,4.44.16,5.89.38-1.32-.46-1.61-1.15-2.13,1.92,2.37.41,6.57-1.31,7.86.98-1.14.53-1.53.16-2.46.66,2.41-1.78,5.05-.16,7.2-1.54-.17-1.96-1.38-1.96-2.62.28,2,2.42,4.29.49,5.73-.05-1.34-.51-1.32-1.15-1.8,1.52,2.21.61,4.41-1.47,5.24,1.51-1,.61-2.75,0-3.77-.02,2.52-.72,4.55-2.29,5.73-.39-1.93-2.4-3.84-.98-5.73-.91,1.29-1.28,2.11-.98,3.6-1.47-1.75-3.43-3.73-1.8-5.89-1.4.48-1.41.99-1.8,1.96-.62-2.16-1.22-3.7,0-5.73-1.19.5-1.51,1.03-1.96,1.64-.42-2.65.18-4.83.98-5.89-.98,1.08-1.26,1.19-1.64,2.13-.66-2.31-.24-4.15.82-5.57-1.16.58-1.43.93-1.64,1.96-.41-2.66.14-4.16,1.31-5.73,1.1-5.4-5.9-11.29-3.27-16.54.67-1.34.98-2.74.98-4.09h0Z"/>
        <path id="path5282-2" class="cls-8" d="M44.13,21.53c.29.71.98,1.32.82,2.46.91.18,1.86-.45,2.62-2.62,0,1.03.29,1.07.65,2.13.72-.96,1.2-1.95,2.78-1.8,1.08,0,2.17,1.86,2.78.82,1.18.24,2.77,1.61,4.09.49.63.25,1.31.59,1.64,2.13.6-.53.95.58,1.31-1.15.22.17,1.71,1.41,2.46,2.78.51-.68,1.07-1.26.49-2.46.33.44.98,1.57,1.47,2.78.7-1.75,2.6-12.6-.82-14.24.39-1.96-.77-2.44-2.13-3.6,0-1.94-.61-2.4-2.29-3.27.49.42.79-.31,1.15.98.25-1.24-.08-2.31-1.56-2.62-.85-1.66-2.18-1.6-3.68-.82.22-.16.43-.34.65-.49-1-1-2.51-1.19-4.26-.65-.99-.99-2.48-1.71-4.09-.33,0-.28.02-1.13.49-1.8-1.81-.73-4.13.17-6.16,2-2.04-1.76-4.35-2.66-6.16-1.93.47.68.49,1.52.49,1.8-1.61-1.38-3.11-.66-4.09.33-1.74-.53-3.26-.35-4.26.65.23.15.44.33.65.49-1.5-.78-2.84-.85-3.68.82-1.47.31-1.8,1.38-1.56,2.62.35-1.29.66-.56,1.15-.98-1.69.88-2.29,1.33-2.29,3.27-1.36,1.16-2.52,1.65-2.13,3.6-3.41,1.64-1.52,12.49-.82,14.24.5-1.21,1.14-2.34,1.47-2.78-.58,1.2-.02,1.78.49,2.46.75-1.37,2.23-2.62,2.46-2.78.36,1.72.71.62,1.31,1.15.32-1.54,1-1.88,1.64-2.13,1.33,1.12,2.91-.25,4.09-.49.61,1.04,1.7-.82,2.78-.82,1.58-.15,2.07.84,2.78,1.8.37-1.06.65-1.1.65-2.13.76,2.17,1.71,2.8,2.62,2.62-.16-1.13.53-1.74.82-2.46-.37,1.32.42,2.52,1.58,3.24,1.16-.79,1.95-1.99,1.58-3.31Z"/>
        <path id="path5286" class="cls-3" d="M39.66,14.56c.33-2.72-.38-6.51-2.62-6.06,0,.93,0,1.86,0,2.78-.11-3.86-5.72-4.92-8.35-2.95,1.49.12,2.17.51,2.62,1.64-3-1.34-10.48-1.04-10.31,2.37.6-.57,1.04-.46,1.47-.41-3.23,1.66-6.27,2.19-5.4,6.55.56-1.14.83-.95,1.8-1.15-2.95,1.54-3.32,6.54-1.47,9-.37-1.84.57-4.01,1.64-5.08-2.36,3.12-.57,6.35,1.96,7.37-.95-1.87-.43-3.85.49-5.08-.06,2.26.17,4.78,1.64,5.08-.65-2.07-.06-5.46,1.47-6.38-.56,1.8-.36,2.86,1.15,3.77-.4-2.93,1.51-6.9,4.09-6.38-2.27,1.52,1.64-.57,3.27.65.83,1.53,1.64,2.36,2.95,2.62-.14-1.08.15-1.57.33-2.46,2.18-1.79,3.41-3.13,3.27-5.89h0Z"/>
        <path id="path5286-4" class="cls-3" d="M45.44,14.49c-.33-2.72.38-6.51,2.62-6.06,0,.93,0,1.86,0,2.78.11-3.86,5.72-4.92,8.35-2.95-1.49.12-2.17.51-2.62,1.64,3-1.34,10.48-1.04,10.31,2.37-.6-.57-1.04-.46-1.47-.41,3.23,1.66,6.27,2.19,5.4,6.55-.56-1.14-.83-.95-1.8-1.15,2.95,1.54,3.32,6.54,1.47,9,.37-1.84-.57-4.01-1.64-5.08,2.36,3.12.57,6.35-1.96,7.37.95-1.87.43-3.85-.49-5.08.06,2.26-.17,4.78-1.64,5.08.65-2.07.06-5.46-1.47-6.38.56,1.8.36,2.86-1.15,3.77.4-2.93-1.51-6.9-4.09-6.38,2.27,1.52-1.64-.57-3.27.65-.83,1.53-1.64,2.36-2.95,2.62.14-1.08-.15-1.57-.33-2.46-2.18-1.79-3.41-3.13-3.27-5.89h0Z"/>
        <path id="path4941-97" class="cls-10" d="M31.34,21.51c-4.03.49-3.16,6.19.04,6.01,4.12-.23,4.03-6.5-.04-6.01Z"/>
        <path id="path4941-9-3" class="cls-10" d="M53.66,21.56c4.03.49,3.16,6.19-.04,6.01-4.12-.23-4.03-6.5.04-6.01Z"/>
        <path id="path7126-8" class="cls-10" d="M42.31,46.84c.48-.93.53-2.8-.13-3.74-.52.96-.53,2.62.13,3.74Z"/>
        <path id="path4943-4" class="cls-10" d="M42.17,44.38c-4.25-.24-6.35-7.34.12-7.74,6.47-.4,4.13,7.98-.12,7.74Z"/>
      </g>
    </g>
  </g>
</svg>