<?xml version="1.0" encoding="UTF-8"?>
<svg id="Layer_2" data-name="Layer 2" xmlns="http://www.w3.org/2000/svg" viewBox="0 0 87.29 120.64">
  <defs>
    <style>
      .cls-1, .cls-2, .cls-3, .cls-4, .cls-5, .cls-6, .cls-7, .cls-8, .cls-9, .cls-10 {
        stroke-width: 0px;
      }

      .cls-2 {
        fill: #4e0909;
      }

      .cls-3 {
        fill: #521010;
      }

      .cls-4 {
        fill: #5d0000;
      }

      .cls-5 {
        fill: #711c1c;
      }

      .cls-6 {
        fill: #420000;
      }

      .cls-7 {
        fill: #670b0b;
      }

      .cls-8 {
        fill: #691414;
      }

      .cls-9 {
        fill: #fff;
      }

      .cls-10 {
        fill: #6a1818;
      }
    </style>
  </defs>
  <g id="svg6613">
    <g id="layer5">
      <g id="g6150">
        <path id="path4810-6" class="cls-6" d="M70,89.93c3.92,3.06,7.87,11.82,6.35,17.1-1.48,5.15-5.23,9.81-12.05,11.23-3.44.52-7.66.22-11.11.51-3,.74-6.94-.26-9.47-.18-2.52.08-6.47,1.08-9.19.32-3.36-.02-7.98.01-11.25-.63-6.95-1.44-10.7-5.95-12.19-11.09-1.52-5.28,2.43-14.03,6.35-17.1,12.94-7.46,38.47-7.56,52.56-.16h0Z"/>
        <path id="path4808-3" class="cls-3" d="M54.27,100.17c-.21.28-1.45,1.38-2.83,2.22-2.1,1.8-5.58,2.44-7.73,2.52-2.15.08-5.63-.56-7.73-2.36-1.57-.42-2.18-1.15-2.94-1.72-.73-4.96,7.51-11.76,10.29-12.9,4.24.83,11.58,11.4,10.94,12.25Z"/>
        <path id="path4804-8" class="cls-10" d="M72.93,80.65c.47-7.88-4.57-15.4-6.1-18.07-.55-.91-1.34-3.98-3-5.53-8.69-8.49-30.85-8.15-40.47.81-1.72,1.54-2.2,3.96-2.74,4.87-1.53,2.67-6.58,10.2-6.1,18.07.29,4.82,3.11,8.6,5.13,12.33.42,6.91,4.64,11.91,4.64,18.44-.82,3.44-2.57,5.49-.24,7.57,2.82,2.52,9.52,1.54,10.74-.73,3.35-6.23-.61-14.04,1.95-18.32.17-2.2,5.14-4.84,6.83-8.06,1.66,3.29,6.97,5.71,7.16,7.9,2.56,4.27-1.4,12.09,1.95,18.32,1.22,2.27,7.93,3.25,10.74.73,2.33-2.08.58-4.13-.24-7.57,0-6.53,4.22-11.53,4.64-18.44,2.02-3.73,4.84-7.51,5.13-12.33h0Z"/>
        <path id="path4802-5" class="cls-7" d="M60.55,35.9c.28,1.35.83,3.31.82,4.35,1.43,4.81,1.94,10.89,1.88,16.49-.13,2.68-.44,4.53-.61,5.21,4.48,12.88-7.8,21.08-19.1,21.08s-23.58-8.2-19.1-21.08c-.17-.67-.47-2.53-.61-5.21-.06-5.6.45-11.68,1.88-16.49-.02-1.04.54-3,.82-4.35.47-2,1.94-3.65,3.59-5.3,6.79-6.79,21.47-6.29,28.58,1.31.95.95,1.08,2.55,1.87,3.99h0Z"/>
        <path id="path4673" class="cls-5" d="M54.17,43.91c1.2-2,2.42-3.34,3.66-5.74,3.16-1.9,6.08-6.5,7.35-10.92,6.28-5.08.47-18.09-6.12-21.3C57.15,2.75,49.74-.02,43.64,0c-6.1.02-13.5,2.8-15.42,5.99-5.28,2.89-12.78,13.62-6.28,21.27,1.3,4.46,4.59,9.3,7.75,11.2,1.24,2.4,2.22,3.5,3.42,5.5,3.83,1.77,17.54,1.96,21.06-.05h0Z"/>
        <path id="path4675" class="cls-4" d="M28.82,5.59c-.54-2.03-1.11-2.47-2.78-2.58-1.57-.11-4.24,1.14-5.37,2.58C13.18,15.17-.22,22.17,0,27.26c.38,8.74,3.43,16.23,8.55,23.06,8.2,10.95,21.26,7.43,19.48-1.59-3.07-15.56-11.71-24.67-1.39-37.58,1.41-1.04,3.23-3.27,2.19-5.57h0Z"/>
        <path id="path4675-2" class="cls-4" d="M58.46,5.54c.54-2.03,1.11-2.47,2.78-2.58,1.57-.11,4.24,1.14,5.37,2.58,7.49,9.58,20.89,16.58,20.67,21.67-.38,8.74-3.43,16.23-8.55,23.06-8.2,10.95-21.26,7.43-19.48-1.59,3.07-15.56,11.71-24.67,1.39-37.58-2.18-.98-4.05-3.54-2.19-5.57h0Z"/>
        <path id="path4681-7" class="cls-2" d="M35.17,45.79c-.07.37-.37,1.32.81,2.16,2.92,3.11,12.98,2.72,15.33-.05.74-1.44.63-1.88.36-3.25-3.35-.27-15.17-2.17-16.49,1.14Z"/>
        <path id="path4679-4" class="cls-8" d="M56.78,35.43c.09,1.46-1.57,2.58-2.02,2.72-2.23,4.15,1.85,7.73-3.85,9.54-2.08.66-4.95.03-7.09-.91-2.32.99-5.42,1.76-7.45.96-5.52-2.18-1.63-5.03-3.85-9.18-.39-.16-1.98-1.56-1.9-3.2,1.7-5.87,8.16-12.59,13.52-12.43,5.37.15,10.47,6.62,12.63,12.51Z"/>
        <path id="path4683" class="cls-1" d="M43.73,44.24c-3.95-.11-7.26-6.95,0-7.07,7.26-.13,3.95,7.18,0,7.07h0Z"/>
        <path id="path4689" class="cls-1" d="M43.72,46.49c.49-.73.75-2.93,0-3.74-.64.81-.71,2.85,0,3.74Z"/>
        <g id="g4741">
          <path id="path4685" class="cls-9" d="M36.2,16.93c-3.25-3.69-7.85-.05-7.5,3.18.24,2.26,3.62,3.86,6.61,2.91,1.8-.58,2.84-3.88.89-6.09Z"/>
          <path id="path4687" class="cls-1" d="M33.07,16.3c-3.84.04-4.15,6.07.12,6.19,4.27.11,3.72-6.23-.12-6.19Z"/>
        </g>
        <path id="path4685-7" class="cls-9" d="M51.28,16.9c3.25-3.69,7.85-.05,7.5,3.18-.24,2.26-3.62,3.86-6.61,2.91-1.8-.58-2.84-3.88-.89-6.09h0Z"/>
        <path id="path4687-5" class="cls-1" d="M54.42,16.27c3.84.04,4.15,6.07-.12,6.19-4.27.11-3.72-6.23.12-6.19Z"/>
      </g>
    </g>
  </g>
</svg>