<?xml version="1.0" encoding="UTF-8"?>
<svg id="Layer_2" data-name="Layer 2" xmlns="http://www.w3.org/2000/svg" viewBox="0 0 94 120.27">
  <defs>
    <style>
      .cls-1 {
        fill: #360000;
      }

      .cls-1, .cls-2, .cls-3, .cls-4, .cls-5, .cls-6, .cls-7 {
        stroke-width: 0px;
      }

      .cls-2 {
        fill: #711c1c;
      }

      .cls-3 {
        fill: #461717;
      }

      .cls-4 {
        fill: #700808;
      }

      .cls-5 {
        fill: #591414;
      }

      .cls-6 {
        fill: #691a1a;
      }

      .cls-7 {
        fill: #6a1818;
      }
    </style>
  </defs>
  <g id="Layer_2-2" data-name="Layer 2">
    <g id="svg6613">
      <g id="layer5">
        <g id="g3305">
          <path id="path4675-1" class="cls-3" d="M15.5,49.2c-5-6.7-8-14-8.4-22.6,0-1.5,1-2.9,1.6-3.2,3.8-3.5,24.3-4.5,19.7,4.2.5,3.9,1.8,6.9,3.3,10.9,7.2,8.1,8.9,14.8-2,17-4.1,1.2-9.9-.5-14.2-6.3h0Z"/>
          <path id="path4675-4" class="cls-3" d="M85.5,49.3c5-6.7,8-14,8.4-22.6,0-1.5-1-2.9-1.6-3.2-3.8-3.5-24.3-4.5-19.7,4.2-.5,3.9-1.8,6.9-3.3,10.9-7.2,8.1-8.9,14.8,2,17,4.1,1.1,9.9-.5,14.2-6.3h0Z"/>
          <path id="path4673-9-3" class="cls-6" d="M68.4,34.4c1.7-2.1,3-4.3,3.9-6.9.1-6.3-2-17.5-7-22.6-1.4-2.4-8.1-4.9-14.7-4.9s-13.4,2.4-14.7,4.8c-5,5.1-7.1,16.4-7,22.6.9,2.7,2.1,4.8,3.9,6.9,4.6,3,13.3,2.6,17.9,1.9,4.4.8,13.1,1.2,17.7-1.8Z"/>
          <path id="path4675-7" class="cls-5" d="M37.1,6.4c-1-2.2-2.8-3.4-4.5-3.5-1.5-.1-4.1,1.1-5.3,2.5C20,14.8,6.8,21.6,7,26.7c4,1.6,14,1.6,17.3,1.1,4-.6,8.1-.6,9.5-3.3,4.9-5.5,6.3-11.4,3.3-18.1h0Z"/>
          <path id="path4675-7-0" class="cls-5" d="M63.9,6.4c1-2.2,2.8-3.4,4.5-3.5,1.5-.1,4.1,1.1,5.3,2.5,7.4,9.4,20.5,16.2,20.3,21.3-4,1.6-14,1.6-17.3,1.1-4-.6-8.1-.6-9.5-3.3-4.9-5.4-6.3-11.4-3.3-18.1h0Z"/>
          <path id="path8913-0" class="cls-7" d="M73.2,65.5c.2-.6,1.1-2.4.5-4.1-.2-1.9-1.6-4-3-5.8,1.1-6.1-1.4-16.4-3.3-23.4-1.7-3.9-12.4-9.8-16.9-9.9-4.5,0-15.2,5.8-16.9,9.8-1.9,7-4.4,17.3-3.3,23.4-1.4,1.8-2.8,3.9-3,5.8-.5,1.7.3,3.5.5,4.1l22.7.4,22.7-.3h0Z"/>
          <path id="path4804-3" class="cls-2" d="M67.8,116.6c12.5.2,14.6-3.4,15.2-11.6.6-7.4-5.1-13.4-6.6-17,1.1-1.5,3-4.2,3.3-8.9.5-7.7-3.8-15.7-6-17.7-2.7-2.5-13.8-9.3-23.2-9.3s-20.5,6.7-23.2,9.2c-2.2,2.1-6.4,10-6,17.7.3,4.7,2.2,7.3,3.3,8.9-1.5,3.6-7.2,9.6-6.6,17,.7,8.2,2.8,11.8,15.3,11.6,8.3-.1,14.3-.4,17.3-.4,2.9.2,8.9.4,17.2.5h0Z"/>
          <path id="path9123" class="cls-4" d="M47.8,101c.3,8.2-11.8,11.5-22,12.1C15.3,113.6-.2,115.9,0,118.7c.2,2.4,20.7,1.3,30.3,1.4,8,.1,24.5-.3,25.5-8.5,1.4-7.6-4.8-13.8-8-10.6h0Z"/>
          <path id="path2129" class="cls-1" d="M31.7,53.7c1.9-1.3,3.7-2.6,5.9-2.7-3-1.3-5.3.3-5.9,2.7Z"/>
          <path id="path2129-9" class="cls-1" d="M69.3,53.8c-1.9-1.3-3.7-2.6-5.9-2.7,3-1.3,5.3.3,5.9,2.7Z"/>
        </g>
      </g>
    </g>
  </g>
</svg>