<?xml version="1.0" encoding="utf-8"?>
<!-- Generator: Adobe Illustrator 28.1.0, SVG Export Plug-In . SVG Version: 6.00 Build 0)  -->
<svg version="1.1" id="Layer_2_00000015322696285266820840000013598097211133967286_"
	 xmlns="http://www.w3.org/2000/svg" xmlns:xlink="http://www.w3.org/1999/xlink" x="0px" y="0px" viewBox="0 0 200.2 189.7"
	 style="enable-background:new 0 0 200.2 189.7;" xml:space="preserve">
<style type="text/css">
	.st0{fill:#EEA05C;}
	.st1{fill:#D9853C;}
	.st2{fill:#F09C56;}
	.st3{fill:#EF9F66;}
	.st4{fill:#EA9253;}
	.st5{fill:#FBB787;}
</style>
<g id="svg6613">
	<g id="layer5">
		<g id="g2753">
			<path id="path6322-1" class="st0" d="M101.1,36c-3.6-6-5.1-19,2.3-26.4c0.6-1.7,1.5-2.9,3.6-2.9c0-2.6,2-3.4,5.1-2.5
				c-1,0.1-0.3-1.3-2.1,0.2c0-2.3,2-2.6,4.6-1.7c1.4-1.1,2.7-1.3,4.4-0.2c-0.7-0.5-0.6-1.1-1.9-1.5c2.7-1.6,5.1-0.9,7.5,1.4
				c2.3-2.4,4.8-3.2,7.5-1.5c-1.4,0.4-1.2,0.9-1.9,1.5c1.8-1.1,3.1-0.9,4.4,0.2c2.6-0.9,4.6-0.6,4.6,1.7c-1.8-1.6-1.1-0.1-2.1-0.2
				c3.1-0.8,5.1-0.1,5.1,2.5c2.1,0,3,1.3,3.6,2.9c7.4,7.4,5.9,20.3,2.3,26.4c-4.2,6-16.9,0.4-23.5,1.3C118,36.4,105.2,42,101.1,36
				L101.1,36z"/>
			<path id="path6324" class="st1" d="M140.7,8.7c0.6-5.2,4.8-2.8,7.4-1.3c-1.4-0.9-2.3,0.1-2.5,0.2c2.1-0.1,2.7,0.7,3.4,1.9
				c1.6,1.1,2.7,1.4,4.2,0.6c0.5,2-0.8,2.1-2.5,2.1c2.4,0.2,3,0.2,4.4-0.6c0.6,2.2-0.8,2.3-1.7,2.3c3.3-0.1,6.3,0,6.3,3.2
				c-0.7-1.5-1.7-1.5-3.2-1.5c2.8,0.8,4.4,1.5,3.6,3.8c2.9,0.4,4.4,1.5,3.6,4c-0.5-1.8-0.9-1.7-2.5-1.5c3.2,1,4.7,3.3,3.8,6.1
				c-0.7-1.7-1.5-1.9-3.2-1.9c2.9,1.1,4.4,4.8,1.9,6.3c1-1.6,0.3-1.8-0.6-2.5c1.8,2.6,1.9,5.5-0.2,6.7c0.6-1.7-0.1-1.5-0.6-2.1
				c1.4,2.2,0,3.9-1.3,4.6c-1,2.2-0.9,3.6,0.4,4.6c-2,0.6-2.3-0.5-2.7-1.3c2.9,1.6,2.6,4.4,0.8,6.5c1.3-1.9-0.3-3.2-1.1-4.2
				c1.5,3.1,0.3,4.6-1.3,6.5c1.6-2.3,0.9-3.6-0.6-5.5c1.2,2.8-0.5,4.7-1.5,6.3c1.4-2.1,0.7-4.1-0.6-5.5c0.7,2,0.1,3.5,0.6,5.1
				c-2.7-1.3-2.3-2.8-2.7-5.5c-0.5,1.7-0.1,3.5,0.2,4.6c-3.4-1.1-3.5-3.6-4.9-5.9c-3.8-1.8-4.3-8.1-2.3-10.5
				c0.2-0.8,0.6-1.6,1.1-2.3c-0.9,1.1-0.9,1.3-1.1,2.5c-1.8-2.9-0.2-3.2,0.2-5.7c-1.6,1-1.3,1.2-1.5,2.1c-1.1-3.2-4.5-4.3-3.8-6.5
				c-0.3-1.3,0.4-2.1,0.6-2.5c-1-1.1-1.3-1.2-2.1-1.7c1.9-0.1,1.4-1.3,1.7-1.5c-1.5-0.6-1.6-1-2.1-1.9c2.1,0.1,1.7-0.3,1.9-1.5
				c-0.4-1.3-0.7-1.4-1.3-2.3c0.1-1.4,1.2-1.6,1.5-1.9c-1.1,0.3-1-0.5-1.3-0.6C139.8,9.8,140.3,9.4,140.7,8.7L140.7,8.7L140.7,8.7z"
				/>
			<path id="path6324-1" class="st1" d="M108.5,8.8c-0.6-5.2-4.8-2.8-7.4-1.3c1.4-0.9,2.3,0.1,2.5,0.2c-2.1-0.1-2.7,0.7-3.4,1.9
				c-1.6,1.1-2.7,1.4-4.2,0.6c-0.5,2,0.8,2.1,2.5,2.1c-2.4,0.2-3,0.2-4.4-0.6c-0.6,2.2,0.8,2.3,1.7,2.3c-3.3-0.1-6.3,0-6.3,3.2
				c0.7-1.5,1.7-1.5,3.2-1.5c-2.8,0.8-4.4,1.5-3.6,3.8c-2.8,0.4-4.4,1.5-3.6,4c0.5-1.8,0.9-1.7,2.5-1.5c-3.2,1-4.7,3.3-3.8,6.1
				c0.7-1.7,1.5-1.9,3.2-1.9c-2.9,1.1-4.4,4.8-1.9,6.3c-1-1.6-0.3-1.8,0.6-2.5c-1.8,2.6-1.9,5.5,0.2,6.7c-0.6-1.7,0.1-1.5,0.6-2.1
				c-1.4,2.2,0,3.9,1.3,4.6c1,2.2,0.8,3.6-0.4,4.6c2,0.6,2.3-0.5,2.7-1.3c-2.9,1.6-2.6,4.4-0.8,6.5c-1.3-1.9,0.3-3.2,1.1-4.2
				c-1.5,3.1-0.3,4.6,1.3,6.5c-1.6-2.3-0.9-3.6,0.6-5.5c-1.2,2.8,0.5,4.7,1.5,6.3c-1.4-2.1-0.7-4.1,0.6-5.5c-0.7,2-0.1,3.5-0.6,5.1
				c2.7-1.3,2.3-2.8,2.7-5.5c0.5,1.7,0.2,3.5-0.2,4.6c3.4-1.1,3.5-3.6,4.8-5.9c3.8-1.8,4.3-8.1,2.3-10.5c-0.2-0.8-0.6-1.6-1.1-2.3
				c0.9,1.1,0.9,1.3,1.1,2.5c1.8-2.9,0.2-3.2-0.2-5.7c1.6,1,1.3,1.2,1.5,2.1c1.1-3.2,4.5-4.3,3.8-6.5c0.3-1.3-0.4-2.1-0.6-2.5
				c1-1.1,1.3-1.2,2.1-1.7c-1.9-0.1-1.4-1.3-1.7-1.5c1.5-0.6,1.6-1,2.1-1.9c-2.1,0.1-1.7-0.3-1.9-1.5c0.4-1.3,0.7-1.4,1.3-2.3
				c-0.1-1.4-1.2-1.6-1.5-1.9c1.1,0.3,1-0.5,1.3-0.6C109.4,10,108.8,9.5,108.5,8.8L108.5,8.8L108.5,8.8z"/>
			<path id="path6326-9" class="st2" d="M96.9,65.3c-1.8-1.4-3.9-4.1-0.2-5.7c-1.3,0.2-1.7,0-2.3,1.5c-1.1-1.8,0.1-3.6,2.7-3.6
				c-1.1-0.4-2.9-0.7-3.4,1.3c-1.3-2.1,0.7-3.6,3.4-3.8c-0.9-0.5-1.3-0.2-2.3-1.3c1.2,0.2,7.4-1.6,1.5-1c-1.7-2.1,1.2-3.2,3.8-2.7
				c-0.6-0.1-0.5-1-1.7-0.2c-0.7-2.1-0.5-3.6,2.1-4.2c-1.5,0-2.2,0-3.4-1.3c0.7,0.1,1.4,0.4,2.1,0.2c-0.8-1.4-0.5-2.2,1.5-3.2
				c-0.7,0.3,0.1-0.7-1.7,0.8c-0.2-1.5-0.3-1.8,1.7-2.7c-1,0-2.8,0-1.5-2.1c2,0.7,2.5-0.1,4.4-1c-0.2,0-1.5,0.5-2.3-0.2
				c2.4-0.8,2.9-3.5,5.3-3c-0.7-1.1-0.5-1-0.1-1.7c0.7,0.6,1.5,0.1,1.9,0c-1.4-0.8,0-1.3,0.7-1.5c1,0.1,1.2-0.3,1.7-0.7
				c0.4-1.6,1.2-1.4,2.1-0.8c1.6-1.6,3-0.7,4.3-0.3c1.3-0.3,1.6-1,1.8-1.4c0.2,0.9,0.5,1,1,1.4c0.3-1.1,0.9-1.7,1.4-2.5
				c1.1-0.7,1.1-0.6,1.8,0c0.3-0.3,0.8-0.4,1.4-0.6c0.6,0.1,1.1,0.1,1.4,0.5c0.7-0.6,0.8-0.7,1.8,0c0.5,0.8,1.1,1.4,1.4,2.5
				c0.4-0.4,0.7-0.5,1-1.4c0.2,0.4,0.5,1.1,1.8,1.4c1.3-0.5,2.7-1.3,4.3,0.3c0.9-0.5,1.7-0.8,2.1,0.8c0.5,0.4,0.7,0.8,1.7,0.7
				c0.7,0.2,2.1,0.8,0.7,1.5c0.4,0.1,1.3,0.6,1.9,0c0.4,0.6,0.6,0.6-0.1,1.7c2.4-0.5,2.9,2.2,5.3,3c-0.8,0.7-2.2,0.2-2.3,0.2
				c2,1,2.4,1.7,4.4,1c1.4,2.1-0.5,2.1-1.5,2.1c2,1,1.9,1.3,1.7,2.7c-1.8-1.5-1-0.5-1.7-0.8c1.9,1,2.3,1.8,1.5,3.2
				c0.7,0.2,1.4-0.1,2.1-0.2c-1.2,1.3-1.9,1.3-3.4,1.3c2.6,0.6,2.8,2.2,2.1,4.2c-1.1-0.8-1.1,0.1-1.7,0.2c2.6-0.4,5.5,0.6,3.8,2.7
				c-5.9-0.5,0.2,1.3,1.5,1c-1,1-1.4,0.8-2.3,1.3c2.7,0.2,4.6,1.7,3.4,3.8c-0.5-2-2.3-1.6-3.4-1.3c2.6,0,3.8,1.8,2.7,3.6
				c-0.6-1.5-1-1.3-2.3-1.5c3.7,1.6,1.6,4.3-0.2,5.7l-27.7,0.1L96.9,65.3L96.9,65.3z"/>
			<path id="path6328-0" class="st2" d="M95.2,85.4c-0.8,0-3.1-0.3-4.5-1.6c-1.3-1.1-3.8-3.2-1.8-5.5c-0.6-0.9-1.4-2.1,0.4-3.7
				c-0.8-2.4,0.8-3.2,3.2-3.9c-1.8,0.6-3.7,1.5-5.1-1c0.7-0.6,7.5-5.5,1.8-1.4c0.4-2.3,1.8-3.1,4.7-3.3c-1.2-1-1.9-1.3-1-3.3
				c1.1,1.1,1.7,1.4,2.9-0.4c0.3-0.2,2.6-2.5,4.3-2.6c-1.7-0.8-1.2-1.1-1.2-2c1.2,0.6,1.6,0.3,2.6,0.2c1.2-1.6,1.8-1.1,2.8-0.8
				c0.1-2.7,2.6-2.8,4.1-2.8l-1,1.2h0.2c1.7-1.1,2.5-1.8,3.3-2.8c1.4,0.2,1.1,0.8,1.6,1.2c0.9-1.9,2.7-1.2,4.1-1.2
				c1.6-1.9,2.1-1,3.3-0.8c0.1-1.4,0.8-1.4,2-1.2c0.2,0,2.6-0.8,2.6-0.8s2.4,0.6,2.6,0.6c1.2-0.2,1.9-0.2,2,1.2
				c1.2-0.2,1.7-1.1,3.4,0.8c1.4,0,3.2-0.7,4.1,1.2c0.5-0.4,0.2-1,1.6-1.2c0.8,1,1.6,1.7,3.4,2.8h0.2l-1-1.2c1.5,0,4,0,4.1,2.8
				c1-0.3,1.6-0.8,2.8,0.8c0.9,0.2,1.4,0.4,2.6-0.2c0,0.9,0.5,1.1-1.2,2c1.7,0.1,4,2.3,4.3,2.6c1.2,1.8,1.9,1.5,2.9,0.4
				c0.9,2,0.2,2.4-1,3.3c2.9,0.3,4.4,1.1,4.7,3.3c-5.8-4.1,1.1,0.8,1.8,1.4c-1.4,2.5-3.3,1.6-5.1,1c2.4,0.7,4,1.5,3.1,3.9
				c1.8,1.7,1,2.8,0.4,3.7c2.1,2.4-0.5,4.5-1.8,5.5c-1.4,1.3-3.7,1.6-4.5,1.6l-29.4,0.1L95.2,85.4L95.2,85.4z"/>
			<path id="path6330" class="st3" d="M126.4,172.5c1.8,0.9,3,2.6,2.6,0.2c1,0.8,4.7,2.8,4.7,0.2c1.1,0.5,2.7,1.2,3.9-0.4
				c0.8,0.3,1.2,0,2.2,1.8c2-0.3,4-0.7,4.9-2.6c0.4,0.7,0.9,0.9,0.6,2.4c1.9-0.3,4.7,0,4.9-2.4c0.7,0.6,1.5,0.6,0.2,2
				c2,0.7,5.4-0.9,5.5-3.1c0.3,0.5,1.6,3,3.9,2.9c-0.5-0.9-0.6-2.5,0.4-4.5c1,0.6,1.6,1,0.6,2.8c2.3-0.4,4.3-1.9,2.4-4.5
				c1.2,0.4,2.8,1.1,1.2,2.6c1.3-0.8,3.3-1.8,1.4-3.9c1.7,0,3-0.6,2.8-3.1c-0.9,0.7-0.9,1.3-2.6,0c0.5-0.9,1.6-1.9,0.6-3.9
				c3.2-1.6,2.2-5.2-1-6.7c1.5,0,2.1,0.2,3.1-1c-1.7,0-2.6,0.1-3.9-1.2c2.5,0.4,3.5-1,3.4-3.5c-1.2,1-2,1.4-3.7,0.2
				c1.8-0.3,2.7-0.6,2.9-2.9c-1.1,0.2-0.9,0.6-2.9-1.6c0.7-2,0-3.1-1.8-3.9c0.3,0.1,0.7-1.6,1.6,0.6c0.7-2.1-0.8-2.8-3.1-3.4
				c2.2-0.4,3.6-0.9,3.7-3.5c-1.4,0.8-3,0.1-4.1-1.8c0.8-1.3,0.9-3.5-0.2-5.3c0.8,0.5,1.6,0.2,0.6,2c1.1-1.3,3.2-3,1.2-5.7
				c0.9,0.5,1.7,1,1.6,2.8c1.7-2.1,1.8-6.4-1.4-8.1c0.9,0.3,1.6,0.3,2.4,1.2c1.2-2,0.2-3.8-2.2-4.9c2,0,2.9-0.3,3.4-2.2
				c-2.7,0.9-3.2-2.2-4.3-4.3c0.3,0.5,0.8,1,1,1.6c1.8-1.4,1.1-3-1.2-4.7c0.9,0.2,1.5-0.2,2,1.4c1.4-2.3-0.2-4.8-3.4-5.7
				c2,0.3,3,0.2,3.5-1.8c-1.9,0.3-3.2-0.5-3.1-2.6c0.6-1.9,0.9-3.6-2.2-4.3c0.7,0,1.3-0.2,2.2,1c1.4-1.8,0.2-3.8-2.4-4.5
				c1.5,0,2.2,0.1,3.4,1.2c0.8-2.3-1-3.9-3.5-4.7c1.6-0.3,3-0.4,3.4,1.6c0.9-2.8-1-5.1-4.3-5.3c0.9-2.6,0-2.8-2.8-4.1
				c2,0,3.2-0.2,2.9-2.2c-3.2,1.9-1.6-4.3-5.5-3.7c0.5,0,0.5-0.8,0.8-1.2c-1.7,0-2-0.7-2.8-1.4c0.1-2.3-0.8-3-2.6-3.5
				c-0.8-1.6-0.5-2-2.4-2c-2.1,0.9-2.6-0.3-2.6-1.6c-0.8,0-1.6-0.3-2.2-0.8c-2.3-0.8-2.5-1.9-4.3-1.6c0.5-1.5,0.1-1.5-0.8-2.2
				c-1.5,1.1-1.3,0.1-2.2,0.2c-0.6-1.3-0.9-1.5-2.4-1.8c-1.1,0-1.8-0.4-2.9-0.2c-0.5-0.8-1.4-1.9-2.8-1.6c-1.5-0.1-2.1,1.2-2.8,1.8
				c-1.2-0.2-1.8,0.2-2.9,0.2c-1.5,0.2-1.8,0.5-2.4,1.8c-0.9-0.1-0.6,0.9-2.2-0.2c-0.9,0.7-1.3,0.7-0.8,2.2
				c-1.8-0.3-2.1,0.8-4.3,1.6c-0.6,0.5-1.4,0.8-2.2,0.8c0,1.2-0.4,2.4-2.6,1.6c-1.8,0-1.5,0.3-2.4,2c-1.8,0.6-2.7,1.3-2.6,3.5
				c-0.7,0.7-1.1,1.3-2.8,1.4c0.3,0.4,0.3,1.1,0.8,1.2c-3.9-0.5-2.3,5.7-5.5,3.7c-0.2,1.9,1,2.2,2.9,2.2c-2.8,1.3-3.6,1.6-2.8,4.1
				c-3.3,0.2-5.3,2.5-4.3,5.3c0.4-1.9,1.8-1.8,3.3-1.6c-2.5,0.8-4.3,2.4-3.5,4.7c1.1-1.1,1.8-1.2,3.3-1.2c-2.6,0.8-3.8,2.8-2.4,4.5
				c0.8-1.2,1.4-1,2.2-1c-3,0.7-2.8,2.4-2.2,4.3c0,2-1.2,2.9-3.2,2.6c0.6,2,1.6,2.1,3.5,1.8c-3.2,0.9-4.8,3.4-3.3,5.7
				c0.5-1.5,1.1-1.2,2-1.4c-2.3,1.7-2.9,3.3-1.2,4.7c0.2-0.6,0.7-1.1,1-1.6c-1.1,2.2-1.6,5.2-4.3,4.3c0.5,1.9,1.4,2.2,3.3,2.2
				c-2.3,1.1-3.4,2.9-2.2,4.9c0.8-0.9,1.4-0.9,2.4-1.2c-3.1,1.7-3.1,6-1.4,8.1c-0.2-1.8,0.7-2.2,1.6-2.8c-2,2.7,0.1,4.4,1.2,5.7
				c-1.1-1.7-0.2-1.5,0.6-2c-1.1,1.8-1,4-0.2,5.3c-1.1,1.9-2.7,2.6-4.1,1.8c0.1,2.7,1.5,3.2,3.7,3.5c-2.3,0.6-3.8,1.2-3.2,3.4
				c0.8-2.2,1.3-0.5,1.6-0.6c-1.8,0.9-2.4,1.9-1.8,3.9c-2.1,2.1-1.8,1.8-2.9,1.6c0.2,2.4,1.2,2.6,2.9,2.9c-1.7,1.2-2.5,0.8-3.7-0.2
				c-0.1,2.5,0.8,4,3.3,3.5c-1.3,1.3-2.2,1.2-3.9,1.2c1,1.2,1.7,1,3.2,1c-3.2,1.5-4.2,5.1-1,6.7c-1.1,2,0.1,3.1,0.6,3.9
				c-1.6,1.3-1.7,0.7-2.6,0c-0.3,2.6,1.1,3.1,2.8,3.1c-1.9,2.2,0.1,3.1,1.4,3.9c-1.6-1.5,0-2.2,1.2-2.6c-1.9,2.6,0.1,4.1,2.4,4.5
				c-1.1-1.8-0.4-2.2,0.6-2.8c1,2,0.9,3.6,0.4,4.5c2.3,0,3.7-2.5,3.9-2.9c0.1,2.2,3.5,3.8,5.5,3.1c-1.3-1.3-0.5-1.4,0.2-2
				c0.2,2.3,3.1,2.1,4.9,2.4c-0.3-1.4,0.2-1.6,0.6-2.4c0.9,1.9,3,2.2,4.9,2.6c1-1.7,1.3-1.5,2.2-1.8c1.2,1.6,2.9,0.9,3.9,0.4
				c0.1,2.6,3.7,0.6,4.7-0.2c-0.4,2.5,0.8,0.7,2.6-0.2c1.4,0.9,3.2,0.4,1.8,0.1C123.2,172.9,125,173.4,126.4,172.5L126.4,172.5
				L126.4,172.5z"/>
			<path id="path6332" class="st4" d="M114.2,164.6c-2.1,3.4-3.5,8.2,0.4,11.6c0-2.3,1.2-3.8,3.2-6c-2.8,1.9-3.1,7.8,0,10.5
				c-1.7-2.9,1-5.9,4.1-6.7c-2.5,2-3.7,5-0.4,7.1c-1.4-4.1,5.9-2.5,5.3-6.1c3.2,1.9-0.5,4.4-3.2,5.1c4.4,0.7,11.6-1.7,11.2-6.3
				c2.9,3.7-1.7,6-4.7,6.9c5.6-0.9,11.8-2.7,8.3-10c0,4.3,6.4,11.3,12.2,9.8c-2.9-0.5-4.7-3.8-4.9-6.7c1.1,6.5,10.2,3.3,13.6,8.7
				c5.1-4.1-7.4-5.5-8.5-8.9c1.8,3.1,12.6,1.4,12,7.7c1.5-2.4,1.3-4.9-1.6-6.7c0.9,1.5,12.9,9.7,5.9,11.4c5.2-0.9,5-5.7,1.2-8.9
				c3.2,1.1,7.4,4.9,2.9,7.5c8.6-2.9,3.9-6.7-0.6-12c1.2,7.2,14.9,0.9,17.5,8.1c1.9-3.2,0.5-6.3-2.9-7.3c3.7,1.9,10.4,6.2,3.5,8.7
				c4.9-0.8,10.4-4.9,5.1-9.4c2.1,1.7,4.3,4.7,2.2,7.5c6.6-4,1-11.9-6.5-12.2c2.7-0.9,10.6,0.3,9.3,4.1c7.1-8.9-15.8-7.6-19.5-9.2
				c4.3,1.4,12.9,1.1,12.2-4.9c0,6.8-14.5-0.7-18.9,1c2.2-2.2,7.3-1.6,10.4,0.2c0-5.6-15.2-7.2-18.5-2.4c-1.7-2.9-4.3-1.4-6.9,0
				c1.3-1.6,3-2.7,5.7-2.2c-3.6-6-8.3,0.5-11,2.8c1.1-2.1,2.1-4.9-1.1-5.7c1.6,3.9-4.7,4.9-8.2,3.1c1.7-0.6,4.3-1.5,6.3-0.2
				c-2.4-7.3-18.6,2.1-19.1-7.5c-0.3,0.4-0.5,0.8-0.8,1.2c-0.8-1.2-1.5-1.2-2.4-1.8c-0.9,2.6-0.9,0.6-2,1.4c-1-0.8-2-0.8-2.9-0.6
				c-1.4,0.7-1.7,1.1-2.4,2.2c-0.6-0.1-1.5,0-1.6,0c-0.8,0.6-0.2,1-0.4,1.6c-1.2,0.3-1.6,0-2.8,0c0,1.4,0.2,1.7,0.2,2.9
				c-0.5,0.5-1.6,0.6-2,0.8c-0.3,1,0.1,1.5,0.2,2.2c-0.7,0.6-1.1,0.7-1.6,1c1.6,1,0.5,1.2,1,2.2c-0.6,1-0.6,1.1-1,1.8
				c0.7,0,1.7,0.3,2.2,0.4c-1.8,0.8-0.9,1.1-1.4,1.8C113.3,164.2,113.8,164.4,114.2,164.6L114.2,164.6L114.2,164.6z"/>
			<path id="path6489" class="st5" d="M136.5,75.3c3.3,0,4.9,2.4,4.8,4.1C144,75.5,140.6,73.1,136.5,75.3z"/>
			<path id="path6491" class="st5" d="M146.6,116.9c-1-4.1-3.2-3.4-5.5-1.9c2.5-4.4-1.3-3.3-2.6-2.5c0.2-4.7,5.2-4.5,4.6-0.1
				C147,112.2,147,114,146.6,116.9L146.6,116.9z"/>
			<path id="path6493" class="st5" d="M146.3,140.1c2.7-5.5-4.4-6.9-6.4-4.7C143.1,134.7,145.4,137.5,146.3,140.1z"/>
			<path id="path6495" class="st5" d="M101.4,155.6c-3.2-2.5-3.3-1-5,0.7c-1.1-1.8-1.9-1.8-3.6-1c2,0.2,3.1,2.4,3.9,3.3
				C98.6,157,99,155.1,101.4,155.6L101.4,155.6L101.4,155.6z"/>
			<path id="path6497" class="st5" d="M107.3,71.2c-0.8-3.3,1.6-4.6,4.1-3.5c1.8-3.2,3.1-2.4,4.5-0.4c-2.5-1.7-3.4,0.4-4.1,2
				C108.9,68.4,108.2,69.1,107.3,71.2L107.3,71.2z"/>
			<path id="path6499" class="st5" d="M102,121.3c1.3-3.1,3.7-6.2,7.2-1.8c-3.9-1.7-4.9,1.5-5.4,2.5c-2.6,0.5-3.6,1.3-4.6,2.8
				C99.7,122.6,98.6,121.1,102,121.3L102,121.3z"/>
			<path id="path6493-6" class="st5" d="M116.3,99.4c-2.4-5.5,3.1-6.9,6.3-4.6C118.8,94.8,116.7,96.8,116.3,99.4z"/>
		</g>
	</g>
</g>
</svg>
