<?xml version="1.0" encoding="UTF-8"?>
<svg id="Layer_2" data-name="Layer 2" xmlns="http://www.w3.org/2000/svg" viewBox="0 0 263.58 418.28">
  <defs>
    <style>
      .cls-1, .cls-2, .cls-3, .cls-4, .cls-5, .cls-6, .cls-7, .cls-8, .cls-9, .cls-10, .cls-11 {
        stroke-width: 0px;
      }

      .cls-2 {
        fill: #f2f2f2;
      }

      .cls-3 {
        fill: #ccc;
      }

      .cls-4 {
        fill: #a6a6a6;
      }

      .cls-5 {
        fill: #333;
      }

      .cls-6 {
        fill: #fdf9e8;
      }

      .cls-7 {
        fill: #fff;
      }

      .cls-8 {
        fill: #ffe7b2;
      }

      .cls-9 {
        fill: #ebc79f;
      }

      .cls-10 {
        fill: #e2e2e2;
      }

      .cls-11 {
        fill: #f5f5f5;
      }
    </style>
  </defs>
  <g id="set">
    <g id="border">
      <g id="g4089">
        <g id="g3449">
          <g id="g7847-6-5-5">
            <g id="g17988-6-8">
              <g id="g3573-7-3-8">
                <path id="path2802-7-0-4" class="cls-3" d="M108.66,415.68c3.78,3.64,7.79,2.52,12.23,1.63,5.21.64,7.22,1.35,10.6,0,4.25.39,8.14.93,11.01-1.22,5.01,2.55,6.37-.81,8.25-.89,11.99,2.38,39.12-8.57,55.94.45,4.29,1.71,7.83,2.8,12.64,0,4.67.93,9.26-.84,10.19-5.71,2.71-3.61,6.36-7.85,2.86-13.86,1.59-3.97,4.65-7.8.41-13.05,2.9-4.83,3.37-11.98-2.85-15.49,2.9-3.87,2.61-9.8-1.63-13.46.64-3.17-.6-6.8-3.67-8.56-53.04-37.01-141.59-29.87-188.85-1.36-3.59,3.15-4.83,6.79-4.2,9.96-4.25,3.65-4.53,9.59-1.63,13.46-6.22,3.52-5.75,10.66-2.85,15.49-4.24,5.25-1.18,9.08.41,13.05-3.51,6.02.14,10.25,2.85,13.86.93,4.87,5.52,6.64,10.19,5.71,4.81,2.8,8.36,1.71,12.64,0,20.4-14.66,46.89-2.91,55.45,0h0Z"/>
                <path id="path2777-37-20-5" class="cls-11" d="M35.28,291.81c-2.42,6.66-3.76,11.68,0,16.69-4.53,6.58-4.68,12.3,0,15.81-6.62,8.67-1.41,16.56,2.64,21.96-2.23,9.64-.16,16.18,3.51,21.08-4.37,8.75,1.36,13.53,4.39,17.57-1.83,7.86.13,11.3,3.52,15.81-2.01,7.36-.15,5.95,2.63,9.66-.74,5.18,2.41,7.49,6.79,5.74,4.5.69,11.2,2.97,14.99.35,4.36,1.76,10.44,1.37,13.35-.82,2.7,3.25,7.41,2.94,10.13.89,3.96,1.25,8.82,2.51,10.78-2.17,4.72-1.16,5.1-6.79,3.92-10.31,4.46-5.96,4.57-6.16,2.17-12.18,6.05-5.01,4.21-11.29,2.92-14.46,6.48-1.05,5.3-7.62,4.33-12.48,3.79-3.29,5.81-7.89,4.98-12.01,8.64-30.94-53.98-109.06-91.07-61.14h0Z"/>
                <path id="path2777-3-1-7-6" class="cls-11" d="M224.4,292c2.43,6.66,3.76,11.68,0,16.69,4.54,6.58,4.68,12.3,0,15.81,6.62,8.67,1.41,16.56-2.63,21.96,2.22,9.64.16,16.18-3.51,21.08,4.37,8.75-1.36,13.53-4.39,17.57,1.84,7.86-.13,11.3-3.51,15.81,2.01,7.36.15,5.95-2.63,9.66.73,5.18-2.41,7.49-6.79,5.74-4.5.69-11.2,2.97-14.99.35-4.37,1.76-10.44,1.37-13.36-.82-2.7,3.25-7.4,2.94-10.13.89-3.96,1.25-8.82,2.52-10.78-2.16-4.72-1.16-5.1-6.79-3.93-10.31-4.46-5.96-4.57-6.16-2.16-12.18-6.05-5.01-4.22-11.3-2.92-14.46-6.48-1.05-5.31-7.62-4.34-12.48-3.79-3.28-5.8-7.89-4.98-12.01,12.22-54.79,44.77-90.1,91.07-61.13h0Z"/>
                <path id="path2773-2-4-5" class="cls-10" d="M43.7,246.68c-8.48,2.78-8.23,8.71-6.66,12.63-8.95,9.97-4.09,15.92-.88,20.2-6.77,8.7-.45,14.93,6.15,17.57-5.9,9.4,2.22,14.67,7.91,15.81-3.67,10.24,3.7,14.09,12.3,15.81,3.23,9.82,8.26,11.03,17.01,9.1,3.06,10.41,13.66,11.23,19.76,6.65,5.8,7.88,12.91,11.37,20.32,6.21,7.19,3.99,14.23,3.52,20.46.18,7.42,5.16,14.53,1.67,20.33-6.21,6.1,4.58,16.7,3.76,19.76-6.65,8.75,1.92,13.78.72,17.01-9.1,8.59-1.72,15.97-5.57,12.3-15.81,5.69-1.14,13.8-6.41,7.9-15.81,6.6-2.64,12.91-8.87,6.15-17.57,3.22-4.28,8.07-10.24-.88-20.2,3.99-4.53,1.22-10.46-4.24-13.24-35.84-67.08-134.54-71.46-174.7.42h0Z"/>
                <path id="path2771-8-2-7-6" class="cls-2" d="M213.41,220.52c5.54,6.82,3.98,8.33-.06,13.72,8.22,2.16,8.54,12.22,2.27,17.35.62,8.44-3.41,10.54-8.78,10.54.68,9.81-8.71,12.67-14.53,10.83-.86,5.09-6.66,12.25-14.46,8.5-3.42,5.01-12.4,6.3-18.04,4.04-4.36,5.51-13.21,6.4-19.32,1.82-5.82,6.57-16.52,5.99-21.28-.18-6.11,4.58-14.96,3.7-19.33-1.82-5.64,2.26-14.61.97-18.04-4.04-7.8,3.75-13.61-3.41-14.47-8.5-5.82,1.84-15.21-1.02-14.52-10.83-5.38,0-9.4-2.1-8.79-10.54-4.46-6.34-3.53-14.58,1.66-14.33-4.04-5.39,1.06-7.51,6.6-14.33,18.47-39.12,138.61-44.46,161.08-2.24h0Z"/>
              </g>
              <g id="g7822-1-3-8">
                <path id="path2629-6-6-5-0-4" class="cls-2" d="M68.18,236.36c2.47,3.29,9.91,11.24,17.66,13.61,2.34,3.1,9.78,7.15,14.02,7.15,3.76,3.09,8.66,4.75,14.33,3.53,5.33,2.12,7.55,1.64,12.93,1.64,1.53,1.93,7.34,2.66,9.34.19,5.38,0,7.6.48,12.93-1.64,5.67,1.23,10.57-.44,14.33-3.53,4.24,0,11.95-2.41,14.29-5.51,6.75-5.84,10.71-12.16,13.05-18.01-19.37-80.92-102.43-90.34-122.87,2.58h0Z"/>
                <path id="path2831-0-16-8" class="cls-4" d="M82.79,107.46c-5.01,14.03-21.91,42.53.86,51.56,7.84,3.11,91.7,8.28,101.39,3.44,19.11-9.56,16.84-40.99-2.58-50.7-12.85-6.42-77.17-10.76-99.67-4.29h0Z"/>
                <path id="path2623-9-75-8" class="cls-10" d="M83.88,126.92c-4.38,3.99-2.4,7.63-.94,11.28-3.57,4.81-1.43,8.36,2.35,9.87-.19,3.72,1.73,4.23,4.34,5.01-3.84,15.84-31.92,66.91-57.92,57.97-5.29,0-9.88-1.78-10.11-8.46-6.19-2.13-9.04-6.74-7.75-14.57-4.76-3.57-10.97-7.52-5.64-15.98-6.04-4.53-6.46-10.02-4.7-18.33-3.67-4.89-2.82-10.97-.94-16.92-3.59-4.78-3.84-11.45,1.88-17.39-2.82-4.69-3.11-9.67,1.41-15.51-3.12-4.16-2.98-12.45,4.23-14.1,0-5.88,1.88-9.84,6.81-12.69.23-6.67,2.5-10.18,7.75-10.81,35.91-26.65,57.83,22.51,64.07,51.2-5.01.3-6.38,5.61-4.85,9.43Z"/>
                <path id="path2617-8-0-7-3" class="cls-10" d="M238.91,66.49c5.26.63,7.52,4.13,7.75,10.81,4.93,2.85,6.81,6.81,6.81,12.69,7.22,1.65,7.35,9.94,4.23,14.1,4.52,5.84,4.22,10.82,1.41,15.51,5.71,5.94,5.46,12.61,1.88,17.39,1.88,5.94,2.72,12.03-.94,16.92,1.76,8.31,1.34,13.8-4.7,18.33,5.33,8.46-.88,12.41-5.64,15.98,1.29,7.83-1.57,12.44-7.75,14.57-.23,6.67-4.82,8.46-9.88,8.55-27.02-3.33-45.46-42.48-58.16-58.59,2.63-.25,4.55-.77,4.37-4.49,3.78-1.51,5.92-5.06,2.35-9.87,1.46-3.65,3.44-7.29-.94-11.28,1.53-3.82.16-9.13-4.87-9.96,10.46-14.88,32.7-63.62,64.09-50.67h0Z"/>
                <path id="path2613-2-4-8-8" class="cls-2" d="M148.6,123.72c5.36,2.14,10.34.04,15.44-3.09,6.83,4.41,15.19-1,16.62-6.65,4.73,1.89,14.72-2.52,14.72-8.55,4.61-1.84,12.14-.22,12.58-7.83,4.83-1.89,8.63-3.01,12.11-8.31,6.73-1.35,11.74-3.67,11.4-12.35,3.38-1.35,9.58-4.84,6.64-10.45,1.75-8.73,1.51-12.18-7.59-15.67,0-6.81-6.06-11.6-12.82-10.44,0-9.09-5.65-10.28-13.77-12.82-1.28-6.43-7.61-10.09-14.72-7.6-1.34-6.74-7.35-8.04-15.66-6.65-1.43-7.15-8.73-9.92-17.57-6.65-3.08-4.11-9.88-7.29-16.14-1.9-7.06-8.18-14.19-4.09-17.18-.61-5.17-4.97-11.97-1.79-15.05,2.31-8.84-3.27-16.14-.5-17.57,6.65-8.31-1.39-14.32-.09-15.67,6.65-7.11-2.49-13.43,1.16-14.72,7.6-8.12,2.55-13.77,3.74-13.77,12.82-6.75-1.15-12.82,3.63-12.82,10.44-9.11,3.49-9.34,6.94-7.59,15.67-2.93,5.61,3.27,9.1,6.64,10.45-.34,8.67,4.67,11,11.4,12.35,3.48,5.3,7.27,6.42,12.11,8.31.44,7.61,7.97,5.99,12.58,7.84,0,6.03,9.99,10.44,14.72,8.55,1.43,5.64,9.79,11.05,16.62,6.65,5.1,3.14,11.85,7.6,17.21,5.45,1.85,3.24,10.25,7.34,14.46,4.01,6.11,4.47,15.55-2.93,17.41-6.17h0Z"/>
                <path id="path2627-0-8-7" class="cls-6" d="M103.68,203.08c-2.09,2.78-4.6,6.24-6.66,10.41-3.6,4.8-4.5,11.07-5.2,17.57-.88,3.94-7.25,16.27-9.21,27.05-1.63.91-4-6.66-5.31-3.36-2.4-1.44-4.46-2.85-4.7-7.05-1.77-.35-4.14-.26-6.58-.47-2.75-2.07-3.07-4.36-5.64-7.05-1.28-.25-4.05-.86-5.64-1.88-1.55-1.16-2.23-1.99-4.23-4.7-.49-.11-3.2-1.31-4.23-.94-2.41-1.81-3.09-2.66-2.82-6.58-1.85-.37-2.96-.46-5.17-.47-1.5-2-3.57-2.66-3.76-6.58-.11.04-1.77.32-3.29.94-2.13-10.65.99-19.99,7.05-27.26,3.67-9.18,10.42-18.42,20.21-24.44,10.05-6.76,17.85-12.26,31.49-15.04,8.99-3.59,24.41-8.14,41.8-6.48,17.38-1.47,32.82,3.08,41.8,6.68,13.64,2.78,21.44,8.28,31.49,15.04,9.79,6.02,16.54,15.26,20.21,24.44,6.06,7.27,9.18,16.61,7.05,27.26-1.52-.62-3.18-.91-3.29-.94-.19,3.92-2.26,4.58-3.76,6.58-2.21.02-3.33.1-5.17.47.27,3.92-.41,4.77-2.82,6.58-1.03-.37-3.74.83-4.23.94-2,2.71-2.68,3.54-4.23,4.7-1.59,1.02-4.36,1.62-5.64,1.88-2.57,2.69-2.89,4.99-5.64,7.05-2.44.21-4.81.11-6.58.47-.24,4.2-.4,4.52-2.8,5.96-2.29-1.16-3.84,2.97-6.56,5.88-3.9-2.59-2.38-11.91-3.62-14.98-1.5-6.45-2.1-12.41-4.08-17.32-.7-6.49-4.04-11.4-7.64-16.21-2.06-4.17-4.02-7.08-6.11-9.87-16.93-22.11-46.54-17.67-56.49,1.71h0Z"/>
                <path id="path2558-8-1-9-5" class="cls-9" d="M149.37,202.13c-.04-1.3-.83-2.48-1.24-3.72-1.52,4.64-3.67,6.42-6.4,8.47-1.2-1.72-1.64-5.63-2.48-6.81-1.34,2.28-3.58,5.43-6.42,7.34-2.64-1.69-5.9-4.84-7.87-7.32-.84,1.18-1.28,3.24-1.65,6.61-2.74-2.06-6.33-3.83-7.85-8.47-.42,1.24-1.2,2.41-1.24,3.72-2.84-1.71-4.05-4.01-4.13-7.23-2.23-2.68-9.5-15.75-5.41-19.83,5.13-3.19,53.43-3.52,55.01,1.95,2.62,3.29-.39,13.57-5.77,17.66.54-.54,1.03-1.14.77-.85-.84,4.08-2.46,6.79-5.31,8.5h0Z"/>
                <g id="g2974-3-0-2">
                  <path id="path2543-7-7-4" class="cls-7" d="M110.86,136.96c1.44-10.02-9.46-15.55-15.07-14.84-10.49,1.33-16.5,10.92-8.71,22.28,6.72,9.81,22.59.89,23.78-7.44h0Z"/>
                  <path id="path2546-4-8-5" class="cls-1" d="M98.54,126.39c-11.62-1.19-13.76,15.15-1.97,15.78,11.89.64,13.25-14.63,1.97-15.78Z"/>
                </g>
                <g id="g2978-1-0-0">
                  <path id="path2543-4-1-3-5" class="cls-7" d="M150.98,138.39c-1.44-10.03,9.46-15.56,15.07-14.85,10.49,1.33,16.43,11.76,8.14,22.29-6.03,7.65-22.02.89-23.21-7.44Z"/>
                  <path id="path2546-1-3-10-7" class="cls-1" d="M163.3,127.78c11.62-1.19,13.75,15.14,1.97,15.78-11.88.64-13.25-14.62-1.97-15.78Z"/>
                </g>
                <path id="path2556-0-3-3" class="cls-8" d="M104.21,204.63c-4.18-4.63-5.14-7.28-5.28-10.61-2.15,3.52-3.45,5.64-5.15,8.49-3.31-4.41-3.79-7.67-2.92-15.77-2.83,2.94-3.8,5.8-6.4,8.26-3.53-12.54,2.6-26.12,8.62-33.32,9.02-10.79,22.1-19.28,38.46-18.88,16.36.4,30.61,8.89,39.62,19.69,6.02,7.2,12.15,20.77,8.62,33.32-2.6-2.46-3.57-5.32-6.4-8.26.88,8.1.39,11.36-2.91,15.77-1.71-2.85-3-4.97-5.16-8.48-.14,3.33-1.09,5.98-5.27,10.61-1.93-9.36-6.06-18.2-13.61-24.82-3.59-.08-11.37-.82-15.26-3.16-3.28,2.15-9.62,3.1-13.54,3.03-7.58,6.4-11.54,15.03-13.42,24.15h0Z"/>
                <path id="path2550-3-6-2" class="cls-5" d="M130.93,168.69c-.9.02-1.61.76-1.59,1.66h0s.06,6.35.06,6.35c0,.9.74,1.62,1.64,1.62.9,0,1.62-.74,1.62-1.64v-.02l-.08-6.33c0-.9-.72-1.63-1.62-1.63h-.04,0Z"/>
                <path id="path2548-2-73-7" class="cls-1" d="M130.84,172.8c-14.6-.3-17.05-20.81.12-21.06,17.16-.25,14.48,21.36-.12,21.06Z"/>
              </g>
            </g>
          </g>
        </g>
      </g>
    </g>
  </g>
</svg>