<?xml version="1.0" encoding="UTF-8"?>
<svg id="Layer_2" data-name="Layer 2" xmlns="http://www.w3.org/2000/svg" viewBox="0 0 305.89 445.33">
  <defs>
    <style>
      .cls-1, .cls-2, .cls-3, .cls-4, .cls-5, .cls-6, .cls-7, .cls-8, .cls-9, .cls-10, .cls-11, .cls-12, .cls-13 {
        stroke-width: 0px;
      }

      .cls-2 {
        fill: #f2f2f2;
      }

      .cls-3 {
        fill: #f9f9f9;
      }

      .cls-4 {
        fill: #4d4d4d;
      }

      .cls-5 {
        fill: #1a1a1a;
      }

      .cls-6 {
        fill: #131313;
      }

      .cls-7 {
        fill: #d45500;
      }

      .cls-8 {
        fill: #ccc;
      }

      .cls-9 {
        fill: #d9d9d9;
      }

      .cls-10 {
        fill: #b55c21;
      }

      .cls-11 {
        fill: #999;
      }

      .cls-12 {
        fill: #fff;
      }

      .cls-13 {
        fill: #e5e5e5;
      }
    </style>
  </defs>
  <g id="set">
    <g id="border">
      <g id="g4089">
        <g id="g3449">
          <g id="g21322-8-4">
            <g id="g3920-9-5-3">
              <g id="g3796-2-0-5">
                <path id="path3453-1-1-6" class="cls-8" d="M228.7,443.25c-11.95,2.44-20.25-.91-29.12-3.94-16.94,7.22-37.32,2.71-47.3,1.52-9.99,1.8-30.37,6.31-47.31-.91-8.87,3.03-17.16,6.38-29.51,3.29-10.19-2.65-23.14,1.26-31.56-7.28-6.93-9.24-10.82-41.76,2.38-50.35,11.71-16.97,19.88-42.35,26.58-67.77,16.33-42.86,89.5-72.8,137.78-31.23,14.57,24.28,29.12,51.36,42.85,74.78,8.26,9.31,19.1,16,16.63,28.36-6.67-7.62-8.55-5.02-11.87-4.75,13.21,8.59,9.32,41.11,3.3,48.57-11.61,3.79-23.38,5.59-32.87,9.71h0Z"/>
                <path id="path3336-2-7-7-5-1" class="cls-5" d="M62.99,331.75c-5.67,8.03-8.13,23.53-18.29,15.91,3.92,4.6,4.73,4.61,9.54,5.57-5.24,3.75-10.04,4.99-15.11,3.98,5.61,2.75,6.17,4.77,11.93,4.77-8.27,9.31-19.11,16-16.63,28.36,6.66-7.62,8.55-5.02,11.86-4.75,3.81.39,5.7-1.52,7.42-2.21,14.87-12.2,17.29-24.23,17.29-44.94,2.47-10.53-2.19-16.48-8.01-6.67h0Z"/>
                <path id="path3336-1-3-7-9-4" class="cls-5" d="M241.57,331.14c5.68,8.03,8.13,23.52,18.29,15.91-3.92,4.6-4.73,4.6-9.54,5.57,5.24,3.75,10.04,4.99,15.11,3.98-5.61,2.75-6.17,4.77-11.92,4.77-23.39-4.95-27.19-19.69-22.8-41.6,6.69,0,7.7,5.82,10.88,11.38h0Z"/>
              </g>
              <path id="path3334-97-7-0" class="cls-2" d="M67.58,222.08c-.42,40.92-1.45,73.12-5.34,126.92-1.76,24.38-2,38.76-6.34,60.48-2.69,10.99-18.5,26.86-8.85,32.87,7.38,4.61,16.83,2.76,26.03,1.76,16.29-1.78,11.77-29.37,12.53-44.95,2.06-41.62,10.08-72.62,16.41-104.24.73-29.83-7.11-65.08-34.44-72.84h0Z"/>
              <path id="path3334-6-6-0-3" class="cls-2" d="M236.99,221.46c.42,40.92,1.45,73.13,5.33,126.92,1.76,24.38,2,38.76,6.34,60.48,2.69,10.99,18.5,26.86,8.86,32.88-7.39,4.61-16.83,2.76-26.04,1.75-16.28-1.77-11.76-29.37-12.53-44.95-2.06-41.63-10.08-72.62-16.41-104.24-11.21-22.49,8.73-76.97,34.45-72.84h0Z"/>
              <path id="path3332-2-62-1" class="cls-13" d="M65.06,200.52c-4.51,9.7-10.42,11.84-20.38,13.83,5.71,4.77,9.87,5.93,17.04,4.49-1.39,8.61-6.12,6.5-11.67,5.39,4.35,7.54,8.29,10.7,17.04,7.19-1.21,8.55-5.09,15.03-13.45,11.68,5.73,6.6,9.92,6.09,16.15,3.59-5.09,8.76-12.35,13.63-9.87,26.05,4.63-3.78,7.51-5.28,12.56-6.29-2.57,8.36-1.34,17.51-7.18,23.36,6.69,2.24,8.67.45,11.67-1.8-1.35,12.07-5.77,17.22,4.35,24.83,7.46-3.53,12.96-3.71,14.48-11.36.64,5.9-1.12,17.86-2.75,21.94,6.75-3.11,10.68-10.74,16.21-12.96.25,3.17,1.24,14.11-1.39,20.51,11.01-2.04,15.03-10.3,21.89-17.17-2.65,8.34,3.09,18.71,7.63,24.76,7.97-9.92,10.99-7.21,13.55-20.84,2.55,12.1,12.93,12.02,20.91,21.95,4.54-6.05,3.54-14.5.9-22.84,6.87,6.87,20.5,10.33,31.5,12.36-2.62-6.4-6.43-15.41-6.19-18.58,5.53,2.21,10.42,8.89,17.17,12-1.63-4.09-4.36-15.08-3.71-20.98,1.53,7.65,7.02,8.79,14.48,12.32,10.13-7.61,5.7-13.72,4.36-25.8,3,2.25,4.98,4.04,11.67,1.8-5.84-5.85-4.61-14.99-7.18-23.36,5.04,1.01,7.92,2.51,12.56,6.29,2.48-12.42-4.78-17.29-9.87-26.05,6.23,2.5,10.42,3.01,16.15-3.59-8.37,3.35-12.24-3.13-13.46-11.68,8.76,3.51,12.7.35,17.05-7.19-5.55,1.11-10.27,3.23-11.67-5.39,7.17,1.44,11.33.28,17.05-4.49-9.97-2-11.99-11.24-19.73-17.07-15.55-26.5-52.06-45.62-88.27-44.28-34.46,1.27-71.96,26.54-89.6,47.37h0Z"/>
              <path id="path3330-7-8-2" class="cls-9" d="M111.93,145.81c2.08,10.94-22.83,21.9-19.08,3.18-8.23,10.37,2.2,21.26,11.13,15.9-11.04,8.33-28.25,1.07-24.65,19.09-1-9.23,8.09-8.85,14.31-6.36-2.95,9.39-12.32,13.21-21.47,9.54,4.41,7.36,8.9,10.42,14.31,6.36-13.78,10.76-5.13,20.81,3.18,27.04-6.22-6.54-.3-11.9,3.98-15.11,2.91,8.22,9.63,16.61,3.18,23.06,7.82.52,10.43-4.44,11.92-11.93-7.73,15.76-.56,26.38,11.13,33.4-8.42-5.67-5.54-13.81-1.59-19.09,8.03,9.66,13.51,16.71,6.36,26.24,8.43-1.03,10.97-6.98,14.31-15.9.23,9.18.15,24.91,9.38,25.76-4.2-5.92,2.33-11.7,5.32-16.16,2.99,4.58,6.18,9.26,1.98,15.18,8.95-5.57,12.62-15.81,12.72-24.65,2.23,8.92,5.88,14.87,14.31,15.9-7.15-9.54-1.68-16.58,6.36-26.24,3.96,5.28,6.83,13.42-1.59,19.08,11.69-7.01,18.87-17.63,11.13-33.4,1.5,7.49,4.11,12.45,11.93,11.93-6.45-6.45.26-14.84,3.18-23.06,4.28,3.21,10.2,8.57,3.98,15.11,8.31-6.23,16.96-16.27,3.18-27.04,5.41,4.06,9.91,1,14.31-6.36-9.15,3.66-18.52-.16-21.47-9.54,6.23-2.49,15.31-2.87,14.31,6.36,3.6-18.02-13.61-10.76-24.65-19.09,8.94,5.36,19.36-5.53,11.13-15.9,3.74,18.71-12.76,1.29-18.44-7.06.42-42.21-73.82-38.6-84.13,3.75h0Z"/>
            </g>
            <g id="g4044-1-9-7">
              <path id="path3235-5-5-7" class="cls-6" d="M89.64,25.81C98.68,13.84,115.83,3.85,138.28.89c8.16,1.88,21.02,3.63,30.84.48,21.93,3.59,39.41,13.87,49.19,26.01,38.66,28.18,34.44,96.98,7.49,113.61-25.76,16.03-122.3,18.71-149.67-8.67-20.78-31.82-18.12-81.7,13.5-106.51h0Z"/>
              <g id="g3256-8-0-9">
                <path id="path3241-8-2-8" class="cls-12" d="M123.91,85.37c-1.07-14.99-27.28-18.41-29.41-1.2-2.77,22.39,31.07,24.25,29.41,1.2Z"/>
                <path id="path3250-4-7-1" class="cls-1" d="M107.79,78.18c-9.94.98-11.41,19.08,1.75,18.1,13.07-.97,11.16-19.37-1.75-18.1Z"/>
              </g>
              <g id="g3256-3-5-2-0">
                <path id="path3241-6-6-8-7" class="cls-12" d="M184.04,85.74c1.07-14.99,27.28-18.41,29.41-1.21,2.77,22.39-31.07,24.25-29.41,1.21Z"/>
                <path id="path3250-0-5-17-6" class="cls-1" d="M200.15,78.55c9.94.98,11.4,19.08-1.75,18.1-13.07-.97-11.16-19.37,1.75-18.1Z"/>
              </g>
              <path id="path3367-7-6-7-0" class="cls-2" d="M179.05,110.26c-4.73-8.71-13.41-33.47-14.18-41.75-1.82-19.33-.59-43.85,3.3-66.66C163.91.52,158.45.04,152.78,0c-5.04-.04-9.88.28-14.85.83,2.6,22.26,6.98,49.14,5.16,68.47-.78,8.27-7.88,32.25-12.6,40.96,4.45,9.72,45.11,10.49,48.56,0Z"/>
              <path id="path3384-8-9-1" class="cls-7" d="M140.45,53.68c-2.77-6.53-26.39-17.91-31.59-3.19-7.04,19.88,15.62,20.04,25.28,18.07,8.59-1.75,8.84-8.93,6.32-14.88Z"/>
              <path id="path3384-9-4-7-0" class="cls-7" d="M168.91,52.82c2.48-6.64,25.58-19.05,31.42-4.57,7.89,19.56-14.73,20.7-24.47,19.15-8.65-1.37-9.22-8.54-6.96-14.59Z"/>
              <path id="path3418-8-98-2" class="cls-10" d="M191.14,118.53c13.74,7.21,30.73-2.6,43.32-10.63,1.22,22.54-22.85,24.2-22.85,44.11-15.14-1.05-20.48-16.59-20.48-33.48Z"/>
              <path id="path3418-0-8-8-5" class="cls-10" d="M116.72,117.35c-15.32,8-29.94,1.34-43.32-8.67,3.11,20.58,25.99,24.2,25.99,44.11,15.14-1.05,17.33-18.56,17.33-35.45h0Z"/>
              <g id="g3614-3-9-1">
                <path id="path3239-8-8-9" class="cls-1" d="M89.95,25.66C57.93,30.93,6.95,70.81,0,124.27c3.83-8.09,6.66-13.46,14.7-21.57-8.54,26.1,3.42,25.8-.35,37.27-8.48,25.83-12.18,35.94,3.1,57.23,9.51,13.25-18.57,27.92,19.58,62.94-4.59-10.18,5.13-15.04,8.93-20.1-.5,5.58-1.76,11.95,1.12,16.75,1.95-12.56,10.43-8.31,11.17-22.33,2.1,3.92,1.83,8.45,4.46,10.05,5.87-11.63,10.05-9.19,10.05-22.33,2.61,9.2,7.65,8.44,14.47,8.55-5.38-7.95-2.16-17.72.05-27.54,5.51,7.39,4.45,13.52,5.2,15.21,7.91-7.67,11.97-16.15,8.68-28.89,10.97-16.74.13-19.29,2.13-32.23,2.35-15.11-12.41-23.64-21.29-35.6-21.33-28.73-11.18-65.53,6.38-85.4-1.04-5.47.15-6.57,1.56-10.63h0Z"/>
                <path id="path3584-75-05-7" class="cls-4" d="M55.38,70.88c-28.56,14.13-3.3,45.63-7.54,54.08-12.9,25.8-39.79,35.52-8.89,66.4,6.33,6.33-17.58,23.09,2.74,38.33-10.75-7.58-2.04-29.45,4.11-35.6-2.14-11.55-19.5-17.46-16.43-30.81,2.79-12.14,19.21-28.84,21.91-34.23,8.18-15.68-21.66-34.76,4.11-58.19h0Z"/>
                <path id="path3586-2-2-1" class="cls-4" d="M69.07,119.48c9.97,21.43-3.01,19.03-8.89,30.81-4.37,8.73,14.14,16.2,17.11,19.17,2.31,2.31-12.53,22.18-7.53,36.28.94,1.88,4.11,7.48,9.59,9.58-3.54-2.58-11.03-16.35-8.21-19.17,4.18-4.18,5.45-12.27,8.21-17.8,5.16-10.33-9.92-18.82-15.06-23.96-1.37-1.37,19.99-20.26,4.79-34.91h0Z"/>
              </g>
              <g id="g3609-4-0-3">
                <path id="path3239-7-5-2-1" class="cls-1" d="M219.19,27.82c30.3,8.27,81.8,38.57,86.7,92.72-5.89-6.72-5.29-12.09-13.32-20.21,8.54,26.11-6.66,29.85-.16,43.87,5.47,11.8,18.09,28.77.83,60.47-7.8,14.33,10.28,34.2-21.64,60.64,6.65-16.34.07-22.04-3.73-27.1.5,5.57,2.5,11.21-7.01,18.96,1.76-11.09-.1-10.9-6.74-23.8,2.31,9.81.37,13.6-8.15,17.42,1.49-14.58-7.1-12.88-7.1-26.02-2.62,9.2-9.87,7.7-16.68,6.34,6.12-7.95,7.32-11.82,1.42-26.06-9.93,5.91-7.4,14.26-8.15,15.94-7.91-7.67-14.91-16.15-12.37-32.57-10.23-13.79-7.52-20.39,3.91-29.97,3.06-14.84,9.83-22.95,19.53-36.39,20.27-28.08,9.79-66.37-8.17-86,1.41-4.56,1.17-4.2.83-8.24h0Z"/>
                <path id="path3584-7-0-4-2" class="cls-4" d="M258.59,71.56c28.56,14.14,3.3,45.63,7.53,54.08,12.9,25.8,39.79,35.52,8.9,66.4-6.33,6.33,17.58,23.1-2.74,38.34,10.75-7.59,2.03-29.45-4.11-35.6,2.14-11.55,19.49-17.47,16.43-30.81-2.79-12.15-19.21-28.84-21.91-34.23-8.19-15.68,21.66-34.75-4.11-58.19h0Z"/>
                <path id="path3586-5-5-3-0" class="cls-4" d="M244.9,120.17c-9.96,21.43,3.01,19.03,8.9,30.81,4.37,8.73-14.15,16.2-17.12,19.17-2.3,2.3,12.53,22.18,7.53,36.28-.94,1.88-4.11,7.48-9.58,9.59,3.54-2.58,11.03-16.35,8.21-19.17-4.18-4.18-5.45-12.27-8.21-17.8-5.17-10.33,9.92-18.82,15.06-23.96,1.38-1.37-19.99-20.26-4.79-34.91h0Z"/>
              </g>
              <g id="g3504-7-7-6">
                <path id="path3247-3-3-8" class="cls-11" d="M127.34,166.19c.46,2.3-.39,5.82,5.23,8.59,4.52,4.35,12.09,5.44,21.41,5.62,9.31.19,16.89-.9,21.41-5.25,4.04-4.24,4.63-6.89,5.52-11.33-5.07-31.79-57.46-26.69-53.57,2.36Z"/>
                <path id="path3245-0-2-0-7" class="cls-3" d="M199.32,177.08c25.29-32.33-.97-53.54-14.24-67.95-7.2-7.81-19.19-15.24-31.11-15.43s-23.91,7.24-31.11,15.06c-13.27,14.41-39.53,35.62-14.24,67.95,14.21,18.17,30.48-23.06,45.35-23.43,14.87-.37,31.14,41.97,45.35,23.8Z"/>
                <path id="path3243-7-0-4" class="cls-1" d="M152.34,137.71c-17.56-.3-25.39-27.78.66-27.59,26.05.19,16.9,27.89-.66,27.59Z"/>
                <path id="path3252-2-1-9" class="cls-1" d="M153.5,134.78c-1.29.01-2.32,1.07-2.31,2.36v14.09c-.02,1.29,1.01,2.35,2.3,2.37,1.29.02,2.35-1.01,2.37-2.3v-14.16c.02-1.29-1.02-2.35-2.31-2.36h-.05Z"/>
              </g>
            </g>
          </g>
        </g>
      </g>
    </g>
  </g>
</svg>