<?xml version="1.0" encoding="UTF-8"?>
<svg id="Layer_2" data-name="Layer 2" xmlns="http://www.w3.org/2000/svg" viewBox="0 0 81.68 155.1">
  <defs>
    <style>
      .cls-1 {
        fill: #cd5200;
      }

      .cls-1, .cls-2, .cls-3, .cls-4 {
        fill-rule: evenodd;
      }

      .cls-1, .cls-2, .cls-3, .cls-4, .cls-5, .cls-6, .cls-7, .cls-8, .cls-9, .cls-10, .cls-11 {
        stroke-width: 0px;
      }

      .cls-2, .cls-6 {
        fill: #d45500;
      }

      .cls-3 {
        fill: #c44815;
      }

      .cls-4 {
        fill: #853b09;
      }

      .cls-7 {
        fill: #b13200;
      }

      .cls-8 {
        fill: #dc6719;
      }

      .cls-9 {
        fill: #e0742d;
      }

      .cls-10 {
        fill: #b34800;
      }

      .cls-11 {
        fill: #c44b00;
      }
    </style>
  </defs>
  <g id="svg6613">
    <g id="layer5">
      <g id="g6709">
        <path id="path4468" class="cls-4" d="M11.65,127.58c-3.47-1.16-1.79,4.85-4.82,2.58.35,1.35.96,1.38,1.72,1.38-2.14.51-3.76,1.87-1.89,3.27-2.7.94-1.85,2.44-.52,3.44-1.3.93-4.8,1.29-3.44-.52-.6,2.37.67,3.27,2.58,3.27-3.01.72-3.17,2.61-1.38,3.96-.84,1.86.96,2.4,1.89,3.1-1.11,1.23-1.62,1.58-2.24,1.03,1.02,1.6,2.18,1.38,3.61,1.38,4.31,3.37,12.75.87,17.03,1.72,1.28.2,2.92.14,3.61,0,1.29,1.93,2.58.52,3.27,0,.6,2.6,3.84,1.33,5.16.34.41,1.47.07,1.8-.52,2.58,1.42-.71,2.68-2.06,3.1-2.75-.13,1.5.94,1.38,2.06,1.38.14-1.24.81-.92,1.46-1.53.67.54,1.93,1.89,3.35,2.6-.58-.78-.93-1.11-.52-2.58,1.32.99,4.56,2.26,5.16-.34.69.52,1.98,1.93,3.27,0,.69.14,2.33.2,3.61,0,4.28-.86,12.72,1.65,17.03-1.72,1.43,0,2.59.22,3.61-1.38-.62.55-1.12.2-2.24-1.03.93-.7,2.73-1.24,1.89-3.1,1.79-1.34,1.63-3.23-1.38-3.96,1.91,0,3.18-.9,2.58-3.27,1.36,1.81-2.14,1.44-3.44.52,1.33-1,2.18-2.5-.52-3.44,1.86-1.4.25-2.76-1.89-3.27.76,0,1.37-.03,1.72-1.38-3.03,2.27-1.35-3.74-4.82-2.58-2.07-7.17-5.81-10.77-9.82-14.78-19.38-19.38-32.42-5.3-48.32,15.08h0Z"/>
        <path id="path6207-4-2" class="cls-10" d="M46.94,116.42c-.62-.7-.48-.88-.27-1.48-.05,1.84-.75,2.7-2.4,2.95.86-.75.46-1.33.13-1.72-1.51,1.7-3.86,1.28-3.06,1.95-1.41.05-3.17-1.08-3.92-2.18-.65.64-.73.98.13,1.72-1.65-.25-2.34-1.11-2.4-2.95.21.59.35.78-.27,1.48-2.46-.89-4.65-2.3-5.89-4.78-2.01-4.03,0-6.19,2.58-8.77,13.74-13.74,31.84,13.42,15.34,13.78h0Z"/>
        <path id="path4464" class="cls-2" d="M39.86,109.69c-1.33.27-1.95.32-2.84-.95.26,1.2-.14,2.04-.77,3.35-.28-1.42-.98-1.85-2.58-1.55-1.82,1.34-.3,3.04.69,3.78-1.06-.03-1.57,0-2.41.17.59,1.39.69,1.55,2.06,1.55-1.87.25-2.34,1.49-3.78,2.06.91,1.8,1.31,2.44.17,3.96.96,1.64.35,2.52-.34,3.44.45,2.38-1.46,4.08,1.38,4.64-1.52,1.29-1.8,2.08-2.58,1.03.67,1.36.9,1.06,1.89.86-1.64,1.2-1.7,2.01-2.92,2.92,1.67.55,2.32,1.46,2.06,2.75-1.91-.27-1.56.47-1.72.86.66,1.24.8,2.29,1.03,3.44-.85-.57-1.18-.69-2.06-.69.6,1.28,1.2,1.89,1.2,3.27-1.2-.53-1.28-.25-1.89,0,1.08,1.01.63,1.69.34,2.41-.22,1.35-1.05,1.65-1.55,2.06-1.24,2.84-3.7,3.66-7.4,3.61-1.02,0-4.08.55-5.85-.86-1.79,0-5,1.14-3.78-2.06-.47-1.17-.48-1.93,1.2-2.75-1.05.21-1.46.11-2.06-1.03.36-.27,1.56-.81,2.58-1.03-.54-1.35-1.44-2.81.52-3.61-1.42-1.89-.18-2.82,1.55-4.13-1.18-.71-1.26-1.88-1.55-3.44.77,1.03,1.2.73,2.41-.17-1.14-.46-1.53-1.13-2.24-2.58,1.41,0,1.53-1.55,2.41-3.61-.69.52-1.33.5-1.2,1.89-1.29-1.72-.92-4.17,1.03-5.85-1.25.5-1.41.06-2.41-1.2,1.42-.28,1.45-1.48,2.24-3.27-.61-.25-.88-.88-1.72.52-.68-1.7-.05-2.88,1.38-4.3-1.7,0-2.05-1.14-2.24-3.1.67.5,1.28,1.03,2.58.17-1.53-2.04-3.19-4.86.17-6.36-1.26.94-1.56.99-3.27.52,1.42-1.06,1.03-3.1,1.03-5.16-.63.83-.99,1.61-.86,2.92-2.01-2.68-1.58-5.45,1.89-6.88-2.26,0-2.89-1.15-3.78-3.61,0,1.92,1.68,1.23,3.27.52-1.19-.48-2.29-.82-1.2-2.58,0,2.24,2.05.51,1.89.34-2.5-2.5-3.95-5.96.69-8.08-.91,0-.93-.17-1.38,1.03-2.27-2.27.79-4.56,3.27-5.16-1.81-.36-2.63-.38-2.75-2.75,2.73,3.64.59-5.27,4.47-4.13-.52-.33-.02-.77-1.38-.86-.79-1.96.94-1.34,2.58-2.41-.54-2.72,1.84-3.31,3.96-3.78,12.78-4.81,26.46-3.4,38.89-.61,2.1.78,4.49,1.37,3.94,4.09,1.64,1.07,3.37.44,2.58,2.41-1.36.09-.85.53-1.38.86,3.89-1.15,1.74,7.77,4.47,4.13-.12,2.37-.95,2.39-2.75,2.75,2.48.6,5.54,2.89,3.27,5.16-.44-1.2-.47-1.03-1.38-1.03,4.64,2.12,3.19,5.59.69,8.08-.16.16,1.89,1.9,1.89-.34,1.08,1.76-.01,2.1-1.2,2.58,1.59.71,3.27,1.41,3.27-.52-.89,2.47-1.53,3.61-3.78,3.61,3.47,1.43,3.9,4.2,1.89,6.88.13-1.32-.23-2.09-.86-2.92,0,2.06-.39,4.1,1.03,5.16-1.71.48-2.01.43-3.27-.52,3.36,1.5,1.7,4.33.17,6.36,1.3.85,1.91.33,2.58-.17-.19,1.96-.54,3.1-2.24,3.1,1.42,1.42,2.06,2.6,1.38,4.3-.84-1.4-1.11-.76-1.72-.52.78,1.79.82,2.98,2.24,3.27-1,1.27-1.15,1.71-2.41,1.2,1.96,1.68,2.32,4.13,1.03,5.85.12-1.39-.51-1.37-1.2-1.89.87,2.06,1,3.61,2.41,3.61-.7,1.45-1.09,2.12-2.24,2.58,1.21.9,1.64,1.2,2.41.17-.29,1.56-.36,2.73-1.55,3.44,1.73,1.3,2.96,2.24,1.55,4.13,1.96.8,1.06,2.26.52,3.61,1.02.23,2.22.77,2.58,1.03-.61,1.15-1.02,1.24-2.06,1.03,1.68.82,1.67,1.58,1.2,2.75,1.22,3.2-2,2.06-3.78,2.06-1.77,1.41-4.83.86-5.85.86-3.7.05-6.16-.77-7.4-3.61-.49-.41-1.33-.71-1.55-2.06-.29-.72-.74-1.4.34-2.41-.62-.25-.69-.53-1.89,0,0-1.38.61-1.98,1.2-3.27-.88,0-1.21.12-2.06.69.23-1.15.37-2.2,1.03-3.44-.16-.39.19-1.13-1.72-.86-.26-1.29.39-2.2,2.06-2.75-1.23-.92-1.28-1.73-2.92-2.92.99.2,1.22.5,1.89-.86-.78,1.04-1.06.26-2.58-1.03,2.84-.57.93-2.27,1.38-4.64-.69-.92-1.31-1.8-.34-3.44-1.14-1.51-.74-2.16.17-3.96-1.44-.58-1.91-1.81-3.78-2.06,1.37,0,1.48-.16,2.06-1.55-.84-.17-1.35-.2-2.41-.17.99-.74,2.51-2.45.69-3.78-1.6-.3-2.3.13-2.58,1.55-.63-1.31-1.03-2.15-.77-3.35-.89,1.27-1.51,1.21-2.84.95.45-1.62-.13-1.69-.86-2.09-.73.7-1.31.76-.86,2.39h0Z"/>
        <path id="path4456" class="cls-1" d="M23.69,55.67c-2.47.35-1.31,2.56-1.03,3.96-1.02.89-1.82.74-2.92.52.27,1.28,1.12,1.26,1.72,1.38-3.2-.46-3.04,1.68-1.72,3.44,1.02-1.71.83-.28,1.55-.52-1.54.85-1.97,4.14-3.78,1.72,1.11,1.16,1.34,1.78,2.75,2.06-1.42,1.67-2.21,3.42-.34,4.82.21-1.97,1.66-1.2,2.58-.52-4.18,1.06-1.07,4.97.69,6.02-.36-1.39.41-1.95,1.55-2.41-1.64,3.04,1.42,2.95,1.89,5.33,1.02-.94,1.14-1.24,1.38-2.41-.02,1.85,2.13,4.39,4.3,3.96-.75-1.25-.72-1.67-.17-2.58.57,1.79,3.49,2.28,2.24,3.96,1.87.2,2.92-2.41,2.92-2.41.92,1.74,1.81,1.18,3.09,3.12.72-2.14,2.21-1.01,3.61-3.25,0,1.44,1.06,2.61,2.92,2.41-1.26-1.67,1.84-2.34,2.41-4.13.54.91.58,1.33-.17,2.58,2.17.43,4.32-2.11,4.3-3.96.23,1.16.35,1.47,1.38,2.41.48-2.38,3.53-2.29,1.89-5.33,1.14.45,1.91,1.02,1.55,2.41,1.76-1.06,4.87-4.96.69-6.02.92-.69,2.37-1.46,2.58.52,1.87-1.4,1.08-3.15-.34-4.82,1.41-.28,1.65-.9,2.75-2.06-1.82,2.42-2.24-.87-3.78-1.72.72.24.53-1.19,1.55.52,1.32-1.76,1.48-3.9-1.72-3.44.6-.12,1.45-.1,1.72-1.38-1.11.22-1.9.37-2.92-.52.28-1.39,1.44-3.61-1.03-3.96-8.87-9.32-24.6-8.8-30.82-3.22-1.48.99-3.24,1.78-3.24,3.52h0Z"/>
        <g id="g15203">
          <path id="path5207-7" class="cls-11" d="M17.58,15.85c-7.01.26-4.82,5.4-8.08,5.93.99-.26,1.91.94,2.81.64-1.16,2.29-6.36-.08-5.29,3.06.62.09,1.27.03,1.94-.21-5.4,1.57-3.37,6.43-7.89,9.07,1.11.87,1.65.76,2.38.46-3.03,1.37-5.17,4.97-1.55,7.43-1.47-.88-2.03-3.22.58-3.95-.39,3.07.09,4.89,2.07,6.04-.47-1.03-.18-1.41.03-1.97,3.61,3.3-1.73,9.59,3.28,11.71,1.1,2.34,2.95,2.5,5.62,2.5,2.32,1.41,5.6.95,6.94.16,5.97-5.83,10.74-39.97-2.83-40.89Z"/>
        </g>
        <path id="path5207-7-4" class="cls-11" d="M64.1,16c7.01.26,4.82,5.4,8.08,5.93-.99-.26-1.91.94-2.81.64,1.16,2.29,6.36-.08,5.29,3.06-.62.09-1.27.03-1.94-.21,5.4,1.57,3.37,6.43,7.89,9.07-1.11.87-1.65.76-2.38.46,3.03,1.37,5.17,4.97,1.55,7.43,1.47-.88,2.03-3.22-.58-3.95.39,3.07-.09,4.89-2.07,6.04.47-1.03.18-1.41-.03-1.97-3.61,3.3,1.73,9.59-3.28,11.71-1.1,2.34-2.95,2.5-5.62,2.5-2.32,1.41-5.6.95-6.94.16-5.97-5.83-10.74-39.97,2.83-40.89h0Z"/>
        <path id="path5219-1-9" class="cls-6" d="M61.45,49.27c2-1.5,3.51-5.36.83-8.27.88.66,1.76.87,2.48,2.48,0-3.11-.41-5.83-3.14-6.62,1.23.25,2.98.39,3.31,1.82.55-1.38.23-4.01-1.77-5.07.36-1.04.74-2.26.45-3.4.98-2.86.11-3.97-.37-5.59-1.68-5.37-16.47-6.29-21.98-6.33-5.51-.04-20.3.88-21.98,6.25-.48,1.62-1.34,2.73-.37,5.59-.3,1.14.09,2.35.45,3.4-2,1.06-2.32,3.68-1.77,5.07.33-1.43,2.07-1.57,3.31-1.82-2.73.79-3.14,3.51-3.14,6.62.72-1.61,1.6-1.82,2.48-2.48-2.69,2.91-1.17,6.77.83,8.27,3.42,4.73,13.23,4.96,20.19,3.67,6.96,1.36,16.77,1.12,20.19-3.6h0Z"/>
        <path id="path4277" class="cls-3" d="M39.93,42.63c-3.05,1.22-7.56,4.52-6.86,8.01-.4,1.64,2.06,3.11,3.24,3.7,5.87,2.93,9.89-.58,12.41-3.93.66-2.95-4.76-6.72-8.78-7.78h0Z"/>
        <path id="path5175-4-5" class="cls-7" d="M34.07,50.18c.55.42,1.42.74,2.27,1.26.78,1.48,3.05,0,4.16-.68,1.27.44,3.69,2.2,4.47.72,1.27-.18,2.97-1.32,3.59-2.14,1.57,1.88,2.33,4.06,1.65,6.46.36,1.49-.82,2.16-1.94,2.79.45-1-.39-1.44-.5-1.56-.13,1.48-.54,1.5-1.65,2.03.65-1.24-.2-.75-.33-1.25-.68.75-.68.88-.83,1.71-.87-.01-.91-.39-1.04-1.03-.33.9-.73.9-.87,1.63-.58-.86-.98-1.56-.98-2.29.2,1.18-.95,1.88-1.29,2-.34-.05-1.49-.74-1.29-1.92,0,.73-.4,1.43-.98,2.29-.15-.73-.54-.73-.87-1.63-.13.64-.17,1.02-1.04,1.03-.15-.84-.15-.97-.83-1.71-.13.5-.98,0-.33,1.25-1.12-.53-1.53-.55-1.65-2.03-.1.12-.94.56-.5,1.56-1.12-.63-2.3-1.3-1.82-2.81.2-1.87.19-5.36,2.59-5.67h0Z"/>
        <path id="path5179-5" class="cls-8" d="M38.36,47.18c-2.28,7.26-8.52,7.35-8.6,11.95-1.5.85-2.9-1.89-2.9-4.05-.62,1.04-.69,3.14,0,4.25-1.78-.36-3.87-2.8-3.38-4.8-.45,1.13-.5,3.03.22,4.36-2.2-.88-3.1-3.69-2.29-6.76-.43.57-.96,1.71-.76,2.83-2.02-1.52-.47-8.44,1.74-9.37-.98.39-1.8.68-2.64,1.81,0-1.76,2.24-5.35,4.3-5.32-.43-.07-1.96-.03-2.65.32,1.49-4.26,11.82-7.75,14.88-2.74.57-.93.07-1.58-.16-2.14.91.07,1.76.49,2.18.65-.13-.81-.3-1.26-.44-1.96,1.24.6,1.77,1.02,2.76,1.85.99-.83,1.52-1.25,2.76-1.85-.14.7-.31,1.16-.44,1.96.42-.17,1.27-.58,2.18-.65-.22.56-.73,1.21-.16,2.14,3.06-5.01,13.39-1.52,14.88,2.74-.69-.36-2.21-.39-2.65-.32,2.05-.03,4.3,3.56,4.3,5.32-.85-1.13-1.66-1.42-2.64-1.81,2.21.94,3.77,7.85,1.74,9.37.19-1.12-.33-2.26-.76-2.83.81,3.07-.09,5.88-2.29,6.76.72-1.33.67-3.23.22-4.36.49,2-1.6,4.44-3.38,4.8.69-1.11.62-3.22,0-4.25,0,2.17-1.4,4.9-2.9,4.05-.09-4.6-6.32-4.68-8.6-11.95.5.44-3.14-.67-4.53,0h0Z"/>
        <path id="path5171-4" class="cls-5" d="M40.41,49.17c-5.35-.01-7.42-8.3-.17-8.38,7.26-.07,5.51,8.39.17,8.38Z"/>
        <path id="path5843-1" class="cls-5" d="M40.45,50.97c.49-.87.61-2.37.03-3.36-.48.81-.62,2.43-.03,3.36Z"/>
        <path id="path5153-0-0" class="cls-8" d="M43.33,28.27c0-.25-.27-1.27.13-1.88.59.78,1.09,1.27,2.15,2.02,3.57.71,10.6.65,14.93-1.21,1.34-.54,2.08-1.91,3.63-2.42.63-.85-.17-.89-.94-1.88,1.22,0,2.04-.29,3.36-1.21-1.52-.3-1.61-1.89-2.29-3.36.82.16,1.81-.25,2.69.54,0-2.68-.99-3.37-2.98-4.65.79-.47,1.99-1.15,3.24-.18,0-2.08-2.39-3.9-5.04-3.29.31-1.19.52-3.84-2.07-3.38,1.4-1.76.4-3.87-2.07-4.18,2.51,1.49-.97,3.43-3.24,2.31,0-2.75-2.17-3.17-5.6-2.32.52-.75,1.36-1.37,1.48-3.17-3.56,2.11-4.85-.65-5.09,2.11-.82-.81-2.35-1.04-2.23-2.1-2.24,2.55-2.41,0-4.71.39.07.84.02,1.47-.81,2.28-.24-2.76-3.01-.41-6.57-2.52.12,1.8.96,2.42,1.48,3.17-3.43-.85-5.6-.43-5.6,2.32-2.27,1.11-5.75-.82-3.24-2.31-2.47.32-3.46,2.42-2.07,4.18-2.59-.46-2.38,2.19-2.07,3.38-2.64-.61-5.04,1.21-5.04,3.29,1.25-.97,2.45-.29,3.24.18-1.99,1.28-2.98,1.96-2.98,4.65.88-.79,1.87-.37,2.69-.54-.68,1.47-.77,3.06-2.29,3.36,1.33.92,2.14,1.21,3.36,1.21-.77.99-1.58,1.04-.94,1.88,1.55.51,2.29,1.89,3.63,2.42,4.32,1.86,11.36,1.92,14.93,1.21,1.06-.75,1.57-1.24,2.15-2.02.4.62.13,1.63.13,1.88,1.36-.56,1.65-.99,2.31-2.23.66,1.08.96,1.51,2.31,2.07h0Z"/>
        <path id="path5161-4" class="cls-9" d="M28.6,28.3c1.42.57,2.63,1.08,4.22,1.57,1.3,0,3.22-.46,3.31-1.65.83-.33,1.22-1,1.41-2.15-.2.11-.38.26-.59.33.1-2.3-.2-6.07-3.33-7.42-1.17-.51-2.52.21-3.47-.29.93.97,1.04,1.45,1.57,1.67-3.15-1.51-9.15-.84-8.16,1.75.25-.64.88-.46,1.03-.36-.96,2.06-.93,3.51-3.51,3.64.27,1.31,1.86,1.15,2.77,1.07-2.8.66-3.39,2.14-2.93,4.5.88-.35,1.07-.43,1.91-.41-.72.85-2.3,1.83-2.33,3.55.74-.7,1.21-.91,2.07-1.25-.73,1.07-.36,2.49.66,2.9.61-2.38,2.76-3.67,4.05-4.96.89-.89.31-2.07,1.32-2.48h0Z"/>
        <path id="path5161-4-3" class="cls-9" d="M53.11,28.11c-1.42.57-2.63,1.08-4.22,1.57-1.3,0-3.22-.46-3.31-1.65-.83-.33-1.22-1-1.41-2.15.2.11.38.26.59.33-.1-2.3.2-6.07,3.33-7.42,1.17-.51,2.52.21,3.47-.29-.93.97-1.04,1.45-1.57,1.67,3.15-1.51,9.15-.84,8.16,1.75-.25-.64-.88-.46-1.03-.36.96,2.06.93,3.51,3.51,3.64-.27,1.31-1.86,1.15-2.77,1.07,2.8.66,3.39,2.14,2.93,4.5-.88-.35-1.07-.43-1.91-.41.72.85,2.3,1.83,2.33,3.55-.74-.7-1.21-.91-2.07-1.25.73,1.07.36,2.49-.66,2.9-.61-2.38-2.76-3.67-4.05-4.96-.89-.89-.31-2.07-1.32-2.48h0Z"/>
        <path id="path5169-6" class="cls-5" d="M33.09,26.9c-4.17-3.13-7.88,3.74-3.94,5.48,4.58,2.02,6.87-3.29,3.94-5.48Z"/>
        <path id="path5169-66-2" class="cls-5" d="M48.72,26.91c4.17-3.13,7.88,3.74,3.94,5.48-4.58,2.02-6.87-3.29-3.94-5.48Z"/>
      </g>
    </g>
  </g>
</svg>