<?xml version="1.0" encoding="UTF-8"?>
<svg id="Layer_2" data-name="Layer 2" xmlns="http://www.w3.org/2000/svg" viewBox="0 0 79.82 178.1">
  <defs>
    <style>
      .cls-1, .cls-2, .cls-3, .cls-4, .cls-5, .cls-6, .cls-7, .cls-8, .cls-9, .cls-10 {
        stroke-width: 0px;
      }

      .cls-2 {
        fill: #2d0000;
      }

      .cls-3 {
        fill: #debc91;
      }

      .cls-4 {
        fill: #eeb580;
      }

      .cls-5 {
        fill: #f0cb9c;
      }

      .cls-6 {
        fill: #e671a3;
      }

      .cls-7 {
        fill: #fcd29c;
      }

      .cls-8 {
        fill: #ffd8a6;
      }

      .cls-9 {
        fill: #fcddac;
      }

      .cls-10 {
        fill: #ffe0b4;
      }
    </style>
  </defs>
  <g id="svg6613">
    <g id="layer5">
      <g id="g45566">
        <path id="path36476-87" class="cls-3" d="M9.68,93.57c-1.51,1.13-2.52,2.8-3.37,5.25-2.87,15.28-.58,25.13,2.1,33.18.99,3.9-8.86-.24-8.39,15.31.4,13.28,7.82,26.5,16.01,27.47,4.38.76,8.66,1.95,14.08,1.41,2.64.44,7.01.85,10-.43,3.12,1.21,7.22.69,9.83.45,4.99.91,9.54-.16,14.18-1.31,7.87-1.02,15.29-14.24,15.69-27.52.47-15.55-9.38-11.41-8.39-15.31,2.68-8.05,4.98-17.9,2.1-33.18-.97-2.14-2.62-4.27-3.39-5.3H9.68Z"/>
        <path id="path36474-2-3" class="cls-5" d="M26.58,115.94c.16.78,1.52,2.68,4.42,3.37,2.54,1.03,5.27,1.77,8.92,1.8,3.65.03,6.38-.72,8.92-1.74,2.51.03,3.42-1.34,4.16-3.19-1.91-6.43-7.09-11.75-12.14-13.8-4.72,1.47-12.28,6.89-14.28,13.56h0Z"/>
        <path id="path36472-4-3" class="cls-8" d="M17.29,167.67c.11,3.56-2.91,7.86-.1,9.18,2.85,1.34,9.76,1.93,12.66-.33,3.68-2.88,1.53-13.25,1.14-17.1-1.34-13.31-2.31-33.27-.57-40.69,1.54-2.85,4.18-8.57,4.57-9.44,2.19-.76,3.66-1.27,4.67-2.63,1.53,1.36,2.87,2.24,5.08,2.53.47,1.02,3.11,6.74,4.65,9.59,1.73,7.43.77,27.39-.57,40.69-.39,3.85-2.54,14.23,1.14,17.1,2.9,2.27,9.81,1.67,12.66.33,2.82-1.32-.21-5.62-.1-9.18,0-20.03,7.11-42.33,9.49-64.01,1.45-6.05,2.62-13.62,3.12-18.95.99-10.58-5.54-25.53-7.78-28.29-.86-2.88-2.14-5.11-4.06-8.11-11.5-12.86-34.69-13.2-46.38-.39-2.29,3.34-3.57,5.57-4.44,8.44-2.24,2.76-8.77,17.71-7.78,28.29.5,5.33,1.67,12.91,3.12,18.95,2.38,21.67,9.49,43.98,9.49,64.01h0Z"/>
        <path id="path36466-8" class="cls-7" d="M14.15,74.4c-1.48-6.56,1.72-16.78,2.57-19.95.27-4.67-.22-10.85,2.77-15.82,4.45-12.7,38.54-8.6,40.39-.58,3.21,4.89,2.96,11.78,3.37,16.48,1,3.19,4.2,13.42,2.72,19.98-2.42,10.73-15.79,22.51-26.15,22.46-10.36-.06-23.25-11.83-25.67-22.56h0Z"/>
        <path id="path36236-8" class="cls-9" d="M25.41,46.68c-2.46-1.85-3.64-4.41-4.67-6.44-3.13-4.04-3.54-5.77-3.9-10.83-3.45-7.81-2.35-21.41,5.81-27.44C24.67.74,33.03-.02,39.51,0c6.48.02,14.84.77,16.85,2,7.48,9.23,9.31,19.18,5.61,27.78-.16,4.72-.84,6.73-3.97,10.77-1.03,2.03-2.21,4.59-4.67,6.44-11.15,6-15.68,6.15-27.92-.31h0Z"/>
        <path id="path36238-88" class="cls-4" d="M22.86,5.43c-2.72,2.59-3.71,8.06-3.69,11.02.06,8.56-3.07,20.12-7.38,19.9-1.16-.06.09-2.4-.39-3.47C8.96,27.4,2.62,22.93,1.65,15.45c.35-4.96,12.29-8.23,16.59-12.33,1.3-1.15,2.37-1.66,3.92-1.21,1.06,1.24,1.4,1.62.71,3.53Z"/>
        <path id="path36238-5-8" class="cls-4" d="M56.15,5.47c2.72,2.59,4.5,8.06,4.48,11.02-.06,8.56,2.28,20.12,6.59,19.9,1.16-.06-.09-2.4.39-3.47,2.45-5.49,8.79-9.96,9.76-17.44-.35-4.96-12.29-8.23-16.59-12.33-1.3-1.15-2.37-1.66-3.92-1.21-1.51.58-2.05,1.47-.71,3.53Z"/>
        <path id="path36242-3" class="cls-1" d="M31.04,19.32c1.24-1.68.09-4.61-1.78-4.61-2.42,0-3.83,3.49-3.38,4.26,1.04,1.73,3.97,1.96,5.15.35Z"/>
        <path id="path36242-2-3" class="cls-1" d="M48.19,19.08c-1.24-1.68-.09-4.61,1.78-4.61,2.42,0,3.83,3.49,3.38,4.26-1.04,1.73-3.97,1.96-5.15.35Z"/>
        <path id="path36433-7" class="cls-1" d="M28.81,43.45c1.02,2.89,3.89,4.53,7.04,5.2-.28-.97-1.23-4.18-1.31-4.65-2.77.3-3.8-.19-5.73-.55Z"/>
        <path id="path36433-4-6" class="cls-1" d="M50.41,43.48c-1.02,2.89-4.25,4.71-6.5,5.47.01-1.34.24-4,.32-4.47,3.05.84,4.52.26,6.18-1.01Z"/>
        <path id="path36416-1-4" class="cls-6" d="M45.56,44.88c-.47,3.36-1.58,6.91-5.8,6.93-4.21.02-5.33-3.82-5.8-7.18.72-10.1,11.46-9.53,11.6.25h0Z"/>
        <path id="path36248-0" class="cls-10" d="M52.07,31.05c.79,1.14,1.49,2.63,1.62,3.65.24,1.84-.32,4.18-1.72,6.27-1.17,1.75-2.28,4.47-4.77,4.32-2.78-.16-4.66-3.74-7.58-3.76-2.93-.02-4.8,3.57-7.58,3.73-2.49.14-3.6-2.58-4.77-4.32-1.4-2.09-1.95-4.43-1.72-6.27.13-1.02.84-2.51,1.62-3.65,3.3-4.33,7.27-10.53,12.26-10.74,4.99-.2,9.54,6.53,12.64,10.77h0Z"/>
        <path id="path36244-3" class="cls-2" d="M38.97,30.07c8.14-.05,5.06,8.51.32,8.61-4.74.11-8.46-8.57-.32-8.61Z"/>
        <path id="path36246-8" class="cls-2" d="M39.42,41.35c.65-.91.63-2.53-.23-3.47-.32.78-.51,2.48.23,3.47Z"/>
      </g>
    </g>
  </g>
</svg>