<?xml version="1.0" encoding="UTF-8"?>
<svg id="Layer_2" data-name="Layer 2" xmlns="http://www.w3.org/2000/svg" viewBox="0 0 262.52 419.1">
  <defs>
    <style>
      .cls-1 {
        fill: #f9f9f9;
      }

      .cls-1, .cls-2, .cls-3, .cls-4 {
        stroke-width: 0px;
      }

      .cls-2 {
        fill: #dfdfdf;
      }

      .cls-3 {
        fill: #ececec;
      }

      .cls-4 {
        fill: #e9e9e9;
      }
    </style>
  </defs>
  <g id="set">
    <g id="border">
      <g id="g4313">
        <g id="g3670">
          <g id="g3400">
            <g id="g3391">
              <path id="path2613-2-4" class="cls-3" d="M145.23,253.63c6.54,0,9.53-.92,14.57-4.08,5.5,1.1,10.21,1.56,15.16-2.92,6.37,1.27,11.18.47,14.58-5.25,8.95,0,12.6-3.5,19.24-8.16,6.68-1.34,10.59-3.89,12.83-10.49,3.13-.63,9.52-3.37,9.42-10.81,5.06-.1,9.65-1.88,9.88-8.55,6.19-2.13,9.04-6.74,7.76-14.57,4.76-3.57,10.97-7.52,5.64-15.98,6.04-4.53,6.46-10.03,4.7-18.33,3.67-4.89,2.82-10.97.94-16.92,3.58-4.78,3.83-11.45-1.88-17.39,2.81-4.69,3.11-9.67-1.41-15.51,3.12-4.16,2.99-12.45-4.23-14.1,0-5.89-1.88-9.84-6.82-12.69-.23-6.67-2.49-10.18-7.75-10.81l.12-.38c1.87-9.11,1.63-12.56-7.47-16.05,0-6.81-6.07-11.6-12.82-10.45,0-9.09-5.65-10.27-13.77-12.82-1.29-6.43-7.61-10.09-14.72-7.6-1.35-6.74-7.35-8.04-15.67-6.65-1.43-7.15-8.73-9.92-17.57-6.65-3.08-4.11-9.87-7.29-15.05-2.31-2.99-3.48-10.12-7.57-17.18.61-6.27-5.39-13.06-2.21-16.14,1.9-8.84-3.27-16.14-.5-17.57,6.65-8.31-1.39-14.32-.08-15.67,6.65-7.11-2.49-13.43,1.16-14.72,7.6-8.11,2.55-13.77,3.73-13.77,12.82-6.76-1.15-12.82,3.63-12.82,10.45-9.11,3.49-9.34,6.94-8,15.66h-.4c-5.26.62-7.52,4.13-7.75,10.8-4.93,2.85-6.81,6.81-6.81,12.69-7.22,1.66-7.35,9.94-4.23,14.1-4.52,5.84-4.22,10.82-1.41,15.51-5.71,5.94-5.46,12.61-1.88,17.39-1.88,5.95-2.73,12.03.94,16.92-1.76,8.31-1.34,13.8,4.7,18.33-5.33,8.46.88,12.41,5.64,15.98-1.28,7.83,1.57,12.44,7.76,14.57.23,6.67,4.82,8.46,9.88,8.56-.09,7.44,6.29,10.18,9.42,10.81,2.24,6.61,6.14,9.16,12.83,10.5,6.64,4.66,10.29,8.16,19.24,8.16,3.4,5.72,8.2,6.52,14.58,5.25,4.95,4.47,9.66,4.02,15.16,2.91,5.05,3.16,8.03,4.08,14.58,4.08,5.23,2.45,9.45,2.33,13.97,2.62,4.51.29,8.74.4,13.97-2.04h0Z"/>
              <path id="path2771-8-2" class="cls-2" d="M219.51,251.41c-66.06,1.72-124.33-2.09-171.55.18-6.28-5.13-5.95-15.19,2.27-17.35-1.71-4.22-1.52-9.23,2.31-11.16.27-5.69,2.98-11.27,10.53-11.43.76-7.66,7.58-9.21,11.66-7.58,3.52-6.19,7.98-5.79,12.24-4.08,3.32-6.74,9.33-5.36,13.99-3.5,3.03-4.83,10.6-6.35,16.33-2.92,2.16-3.57,9.22-4.83,14.29-2.62,5.07-1.61,12.71-.35,15.45,2.63,3.97-2.27,10.38-1.33,13.41,2.92,4.66-1.87,10.67-3.24,14,3.5,4.26-1.71,8.72-2.11,12.24,4.08,4.09-1.63,10.9-.07,11.66,7.58,7.08,0,8.31.43,12.28,8.46,5.58,2.45,9.52,8.65,8.34,15.3,5.24,1.98,6.17,11.39.55,15.98h0Z"/>
              <path id="path2802-7" class="cls-4" d="M210.37,415.68c4.29,1.71,7.83,2.8,12.64,0,4.67.93,9.26-.84,10.19-5.71,2.71-3.61,6.36-7.84,2.86-13.86,1.59-3.97,4.65-7.8.4-13.05,2.9-4.83,3.37-11.98-2.85-15.5,2.9-3.86,2.62-9.8-1.63-13.46.63-3.16-.6-6.8-5.26-8.9,2.98-4.34,8.19-12.24,1.57-20.9,4.68-3.51,4.53-9.23,0-15.81,3.76-5.01,1.26-12.94-1.57-15.67,3.01-5.07,4.41-8.52.69-13.31,3.22-4.29,8.07-10.24-.88-20.2,1.57-3.92,1.83-9.86-5.97-13.24,2.26-7.52-3.28-9.78-8.06-11.69.03-5.64-5.01-10.87-9.91-12.83-1.57-4.67-7.08-10.71-14-9.33-3.28-4.48-8.63-7.83-15.74-6.41-4.12-4.78-8.31-6.39-13.99-5.25-4.45-4.61-9.62-5.48-14.58-3.5-7.08-5.47-15.81-4.3-21.16,0-4.96-1.98-10.12-1.12-14.58,3.5-5.68-1.14-9.88.47-13.99,5.25-7.11-1.42-12.46,1.93-15.74,6.42-6.92-1.39-12.43,4.66-13.99,9.33-4.9,1.96-9.94,7.19-9.91,12.83-4.78,1.91-10.32,4.16-9.25,11.47-5.95,3.17-8.72,9.11-4.73,13.63-8.95,9.97-4.1,15.92-.88,20.2-3.41,4.38-4.08,8.72-1.07,12.97-3.98,4.25-3.57,11.01.19,16.02-4.54,6.58-4.68,12.3,0,15.81-6.62,8.67-1.41,16.56,1.2,21.49-4.5,1.29-5.74,4.93-5.1,8.09-4.25,3.65-4.53,9.59-1.63,13.45-6.22,3.52-5.75,10.66-2.85,15.5-4.24,5.24-1.18,9.08.41,13.05-3.51,6.02.14,10.25,2.86,13.86.93,4.87,5.52,6.64,10.19,5.71,4.81,2.8,8.35,1.72,12.64,0,3.62,2.65,8.96,2.2,10.85,1.82,4.8,2.53,8.29,1.95,11.66-.58,4.72,1.28,8.43,2.86,12.24,0,5.09,2.77,8.48,2.02,11.08-.59,5.24,2.94,6.15,1.54,10.1-1.1h0c1.88.07,3.24,3.44,8.25.89,2.87,2.15,6.75,1.61,11.01,1.22,3.38,1.35,5.39.64,10.6,0,4.44.89,8.46,2.01,12.23-1.63h0c5,2.55,8.26,1.78,11.36-.55,5.15,6.24,8.98,2.12,12.83.58,4.21,1.65,7.98,2.29,12.24.59,5.02,3.18,7.06.39,9.91-1.75,4.39,4.55,5.77,3.95,9.12,1.13h0Z"/>
            </g>
            <path id="path3393" class="cls-1" d="M118.65,407.06c-14.94-1.96-27.33-9.97-29.47-20.69,4.12,6.18,9.94,7.63,15.68,8.78-9.9-6.86-17.58-18.68-15.05-31.35-2.87,6.92,2.64,12.48,6.9,15.67-6.6-11.34-6.89-29.47.63-36.99-3.79,6.04-3.44,11.48-1.25,16.93-1.65-17.29,1.71-30.83,15.18-36.22-5.71,5.71-6.4,9.7-6.4,18.04,3.24-14.34,11.68-25.52,27.32-28.71-7.16,5.53-5.58,6.22-6.63,9.9,5.88-8.64,11.69-11.84,23.83-10.03,16.49.35,21.31,3.63,25.1,9.71-5.44-3.86-9.62-4.59-13.19-4.07,9.25.87,17.2,5.61,21.32,13.17,9.22,4.98,14.41,13.67,14.64,22.66-1.81-8.08-4.93-10.63-8.37-12.63,6.9,8.18,13.03,17.32,9.17,31.88-1.5,12.28-4.47,16.51-15.03,22.91,3.53-5.65,4.22-8.57,3.36-10.9-2.7,9.17-4.67,15.39-16.3,21.95,3.63-4.47,2.24-2.66,5.83-13.17-.91,5.46-9.49,12.89-21.51,16.93,8.82-8.5,8.88-14.71,9.4-24.45-.98,10.54-5.12,14.01-10.03,17.56,5.26-9.13,3.79-20.68-3.13-23.2,1.92,2.72,1.65,6.31.09,8.39-.28-5.67-4.26-8.2-9.49-8.39,5.19,1.95,3.21,2.62,5.02,5.02-1.5.4-3.51.71-6.1.15,1.86,2.4,4.98,2.34,7.44,1.65-2.03,4.01-4.88,5.45-7.61,9.49,4.16-3.05,7.2-3.47,9.1-8.69-.45,6.62-2.14,9.59-9.08,14.34.03,4.11-16.35,7.6-21.34,4.39h0Z"/>
          </g>
        </g>
      </g>
    </g>
  </g>
</svg>