<?xml version="1.0" encoding="UTF-8"?>
<svg id="Layer_2" data-name="Layer 2" xmlns="http://www.w3.org/2000/svg" viewBox="0 0 76.46 203.59">
  <defs>
    <style>
      .cls-1 {
        fill: #d18259;
      }

      .cls-1, .cls-2 {
        fill-rule: evenodd;
      }

      .cls-1, .cls-2, .cls-3, .cls-4, .cls-5, .cls-6, .cls-7, .cls-8, .cls-9, .cls-10, .cls-11 {
        stroke-width: 0px;
      }

      .cls-2 {
        fill: #dd8f6d;
      }

      .cls-4 {
        fill: #782121;
      }

      .cls-5 {
        fill: #1a1a1a;
      }

      .cls-6 {
        fill: #da8b62;
      }

      .cls-7 {
        fill: #ba6b42;
      }

      .cls-8 {
        fill: #333;
      }

      .cls-9 {
        fill: #995d3f;
      }

      .cls-10 {
        fill: #fff;
      }

      .cls-11 {
        fill: #050505;
      }
    </style>
  </defs>
  <g id="svg6613">
    <g id="layer5">
      <g id="g5280">
        <g id="g4718">
          <path id="path7291-4-8" class="cls-9" d="M65.52,161.58c2.71-.37,5.46-4.15,8.71,0,5.36,6.85-.28,24.57-3.07,29.46-1.74,3.06-8.69,10.65-12.04,10.74-3.98-.3-9.58,2.16-13.73.85-2.33.06-5.05.07-7.17-.35-2.45.82-4.27.61-6.86,0-5.24.85-8.71.4-14.16-.22-3.21,0-10.16-7.6-11.9-10.66-2.78-4.89-8.42-22.61-3.07-29.46,3.25-4.15,6-.37,8.71,0-1.98-8.68-2.92-22.24.04-35.13l53.57-.21c3.29,12.94,2.95,26.3.97,34.98h0Z"/>
          <path id="path5166-8" class="cls-3" d="M6.33,128.11c-2.25,10.26.27,24.08,4.68,33.58,1.14-.64,1.78-2.02,1.98-3.23,1.01-1.22,1.01-3.41.54-5.93-1.51-9.33-4.63-16.74-7.19-24.42h0Z"/>
          <path id="path5166-6-3" class="cls-3" d="M69.75,127.95c2.25,10.26.8,25.16-4.68,33.58-1.14-.64-1.78-2.02-1.98-3.23-1.01-1.22-1.01-3.41-.54-5.93,1.51-9.33,4.63-16.74,7.19-24.42h0Z"/>
        </g>
        <path id="path7395" class="cls-7" d="M49.89,142.67c-1.13.84-2.06,1.63-4.2,2.31-1.28.43-2.34,1.21-4.23,1.01-.94.31-2.25.58-3.63.2-1.44,0-2.83.03-4.04-.2-1.28-.21-1.93-.53-3.23-1.21-1.34-.13-2.67-.71-3.75-1.52-.24-5.25,8.24-13.31,11.34-13.93,3.82-.02,12.35,9.5,11.74,13.33h0Z"/>
        <path id="path7283-1" class="cls-6" d="M12.28,85.16c-1.51,2.02-3.34,3.81-4.43,7.14-1.6,3.95-3.18,10.1-3.67,15.75-.63,7.29,1.04,17.29,3.37,25.19,1.09,2.88,2.31,6.59,3.4,9.53,2.31,8.11,7.89,38.8,7.89,51.33-.31,2.97-3.73,7.28-.79,8.71,2.57,1.25,8.99.77,11.61.26,3.42-.66,3.23-3.5,1.85-8.71,0-6.8-3.61-35.92-2.14-47.55,1.34-2.74,3.46-6.67,3.8-8.48,2.26-1.48,3.91-2.76,4.99-4.22,1.49,1.53,2.87,2.56,5.27,3.79,1.01,1.98,2.27,6.24,3.41,8.76,1.49,11.67-2.11,40.79-2.12,47.59-1.38,5.21-1.57,8.04,1.85,8.71,2.62.51,9.04.98,11.61-.26,2.94-1.42-.48-5.74-.79-8.71,0-12.53,5.58-43.22,7.89-51.33,1.09-2.94,2.3-6.65,3.4-9.53,2.33-7.9,3.86-17.82,3.37-25.49-.33-5.17-2.57-11.6-4.17-15.29-.72-3.12-2.48-4.77-3.45-7.19H12.28Z"/>
        <path id="path4684" class="cls-1" d="M14.07,73.61c-1.88.67-2.39,1.6-2.39,3.78-1.01,1.63-1.99,1.97-1.99,3.38.63.38,1.17.13,1.79.2-2.03.92-2.2,1.27-2.59,3.18,1.52-.83,1,.12,1.59.2-1.3,1.16-1.69,1.31-1.99,2.79,1.15-.8,1.24,0,1.79,0-1.86,1.09-2.33,2.05-1.79,3.38,1.13-.55,1.8-.4,2.79-.2-.72,1.66-.32,1.9.6,2.59.96-1.29,1.01-.34,1.79-.6-1.37,1.97,1,3.31,2.39,3.58.13-1.41.75-1.31,1.39-1.79-1.55,2.23.56,2.46,2.19,2.79.4-.33.8-.66,1.19-.99-.15,2.07,1.7,3.25,3.38,3.58.91-2.12.7-.7,1.39-1.39.13,1.86,1.86,2.02,3.78,2.79-.1-1.31.19-1.34.8-1.79.25,2.02,1.64,3.41,3.78,2.99,2.91.55,2.39.59,2.39-1.39-.17,1.63.69,1.85,1.74,2.19,1.05-.74,1.91-.96,1.74-2.59,0,1.99-.52,1.94,2.39,1.39,2.14.43,3.53-.97,3.78-2.98.61.46.9.48.8,1.79,1.93-.77,3.65-.92,3.78-2.79.69.69.48-.72,1.39,1.39,1.68-.34,3.53-1.51,3.38-3.58.4.33.8.66,1.19.99,1.62-.32,3.74-.55,2.19-2.79.64.48,1.26.38,1.39,1.79,1.38-.28,3.76-1.62,2.39-3.58.78.26.83-.69,1.79.6.92-.69,1.32-.92.6-2.59.98-.2,1.65-.36,2.79.2.53-1.34.07-2.3-1.79-3.38.55,0,.64-.8,1.79,0-.3-1.48-.69-1.62-1.99-2.79.6-.07.07-1.03,1.59-.2-.38-1.91-.56-2.27-2.59-3.18.62-.07,1.16.18,1.79-.2,0-1.41-.98-1.76-1.99-3.38,0-2.18-.5-3.11-2.39-3.78-9.53-6.82-35.66-7.2-48.06.4h0Z"/>
        <path id="path7084" class="cls-11" d="M30.46,26.25c.19-2.65-1.13-8.79-2.97-12.18C25.23,9.88,18.07-1.37,14.25.21c-3.41,1.41-5.82,17.06-4.51,25.6-.31,4.25-.08,9.47,2.24,12.21,1.66,1.32,2.49,3.57,4.02,4.49,5.1,3.01,16.06-12.24,14.47-16.25h0Z"/>
        <path id="path7137" class="cls-4" d="M22.97,29.99c-.05-4.24,2.93-8.32,1.78-12.2-2.25-7.62-6.04-14.97-9.11-14.87-3.28.11-4.82,17.26-3.78,23.52.98,2.73,5.21,8.68,5.21,12.02,1.49,4.97,5.79-1.53,6.96-3.1.52-2.51-.74-3.69-1.07-5.37Z"/>
        <path id="path7084-7" class="cls-11" d="M60.41,42.45c1.53-.92,2.36-3.17,4.02-4.49,2.32-2.74,2.55-7.96,2.24-12.21,1.3-8.55-1.11-24.19-4.51-25.6-3.82-1.58-10.98,9.68-13.25,13.87-1.84,3.39-3.15,9.53-2.97,12.18-.05,1.25.31,3.38.34,3.52,2.25,3.74,8.05,10.61,12.19,13.71.94-.03,1.45-.18,1.93-.98h0Z"/>
        <path id="path7137-5" class="cls-4" d="M64.54,26.38c1.04-6.26-.5-23.41-3.78-23.52-3.07-.1-6.85,7.24-9.1,14.87-1.15,3.89,1.82,7.96,1.78,12.2-.12,1.44-.75,2.21-1.06,3.75,2.02,2.51,3.42,4.93,5.18,6.25,1.31-.65,1.57-1.04,1.95-1.98-.18-2.88,4.05-8.83,5.03-11.56Z"/>
        <path id="path4678-6" class="cls-2" d="M43.99,77.16c-.2.4-.2,1-.6,1.19.7.94,1.63,1.38,3.98.99.77.58,2.07,1.66,2.98-.2.2.4.52.76.6,1.19,1.05,0,2.95.02,2.79-1.79.23.59.58.92.6,1.99,1.55-.31,2.78-.7,2.98-2.79.46.4,1.05.69,1.39,1.19,1.13-.85,2.75-1.65,1.39-3.18.44.58,1.29-.28,1.19,1.59.95-.72,2.65-1.77,1.59-3.38,0-.53.21-1.1,0-1.59.61-.61,1.84-2.35-.2-3.98.72.27.52-.97,1.59.6.88-1.18.4-2.84-.8-4.38.6.51.97-.37,1.39,1.19.62-1.56.23-2.73-1.19-4.18.94.37.91-.87,1.99.8.26-1.32.23-2.33-.99-3.58.89.56.47-1.55,1.59.99.16-.8.58-2.46-1.39-3.58,1.11.37-.11-1.64,1.79.6,0-1.44-.26-3.29-2.19-3.58.37.14.82-1.24,1.59.6.65-1.62-.68-3.39-2.59-4.18.47-.23,1.13-.44,1.59-.8-.32-1.62-.55-1.98-2.19-2.59,0-1.96-.88-2.41-2.39-3.98.27-1.35-.08-1.96-.99-3.18-.22-1.09-.48-2.31-1.99-2.19l-.2-1.19c-.51-1.26-1.84-1.92-3.78-1.99.49-.05.79-.68,1.79-.2-.7-1.16-1.6-2.25-3.78-1.99.8-.4.27,1.55,1.59-.8-.62-.12-2.38-1.11-3.98-1.99.6-.13,1.18-.43,1.79-.4-1.01-.76-3.08-2.38-5.42-2.22-1.69-.37-5.9.22-7.33.09s-5.64-.4-7.35-.05c-2.36-.17-4.43,1.45-5.44,2.21.61-.04,1.19.27,1.79.4-1.6.88-3.36,1.87-3.98,1.99,1.32,2.34.79.39,1.59.8-2.18-.26-3.08.83-3.78,1.99,1-.49,1.3.14,1.79.2-1.95.07-3.28.73-3.78,1.99l-.2,1.19c-1.51-.12-1.77,1.1-1.99,2.19-.92,1.22-1.26,1.84-.99,3.18-1.5,1.57-2.39,2.02-2.39,3.98-1.64.61-1.87.97-2.19,2.59.46.36,1.12.56,1.59.8-1.9.79-3.23,2.56-2.59,4.18.77-1.84,1.22-.46,1.59-.6-1.93.29-2.19,2.14-2.19,3.58,1.9-2.23.68-.23,1.79-.6-1.98,1.12-1.55,2.78-1.39,3.58,1.12-2.55.7-.44,1.59-.99-1.23,1.25-1.26,2.27-.99,3.58,1.08-1.66,1.05-.42,1.99-.8-1.43,1.45-1.82,2.62-1.19,4.18.43-1.57.8-.68,1.39-1.19-1.2,1.54-1.68,3.2-.8,4.38,1.07-1.57.87-.33,1.59-.6-2.04,1.63-.81,3.37-.2,3.98-.21.49,0,1.06,0,1.59-1.06,1.62.64,2.67,1.59,3.38-.1-1.88.76-1.01,1.19-1.59-1.36,1.54.26,2.34,1.39,3.18.35-.5.93-.8,1.39-1.19.21,2.09,1.43,2.48,2.98,2.79.02-1.07.36-1.4.6-1.99-.16,1.81,1.74,1.79,2.79,1.79.08-.44.4-.8.6-1.19.91,1.86,2.21.78,2.98.2,2.35.38,3.28-.06,3.98-.99-.4-.19-.4-.8-.6-1.19,1.99.44,3.34-.22,5.81-1.01,2.47.76,3.82,1.42,5.81.98h0Z"/>
        <path id="path5143" class="cls-5" d="M32.05,54.09c.58-1.67.72-3.06.41-3.94-.09-1.18,0-1.95,0-2.38.07-.43-.03-1.85-.08-2.68s-.52-1.75-.75-2.54c-.19-.83-.36-1.65-.83-2.82-.66-1.16.07-2.34-.22-3.5-2.08-.5-2.97,1.26-3.62,2.35-1.02.78-2.67,1.39-2.88,2.63-1.15,1.1-1.82,2.26-2.51,3.28-1.35.57-2.77,1.49-2.96,2.46.13.76,1.52.97,2.79,1.64.99.89,1.97,2.36,3.92,2.78.04.92.62,1.18.96,1.74.68,1.12.56,1.27.78,2.61.45,1.42,1.12,2.25,2.07,3.11,1.17-1.53,2.91-3,2.92-4.75h0Z"/>
        <path id="path5143-9-2" class="cls-5" d="M44.11,54.09c-.58-1.67-.72-3.06-.41-3.94.09-1.18,0-1.95,0-2.38-.07-.43.03-1.85.08-2.68.05-.84.52-1.75.75-2.54.19-.83.36-1.65.83-2.82.66-1.16-.07-2.34.22-3.5,2.08-.5,2.97,1.26,3.62,2.35,1.02.78,2.67,1.39,2.88,2.63,1.15,1.1,1.82,2.26,2.51,3.28,1.35.57,2.77,1.49,2.96,2.46-.13.76-1.52.97-2.79,1.64-.99.89-1.97,2.36-3.92,2.78-.04.92-.62,1.18-.96,1.74-.68,1.12-.56,1.27-.78,2.61-.45,1.42-1.12,2.25-2.07,3.11-1.17-1.53-2.91-3-2.92-4.75h0Z"/>
        <path id="path7130" class="cls-5" d="M29.39,69.5c.33,1.64.66,2.69,2.29,3.62,2.03,3.23,11,3.17,13.24,0,1.34-1.07,2.07-2.08,2.64-3.5-2.32-4.56-16.28-4.87-18.18-.13h0Z"/>
        <path id="path7128-1" class="cls-8" d="M26.52,65.71c1.07,2.64,3,4.91,3.74,4.98,2.47.21,5.61-.77,7.95-1.45,2.34.63,5.48,1.6,7.95,1.4.73-.06,2.67-2.34,3.74-4.98.47-.87.33-2.23-.12-2.99,0-1.32-.74-1.86-.96-3.2-.18-1.12-1.19-1.43-2.18-2.65-1.04-1.29-1.38-1.69-2.06-2.91-.64-1.16-2.22-1.57-3.11-2.6-.86-.99-2.23-1.37-3.51-1.29-1.28-.09-2.65.29-3.51,1.28-.89,1.03-2.47,1.44-3.11,2.6-.68,1.22-1.02,1.62-2.06,2.91-.98,1.22-2,1.52-2.18,2.65-.21,1.35-.95,1.88-.7,3.24-.2.79-.34,2.15.13,3.02h0Z"/>
        <path id="path7124" class="cls-3" d="M37.97,58.91c7.61-.08,4.26,7.5.08,7.67-4.18.17-7.69-7.59-.08-7.67Z"/>
        <path id="path7126" class="cls-3" d="M38.17,69.2c.47-.93.51-2.8-.13-3.74-.51.96-.51,2.62.13,3.74Z"/>
        <g id="g7216">
          <path id="path7133" class="cls-10" d="M29.27,47.78c2.12-2.03,1.01-6.14-.72-6.43-2.29-.39-4.81,1.96-5.44,4.02-.68,2.25,4.78,3.72,6.15,2.41Z"/>
          <path id="path7135" class="cls-3" d="M27.34,42.69c-3-.24-3.51,4.07-.59,4.54,2.92.47,3.59-4.3.59-4.54Z"/>
        </g>
        <g id="g7220">
          <path id="path7133-0" class="cls-10" d="M46.98,47.6c-2.01-2.13-.7-6.18,1.04-6.39,2.3-.27,4.71,2.2,5.22,4.29.56,2.29-4.96,3.48-6.27,2.1Z"/>
          <path id="path7135-8" class="cls-3" d="M49.17,42.61c3.01-.09,3.3,4.24.36,4.56-2.94.32-3.37-4.47-.36-4.56Z"/>
        </g>
      </g>
    </g>
  </g>
</svg>