<?xml version="1.0" encoding="UTF-8"?>
<svg id="Layer_2" data-name="Layer 2" xmlns="http://www.w3.org/2000/svg" viewBox="0 0 186.64 378.8">
  <defs>
    <style>
      .cls-1, .cls-2, .cls-3, .cls-4 {
        stroke-width: 0px;
      }

      .cls-2 {
        fill: #292929;
      }

      .cls-3 {
        fill: #1a1a1a;
      }

      .cls-4 {
        fill: #202020;
      }
    </style>
  </defs>
  <g id="set">
    <g id="border">
      <g id="g9239">
        <g id="g5726">
          <g id="g15683">
            <g id="g15665">
              <path id="path2898-7" class="cls-3" d="M124.12,371.93c.95,6.06,1.87,1.88,3.69,3.7-7.76.77-12.93-.72-16.89-3.7.58,1.51-.7,3.17-1.06,4.75-1.1-2.17-2.51-3.33-3.7-4.22-.62,3.72-1.13,4.75-4.75,4.75-.55-2.27-2.22-3.8-3.17-4.75-2.77,2-1.71,3.08-2.64,4.75-2.04-.78-2.66-2.66-5.01-3.66-2.35,1.07-2.97,2.95-5.02,3.73-.93-1.68.13-2.75-2.64-4.75-.95.95-2.62,2.48-3.17,4.75-3.62,0-4.13-1.03-4.75-4.75-1.19.89-2.59,2.05-3.69,4.22-.35-1.58-1.64-3.24-1.06-4.75-3.96,2.97-9.13,4.47-16.89,3.69,1.82-1.82,2.75,2.37,3.7-3.69,13.72-22.41,53.26-24.18,67.04-.07h0Z"/>
              <path id="path2870-0" class="cls-4" d="M177.23,285.4c15.91,2.56-4.6,16.88,9.41,19.68-5.98,2.99-8.13,1.39-11.12-.86,9.67,7.87,12.86,13.45,3.42,20.53,4.72-6.1,1.85-6.42-1.71-8.55.63,10.45-1.12,12.48,4.28,19.68-6.83-1.71-7.71-5.15-10.27-9.41,7.59,8.53,9.4,22.05,0,29.09,4.51-5.6,1.52-9.9,0-13.69-1.52,8.03-2.55,26.09,1.71,33.19-6.1-2.9-8.2-10.9-9.41-16.93.83,8.74-2,14.36-6.85,14.36-1.89-5.06-3.56-7.03-5.99-10.27-.47,5.3-1.71,7.33-1.71,11.98-4.42-4.78-6.62-6.59-7.7-11.98,2.62,8.48-3.28,11.23-7.7,14.55,6.77-5.36,3.58-8.61,2.57-13.69-4.22,6.59-7.56,8.71-8.56,13.69-1.46-6.25-2.57-16.36-2.57-22.92-1.5,5.13-2.68,12.96-1.71,17.78-6.92-9.04-5.13-27.65-5.13-39.18,10.59-34.45,22.62-48.4,59.04-47.06h0Z"/>
              <path id="path2870-6-1" class="cls-4" d="M9.41,285.25c-15.91,2.56,4.59,16.88-9.41,19.68,5.98,2.99,8.13,1.39,11.12-.86-9.67,7.87-12.87,13.45-3.42,20.53-4.72-6.1-1.85-6.42,1.71-8.55-.63,10.46,1.12,12.48-4.28,19.68,6.83-1.71,7.71-5.15,10.27-9.41-7.59,8.54-9.39,22.05,0,29.09-4.51-5.6-1.51-9.9,0-13.69,1.52,8.03,2.55,26.09-1.71,33.19,6.1-2.9,8.21-10.9,9.41-16.93-.83,8.74,2,14.36,6.85,14.36,1.89-5.06,3.56-7.03,5.99-10.27.47,5.3,1.71,7.33,1.71,11.98,4.42-4.77,6.62-6.59,7.7-11.98-2.62,8.48,3.28,11.23,7.7,14.55-6.77-5.36-3.58-8.61-2.57-13.69,4.22,6.6,7.56,8.71,8.56,13.69,1.46-6.25,2.57-16.36,2.57-22.92,1.5,5.14,2.68,12.96,1.71,17.79,6.92-9.04,5.13-27.65,5.13-39.18,5.1-19.39-47.58-41.57-59.04-47.06h0Z"/>
              <path id="path2765-5" class="cls-2" d="M144.01,224.01c9.65-3.49,10-25.22,4.13-34.85,3.92,4.46,9.73,12.26,7.34,21.55,7.4-10.13-1.3-27.67-6.88-38.06,4.07,2.36,12.45,10.81,9.64,15.13,2.49-14.69-12.59-29.33-18.81-37.14,4.4,1.76,15.19,10.04,15.96,15.53,4.51-13.49-11.11-22.67-20.86-31.06-17.54,7.94-30.18,17.64-34.83,23.61,26.42,40.23,27.87,47.16,44.33,65.29h0Z"/>
              <path id="path2765-1-0" class="cls-2" d="M43.41,224.06c-9.65-3.49-9.99-25.22-4.13-34.85-3.92,4.46-9.73,12.26-7.34,21.55-7.4-10.13,1.3-27.67,6.88-38.06-4.07,2.36-12.45,10.81-9.64,15.13-2.49-14.69,12.59-29.33,18.81-37.14-4.4,1.76-15.19,10.04-15.96,15.53-4.51-13.49,11.11-22.67,20.86-31.06,14.15,6.58,22.06,14.26,34.83,23.61-27.87,39.21-36.55,54.8-44.33,65.29h0Z"/>
              <path id="path2737-3" class="cls-3" d="M37.9,94.23c-6.84,17.9,2.84,40.79,8.58,50.53,13.98,18.86,11.22,35.87,13.38,63.82.48,0,6.5-1.07,11.08-4.02,3.39-1.61,3.63-4.39,5.84-6.94,1.57,2.73.69,4.17,1.38,5.75,3.32-1.78,4.78-4.07,6.05-6.19.63,2.58,1.03,4.19,1.31,5.73,4.95-1.95,6.22-5.81,8.18-7.3,1.96,1.44,3.23,5.3,8.18,7.25.29-1.54.69-3.16,1.31-5.73,1.27,2.12,2.73,4.41,6.05,6.19.69-1.58-.19-3.03,1.38-5.75,2.21,2.55,2.45,5.33,5.84,6.94,2.12-.79,8.38,3.11,9.15,2.34,6.02-6.02,3.66-46.99,15.5-62.7,5.55-9.18,15.24-32.07,8.39-49.98-1.05-3.03-2.11-5.11-2.55-7.31-.96.38-1.92.77-2.88,1.15v-1.44c-.15-3.16-1.18-5.25-1.73-6.63-2.27-.28-4.12-.45-6.35,0-2.86-3.06-1.37-2.73-2.31-4.61-3.29-1.67-3.11,0-5.19,0-3.02-2.43-2.44-2.79-4.04-4.61-2.12.93-3.78,1.33-6.69,1.72-6.53-8.06-15.7-5.27-23.61-5.24-7.92.02-17.54-4.13-23.61,5.28-2.3-1.36-4.75-2.49-7.23-3.48.88,4.1-2.21,3.87-2.31,4.04-3-.37-5.86,0-7.5,0,1.44,4.01.25,4.87-.58,6.92-2.14,1.08-5.71,1.03-6.35,1.15,2.45,2.9,0,4.12,0,4.61-2.51.55-4.48,2.75-5.77,4.04-.98,1.49-1.95,2.98-2.93,4.47h0Z"/>
              <path id="path2725-3" class="cls-1" d="M140.62,94.95c4.21-.56,5.53-.62,8.82-2.76,4.75,1.18,8.1,4.82,14.53,4.97-2.66-2.01-4.91-3.02-5.05-8.53,2.62.16,9.66,4.19,15.79,3.02-3.33-2.19-7.31-4.64-9.71-7.48,5.52.96,6.21-1.54,9.98-1.91-1.23-1.25-4.39-2.71-5.24-5.28,14.68-13.06-3.16-79.72-11.13-76.89-12.65,4.51-29.08,35.67-34.69,50.58-3.73-2.05-4.09-7-9.32-8.57,1.4,3.22,3.59,9.75,3.79,13.53-2.95-2.24-10.73-4.58-14.37-3.71,8.06,4.67,12.64,13.15,12.98,19.35-.64,2.3-1.31,4.6-1.78,6.94,2.56.75,5.07.82,6.51,1.11-.14,3.14.22,3.82,2.33,4.66,2.55.46,3.84-.76,5.83-1.56-.98,3.59.28,4.13,1.56,5.83,1.82-.38,3.81-.25,5.06,0-.27,2.69.39,3.45.39,5.83,1.46.12,2.36.5,3.71.85h0Z"/>
              <path id="path2725-6-1" class="cls-1" d="M70.39,71.33c.34-6.2,4.92-14.68,12.98-19.35-3.64-.87-11.42,1.46-14.37,3.7.2-3.78,2.39-10.31,3.79-13.53-5.23,1.57-5.59,6.52-9.32,8.57C57.86,35.8,41.44,4.64,28.78.14c-7.97-2.84-25.81,63.82-11.13,76.89-.85,2.58-4,4.04-5.24,5.28,3.77.37,4.47,2.87,9.98,1.91-2.39,2.84-6.37,5.29-9.7,7.48,6.13,1.17,13.17-2.86,15.79-3.02-.13,5.51-2.39,6.52-5.04,8.53,6.43-.16,9.78-3.8,14.53-4.97,3.46,1.38,5.74,1.37,8.05,4.44,2.24-1.94,2.7-3.54,3.4-5.3h3.89c.58-1.63,1.31-3.04,1.56-4.28,2.61-.04,4.87-.82,6.61-1.17.95-2.01,1.99-2.57,2.72-3.5,2.68-1.28,4.16-.29,7.2-1.05-.72-3.53-2.45-5.06-1-10.06h0Z"/>
              <path id="path2861-9-3" class="cls-1" d="M53.05,179.15c-16.8,15.24-25.21,39.01-24.81,49.63,6.95,10.07,119.71,11.51,130.17.16,1.07-11.29-8.01-34.39-24.81-49.63-27.87-17.48-58.82-18.56-80.54-.16Z"/>
              <path id="path2859-0-3" class="cls-4" d="M137.64,378.14c5.23.53,10.26,1.26,21.02-.53,7.98-1.32,5.36-15.26,2.44-19.73,5.13-32.6,21.86-54.13,16.99-90.44-1.74-12.96-9.26-28.78-20.51-40.32-12.06-12.37-52.81-21.23-66.22-21.63-13.41-.4-48.11,8.37-63.91,23.04-4.21,3.92-17.15,25.78-18.89,38.74-4.88,36.31,10.79,57.31,15.93,89.91-2.92,8.7-7.92,19.33,3.5,21.32,7.41,1.29,16.21-2.09,23.34-1.9,8.62-3.79,32.99-8.36,42.01-12.47,12.26,4.4,29.79,8.78,44.31,14Z"/>
            </g>
            <path id="path15667" class="cls-1" d="M87.84,362.08c-8.05-5.59-13.06-11.99-13.06-22.05-9.12-4.49-8.17-16.34-8.17-26.13-5.24-7.78-7.49-13.18-6.53-23.68-3.39-8.05-2.8-17.03-1.63-22.86-1.82-9.68-3.05-20.7,1.63-26.94,9.3,1.69,9.89,14.32,11.43,22.05,9.36,10.58,9.81,16.37,12.25,28.58,5.48,5.78,7.04,12.71,9.8,19.6,5.62,4.7,7.26,12.63,8.98,21.23,4.74,7.55,8.98,14.79,6.53,22.05-3.42,12.25-11.42,12.09-21.23,8.17h0Z"/>
          </g>
        </g>
      </g>
    </g>
  </g>
</svg>