<?xml version="1.0" encoding="UTF-8"?>
<svg id="Layer_2" data-name="Layer 2" xmlns="http://www.w3.org/2000/svg" viewBox="0 0 400.13 763.31">
  <defs>
    <style>
      .cls-1 {
        fill: #f2f2f2;
      }

      .cls-1, .cls-2, .cls-3, .cls-4, .cls-5, .cls-6, .cls-7 {
        stroke-width: 0px;
      }

      .cls-2 {
        fill: #833703;
      }

      .cls-3 {
        fill: #130700;
      }

      .cls-4 {
        fill: #ccc;
      }

      .cls-5 {
        fill: #9a4a14;
      }

      .cls-6 {
        fill: #7e3300;
      }

      .cls-7 {
        fill: #e6e6e6;
      }
    </style>
  </defs>
  <g id="set">
    <g id="border">
      <g id="g12191">
        <g id="g11982">
          <g id="g17064">
            <g id="g3493">
              <path id="path19508-84-1-9" class="cls-3" d="M316.34,23.59c-6.99,2.34-10.56,7.95-11.48,9.18,11.6,2.93,14.62,4.76,25.25,6.88-6.06,12.86-4.76,2.65-10.33,5.73,16.58,4.07,22.08,4.81,25.25,20.65,13.31,5.74,17.62,15.93,21.81,26.38,13.6,8.48,20.68,16.75,33.29,21.79-8.86,9.41-13.11,5.08-18.36,1.15,8.21,6.12,9.35,7.22,8.03,13.76-3.12-3.3-7.11-3.94-10.33-5.73,11.21,10.74,6.79,21.39-3.45,27.53,4.82-6.33,2.47-7.04,0-10.32,4.54,18.9-13.37,25.79-21.81,32.12-1.38,6.6-2.3,11.14-2.3,14.91-4.49-4.36-4.76-3.97-6.88-5.73.21,8.28.43,22.88,2.3,27.53-8.72-3.5-10.1-5.69-11.48-12.62-.46,2.67.76,5.35,1.14,8.03-11.88-5.48-14.76-8.2-18.36-17.21-12.18-17.77-10.66-37.03-10.66-64.1.49-31.45-18.09-68.97-20.02-95.47,4.32-9.52,17.96-4.44,28.38-4.44h0Z"/>
              <path id="path19508-8-3-7-6" class="cls-3" d="M84.47,23.93c6.99,2.34,10.56,7.95,11.48,9.18-11.59,2.93-14.62,4.76-25.25,6.88,6.06,12.86,4.76,2.64,10.33,5.73-16.57,4.07-22.08,4.8-25.25,20.65-13.32,5.74-17.62,15.93-21.81,26.38-13.6,8.48-20.67,16.75-33.29,21.79,8.86,9.41,13.11,5.08,18.37,1.15-8.21,6.11-9.35,7.22-8.04,13.76,3.12-3.3,7.11-3.95,10.33-5.73-11.21,10.74-6.79,21.39,3.45,27.52-4.82-6.32-2.47-7.04,0-10.32-4.53,18.9,13.37,25.79,21.81,32.12,1.38,6.6,2.3,11.14,2.3,14.91,4.5-4.36,4.77-3.97,6.89-5.73-.21,8.28-.44,22.88-2.3,27.53,8.71-3.51,10.09-5.69,11.48-12.62.46,2.66-.77,5.35-1.15,8.03,11.88-5.48,14.76-8.2,18.36-17.2,14.35-25.35,11.74-37.03,11.74-64.1-.49-31.45,10.52-70.05,18.94-94.93-4.32-10.07-17.96-4.98-28.38-4.98h0Z"/>
              <path id="path19524-5-5-0-8" class="cls-7" d="M78.42,219.68c.54-10.46,3.3-4.41,6.47-8.64-6.88,10.93-.14,19.59,7.56,22.68-1.07-4.22,3.43-6,4.32-7.56-.32,11.73,6.92,13.44,15.12,18.36,3.46,6.5,8.36,11.53,21.19,10.06.18,8.57,6.47,7.25,17.47,12.74,22.28,6.41,79.24,3.02,95.84,3.31,11-5.49,21.61-8.49,21.79-17.07,12.83,1.47,17.72-3.56,21.19-10.06,8.19-4.92,15.43-6.62,15.12-18.36.89,1.56,5.38,3.34,4.32,7.56,7.71-3.08,14.44-11.74,7.56-22.68,3.17,4.23,5.94-1.83,6.48,8.64,4.93-6.57,2.45-12.82-.18-23.46-7.22-50.28-21.22-137.64-32.27-164.19-5.61-5.33-14.3-10.84-24.68-15.71C247.08,6.58,223.01-.11,201.49,0c-16.87.09-37.22,4.84-54.6,11.02-17.14,6.1-31.37,13.6-36.47,19.39-2.65,26.39-44.28,136.17-33.07,165.79-1.38,10.66-3.86,16.91,1.07,23.48Z"/>
              <path id="path3414" class="cls-6" d="M322.66,195.22c8.66-44.98,10.54-123.52-32.27-164.19-5.61-5.33-14.3-10.84-24.68-15.71-5.85,7.5-4.75,17-4.75,21.79-10.11,20.56,3.53,29.14,3.53,45.88-8.16,14.48-8.74,29.32-3.53,42.35-1.96,19.05,5.58,29.21,14.12,40.59,12.54,14.15,31.9,33.72,47.59,29.29h0Z"/>
              <path id="path19524-5-5-0-8-7" class="cls-6" d="M77.35,196.2c-30.62-40.21,12.77-128.82,33.07-165.79,5.1-5.79,19.33-13.28,36.47-19.39,10.37,17.49,9.93,27.94,8.18,36.67,5.65,24.07-7.59,25.14,0,44.12-5.56,20.05-9.11,35.95-24.7,47.65-.96,20.79-11.48,26.7-19.41,38.82-1.88,7.96-17.62,14.26-33.6,17.92h0Z"/>
              <path id="path19620-9-8-0-9" class="cls-4" d="M48.72,241.7c-10.17,4.32-10.72,18.42-7.05,29.26-4.17,18.79-12.71,38.22,4.71,18.11,44.26,10.65,170.97,9.73,307.65.13,12.06,25.84,11.54-9.38,4.7-18.11,3.66-10.85,3.12-21.41-7.06-29.26,0-15.67-11-23.93-21.33-28.85-36.34-48.45-90.35-53.59-130.77-53.77-40.42-.18-98.62,8.65-123.5,45.28-11.04,9.75-22.05,16.25-27.35,37.21h0Z"/>
              <g id="g3465">
                <path id="path19641-9-8-5" class="cls-7" d="M366.52,514.16c1.89,4.22,9.74,4.32,5.73,11.88,3.98-8.92,6.63-18.76-.65-33.11,5.85-6.99.96-8.43,3.67-20.19,2.82-6.32,4.52-12.1,2.41-20.52l1.63,1.41c8.92-10.85,9.54-28.59,8.45-38.64,6.81-18.27,6.25-26.04.85-41.29,12.98-69.5-67.65-174.91-187.97-180.78C80.32,187.05-5.29,315.96,9.15,373.49c-5.4,15.25-5.96,23.02.85,41.29-1.09,10.05-.46,27.79,7.61,39.1l.78-.96c-2.1,8.42-.41,14.21,2.41,20.53,2.71,11.77-2.19,13.2,3.67,20.19-7.28,14.35-4.64,24.19-.66,33.11-4.01-7.56,3.84-7.66,5.73-11.88-.63,11.71,2.21,21.61,10.19,21.48-10.84-5.17-15.51,4.45-14.76,25.58-12.2,6.02-18.47,19.13-15.8,32.5-12.47,13.24-9.07,31.33-4.32,43.21-7.57,26.67,5.47,44.41,15.12,60.49-.25,20.34,10.85,34.6,23.77,44.29,9.56,11.39,17.15,17.28,33.49,17.28,5.21,9.56,30.87-2.89,49.92-3.11,39.23-14.62,76.78-18.2,105.08,1.64,9.22,3.69,25.15,6.54,35.02-2.36,13.51-2.5,32.41-7.68,51.8,3.81,16.33,0,23.92-5.89,33.49-17.29,12.91-9.69,24.02-23.95,23.76-44.29,9.65-16.08,22.69-33.82,15.12-60.49,4.75-11.88,8.15-29.96-4.32-43.2,2.67-13.37-4.78-30.03-20.53-37.23-.43-14.06-7.46-24.85-14.65-20.16,12.41-1.26,15.25-11.15,14.62-22.87h0Z"/>
                <path id="path14092-4" class="cls-5" d="M375.96,303.62c7.14,7.66,17.51,24.76,13.05,33.27,8.52,13.6,11.6,36.78,5.74,49.99-3.75-8.13-9.72,31.92-13.19,27.42-4.24,25.56-17.6,26.37-28.75,22.84-19.43,15.72-31.73-9.86-31.73-16.02-13.4-7.43-9.71-27.22-9.71-35.52-6.52-33.41.68-50.64,6.98-59.29-8.34-7.37-5.78-27.99-4.63-48.69-3.14-11.61,4.59-38.79,17.72-31.67,27.23,12.41,44.52,46.1,44.52,57.68h0Z"/>
                <path id="path19637-2-6-9-6-5-6" class="cls-5" d="M3.01,386.66c-5.85-13.21-2.78-36.39,5.74-49.98-4.45-8.5,5.91-25.6,13.05-33.27,0-11.58,10.65-33.72,23.02-43.83,18.64-18.73,33.98-35.8,55.46-39.42,14.01,36.11-4.54,42.44-19.55,68.91-8.82,4.98,17.13,20.88.91,35.34-5.07,24.48-18.74,15.23-25.76,32.79,1.79,8.17,7.03,21.44,2.65,34.63-12.33,19.46-13.83,24.5-28.73,17.02-14.9-7.49-13.39,1.01-26.8-22.19h0Z"/>
              </g>
              <path id="path19641-9-8-5-9" class="cls-5" d="M232.22,758.24c-14.77.47-29.14,4.5-38.47-2.5-14.4,9.21-18.56,3.8-31.32,1.25h0c-9.29,7.34-24.49,8.84-35.29-.39-21.69-9.48-45.3-23.32-49.72-45.38,1.53-12.25,7.04-19.34,8.82-28.23-11.72-23.68-12.41-54.69,14.12-60,8.23-13.28,10.59-22.69,10.59-33.53-3.7-11.36-7.06-17.58-7.06-28.24,16.56-14.58,32.7-13.91,42.35-30,3.18-23.83-9.97-25.79-15.88-40.59,12.13-11.9,27.01-8.82,44.12-8.82,33.56-4.47,36.53,49.46,52.94,61.77,13.51,11.67,32.2,2.93,40.59,14.12,11.14,16.85,10.18,35.79,19.41,51.18,12.58,9.73,11.81,18.06,15.88,28.24-3.04,9.88-8.85,14.75-12.35,19.41,3.7,12.76,13.08,24.51,15.88,28.24,3.71,25.92-11.91,29.55-22.94,40.59-7.72,9.04-15.54,11.66-21.18,15.88-3.33,4.67-15.15,15.15-30.5,17.01h0Z"/>
            </g>
            <g id="g3516">
              <path id="path3495" class="cls-2" d="M248.21,664.13c1.5-26.07-9.06-18.64-10.18-29.08,0,0,3.07-12.18-5.85-25.24-3.62-8.03.5-24.53-11.54-19.15-5.56-16.06-108.86-6.38-107.95,17.93,5.62,5,.61,14.25,6.94,17.79-.7,10.19,10.17,13.61,11.65,23.21,10.34,11.45,8.77,3.86,9.38,9.36,2.29,8.87,4.85,10.92,7.05,15.88-2.94,1.17-4.79,11.05,3.54,18.64.72,7.59-1.38,5.33,1.9,13.54l10.61,16.7c5.9,9.06,8.65,2.43,14.12,9.83,26.75,9.15,57.02,7.25,65.42-17.03,12.23-19.97,9.13-31.77,4.9-52.39Z"/>
              <path id="path3495-6" class="cls-1" d="M112.7,608.61c-7.17-5.38-17.45-13.1-12.33-22.68-11.09-5.98-23.89-19.76-12.23-25.12-7.51-5.63-13.22-17.19-24.29-27.7,0-6.47,1.08-5.33,0-12.89-9.13-12.18-14.1-32.55-16.14-43.56,1.22-8.84-.69-11.7,2.84-13.46-3.76-9.39-6.5-12.41-8.41-25.51,7.11-1.42,19.57.38,26.47,7.06,12.49-7.5,14.04-2.35,28.24,3.53,14.48.8,15.06-2.14,23.21,4.74,11.39,2.28,17.76,7.47,24.44,19.14,4.38,1.64,10.93,1.9,16.29,3.12,5.92,7.9,17.26,21.17,16.7,34.62l10.59-1.76c8.44,11.25,19.46,18.95,14.26,32.56,6.19,3.09.9-.2,11.12,2.3,10.69,13.18,9.97,35.59,7.2,47.67-17.34-12.99-16.28-9.85-21.95,4.33-4.39-2.79-5.9-2.62-9.79-4.35,2.84,7.72-.59,4.7-1.08,8.7-5,.71-9.83-.23-14.14-1.09-1.09,2.18-2.17,4.35-3.26,6.53v1.09c-6.19.06-11.07-2.21-16.31-3.26-8.26,5.38-1.68,3.91-3.26,7.61-5.32-2.62-10.65-5.13-14.14-6.53-6.62,4.37-2.38,5.37-4.35,9.79-4.41-2.61-8.66-7.57-10.88-9.79-2.93,1.64-5.86,3.27-8.79,4.91h0Z"/>
            </g>
          </g>
        </g>
      </g>
    </g>
  </g>
</svg>