<?xml version="1.0" encoding="UTF-8"?>
<svg id="Layer_2" data-name="Layer 2" xmlns="http://www.w3.org/2000/svg" viewBox="0 0 103 207.89">
  <defs>
    <style>
      .cls-1 {
        fill: #484544;
      }

      .cls-1, .cls-2, .cls-3, .cls-4 {
        stroke-width: 0px;
      }

      .cls-2 {
        fill: #1a1a1a;
      }

      .cls-3 {
        fill: #dd8f6d;
      }

      .cls-4 {
        fill: #da8b62;
      }
    </style>
  </defs>
  <g id="Layer_2-2" data-name="Layer 2">
    <g id="svg6613">
      <g id="layer5">
        <g id="g3449">
          <path id="path7084-1-85" class="cls-2" d="M65.6,37.95c2.3-2.7,2.6-8,2.2-12.2,1.3-8.5-1.1-24.2-4.5-25.6-3.8-1.6-11,9.7-13.2,13.9-1.8,3.4-3.1,9.5-3,12.2.1,5.1,11.7,16.8,14.7,16,1.6-.7,2.1-2.9,3.8-4.3h0Z"/>
          <path id="path7084-1-8-9" class="cls-2" d="M11.9,38.15c-2.3-2.7-2.6-8-2.2-12.2C8.4,17.45,10.8,1.75,14.2.35c3.8-1.6,11,9.7,13.2,13.9,1.8,3.4,3.2,9.5,3,12.2.5,6.4-11.1,16.4-14.7,16-1.6-.7-2.1-3-3.8-4.3h0Z"/>
          <path id="path7291-4" class="cls-3" d="M38.5,202.25c-3,.8-18.1,1.6-21.1-.2-4.6-1.4-10.3-7.8-12.1-10.8-2.8-4.9-8.4-22.6-3.1-29.4,3.2-4.1,6-.4,8.5.4,16,1.9,35.9,3.7,55.8-.3,2.7-.4,5.4-4.1,8.7,0,4.1,5.2,1.8,16.6-.7,23.9-7.1,9.3-18.2,16.6-36,16.4h0Z"/>
          <path id="path7086-5-4-6" class="cls-4" d="M65.8,83.95c.6-.5,1.4-1.1,1.6-2.3-.3-1.8-.8-2.9-2.8-3.5.7.1,1.4-.2,2.1.2-.3-.9-.1-1.3-2.1-3,.5.1.9.1,1.4.2-.4-2.2-1.6-2.6-.9-4.8.5-1.4.8-1.7-1.4-2.8.7.3.9.6,2.1.9-.6-1,.4-1.4-1.4-2.5.5.3,1.4.5,2.1,1.2-.2-1.3-.2-2.6-2.3-3.7.7.1,1.4-.2,2.1.2.2-1.3.1-2.5-1.4-4.2.7.1,1.6-.1,2.8,1.4-.1-.2-.4-2.4-2.3-3,.5.3,1.1-1.5,1.9.9,0-1.8-.2-2.3-1.9-4.2,1.1,0,1.7-.1,2.8.7-.4-2.3-.7-3.1-3-3.7.9.1,1.7-.2,2.5.2,0-1.9-1.3-2.8-3.7-3.2,1.2-.2,1.3-.6,2.5.7.4-2.6-.6-3-3-4.3-.5-1.5-2.7-2.9-1.7-5.1-.1-.4-.3-1.8-1.5-1,.5-.2.9-.5,1.4-.7-1.1-.7-1.8-1.2-3.5-1.4.1,0,1.1-.7,1.9-.9-1.3-.8-2.1-1.3-4.2-1.2.4-.7.7-.3.9-1.6-.4-.1-1.7-.6-2.8-.9.6-.3-.1-.5,1.4-.7-.7-.4-1-1.1-2.5-.9.2-.3-.7-.9,1.2-1.4-1.4-.8-1.7-.7-3.5-1.4.4-.1.8-.3,1.2-.5-.9-.7-1.6-1.2-3.7-1.1-1.9-1.1-7.1-.4-9.2-.4s-7.3-.6-9.2.5c-2.1,0-2.8.4-3.7,1.1.4.1.8.3,1.2.5-1.7.7-2.1.6-3.5,1.4,1.8.5.9,1.1,1.2,1.4-1.5-.2-1.8.5-2.5.9,1.5.2.8.4,1.4.7-1.1.4-2.4.8-2.8.9.2,1.3.5.9.9,1.6-2.1-.2-2.9.4-4.2,1.2.8.3,1.8.9,1.8.9-1.7.2-2.3.7-3.5,1.4.5.2.9.5,1.4.7-1.2-.8-1.3.6-1.5,1,1,2.3-1.2,3.7-1.7,5.1-2.4,1.3-3.5,1.7-3,4.3,1.2-1.3,1.4-.9,2.5-.7-2.4.5-3.7,1.4-3.7,3.2.9-.4,1.7-.2,2.5-.2-2.3.6-2.6,1.4-3,3.7,1.1-.8,1.7-.7,2.8-.7-1.6,1.8-1.8,2.4-1.8,4.2.7-2.4,1.3-.7,1.8-.9-2,.6-2.2,2.8-2.3,3,1.2-1.5,2.1-1.3,2.8-1.4-1.4,1.7-1.6,2.8-1.4,4.2.7-.4,1.4-.2,2.1-.2-2.1,1.1-2.1,2.4-2.3,3.7.7-.6,1.6-.9,2.1-1.2-1.8,1.1-.8,1.5-1.4,2.5,1.2-.3,1.4-.6,2.1-.9-2.2,1.1-1.8,1.4-1.4,2.8.7,2.2-.6,2.6-.9,4.8.4-.1.9-.2,1.4-.2-2,1.7-1.8,2.1-2.1,3,.7-.4,1.4-.2,2.1-.2-2,.6-2.5,1.7-2.8,3.5.2,1.2,1,1.8,1.6,2.3l27-1,26.9.9h0Z"/>
          <path id="path2566-9" class="cls-1" d="M41.2,78.15c.4,0,3.1.5,5.2.8,1.3.4,3.2,1.2,5.2,1.1,2.3.7,4.7,1.9,8.5,1.9-.3-.5-.3-1.9-2.7-2.1.7.3,2,.5,3,1.1-.8-2.1-1.5-2.8-4.2-3.8,1.5.2,1.3-1.4,3.3.5-1.2-1.7-1.8-2.7-4.6-3.8,1.4-.7,2.4-1.3,4.9-.5-1-2.7-3.3-3.9-7-4.3,1.8-.5,4-1.2,6.4-.3-.9-2.4-2.4-2.3-5.5-3.8,1.4.2,3.1.6,4.9-.5-2.3-.7-5.1-1.6-7.9-3.2,1.7.2,3.4.9,5.5,0-2.1-1.1-4.2-2.2-7-3.2,1.2.4,3.4.8,5.2.8-3.9-1.2-5.6-2.2-8.5-5.1,1.4.6,3.2,1.2,5.5.3-2.4-1.3-6.1-3.2-9.4-5.9,1.5.2,2.5,1,4.5,0-2.4-1.2-5-2.8-8.1-5.4-3,2.5-5.7,4.1-8.1,5.3,2.1,1,3,.2,4.6,0-3.3,2.7-7,4.6-9.4,5.9,2.2,1,4,.4,5.5-.3-2.9,2.9-4.6,3.9-8.5,5.1,1.8,0,3.9-.5,5.2-.8-2.8,1.1-4.9,2.1-7,3.2,2.1.9,3.7.2,5.5,0-2.8,1.7-5.6,2.5-7.9,3.2,1.7,1.2,3.4.8,4.8.5-3,1.4-4.6,1.3-5.5,3.8,2.4-1,4.5-.3,6.4.3-3.7.4-6,1.6-7,4.3,2.5-.7,3.5-.2,4.8.5-2.8,1.1-3.4,2-4.6,3.8,2-1.9,1.8-.3,3.3-.5-2.7,1-3.5,1.7-4.2,3.8,1-.6,2.3-.8,3-1.1-2.4.2-2.4,1.7-2.7,2.1,3.8,0,6.2-1.2,8.5-1.9,1.9.1,3.8-.7,5.2-1.1,2.1-.3,4.7-.8,5.2-.8l2.9-1.3,2.8,1.4h0Z"/>
          <path id="path2238" class="cls-3" d="M54.4,75.85c1.8.4,3.1,1.3,4,2-.3,0-.5.1-.8.2,1.7-.7,2.5,0,3.8.4,2.2.9,2.3.7.2,1,1.2-.2,2.4.1,3.4.4,1.9.5,2.2,1.2,2.8,2.4-.3,0-.7-.1-1-.2,1.4,1.5,1.7,1.9,2.2,3.4-.4,0-.8-.3-1.2-.4,1.4,1.8,2.4,2,3.2,3.4-.5-.2-1.1-.3-1.6-.4,1.5,1.7,2,2.1,2,4.4l-1.2-1-.2-.2c1.4,1.4,1.7,2.5,1.4,4,.7,1.3.6,1.3.4,2.4.2,1.7-.4,2.6-1,3.6l-32,.1-32,.1c-.6-1.1-1.2-2-1-3.6-.2-1.1-.3-1.2.4-2.4-.2-1.5,0-2.7,1.4-4l-.2.2-1.2,1c0-2.3.5-2.7,2-4.4-.5.1-1.1.2-1.6.4.8-1.4,1.9-1.7,3.2-3.4-.4.1-.8.4-1.2.4.5-1.5.9-1.9,2.2-3.4-.3.1-.7.2-1,.2.6-1.2,1-1.9,2.8-2.4,1-.3,2.2-.7,3.4-.4-2.1-.3-2.1-.1.2-1,1.3-.4,2.1-1.1,3.8-.4-.3-.1-.5-.2-.8-.2.9-.7,2.2-1.6,4-2,.5-.3,1.4-.6,2.2-.9l1.2-1.4c.7-.5,1.6-.8,1.9-.9.7.4,1,.2,1.2.2.5-.9.7-.7,1.1-1,.4.4.7.1,1,.2.6-.2.9-.6,1.4-.8.2.1.5.3.8.4h.1c.6-.2,1.1-.4,1.5-.6.7-.7.9.3,1.2.4.2-.2.5-.3,1-.4.5.1.8.2,1,.4.3-.1.5-1.2,1.2-.4.4.2.9.4,1.5.6h.1c.2-.1.5-.3.8-.4.4.2.7.6,1.4.8.4-.1.6.2,1-.2.4.4.6.1,1.1,1,.3,0,.6.2,1.2-.2.4.1,1.2.4,1.9.9l1.9,1.4c2.1.1,2.9.4,3.5.7h0Z"/>
          <path id="path7283-9-6-2" class="cls-2" d="M36.7,88.15c-.7-.6-1.9-.6-2.4-2.1-.9.9-.4,1-2.1,2.1-.6-.2-1.3-1-2.4-.9-1.2.5-1.7-.1-3,1.2-.2-.2-1.7-.1-2.1-1.8-1,.5-1.3-.1-2.7,1.5l-1.5-1.5c-1.1.6-2.4,1.4-3.6,3-.2-.4-1.3-.2-.9-1.8-.6,1-1.2,1.8-2.4,2.7h-.3c-.3-.5-.6-1.1-1-1.6-1.4,3-5,7-5.8,10.6-.8,3.4-1.4,7.3-1.8,11-1.8,18.1,2.4,42.5,8.9,53.4l1.6-.3c-.3.6.5,2.3.5,2.6.5-.7,1.1-.2,1.6-.3.3,1.5.7,2.5,1.1,3.4,1.3-2,.9-.4,1.8-.8-.8,1.8,0,2.6.8,4,.4-.8,1.2-1.2,1.2-1.2-.2,1.3.2,1.9.8,2.6.6-.4,1-.3,1.7-.3-.5,1.3.1,2.3,1.1,3,.8-.1.7.2,1.1.3.1,1,.5,1.9.9,2.6.3.4,1.1-.3,1.2-.3-.2.9.6,1.9.8,2.1.3-.1.6-.1.9-.1v.1c0,1.3.4,1.5.9,2.1.8.5.5,1,.8,1.5,2,2.1,4.7,3.5,6.8,4,2.2-.4,4.8-1.7,6.8-3.9.3-.5,0-1,.8-1.5.5-.6.9-.8.9-2.1v-.1c.3.1.6.1.9.1.1-.2,1-1.2.8-2.1.1,0,.9.8,1.2.3.4-.7.8-1.6.9-2.6.4-.1.3-.4,1.1-.3.9-.7,1.6-1.8,1.1-3,.6,0,1.1-.1,1.7.3.5-.7.9-1.3.8-2.6,0,0,.8.4,1.2,1.2.8-1.4,1.6-2.1.8-4,.9.4.5-1.2,1.9.8.3-1,.7-1.9,1.1-3.4.5.1,1.1-.5,1.6.3.1-.3.9-2.1.5-2.6l1.6.3c6.6-10.9,10.7-35.3,8.9-53.4-.4-3.7-1-7.6-1.8-11-1.2-3.6-4.7-7.6-6.2-10.6-.3.5-.6,1.1-1,1.6h-.3c-1.2-.9-1.8-1.7-2.4-2.7.4,1.6-.7,1.4-.9,1.8-1.2-1.6-2.6-2.4-3.6-3l-1.5,1.5c-1.4-1.6-1.8-1-2.7-1.5-.4,1.8-1.9,1.6-2.1,1.8-1.4-1.3-1.9-.8-3-1.2-1.1-.1-1.8.7-2.4.9-1.7-1.1-1.3-1.3-2.1-2.1-.5,1.5-1.8,1.5-2.4,2.1-5.9-3.2-.8-.6-2.2-1.3-1.6.6,3.4-2-2.5,1.2h0Z"/>
          <path id="path2480-2-2" class="cls-2" d="M46.1,184.65c2.5,5.1,7.4,2.3,12.2,1.6-.1.7-.4,1-.7,1.5,1.9-.1,2.8-1.6,5-1.3.2.9-.1.6-.1,1.1,2.2-1.8,5.4-2.2,7.8-1.4-.7.3-1,.9-1.4,1.4,2.6-1.9,5-1.4,7.6-.5-.1.6-.9.8-1.2.9,2.7-.9,6.2-.3,7.3.8-.8-.1-1.2.1-1.4.3,2.5.2,4.4,1.5,4.8,2.8,1.4,0,2.8,1.1,3.3,2.1.7.8,1.9,1.2,2.3,1.4,1.4.8,3.3.1,4.4,1.9,1,.6,2.4.6,3.1,1.9-.7.1-1.2.4-1.6.6,2.2-.4,3.9,1.1,3.8,2.7.6.1,1.8.8,1.7,2.3-1.6.3-3.3.5-4.3,1.1-.8.8-2.9.6-3.6.4l.9.9c-2.6.2-5,.2-6.8-.4.8.4.6.8.9,1.1-2.7.2-5-.5-7.2-.9-1-.2-1.8-.6-2.3-1.3-1.4,1.1-3.6-.3-4.6-.9,0,.9.4,1.2.6,1.6-1.8-.2-3.1-.6-4.3-1.5.5,1.9-2.6,1.2-3.6.4-.2.8.2.8.4,1.3-2.1-.4-4-.8-5.4-1.6-1.3.1.6,1,.9,1.4-2.1.5-4,.3-5.6-.4-1.8.4-3.4-.2-4.1-.1-1.4.4-2.6.1-4.1-.7-2.1.5-2.7-.7-3.8-1.5-.1.8.3.7.5,1.1-2.9-.3-5.1-1.9-7-3,.3.7.7,1.1,1.1,1.4-2.9-.2-3.8-1.6-5-3.1-.1.5-.5,1.1-.6,1.4-.8-1.7-1.6-2-2.3-3.9-1.1-.8-1.5-2.7-1.5-4.1-1.7-1.8-1.2-3.9-1.2-6,0-.6.3-1.4.4-1.6-.2,0-.3.1-.5.2.2-1,.3-1.8.9-2.3,2.9-2.7,13.2-3.8,14.3.9h0Z"/>
        </g>
      </g>
    </g>
  </g>
</svg>