<?xml version="1.0" encoding="utf-8"?>
<!-- Generator: Adobe Illustrator 28.1.0, SVG Export Plug-In . SVG Version: 6.00 Build 0)  -->
<svg version="1.1" id="Layer_2_00000116938889056633767610000002056535977782688422_"
	 xmlns="http://www.w3.org/2000/svg" xmlns:xlink="http://www.w3.org/1999/xlink" x="0px" y="0px" viewBox="0 0 231.6 151.2"
	 style="enable-background:new 0 0 231.6 151.2;" xml:space="preserve">
<style type="text/css">
	.st0{fill:#1A1A1A;}
	.st1{fill:#212121;}
	.st2{fill:#161616;}
	.st3{fill:#1E1E1E;}
	.st4{fill:#373737;}
	.st5{fill:#454545;}
</style>
<g id="svg6613">
	<g id="layer5">
		<g id="g2595">
			<path id="path6872-4-7" class="st0" d="M79.1,74.6c-0.2-1-0.8-2-0.6-3c1.1-4,2.1-6.4,3.5-8c-2.9-3.2-3.9-6.1-3.6-11.8
				c0.3-5.2,1.2-9,2-12.1c2-6.2,9.2-17.5,18-18.9c2-1.1,6.2-1,10.7-1s8.7-0.1,10.7,0.9c8.8,1.5,16,12.8,18,18.9
				c0.8,3.1,1.7,6.9,2,12.1c0.3,5.7-0.7,8.6-3.6,11.8c1.4,1.7,2.4,4,3.5,8c-0.1,2.6-1.1,2.2-1.7,3.4L79.1,74.6L79.1,74.6z"/>
			<path id="path7020-7-8-7" class="st1" d="M143.5,131.9c5.3-3.9,4.8-13.2-1.1-18.1c-0.9-0.8-1.1-0.9-2-2.3
				c1.4-3.5,2.2-7.2,2.6-10.4c1.9-4.4,1.4-14,0.4-19.2c-0.7-3.8-0.7-7.5-3.8-10.5c-7-6.8-20.7-13.3-30.5-13.3s-23.5,6.6-30.5,13.3
				c-3.1,3-3,6.7-3.8,10.5c-1,5.2-1.6,14.8,0.4,19.2c0.4,3.2,1.2,6.9,2.6,10.4c-0.8,1.4-1.1,1.5-2,2.3c-5.9,4.9-6.3,14.2-1.1,18.1
				c8.9,6.7,29.8,1.6,34.3,0.8C113.6,133.5,134.5,138.6,143.5,131.9L143.5,131.9L143.5,131.9z"/>
			<path id="path5623-2" class="st2" d="M113.3,121.9c0.2,2.6-1.4,5.3-4,5.3c-0.8,2.5-4.3,1.7-3.9,4c-2.9-0.4-5.3-2.7-4-6.3
				c-0.3-2.1-0.2-6.6,3.8-6.8c1.6-1.2,2.7-1.1,4.4-1.1C112.5,118.5,113.2,119,113.3,121.9C113.3,121.9,113.3,121.9,113.3,121.9z"/>
			<path id="path6868-9" class="st3" d="M118,22.6c1.2-1.8,4.4-4.1,5.5-5.9c3.4-7.3,12.4-18.5,18.2-16.4c5.9,2.2,4.8,22.7-0.2,27
				c1.8,9.5-0.7,11.8-6.1,13.3C128.6,39.4,120.3,30.4,118,22.6L118,22.6z"/>
			<path id="path6868-1" class="st3" d="M100.3,22.6c-1.2-1.8-4.4-4.1-5.5-5.9C91.5,9.4,82.5-1.8,76.7,0.3c-5.9,2.2-4.8,22.7,0.2,27
				c-1.8,9.5,0.7,11.8,6.1,13.3C89.7,39.5,98,30.5,100.3,22.6L100.3,22.6z"/>
			<path id="path2526" class="st4" d="M82.8,62.7c0.6-2.6,3.3-4.7,6.1-3.8C87.2,59.5,84.5,60.9,82.8,62.7z"/>
			<path id="path2543" class="st5" d="M82.3,74.4c-4.8,1.9-7.5,8.1-7.1,14C76.6,83,77.9,78.4,82.3,74.4z"/>
			<path id="path2526-8" class="st4" d="M135.2,62.8c-0.6-2.6-3.3-4.7-6.1-3.8C130.8,59.5,133.5,60.9,135.2,62.8z"/>
			<path id="path2543-9" class="st5" d="M135.7,74.5c4.8,1.9,7.5,8.1,7.1,14C141.4,83,140,78.4,135.7,74.5z"/>
		</g>
	</g>
</g>
</svg>
