<?xml version="1.0" encoding="utf-8"?>
<!-- Generator: Adobe Illustrator 28.1.0, SVG Export Plug-In . SVG Version: 6.00 Build 0)  -->
<svg version="1.1" id="Layer_2_00000044165116578012720310000015362590596559542449_"
	 xmlns="http://www.w3.org/2000/svg" xmlns:xlink="http://www.w3.org/1999/xlink" x="0px" y="0px" viewBox="0 0 160.7 154.1"
	 style="enable-background:new 0 0 160.7 154.1;" xml:space="preserve">
<style type="text/css">
	.st0{fill:#D45500;}
	.st1{fill:#C44B00;}
	.st2{fill:#CD5200;}
	.st3{fill:#A52D00;}
	.st4{fill:#D65905;}
	.st5{fill:#DE6819;}
	.st6{fill:#C93E00;}
</style>
<g id="svg6613">
	<g id="layer5">
		<g id="g6731">
			<path id="path5153-2-0" class="st0" d="M131.7,1.7c-0.1,1.7-0.9,2.2-1.5,2.8c2.4,0.2,5.9-1.6,5.4,2.1c1.5,0.9,4.2,0.3,3.1-2
				c1.3,0.8,4.2,1.9,1.3,3.8c1.7,0.6,4.1,1.1,3.5,3.7c3,11,3.8,31.3-2,36c-4.8,3.3-16.1,5.7-21.8,3.7c-5.8,2-17-0.3-21.8-3.6
				c-5.8-4.8-5.1-25.1-2-36c-0.6-2.6,1.8-3.1,3.5-3.6c-2.9-1.8,0-3,1.3-3.8c-1.2,2.3,1.5,3,3.1,2c-0.5-3.7,3-1.9,5.4-2.1
				c-0.6-0.6-1.4-1.1-1.5-2.8c3.3,1.9,5.8-0.2,6.1,2.3c0.5-1.3,1.1-1.9,0-2.6c3-1.1,4.3,0.7,5.9,1.6c1.9-1.4,5.8-0.6,5.4-3.1
				c1.3,0.8,1.5,1.7,1.9,2.8C127.7,1.3,129.9,0.6,131.7,1.7L131.7,1.7L131.7,1.7z"/>
			<path id="path5155-1" class="st1" d="M95.8,12.4c-2.3,0.6-2.6,1.5-3.9,3.2c-4.5,1.8-2.3,5-5.3,5.5c0.9-0.2,1.8,0.9,2.6,0.6
				c-1.1,2.1-5.1,0.5-4,3.6c-2.7,1.4-1.4,5.6-5.6,8c0.7-0.3,1.3-0.1,2.1,0.2c-2.7,1.4-4.7,4.8-2.1,6.7c-0.6-2.1,0.2-3,1.3-3.3
				c-0.4,2.8,0.1,4.5,1.9,5.6c0-0.7-0.2-1.6-0.1-1.8c3.5,3-2,10.5,3.2,10.7c1,2.2,2.7,2.3,5.2,2.3c2.1,1.3,5.2,0.9,6.4,0.2
				c0.7-1.5,0.9-2.5,0.9-4.3c1.4-1.8,0.8-2.3-0.3-3.2c0.7-1.9,0.6-3.1-0.6-4.1c1.3-0.4,1.2,0.3,1.5,0.8c1.1-1.7,0.2-2.4-1.2-3.5
				c0.8,0.1,1,0.2,1.7,0.1c-0.1-1-0.8-1.9-0.9-2.5c1.8-1.7,0.7-3,0.2-3.6c1.1-1.7-0.6-1.8-0.2-3.2c0.1-0.7,2-2.8,1.7-4.9
				c0.9-1.1,1.1-2,0.9-3.2c-1.4,0-1.2-0.8-0.9-1.6c1.8-0.1,1.6-1.2,1.6-2.5c-1.4,0.4-1.4,0-1.6-1c1.1-1.1,0.5-1.8-0.2-2.3
				c0.8-1.2,0.4-1.6-0.6-2.2c-0.7,0.7-0.8,0.2-1.3,0.4C97.6,11.9,97,12,95.8,12.4L95.8,12.4L95.8,12.4z"/>
			<path id="path5155-1-4" class="st1" d="M143.3,12.4c2.3,0.6,2.6,1.5,3.9,3.2c4.5,1.8,2.3,5,5.3,5.5c-0.9-0.2-1.8,0.9-2.6,0.6
				c1.1,2.1,5.1,0.5,4,3.6c2.7,1.4,1.4,5.6,5.6,8c-0.7-0.3-1.3-0.1-2.1,0.2c2.7,1.4,4.7,4.8,2.1,6.7c0.6-2.1-0.2-3-1.3-3.3
				c0.4,2.8-0.1,4.5-1.9,5.6c0-0.7,0.2-1.6,0.1-1.8c-3.5,3,2,10.5-3.2,10.7c-1,2.2-2.7,2.3-5.2,2.3c-2.1,1.3-5.2,0.9-6.4,0.2
				c-0.7-1.5-0.9-2.5-0.9-4.3c-1.4-1.8-0.8-2.3,0.3-3.2c-0.7-1.9-0.6-3.1,0.6-4.1c-1.3-0.4-1.2,0.3-1.5,0.8
				c-1.1-1.7-0.1-2.4,1.2-3.5c-0.8,0.1-1,0.2-1.7,0.1c0.1-1,0.9-1.9,0.9-2.5c-1.8-1.7-0.7-3-0.2-3.6c-1.1-1.7,0.6-1.8,0.1-3.2
				c-0.1-0.7-2-2.8-1.7-4.9c-0.9-1.1-1.1-2-0.9-3.2c1.4,0,1.1-0.8,0.9-1.6c-1.8-0.1-1.6-1.2-1.6-2.5c1.4,0.4,1.4,0,1.6-1
				c-1.1-1.1-0.5-1.8,0.1-2.3c-0.8-1.2-0.4-1.6,0.6-2.2c0.7,0.7,0.8,0.2,1.3,0.4C141.6,11.9,142.2,12,143.3,12.4L143.3,12.4
				L143.3,12.4z"/>
			<path id="path15589-1" class="st2" d="M90.2,73.5c-1.7-1.7-1.4-2.9-0.1-4.2c0-1.8,1.5-2.5,2.8-2.7c-0.1-0.4-0.3-1.1,0.2-2
				c-0.1-1-0.1-2.4,1.4-2.8c-0.9-1.4-0.4-2.2,1-3.3c-0.6-0.6-0.5,1.6-1-0.9c0.9,0.1,1.6,0.3,1.6-1.2c-0.4-1-0.9-1.7,0.6-2.4
				c-1.2-2.2,0.4-2.7,1.1-3.8c1.9-0.7,0.4-1.1,0.5-1.4c-0.5-1.1,1.1-1.8,1.4-2c1-1.1,0.9-1,0.6-2c1.3,0,0.9,0.5,1.5,0.9
				c0.5-1.6,0.9-2.3,2.6-2.3c1.7,3,0.4,0.2,1.1,0.6c1.1-0.8,1.5-0.9,2.4-0.9c1.2,0.2,2,0,2.7-0.5c0.1-1.3,0.5-1.2,1.1-1.7
				c1.4,1.3,1.8,0.6,2.4-0.5c1.4,0.2,2.3-0.2,2.6-1.8c1.1-1.2,1.9,0.4,2.8-1.5c0.5,0.7,1.1,1.7,2.8,1.6c0.1,1.2,1.6,2.1,2.6,1.8
				c0.6,1,1,1.7,2.4,0.5c0.6,0.5,1,0.4,1.1,1.7c0.7,0.4,1.5,0.6,2.7,0.5c0.9,0,1.4,0.2,2.4,0.9c0.7-0.4-0.6,2.4,1.1-0.6
				c1.7,0,2.1,0.7,2.6,2.3c0.6-0.4,0.2-0.9,1.5-0.9c-0.3,1-0.4,0.9,0.6,2c0.3,0.2,1.9,1,1.4,2c0.1,0.2-1.4,0.6,0.5,1.4
				c0.7,1.2,2.4,1.6,1.1,3.8c1.5,0.6,1,1.4,0.6,2.4c0.1,1.5,0.7,1.3,1.6,1.2c-0.5,2.5-0.3,0.3-1,0.9c1.4,1.2,2,1.9,1,3.3
				c1.5,0.4,1.5,1.8,1.4,2.8c0.5,0.9,0.3,1.6,0.2,2c1.3,0.2,2.8,0.9,2.8,2.7c1.4,1.2,1.6,2.4-0.1,4.2l-29.4-0.2L90.2,73.5L90.2,73.5
				z"/>
			<path id="path15591-3" class="st3" d="M94.8,65.3c0.9-2.4,2.9-2.8,4.3-2.8C96.8,60.4,94.1,62.3,94.8,65.3z"/>
			<path id="path15591-3-2" class="st3" d="M144.3,65.4c-0.9-2.4-2.9-2.8-4.3-2.8C142.3,60.6,145,62.4,144.3,65.4z"/>
			<path id="path6058-2-0" class="st4" d="M121.1,148.5c1.3,0.5,1.8,1,3.1,0.7c1.2,0.4,1.9,0.4,2.7-0.4c0.4-0.8,1,0.2,2.7,0
				c1.7,0.2,2.5,0.4,3.3-0.5c0.7,0.5,0.7,0.8,1.9,0.9c0.1-0.1,0.6-1.1,2.3-0.8c0.7,0.4,0.9,1.2,2.2,0.4c0.7,0.4,1.1,0.5,2.7,0.2
				c1.2,0.2,2,0.3,2.8-0.1c0.6,0.4,1.1,0.9,2.4,0.7c-0.4-0.7-0.6-0.9,0.7-1.8c-0.1,0.3,0.1,0.7-0.1,1c1.3,0.4,1.5,0,3.2-0.2
				c1.4,0.1,1.6,0.1,2.6-0.7c0.8,0.5,1.7,0.3,3.1-0.3c-0.1-0.2-1.1,0.9-0.5-0.8c0.7-0.4,1.1-0.4,1-1.5c0.7-0.2,1.2-0.4,2.1-1.1
				c-0.2-0.4-0.6-0.6-0.6-1.1c0.9-1,1.5-1.9,1.1-3.7c0.8-0.9,1.2-2.8-0.3-2.6c0.5,0.1,0.6-1.9-0.4-2.7c0.9-1.2,0.5-2.4-0.4-2.9
				c0.3-1.1-0.2-1.8-2.2-2.8c0.9-0.8,1.9-1.3,1.7-3.3c-0.6,0.1-1.9,2.1-2.7-0.1c0.2-1.1-0.8-3.3-2.9-3.3c0.9-0.6,1.8-1.3,2.8-0.4
				c-0.7-1.9-1.8-2.5-3.9-2.8c0.1-0.6,1-1.8,2-1.3c-0.4-1.6-1.8-2.3-2.3-3.2c2.3-0.4,2.8-0.4,4-2.3c-1-0.3-0.9,2.2-2.8-0.8
				c1.3-1,1.7-1.7,1.5-3.8c0.9-1.4,1-2.2-1.5-3.3c0.9-0.4,1.3,0.9,2.6-1.3c-1.3,0.2-1.8-0.4-2.8-1.7c0.1,0.1,1.6,0.6,2.4,0
				c-0.9-0.7-1.3-1.8-1.1-3c0.7-0.5,1.9-3-0.9-3.6c1.6-0.7,2.3-1.6,2.6-3.7c-0.7,0.3-1,1.1-2.2,0.1c0.7-0.3,1.1-0.4,0.9-1.8
				c-0.8,0.5-1.4,0.4-1.3-1.2c2.3-2.7,1.6-4.9-1-7.2c1,0,1.2-0.1,1.1,1.1c1.6-1.8,0.1-3.6-2.8-4.8c0.5-0.4,1.7-0.1,2.1-1.5
				c-3.8-1.5-1-2.9-4.1-4.3c-0.6-1.7-2.1-2.8-3.1-2.9c0.6-1.4-0.5-1.1-0.6-1.2c-1,0.5-1.2,0.2-1.8-0.3c-0.7-0.9-1.5-0.9-2.3-1.1
				c0-1.8-1.8-1.7-3.2-2c-1.6-2.4-3.3,0.3-4.6-1.8c-1.4-0.1-1.8-0.5-2.4-1.5c-1.1,1.1-2.1,1.2-3.3,0.8c2.6-1.2-0.3-0.5-2.3-1.2
				c-0.6-1.2-0.9-1-2-1.2c-1-0.7-1.5-0.5-2.8-0.4c-1.2-0.3-1.7-0.5-2.8,0.2c-1.1,0.2-1.4,0-2,1.2c-2,0.7-4.9,0-2.3,1.2
				c-1.2,0.4-2.3,0.4-3.3-0.8c-0.6,1-1,1.4-2.4,1.5c-1.2,2.1-3-0.5-4.6,1.8c-1.4,0.2-3.2,0.2-3.2,2c-0.8,0.1-1.6,0.2-2.3,1.1
				c-0.6,0.5-0.8,0.8-1.8,0.3c0,0.1-1.1-0.2-0.6,1.2c-1,0.2-2.5,1.2-3.1,2.9c-3.2,1.4-0.4,2.8-4.1,4.3c0.4,1.4,1.6,1.1,2.1,1.5
				c-3,1.2-4.4,3-2.8,4.8c-0.1-1.2,0.1-1.1,1.1-1.1c-2.6,2.3-3.3,4.5-1,7.2c0.1,1.6-0.4,1.7-1.3,1.2c-0.2,1.4,0.2,1.4,0.9,1.8
				c-1.2,0.9-1.5,0.2-2.2-0.1c0.2,2.2,0.9,3,2.6,3.7c-2.8,0.6-1.7,3.1-0.9,3.6c0.2,1.2-0.2,2.3-1.1,3c0.8,0.6,2.3,0,2.4,0
				c-0.9,1.3-1.4,1.9-2.8,1.7c1.3,2.2,1.7,0.8,2.6,1.3c-2.6,1.1-2.4,1.9-1.5,3.3c-0.2,2.2,0.3,2.8,1.5,3.8c-1.9,3-1.9,0.5-2.8,0.8
				c1.2,1.9,1.7,1.9,4,2.3c-0.6,0.9-1.9,1.6-2.3,3.2c1-0.5,1.9,0.7,2,1.3c-2.1,0.3-3.2,0.9-3.8,2.8c1-0.9,1.9-0.1,2.8,0.4
				c-2.1,0-3.1,2.2-2.9,3.3c-0.8,2.2-2.1,0.2-2.7,0.1c-0.3,1.9,0.8,2.5,1.7,3.3c-1.9,1-2.5,1.7-2.2,2.8c-0.9,0.5-1.4,1.6-0.4,2.9
				c-1,0.8-0.9,2.8-0.4,2.7c-1.5-0.2-1,1.7-0.3,2.6c-0.4,1.9,0.3,2.7,1.1,3.7c-0.1,0.4-0.4,0.7-0.7,1.1c0.9,0.6,1.4,0.8,2.1,1.1
				c-0.1,1.1,0.3,1.1,1,1.5c0.6,1.6-0.4,0.6-0.5,0.8c1.4,0.6,2.3,0.8,3.1,0.3c1,0.7,1.2,0.8,2.6,0.7c1.6,0.2,1.9,0.6,3.2,0.2
				c-0.2-0.3-0.1-0.7-0.2-1c1.4,0.8,1.2,1,0.7,1.8c1.2,0.2,1.8-0.3,2.3-0.7c0.8,0.4,1.6,0.3,2.8,0.1c1.6,0.2,2,0.2,2.7-0.2
				c1.3,0.8,1.4,0,2.2-0.4c1.7-0.4,2.2,0.7,2.3,0.8c1.2-0.1,1.2-0.4,1.9-0.9c0.8,1,1.6,0.8,3.3,0.5c1.7,0.2,2.3-0.8,2.7,0
				c0.7,0.8,1.5,0.8,2.7,0.4c1.3,0.3,1.8-0.2,3.1-0.7c1,0.6,2.1,1.5,1.6,1.1C119,150.1,120.1,149.2,121.1,148.5L121.1,148.5
				L121.1,148.5z"/>
			<path id="path16108-6" class="st5" d="M116.5,129c-2,4.1-10.3-2.7-11.8,1.9c1.2-1.4,2.3-0.6,2.8-0.3c-3.6-1.3-5.1,1.5-7.6,1.9
				c1.3,0.1,3,0,3.9-0.3c-2.8,1.9-10.5-1.2-10.5,1.3c1.4-0.4,3,0.3,4.2,0.7c-3.6,2.1-7.3-3-9.8-1c1.3,0.3,1.4,1.2,1.9,2.1
				c-1.9-1.6-7.5-0.7-8.3,1.2c1-0.6,2.2-0.4,2.9,0.3c-2.8,0.4-9.8-1.7-10.8,1.1c-2.2,0-4.2-0.3-5.2,1.3c-2.9,0.6-5.8,1.6-7,3.6
				c1-0.6,1.6-0.8,3.5-1.1c-1.8-0.3-1,1.7-2.3,3c-1.8,1.8-5.8,0.9-5.8,3.9c1.7,0.6,3.2,0.6,4.5-0.1c-1.2,0.7-1.5,1.2-1.8,2.3
				c1.7-0.8,3.4-1.2,5.2-0.9c-1.4,0.9-2,1.5-4,1.5c2.7,2.2,5.6,0,8.2-0.5c-0.8,0.6-0.9,0.9-1.4,1.4c2.1,0.3,4.4,0,6.4-0.3
				c2.4,1.4,5.4-0.4,7-1.4c0.5,2.2,2.7,2.4,4.7,2.4c-1.4-0.1-1.1-0.9-1.2-1.1c2.2,0.8,5.1-0.3,6.8,0.3c1.8-0.3,4.8,0.6,6.5,1.2
				c-0.1-1.1-1-1.6-1.2-1.8c2.1,0.7,3.9,0.2,4.6,2.3c1-1.1,1.8-1.6,2.4-2.4c-0.9,1.5-0.8,1.6-0.2,2.4c1.1-1.4,2.1-1.3,2.7-2.4
				c-0.7,1.6,0.2,1.8,1.1,2.3c1.4-2.9,5.3-0.1,4.7-3.8c0.5,1.9,2.4,2.1,4.7,2.1c-0.8-1.2-0.8-1.4-0.3-2.3c0.1,2,2.5,2,3.8,1.2
				c-1.8-0.5-1.1-1.7-0.6-2.6c0.5,1.1,1.1,0.9,2,0.8c0.1-2.3,2.5-3,0.5-5.6c1.2,0.9,1.8,1.2,2.3,2.1c1-2.6,0.5-3.8-1.5-5
				c0.8-0.1,1.8-0.2,2.6-0.3c-0.8-1.3-1.8-2-2.6-2.7c0.5-0.8,0.5-2,0.5-2.6c-1.3,0.1-1.4-0.2-1.8-0.9c0.2-1.1-0.1-2-0.6-2.9
				c-1-0.1-1.2-0.4-1.5-0.9c-0.1-0.8-0.2-1.1-0.5-1.8C117.8,129.1,117.3,129.1,116.5,129L116.5,129L116.5,129z"/>
			<path id="path4241" class="st6" d="M88.5,113.4c1.4-0.9,2.3-3.1,1.7-5C93.4,110.1,91.9,113.8,88.5,113.4z"/>
			<path id="path4241-9" class="st6" d="M150.6,113.5c-1.4-0.9-2.3-3.1-1.7-5C145.6,110.2,147.2,113.9,150.6,113.5z"/>
		</g>
	</g>
</g>
</svg>
