<?xml version="1.0" encoding="UTF-8"?>
<svg id="Layer_2" data-name="Layer 2" xmlns="http://www.w3.org/2000/svg" viewBox="0 0 67.93 155.42">
  <defs>
    <style>
      .cls-1 {
        fill: #772e0e;
      }

      .cls-1, .cls-2, .cls-3, .cls-4, .cls-5 {
        stroke-width: 0px;
      }

      .cls-2 {
        fill: #2b1100;
      }

      .cls-3 {
        fill: #cb1a48;
      }

      .cls-4 {
        fill: #662001;
      }

      .cls-5 {
        fill: #e8379d;
      }
    </style>
  </defs>
  <g id="Layer_1-2" data-name="Layer 1">
    <g>
      <path class="cls-4" d="M5.68,98.31c.83,9.97-11.21,23.33-2.5,45.66,1.53,3.91,4.27,6.38,7.66,7.92,5,1,9.08,1.42,13.68,2.45,5.26.97,14.14.86,20.73.16,4.61-.01,7.74-2.12,12.54-2.27,2.79-1.42,5.11-3.68,6.48-7.22,9.17-23.83-1.92-34.33-1.28-46.6-8.52-28-47.56-28.08-57.32-.09h0Z"/>
      <path class="cls-1" d="M35.18,0c-9.55-.15-14.18,2.62-18.5,6.39-3.66,5.64-6.11,18.67-2.18,28.5,3.02,6.58-.04,12.72-1.49,15.94-7.42,11.37-9.4,29.03-8.86,35.35,1.59,18.6,6.84,36.89,10.18,56.16-3.55,5.75-5.17,10.73.93,12.48,4.95,1.42,10.39.41,11.56-3.62,4.23-14.57-2.31-42.93,2.83-52.93,2.71-5.27,9.07-5.1,11.92-.5,2.61,4.23-1.93,45.66.38,52.35.96,2.8,2.61,6.07,11.74,4.82,5.63-.76,4.52-10.79.88-13.11.26-18.19,8.73-34.82,9.96-55.7.33-5.64-.32-24.42-8.49-35.75-1.15-2.99-5.38-9.4-2.68-15.02,4.16-11.37,2.41-22.2-.38-28.28C48.74,3.65,44.74.15,35.18,0h0Z"/>
      <path class="cls-2" d="M24.16,15.69c-2.88.34-2.72,4.22.15,4.13,2.7-.08,2.88-4.5-.15-4.13h0Z"/>
      <path class="cls-2" d="M34.29,25.61c4.69.24,4.91,5.63-.01,5.83-4.92.2-4.68-6.07.01-5.83h0Z"/>
      <path class="cls-2" d="M34.14,30.35c-.27.06-.48.32-.47.6v5.57c0,.32.28.61.6.61s.61-.29.6-.61v-5.57c0-.36-.38-.68-.73-.6h0Z"/>
      <path class="cls-2" d="M43.43,15.86c2.88.35,2.72,4.23-.15,4.14-2.7-.09-2.87-4.5.15-4.14h0Z"/>
      <path class="cls-5" d="M38.09,38.65c.59,4.61-1.41,7.69-3.83,7.51-2.13-.16-4.29-2.21-3.96-7.72,1.51-.62,3.18-1.61,3.77-1.91.86.36,2.58,1.38,4.03,2.12h0Z"/>
      <path class="cls-3" d="M34.11,38.2c-.27.06-.48.32-.48.6l.03,3.78c0,.32.28.61.6.61s.61-.29.6-.61l-.03-3.78c0-.36-.37-.67-.72-.6h0Z"/>
      <path class="cls-4" d="M16.75,13.72c-5.26,3.18.03,22.82-4.44,25.34-3.24.63-10.97-15.94-8.57-19.79,1.23-2.97,4.14-8.73,13-13.25.81,2.33.17,5.3.02,7.7h0Z"/>
      <path class="cls-4" d="M52.35,6.56c8.1,4.66,11.46,10.32,12.74,12.35,2.65,4.33-5.39,22.27-9.75,20.32-5.15-2.48,1.79-21.2-3.75-24.65.35-2.76-.52-5.63.77-8.02h0Z"/>
      <path class="cls-2" d="M41.54,33.35c-.35.05-.6.47-.48.8.55,1.62.46,2.57.18,3.05-.28.48-.83.69-1.65.7-1.64.03-4.08-1-5.07-1.82-.21-.17-.54-.17-.75,0-1.04.82-3.39,1.96-4.85,2-.37,0-.67-.05-.88-.15-.21-.1-.35-.22-.45-.45-.2-.46-.2-1.52.45-3.25.11-.29-.06-.66-.35-.77-.29-.11-.66.05-.77.35-.71,1.87-.85,3.18-.43,4.15.21.48.59.84,1.02,1.05.44.2.93.29,1.43.27,1.83-.05,3.89-1.1,5.2-2.05,1.36.99,3.52,1.91,5.48,1.88,1.05-.02,2.13-.36,2.68-1.3.55-.94.51-2.26-.1-4.05-.09-.26-.38-.44-.65-.4h0Z"/>
    </g>
  </g>
</svg>