<?xml version="1.0" encoding="utf-8"?>
<!-- Generator: Adobe Illustrator 28.1.0, SVG Export Plug-In . SVG Version: 6.00 Build 0)  -->
<svg version="1.1" id="Layer_2_00000070810337685943447510000009244259478858782625_"
	 xmlns="http://www.w3.org/2000/svg" xmlns:xlink="http://www.w3.org/1999/xlink" x="0px" y="0px" viewBox="0 0 286.6 170.2"
	 style="enable-background:new 0 0 286.6 170.2;" xml:space="preserve">
<style type="text/css">
	.st0{fill:#A5A5A5;}
	.st1{fill:#E4E4E4;}
	.st2{fill:#868686;}
	.st3{fill:#362727;}
	.st4{fill:#ECECEC;}
	.st5{fill:#F1F1F1;}
	.st6{fill:#4D4D4D;}
	.st7{fill:#9A9A9A;}
	.st8{fill:#1E1E1E;}
	.st9{fill:#0E0E0E;}
	.st10{fill:#292929;}
	.st11{fill:#1A1A1A;}
	.st12{fill:#BDBDBD;}
</style>
<g id="svg6613">
	<g id="layer5">
		<g id="g2727">
			<path id="path4542-1-7" class="st0" d="M138.8,163.7c1.9,0.6,4.9,1.5,8.6,0.3c2.1,1,4.5,0.8,5.8,0.4c1.5,0.9,2.7,1.1,4.3,0
				c1.2-0.8,3.7-2.6,3.2,0.3c2.6-0.9,5.6-2.5,5.6-5.6c0.6,1.1,0.6,2.1,0,3.5c1.9-0.8,2.9-2.8,2.8-5c1.2-1.3,1.1-3.5,0.8-5.5
				c0.3,1.1,0.9,0.5,1.2,2.3c1.9-2.3,1.1-6.3-0.6-8.8c1,1,1.8,0.7,2.1,2.1c1-1.8,1.1-6.6-1.5-9.1c0.2,0,1.2,1.4,2.1,0
				c0.6-3.3-1.5-6.1-4.1-8.2c1.1,0.4,1.8-0.1,2.9,0.6c-1.3-2.4-1.9-4.5-6.1-5.2c0.9,0.2,1.3-0.2,2.7-0.8c-0.8-3.8-4.4-3.7-5-6
				c5.9-14.3,8.7-39.7,0.1-55.1c-3-4.8-6-9.5-11.1-12.5c-5-6.2-16.1-10.9-20-13.8c-3.9,2.8-14.9,7.5-20,13.7
				c-5.1,3.1-8.1,7.7-11.1,12.5c-8.6,15.4-5.8,40.8,0.1,55.1c-0.6,2.3-4.2,2.2-5,6c1.4,0.7,1.8,1,2.7,0.8c-4.2,0.7-4.8,2.8-6.1,5.2
				c1.2-0.7,1.9-0.2,2.9-0.6c-2.6,2.1-4.7,4.9-4.1,8.2c0.9,1.4,1.8,0,2.1,0c-2.6,2.5-2.4,7.3-1.5,9.1c0.2-1.3,1.1-1.1,2.1-2.1
				c-1.7,2.5-2.5,6.4-0.6,8.8c0.3-1.8,0.9-1.2,1.2-2.3c-0.3,2-0.4,4.2,0.8,5.5c-0.2,2.2,0.9,4.2,2.8,5c-0.5-1.4-0.5-2.4,0-3.5
				c0,3.1,3,4.8,5.6,5.6c-0.5-2.9,2-1.1,3.2-0.3c1.6,1.1,2.8,0.9,4.3,0c1.3,0.4,3.7,0.7,5.8-0.4c3.7,1.3,6.7,0.4,8.6-0.3
				c2.5,1.1,5.7-0.1,6.1-0.3C133.1,163.7,136.4,164.8,138.8,163.7L138.8,163.7L138.8,163.7z"/>
			<path id="path6661" class="st1" d="M90.3,141.1c-7.6-1.3-10.6,4.6-12.1,9.3c1.7-0.9,2.7-1.3,3.5-2.6c-2.3,5.4-11.5,11.4-18.5,9
				c2.6,2.4,7.1,6.3,11,4c-2.9,0.2-7,2.3-9.7-0.4c4.9,7.1,10.5,3.1,15.7,0c-2.6,2.6-3.4,6.9-7.7,6.2c7,0.6,13.2-1.5,16.1-6.4
				c-1.5,3.2-2.7,5.5-5.9,6.6c5.8,0.6,9.8-2.5,12.3-5.7c-1.6,3.5-3.6,5.6-5.9,6.4c7.1-0.9,12.7-5.4,15.7-10.4
				C106.9,149.3,98.8,138.3,90.3,141.1L90.3,141.1L90.3,141.1z"/>
			<path id="path9032" class="st2" d="M143.2,136.3c5.1,1.7,12.7,9.1,9.3,15.4c0-3.3-1.6-7.8-4.6-7.3c8.9,8.9-2.9,12.8,2.6,21.8
				c-4.3-2.6-8.1-6.4-3.3-11.9c-2.6,4.3-9.8,11.5-0.4,14.8c-4.3-0.7-12-7.1-5.5-12.1c-3.9,2.4-3.5,9.2-0.4,13.2
				c-2.9-1.8-6.8-5.9-6.6-11c-2.1,3.4-1.4,9.7,3.8,9c-6,1-8.4-2.4-11.9-6.2c0.6,3.7,3.8,7.5,7.5,7.5c-5,0-9.6-1.5-11.7-6.6
				c-0.6,3.3,0.1,6.1,3.3,6.8c-3.5-1.2-8.8-3.6-6.6-8.6c-2.1,3.4-6.3,7.3-11,5.7c2.4-1.4,5.2-3.2,5.7-7.1c-2.2,2.8-7.1,7.7-13.4,7.3
				c1.5-0.9,3-1.7,3.3-4c-2.5,2-5.2,4.4-10.2,3.8c2.9-1.8,6.4-4.4,7.3-9c-1.9,1.5-3.6,3.3-6.4,4.9c1.8-2.2,3.8-4.1,3.8-7.7
				c-1,1.3-2.4,2.3-4.6,3.5c1.8-1.8,3.4-3.9,3.8-7.3c-2.8,0.5-4.1,3.4-5.9,5.7c0-3.8,2.9-5.6,2.7-9.5c-1.6,2-2.8,3.2-5.5,4
				c2.6-1.5,2.5-4.8,5.3-6.4c-2.2,1.1-4.6,1.6-5.9,4.2c0.9-2.7,2.7-4.7,5.3-6.2c-2-0.3-6.2-1.6-8.6,1.1c0-6.1,13.4-8,19.2-5.3
				c-0.9-0.7-1.8-1.7-3.7-1c8.5-4.2,26.8,8,29.2-3.4c1.8-0.1,2,0.7,2.9,1.5c0.2-1.4,0.5-1.6,0.9-2.6c1.4,0.7,2.2,1.3,2.9,2.2
				c0.8-1.5,1.3-1.8,2-2.6c0.8,1.3,1.4,1.9,2,2.6c0.5-0.6,0.9-1.2,1.3-1.8C141.9,135.2,142,135.5,143.2,136.3L143.2,136.3
				L143.2,136.3z"/>
			<path id="path4317-4" class="st3" d="M162.6,11.1c0.9-0.1,2.6-0.7,3.9,0.4c1.1,1.5,1.1,3.6,2.4,6.2c-2.1-1.2-2.6-1.8-2.6-3.4
				c-0.1,1.9-0.1,2.8,0.4,4.8c-1.4-1.2-2-1.6-2.7-4.2c-0.7,1.4-0.3,2.5-0.1,3.5c-1.4,0.4-2.1-0.6-2.4-0.9c-1.8-1.1-2.2-2.3-2.4-3.9
				C160.3,12.4,160.8,11.1,162.6,11.1L162.6,11.1L162.6,11.1z"/>
			<path id="path4313-1-4" class="st4" d="M110.5,44c-0.5-2.8-1.3-5.8-1-9.4c2.4-7.1,4.7-23,14.1-29.1c2.9-0.5,6.7-0.3,9-0.2
				c2.3,0,6.1-0.2,9,0.3c9.4,6.1,11.7,21.9,14.1,29.1c0.4,3.7-0.5,6.6-1,9.4c-6.7,3.8-17.8-1.2-22.1-1.9
				C128.3,42.9,117.3,47.9,110.5,44L110.5,44L110.5,44z"/>
			<path id="path4532-6" class="st5" d="M130.7,53.9c0.1-1,0.2-2,0-3.3c-0.9,3.1-2.3,6.5-4.7,8.9c0.2-1.4,0.3-2.9,0.3-4.5
				c-1.3,2.6-2.7,4.9-5.8,5.6c0.2-1.1,0.6-2,0.1-3.5c-1.3,2.5-3.5,3.7-6,4.7c0.1-0.8,1.3-0.4,0.3-2c-1.9,2.8-5.4,5.1-8.7,5.7
				c1.2-1.8,1.9-2.9,2.2-5.7c-1.8,4.5-7.6,6.1-9.1,10.7c-0.4-4.1,0.9-6.8,2.9-9.7c-1.9,1.2-3.6,2.9-4.2,6.2
				c0.3-10,5.1-10.8,6.2-16.7c2.6-8.1,7.8-17,14.9-18.4c3.1,0.1,6.1-3.3,6.7-4.3c0.2,2-0.5,3.5-0.9,5.2c2.2-1.4,2.6-3.3,3.6-5.4
				c0.4,1.2,0.1,2.9-0.2,3.9c1.6-1.8,2.4-4.1,3.1-5.2c1.1,0.9,0.9,1.1,1.6-1c0.8,1.2,2,4.5,3.7,6.3c-0.3-1-0.6-2.7-0.2-3.9
				c1,2.1,1.4,4,3.6,5.4c-0.5-1.7-1.2-3.2-0.9-5.2c0.7,1,3.6,4.3,6.7,4.3c7.1,1.4,12.3,10.3,14.9,18.4c1.2,5.9,5.9,6.6,6.2,16.7
				c-0.6-3.3-2.3-5-4.2-6.2c2,2.8,3.4,5.6,2.9,9.7c-1.5-4.6-7.2-6.2-9.1-10.7c0.3,2.8,1,3.9,2.2,5.7c-3.3-0.6-6.8-2.8-8.7-5.7
				c-0.9,1.6,0.2,1.3,0.3,2c-2.5-1-4.7-2.1-6-4.7c-0.5,1.4-0.1,2.4,0.1,3.5c-3.1-0.7-4.4-3-5.8-5.6c0,1.5,0.1,3,0.3,4.5
				c-2.3-2.5-3.8-5.8-4.7-8.9c-0.2,1.4-0.1,2.4,0,3.3c-1.3-1.5-1.8-2.7-2-4.1C132.5,51.2,131.9,52.4,130.7,53.9L130.7,53.9z"/>
			<path id="path4317-6" class="st3" d="M102.7,11.1c-0.8-0.1-2.7-0.7-3.9,0.4c-1.1,1.5-1.1,3.6-2.4,6.2c2.1-1.2,2.6-1.8,2.6-3.4
				c0.1,1.9,0.1,2.8-0.4,4.8c1.4-1.2,2-1.6,2.7-4.2c0.7,1.4,0.3,2.5,0.1,3.5c1.4,0.4,2.1-0.6,2.4-0.9c1.8-1.1,2.2-2.3,2.4-3.9
				C105,12.4,104.5,11.1,102.7,11.1L102.7,11.1L102.7,11.1z"/>
			<path id="path4319-7" class="st6" d="M110.3,21c-0.7,0.1-1.5,0.1-2.6-0.5c-0.6,0-1.4-0.2-2.2-0.3c0.8-0.5,1.6-1.1,2.1-2.1
				c-0.8,0.3-1.4,0.6-2.5,0.6c0.6-0.5,1.1-1.3,1.2-2c-0.4,0.6-1.7,0.7-2.8,1c0.6-1.3,0.9-1.9,0.3-2.8c-1.2-0.1-1.7-0.3-2.2-1
				c0.7-1.3-1.9-1.7-2.9-2.1c0.5-3,12.6-10.4,16.6-11.6c2.4-0.8,8.5,3.8,7.9,6.8c0.1,0.5,0.9,2.1,0.2,2.7
				C120.6,12.7,114.3,19.1,110.3,21C110.3,21,110.3,21,110.3,21z"/>
			<path id="path4321-5" class="st7" d="M108,20.9c-0.5,1.1-2.7,2.5-2.7,5.8c0.9-1.5,2.8-2.6,4.2-2.9c-2.3,2.4-4.9,4.6-5.7,9.7
				c0.8-2.2,2.7-3.5,4.8-3.6c-2.8,2.8-7.2,7.2-6.6,11.1c1.4-2.3,3-3,4.9-3.7c-2.1,3.2-3.4,8.1-2.2,10.1c-0.4-3.4,4.2-6.6,5.8-8.6
				c1.2,0.5-1.4,4.4-2.3,5.7c2.8-2.5,8.1-4.3,9.4-8.3c0.4,1.9-1.9,4.2-2.3,5.4c3.4-1.8,7.6-2.9,8.7-6.9c1.2-0.8,0.8-1.1,0.7-1.8
				c0.5-0.9,0.5-2.4,0.5-3.1c0.9,1.1,0.6,1.9,0.3,2.8c2.2-1.5,2.2-5.9,1.9-8.1c1.3,0.4,1.6,3.1,1.2,1.2c0.9-2.6,0.4-5.7,0-8.3
				c1.1,0.3,1.3,1.3,1.6,1.7c0.6-3.1-1.1-5.7-2.2-7.8c0.2,0.2,0.4,0.5,0.6,0.8c-0.1-2.4-1.6-3.1-2.7-3.8c-1.2-1.3-2.3-1.3-3.4-2
				C115,7.1,109.3,14.6,108,20.9L108,20.9L108,20.9z"/>
			<path id="path8868" class="st8" d="M113.3,19.7c-1.8,0-2.5,0.6-4.1,1c1.7-0.9,0.5-2.6,3.6-4.3c-1.3,0.1-2.2,0.1-3,1.3
				c-0.3-1.8,1.9-4,4.4-3.4c-1.1-0.7-2.6-0.9-4.4-0.2c1-1.7,3.6-2.5,5.7-2.2c-1.4-0.8-2.6-1.4-4.1-0.8c1-3.1,5.1-3.6,7.9-1.9
				c0.1-0.1-1-1.6-2.6-2.3c2.4,0,3.5,0.2,5.5,1.9c0-3.4-1.7-4.9-4.4-6.8c3.9,0,7.9,5.1,6.2,7.7c-1,0.7-1.3,0.6-2.2,0.7
				c0.7,0.6,0.5,0.9,0.8,1.4c-1.1-0.4-2.1,0-3,0.2c0.1,0.7,0.4,1.2,0.6,1.6c-1.2-0.1-1.4,0.3-2.2,0.8c0.4,0.5,0.3,1,0.5,1.6
				c-1-0.2-1.3,0.1-1.9,0.3c-0.3,0.5-0.1,1-0.2,1.6c-0.7,0-1,0.1-1.6,0.2c-0.3,0.4-0.1,0.7-0.2,1.1C113.9,19.2,114,19.5,113.3,19.7
				L113.3,19.7L113.3,19.7z"/>
			<path id="path7022" class="st9" d="M108,9.6c-1.7-0.5-2.9,0.1-4,0.5c0.9,0.1,1.8,0.4,2.5,0.8c-1,0.1-1.9,0.5-2.8,0.8
				c2.1,0.6,4.4-0.4,5.2-0.7C109.7,9.7,109.1,9.8,108,9.6L108,9.6z"/>
			<path id="path7024" class="st9" d="M113.5,3.1c2-0.2,3.2,1.1,3.4,2.2C115.7,4.9,113.9,4.4,113.5,3.1z"/>
			<path id="path7028" class="st8" d="M118,21.6c-2.1,0.7-3,1.7-3.3,3.8c0.2-0.2,0.7-0.2,1-0.3c-1.3,1.2-2,2.6-1.7,4.3
				c1.6-2,2.9-3.6,2.2-5.7C117.1,22.7,117.4,22.7,118,21.6L118,21.6z"/>
			<path id="path4319-0" class="st6" d="M155,21c0.7,0.1,1.5,0.1,2.6-0.5c0.6,0,1.4-0.2,2.2-0.3c-0.8-0.5-1.6-1.1-2.1-2.1
				c0.8,0.3,1.4,0.6,2.5,0.6c-0.6-0.5-1.1-1.3-1.2-2c0.4,0.6,1.7,0.7,2.8,1c-0.6-1.3-0.9-1.9-0.3-2.8c1.2-0.1,1.7-0.3,2.2-1
				c-0.7-1.3,1.9-1.7,2.9-2.1c-0.5-3-12.6-10.4-16.6-11.6c-2.4-0.8-8.5,3.8-7.9,6.8c-0.1,0.5-0.9,2.1-0.2,2.7
				C144.8,12.8,151,19.2,155,21L155,21z"/>
			<path id="path4321-6" class="st7" d="M157.4,20.9c0.5,1.1,2.7,2.5,2.7,5.8c-0.9-1.5-2.8-2.6-4.2-2.9c2.3,2.4,4.9,4.6,5.7,9.7
				c-0.8-2.2-2.7-3.5-4.8-3.6c2.8,2.8,7.2,7.2,6.6,11.1c-1.4-2.3-3-3-4.9-3.7c2.1,3.2,3.4,8.1,2.2,10.1c0.4-3.4-4.2-6.6-5.8-8.6
				c-1.2,0.5,1.4,4.4,2.3,5.7c-2.8-2.5-7.2-4.7-8.5-8.6c-0.4,1.9,1.1,4.5,1.5,5.8c-4.8-3.1-7.9-7.3-9.1-11.8
				c-0.5,0.8-1.4,1.9-1.1,2.8c-2-1.8-1.9-4.9-1.5-7.1c-1.3,0.4-1.6,3.1-1.2,1.2c-0.9-2.6-0.4-5.7,0-8.3c-1.1,0.3-1.3,1.3-1.6,1.7
				c-0.6-3.1,1-6,2.1-8.1c-0.2,0.2-1.8,0.4-2,0.6c0.6-1.7,2.7-3.7,3.8-4.4c1.2-1.3,2.3-1.3,3.4-2C150.3,7.1,156,14.6,157.4,20.9
				L157.4,20.9L157.4,20.9z"/>
			<path id="path8868-4" class="st7" d="M152,19.8c1.8,0,2.5,0.6,4.1,1c-1.6-0.9-0.5-2.6-3.6-4.3c1.3,0.1,2.2,0.1,3,1.3
				c0.3-1.8-1.9-4-4.4-3.4c1.1-0.7,2.6-0.9,4.4-0.2c-1-1.7-3.6-2.5-5.7-2.2c1.4-0.8,2.6-1.4,4.1-0.8c-1-3.1-5.1-3.6-7.9-1.9
				c-0.1-0.1,1-1.6,2.6-2.3c-2.4,0-3.5,0.2-5.5,1.9c0-3.4,1.7-4.9,4.4-6.8c-3.9,0-7.9,5.1-6.2,7.7c1,0.7,1.3,0.6,2.2,0.7
				c-0.7,0.6-0.5,0.9-0.8,1.4c1.1-0.4,2.1,0,3,0.2c-0.1,0.7-0.4,1.2-0.6,1.6c1.2-0.1,1.4,0.3,2.2,0.8c-0.4,0.5-0.3,1-0.5,1.6
				c1-0.2,1.3,0.1,1.9,0.3c0.3,0.5,0.1,1,0.2,1.6c0.7,0,1,0.1,1.6,0.2c0.3,0.4,0.1,0.7,0.2,1.1C151.4,19.3,151.3,19.5,152,19.8
				L152,19.8L152,19.8z"/>
			<path id="path7026" class="st9" d="M154.6,7.4c1.3,0.2,1.1,0.8,1.3,1.2c-1.1,0.2-1.1,0.5-1.5,1.2c1.1-0.2,1.5,0.6,1.7,0.7
				c-0.6,0-0.8,0.8-1.2,1.2c2.5,0.2,4.9-0.4,6.5-1.3c0.8,1.1,2.5,0.7,0.2-1.7c-0.6-1-1.4-1-2.2-1.2c1.2-2-1.2-1.9-2.1-1.7
				C155.8,6,155.4,6.7,154.6,7.4L154.6,7.4L154.6,7.4z"/>
			<path id="path7030" class="st8" d="M148,22.9c0.1,1.7,0.9,3.3,2,4C151.2,24.9,149.2,24.5,148,22.9z"/>
			<path id="path7032" class="st8" d="M150.9,26.8c0.7,1.7,1.6,2,2.3,2.2C152.5,27.8,152.4,27.5,150.9,26.8z"/>
			<path id="path7034" class="st8" d="M150,16.9c-0.6-0.9-3.1-2.3-2.5-3.7c-1.1-0.6-2.5-1.4-3.7-1c0.5,1.4,1.3,2,2,2.8
				C146.5,16.6,148.3,17.2,150,16.9L150,16.9L150,16.9z"/>
			<path id="path7180" class="st10" d="M112.9,77.2c-1.2,7-9.6,4.5-9.6,11.1c2-4.3,1.6-0.9,3.4-1.9c-4.4,2-5,4.3-5,9.2
				c1.2-2.7,1.7-2,3.4-3.1c-3.9,2.1-3.4,5.1-2.3,8.4c4-4.3,7.7-4.7,10-8.4c-0.1,1.5-0.9,2.6-1.2,3.4c4-4.7,5.6-8.5,10-11.1
				c-1.5-0.9-2.7,0.3-3.8,0.4c1.8-2.3,4.2-5.8,4.6-6.5c-1-0.2-2.1,0.3-3.1,0.4c1.2-3.4,1.8-3,3.8-4.2
				C118.6,74.4,116.2,75.6,112.9,77.2L112.9,77.2L112.9,77.2z"/>
			<path id="path7186" class="st10" d="M130.7,70.3c1.4-0.5,2.2-1.4,2.9-2.2c2.8,1.4,3.7,2.8,6.8,3.3c-1.5-0.6-1.3-1.3-1.3-2.4
				c1.7,3.2,5.7,2.6,8.4,3.1c-3.5-4.3,2.3-0.7,2.9,2.9c0.7-3,0.1-5.4-2-7c1.2-1.1,1.9,0.2,2.2,0.2c-2.6-1.9-3.6-3.4-7.2-5.1
				c-1.3-0.2-3.1-0.4-4.2-0.4c-1.9,0.5-4.2,0.7-7,3.5c-1.4-2.5-3-1.9-4-1.3c3,2.6,2,1.5,0,2.2C130.1,67.6,130.4,68.4,130.7,70.3z"/>
			<path id="path7188" class="st10" d="M155.5,87c4.7-1.3,6.4,5.6,6.8,8.3c-0.1-1.3,0.5-1.7,0.7-2.4c1.4,1.5,2,1.7,2,4
				c1.5-2.7,1.6-6.3,0.2-8.6c-0.9-1.2-1.6-2.1-2.2-2.9c0.9,1.8-3.4-1.2-4-1.5C162.5,85.6,152.9,83.7,155.5,87L155.5,87z"/>
			<path id="path7190" class="st10" d="M158.1,112.5c-0.8-2.5-0.8-4.2-3.1-6.2h1.3c-0.3-0.3-5.4-4.9-9-4.2c-1.7-1.8-2.4-0.7-3.3,0.4
				c1.4,0.5,1.7,1,2.4,1.5c-2.8,0.1-0.9,0.9-0.9,0.9c2.3,0.8,4.1,2.2,5.3,3.1c-1-0.2-1.1,0.5-1.5,0.7c2.6,0.6,3.6,1.8,5.3,2.9
				c-1.6-0.3-0.8,0.4-1.3,0.7c2.6,1.3,4.5,2.9,5.3,4.2C159.5,114.3,159.1,114.1,158.1,112.5L158.1,112.5z"/>
			<path id="path7192" class="st10" d="M127.2,121.7c-1.7,2.1-2.6,3-5.5,3.5c0.7,0.8,1.1,0.3,1.8,0.4c-2.4,0.8-3.5,2.7-6.4,2.2
				c1.7,1.3,3,1.1,4.4,0.7c-2.3,1.5-3.6,1.6-4.4,4.2c0.9-0.2,1.9-0.2,2.4-0.2c-0.5,0.7-0.7,2.4-0.7,2.4c2.1-0.7,3.9-1.1,5.1-2
				c-0.2,0.4-0.3,0.9-0.4,1.3v0.2c2-0.8,3.2-2.5,4-3.1c1.1-0.7,1.2-0.9,1.8-1.3c1.2,1.2,0.6,2.2,0.4,2.6c0.9-0.8,1.6-2.2,1.8-2.4
				c1.4,1.6,1.7,1.6,2.9,1.8c-0.6-1.8,0.3-0.8,0.4-1.3c1.1,2.1,3.1,1.7,5.1,2c-0.8-0.7-0.3-1.2-0.4-2c1.4,0.3,1.2,1.2,1.8,1.8
				c1-3.3-0.8-5.4-2.2-6.6h1.5c-1.3-1.7-3.1-1.5-4.6-2c-1-0.2-2.1-0.3-3.1-0.7c-1.7-0.6-2.5-2.1-2.9-2.6
				C128.4,120.8,128.3,121,127.2,121.7L127.2,121.7L127.2,121.7z"/>
			<path id="path7196" class="st10" d="M123.7,99.9c-0.5,3.4-3.8,3.8-4.2,5.7c0.1-0.5,1-0.3,1.5-0.4c-3.5,0.5-3.3,3.8-2.2,5.7
				c2.6-1.3,3-3.3,4.8-4.4c0.8-1.8,1.8-2.7,2.2-5.3c-0.1-1.6,0.9-1.7,1.3-2C125.7,99.5,124.8,99.6,123.7,99.9
				C123.7,99.9,123.7,99.9,123.7,99.9z"/>
			<path id="path7198" class="st10" d="M110.7,116.4c-0.9-1.1,0.5-4.3-0.4-3.1c0-0.9,0.4-3.3,2.6-3.7c-0.8,1-0.9,1.5-0.9,2.6
				C112.4,114.1,111.4,115,110.7,116.4L110.7,116.4z"/>
			<path id="path7200" class="st10" d="M104.1,130.7c-2.6-0.2-3.5,2-4.2,4c0.9-0.8,1.4-0.7,2.4-0.9c-1.7,1-1.3,2.1-1.1,3.5
				c2.3-0.6,3.7-1.3,5.1-2.6c2.7-2.8,0.6-1.9-1.1-1.3c0.7-1,1.5-2.1,2-2.9C104.1,130.9,107.7,127.8,104.1,130.7z"/>
			<path id="path7202" class="st10" d="M162.1,140.6c1.5,1,1.8,2.3,1.8,4.2c-3.2-1.9,0,0.1,0.2,2c-0.5-0.1-1-0.1-1.5-0.2
				c1.1,1.8,1.8,3.4,1.8,5.5c1.6-1.6,2.1-2.5,1.8-4.4c1.7-1.6,0.9-2.5,0.7-4C165.2,141.8,165.1,139.5,162.1,140.6L162.1,140.6
				L162.1,140.6z"/>
			<path id="path7204" class="st10" d="M162.3,131.4c2.2-0.8,3.7,0.1,3.7,2C164.4,133.9,163.4,133.3,162.3,131.4z"/>
			<path id="path7206" class="st10" d="M156.2,156c-2.4,0.4-2.1,2.9-0.9,4.4c0.4-2,0.6-0.9,1.1-1.5c-0.3,1.4-0.6,2-0.9,2.9
				C158.3,160,159,157.7,156.2,156L156.2,156z"/>
			<path id="path7210" class="st11" d="M142.1,156.9c-4.1-2.4-0.2-5,0-9.2c-1.5-4.6-2.1-9.6-9.2-8.4c1.8,2.8,6.7,5.9,5.3,9
				C137.8,153,136.4,155,142.1,156.9L142.1,156.9L142.1,156.9z"/>
			<path id="path7212" class="st11" d="M132,143.1c1.6,5.3-7.7,6.5-7.2,11c0.8-1.1,2-1.3,2.8-1.6c-4.2,2.5-2,7.8,0.2,10
				c-1.7-3.3,1.2-6.1,3.2-8.3c-1.5,3.4,3.3-2.3,3-5.2C137.6,145.7,131.5,138.3,132,143.1L132,143.1L132,143.1z"/>
			<path id="path7214" class="st11" d="M114.4,148.1c0.8-1.2,1.8-2,1.1-3.7c-0.2,3.4-7.4,2.4-6.6,7.5c-1.5,2.2-1,3.2,0.7,4.1
				C108.9,151.8,113.2,151.6,114.4,148.1L114.4,148.1L114.4,148.1z"/>
			<path id="path7216" class="st11" d="M105.4,156.2c-2.3,1.2-1.7,2.8-0.9,4.2C105.4,158.9,105.9,158.3,105.4,156.2z"/>
			<path id="path7218" class="st11" d="M96.4,147.9c0-4.9,7.9-4.4,10.1-6.2c-0.9,1.8-1.1,2.3-2.4,3.1
				C101.7,145.5,98.4,147,96.4,147.9z"/>
			<path id="path7220" class="st11" d="M145.4,148.5c1.8,0.1,2.1,1.5,2.4,2.4C146.2,151.9,145.4,151,145.4,148.5z"/>
			<path id="path7222" class="st12" d="M127.1,86.2c0.7,4.5-6.9,4.2-6.7,8.4C121.6,92.4,130.5,90.5,127.1,86.2z"/>
			<path id="path7224" class="st12" d="M143.9,111.7c-1.6-2-5.3-1.9-6.1-5.2c-0.2,2.7,0.9,3.8,2.5,4.8c2.8,1.1,3.9,1.8,5.7,4.1
				C145.8,113.2,145.4,112.8,143.9,111.7L143.9,111.7z"/>
			<path id="path7226" class="st12" d="M153.8,79.9c0-4.3-6.5-2-9-4.4c0.7,2.6,2.3,3.1,4.6,2.3C151.5,77.8,152.5,78.5,153.8,79.9
				L153.8,79.9L153.8,79.9z"/>
			<path id="path7228" class="st12" d="M112.7,122.8c-0.5,2.5-2.7,2.2-3.2,4.9C107.5,124,111.3,124.4,112.7,122.8z"/>
			<path id="path7230" class="st12" d="M152.3,132.3c2.6,1.1,4.9,2.3,5.4,5C159.6,134.2,155.5,132,152.3,132.3z"/>
			<path id="path7232" class="st12" d="M159.8,100.2c2,0.1,2.7,2.6,2.3,5C164.8,103.5,162.4,98.6,159.8,100.2z"/>
			<path id="path7234" class="st12" d="M102.6,74.5c-1.8,2-5.3,2.8-3.4,5.9C98.2,77.8,102.1,77.8,102.6,74.5z"/>
		</g>
	</g>
</g>
</svg>
