<?xml version="1.0" encoding="UTF-8"?>
<svg id="Layer_2" data-name="Layer 2" xmlns="http://www.w3.org/2000/svg" viewBox="0 0 76.32 134.49">
  <defs>
    <style>
      .cls-1 {
        fill: #f2f2f2;
        fill-rule: evenodd;
      }

      .cls-1, .cls-2, .cls-3, .cls-4, .cls-5, .cls-6, .cls-7, .cls-8, .cls-9, .cls-10 {
        stroke-width: 0px;
      }

      .cls-3 {
        fill: #652f2f;
      }

      .cls-4 {
        fill: #2f2929;
      }

      .cls-5 {
        fill: #1a1a1a;
      }

      .cls-6 {
        fill: #1a1717;
      }

      .cls-7 {
        fill: #151515;
      }

      .cls-8 {
        fill: #212121;
      }

      .cls-9 {
        fill: #ccc;
      }

      .cls-10 {
        fill: #fff;
      }
    </style>
  </defs>
  <g id="svg6613">
    <g id="layer5">
      <g id="g3821">
        <path id="path7016-4-8" class="cls-2" d="M71.57,113.75c6.05,4.62,6.4,14.23.6,18.25-3.73.55-6.04,1.08-11.15,1.8-5.34.93-18.04,1.17-22.83-1.12-4.79,2.31-17.49,2.07-22.83,1.14-4.47-1.54-9.52-1.55-11.56-2.18-5.4-3.64-5.05-13.25,1-17.86,8.75-11.73,18.9-19.88,32.32-22.02,13.43,1.91,26.67,9.41,34.44,22Z"/>
        <path id="path6962-2-7" class="cls-9" d="M57.34,100.84c-.73.98-.97,1.52-2.38,2.4-6.66-.62-9.72,2.36-16.87-.05-7.15,2.43-10.78-.27-17.44.35-2.34-.39-3.4-1.59-3.91-2.88,2.43-15.43,41.69-10.82,40.61.19h0Z"/>
        <path id="path6958-2-8" class="cls-5" d="M50.48,98.09c7.46,3.95,6.08,14.99,6.86,25.14.37,4.83-1.4,10.93,6.52,11.21,7.6.26,9.53-3.23,6.73-7.72-2.24-5.02,1.62-14.49,1.2-23.78,1.03-4.06,2.39-15.69,1.13-20.84-.97-3.97-1.84-7.88-4.43-10.95-.53-1.4-.97-6.05-3.12-7.79-9.59-19.5-44.25-19.13-54.38.46-2.41,1.77-2.79,5.94-3.32,7.34-2.71,3.63-3.12,6.89-3.86,10.66-1.02,5.19-.46,17.06.57,21.12-.42,9.28,3.44,18.76,1.2,23.78-2.8,4.5-1.43,7.71,6.17,7.44,7.92-.28,6.15-6.38,6.52-11.21.79-10.15-.6-21.19,6.86-25.14,7.06-3.56,17.34-3.83,25.35.27Z"/>
        <path id="path3615" class="cls-1" d="M24.9,98.06c1.08-2.11,2.66-2.69,4.26-3.89-.04-3.38,2.12-3.13,3.52-5.01,1.53-2.83-.19-4.59-.19-5.75.15-2.24-1.35-2.54-2.22-3.71-1.05-3.24-6.26-3.92-5.56-7.42,4.92-7.81,22.87-5.85,27.26,0,1.02,1.67-.2,2.16-1.3,2.6.48,3.32-3.16.98-3.71,3.71-1.56,1.24-3.36,2.29-4.26,2.97-.4,1.75-1.27,3.46-.93,5.19.65,2.27,1.83,3.12,2.97,4.64-.36,1.62,2.18,2.32,3.34,2.78,1.78,1.56,1.49,2.61,2.6,4.08-4.64.37-21.89-.62-25.77-.19h0Z"/>
        <path id="path6868-3" class="cls-7" d="M27.66,20.54c-1.16-1.08-2.81-2.04-3.88-3.88C20.42,9.35,11.37-1.87,5.59.27-.33,2.45.81,23,5.81,27.3c-1.81,9.51,1.59,10,4.1,10.42,9.93,1.47,22.19-7.73,17.75-17.18h0Z"/>
        <path id="path6888-8" class="cls-3" d="M19.79,24.38c-.32-4.76.49-8.05-1.14-9.94C15.47,11.29,10.11,1.47,6.85,2.86c-5.17,2.2-1.03,20.29,1.55,23.27,1.59,1.61,2.93,3.62,2.77,6.6,2.12,4.86,7.48-2.96,8.59-4.07.53-.53-.11-3.58.03-4.28h0Z"/>
        <path id="path6868-0-7" class="cls-7" d="M48.23,20.55c1.16-1.08,2.81-2.04,3.88-3.88,3.36-7.31,12.41-18.53,18.2-16.4,5.91,2.18,4.78,22.74-.22,27.04,1.81,9.51-1.59,10-4.1,10.42-4.61,3.05-27.76-13.45-17.75-17.18h0Z"/>
        <path id="path6888-0-1" class="cls-3" d="M56.11,24.39c.32-4.76-.49-8.05,1.14-9.94,3.18-3.15,8.54-12.97,11.8-11.59,5.17,2.2,1.03,20.29-1.55,23.27-1.59,1.61-2.93,3.62-2.77,6.6-1.6,4.45-11.77-3.56-8.62-8.35h0Z"/>
        <path id="path6872-26" class="cls-8" d="M61.88,68.53c3.66-5.44,7.11-8.87,6.66-16.84-.5-8.82-2.66-13.81-3.55-17.51-1.45-6.03-10.93-10.54-16.42-13.52-2.02-1.09-6.61-1.48-10.62-.67-4-.83-8.6-.44-10.62.66-5.49,2.97-14.97,7.48-16.42,13.52-.89,3.7-3.05,8.69-3.55,17.51-.45,7.97,2.99,11.41,6.66,16.84,3.99,7.53,16.62,6.68,23.73,3.74,7.05,3.44,18.81,3.88,24.13-3.72h0Z"/>
        <path id="path6934-0" class="cls-6" d="M20.45,61.88c.32.79,3.96,4.11,5.51,5.49,5.96,5.19,18.01,5.66,23.4.24,2.39-1.84,5.04-4.8,6.38-6.59-7.72-5.79-19.58-8.03-30.1-2.77-1.91.96-4.23,1.75-5.19,3.63Z"/>
        <path id="path6874-0-9" class="cls-4" d="M54.56,52.13c-5.69-4.96-6.62-10.94-16.61-10.87-9.99.07-10.91,5.9-16.61,10.85-1.86,1.62-3.81,4.4-6.71,1.9-1.81-1.24-2.37,1.75,0,3.97,4.13,4.43,10.87,13.23,23.33-.45,12.7,13.46,18.24,5.61,23.09.71,1.92-1.92,1.96-3.98.29-4.3-2.96,2.12-4.92-.18-6.78-1.8h0Z"/>
        <path id="path6878-5" class="cls-2" d="M37.95,42.71c-3.39.03-5.41,2.5-5.69,4.21-.28,1.71,4.11,4.75,5.45,4.68,1.34-.07,5.89-2.46,5.64-4.46-.25-2-2.01-4.46-5.4-4.43Z"/>
        <path id="path6880-2" class="cls-2" d="M37.97,57.91c-.69-1.91-.85-7.62-.15-9.29.84,1.57.84,6.97.15,9.29Z"/>
        <g id="g6928">
          <path id="path6884-6" class="cls-10" d="M26.27,43.52c2.01-3.4.13-7.43-2.86-7.98-2.31-.42-6.3,1.26-6.28,4.81.03,4.61,7.4,6.12,9.14,3.17Z"/>
          <path id="path6886-5" class="cls-2" d="M21.73,36.66c-5.3.57-3.34,8.18,1.12,7.25,4.46-.93,4.18-7.82-1.12-7.25Z"/>
        </g>
        <g id="g6932">
          <path id="path6884-5-0" class="cls-10" d="M49.39,43.28c-1.9-3.46.1-7.43,3.1-7.89,2.32-.35,6.13,1.59,6.13,5,0,4.47-7.58,5.9-9.23,2.9Z"/>
          <path id="path6886-4-4" class="cls-2" d="M54.13,36.56c5.28.73,3.09,8.28-1.34,7.22-4.43-1.06-3.95-7.94,1.34-7.22Z"/>
        </g>
      </g>
    </g>
  </g>
</svg>