<?xml version="1.0" encoding="UTF-8"?>
<svg id="Layer_2" data-name="Layer 2" xmlns="http://www.w3.org/2000/svg" viewBox="0 0 432.72 652.95">
  <defs>
    <style>
      .cls-1, .cls-2, .cls-3, .cls-4, .cls-5, .cls-6, .cls-7, .cls-8, .cls-9, .cls-10, .cls-11, .cls-12 {
        stroke-width: 0px;
      }

      .cls-2 {
        fill: #cc7a35;
      }

      .cls-3 {
        fill: #e2ae7c;
      }

      .cls-4 {
        fill: #a78a6f;
      }

      .cls-5 {
        fill: #b99568;
      }

      .cls-6 {
        fill: #bb6623;
      }

      .cls-7 {
        fill: #ffe2be;
      }

      .cls-8 {
        fill: #fff;
      }

      .cls-9 {
        fill: #e3a169;
      }

      .cls-10 {
        fill: #ffd5d5;
      }

      .cls-11 {
        fill: #ea427b;
      }

      .cls-12 {
        fill: #ffdfbb;
      }
    </style>
  </defs>
  <g id="set">
    <g id="border">
      <g id="g7509">
        <g id="g7215">
          <g id="g6490">
            <g id="g2568-2-7">
              <path id="path6210-6-7-4-6" class="cls-4" d="M391.74,483.01c7.73,1.14,8.6,1.88,12.18,6.71-.74,1.86-1.48,3.73-2.21,5.59v1.12c5.38,1.36,8.48,3.62,11.08,5.59-2.14,4.11-3.32,7.53-4.43,10.06,7.9.3,7.64,2.12,11.07,5.59-4.07,3.59-3.95,5.58-5.54,7.83,8.07-.51,10.12,3.18,14.4,8.94-4.01,2.67-7.68,7.22-9.97,8.95,7.62.4,8.62,4.15,12.18,8.94-3.47,7.51-4.81,3.47-7.75,5.59,3.79,6,8.72,10.63,9.97,12.3-4.21,4.38-3.83,4.65-5.54,6.71,4.74,4.94,3.84,6.9,5.54,11.18-6.79.97-6.53,4.95-8.86,6.71,4.93,6.41,5.34,7.97,6.64,14.54-3.76,2.01-4.99,2.88-7.75,4.47,1.15,3.53,2.85,8.79,3.32,11.18-4.78,1.83-6.16,1.38-9.97,2.24-3.71,4.46-3.32,6.38-3.32,11.18-5.69-2.61-7.76-3.92-11.08-5.59-16.77,3.21-35.65,2.92-45.41-4.47-5.95,4.91-6.58,9.34-7.75,12.3l-5.54-4.47c.09,5.83-4.21,6.79-5.54,8.94l-5.54-5.59h-1.11c-.86,5.95-3.02,6.1-4.43,8.94-7.17-3.84-8.58-4.36-14.4-6.71,1.48,2.24,2.95,4.47,4.43,6.71h1.11c-6.21-.54-12.19-1.12-17.72-2.24-6.35,5.09-9.8.04-15.51-1.12,1.41,2.31,1.48,5.22,2.21,7.83-7.34-3.05-15.35-6.64-21.04-8.95-1.52,5.15,4.48,6.33,5.54,7.83-10.42-.13-15.93-3.96-21.04-7.83v7.83c-6.42-4.24-14.61-7.99-18.83-11.18v5.59l5.54,5.59c-8.74-2.06-14.81-6.24-19.54-10.92-4.73,4.05-12.36,8.23-21.1,10.29l5.54-5.59v-5.59c-4.22,3.19-12.41,6.94-18.83,11.18v-7.83c-5.11,3.87-10.62,7.7-21.04,7.83,1.06-1.5,7.06-2.67,5.54-7.83-5.7,2.3-13.7,5.9-21.04,8.94.74-2.61.81-5.52,2.21-7.83-5.7,1.15-9.16,6.21-15.51,1.12-5.53,1.11-11.51,1.69-17.72,2.24h1.11c1.48-2.24,2.95-4.47,4.43-6.71-5.82,2.35-7.22,2.87-14.4,6.71-1.41-2.84-3.57-3-4.43-8.94h-1.11l-5.54,5.59c-1.33-2.15-5.63-3.11-5.54-8.94l-5.54,4.47c-1.17-2.96-1.8-7.39-7.75-12.3-9.77,7.39-28.64,7.68-45.41,4.47-3.31,1.67-5.39,2.98-11.08,5.59,0-4.8.38-6.72-3.32-11.18-3.81-.86-5.19-.4-9.97-2.24.47-2.39,2.17-7.65,3.32-11.18-2.76-1.59-3.99-2.46-7.75-4.47,1.3-6.57,1.72-8.12,6.64-14.54-2.33-1.76-2.08-5.74-8.86-6.71,1.7-4.28.8-6.24,5.54-11.18-1.71-2.06-1.33-2.33-5.54-6.71,1.24-1.67,6.18-6.3,9.97-12.3-2.94-2.12-4.29,1.93-7.75-5.59,3.56-4.79,4.56-8.54,12.18-8.94-2.28-1.73-5.96-6.28-9.97-8.95,4.28-5.76,6.33-9.46,14.4-8.94-1.59-2.24-1.47-4.24-5.54-7.83,3.43-3.47,3.17-5.29,11.08-5.59-1.11-2.53-2.29-5.95-4.43-10.06,2.59-1.96,5.69-4.23,11.08-5.59v-1.12c-.74-1.86-1.48-3.73-2.21-5.59,3.59-4.83,4.45-5.57,12.18-6.71,28.03-24.01,55.17-99.64,105.23-112.28,65.84-16.61,104.54-17.24,163.76,12.64,11.47,5.79,36.29,63.73,48.33,75.88,9.14,9.23,24.16,13.31,33.44,24.37h0Z"/>
              <path id="path10326-5-9" class="cls-9" d="M42.86,474.14c8.77,45.88,19.66,81.93,19.66,134.24-6.83,13.62-18.86,39.35,3.93,40.27,14.61.59,29.11.83,32.77-8.54,19.2-49.2,3.5-94.39,14.42-145.22,37.52-46.57-85.25-92.79-70.78-20.75h0Z"/>
              <path id="path10326-0-3-1" class="cls-9" d="M385.7,472.58c-8.77,45.88-19.66,81.93-19.66,134.24,6.83,13.63,18.86,39.35-3.93,40.27-14.61.59-29.11.83-32.77-8.54-19.2-49.2-3.5-94.39-14.42-145.23-16.18-61.19,62.74-90.29,70.78-20.75h0Z"/>
              <path id="path10322-8-1" class="cls-3" d="M17.96,377.87c-7.59,18.07-9.25,41.15-5.24,61.6-1.46-11.55,1.88-12.4,7.86-16.07-7.06,18.06-3.95,41.04,5.24,53.57-.95-11.42,2.63-20.55,7.86-29.46-6.69,20.22,4.85,43.21,13.76,53.57-2.71-10.24,1.1-18.55,3.28-24.11,1.38,24.01,13.25,36.35,24.91,52.22-2.38-11.83.06-23.29,6.55-32.14-1.23,21.12,13.62,31.65,27.53,40.17-3.66-8.49-2.99-16.87-1.31-25.44,7.17,18.12,21.29,32,38.01,38.84-6.87-7.33-7.87-11.49-7.87-21.43,12.68,17.44,25.54,24.23,44.57,28.12-2.96-5.72-2.62-10.18-2.62-16.07,12.07,11.38,16.71,18.15,33.79,20.57,17.08-4.14,21.71-10.9,33.79-22.28,0,5.89.34,10.35-2.62,16.07,19.03-3.89,31.88-10.68,44.57-28.12,0,9.93-.99,14.09-7.87,21.42,16.72-6.83,30.85-20.72,38.01-38.83,1.68,8.58,2.35,16.95-1.31,25.44,13.9-8.53,28.75-19.06,27.52-40.17,6.5,8.85,8.94,20.3,6.56,32.14,11.66-15.88,23.53-28.21,24.9-52.23,2.17,5.55,5.99,13.87,3.28,24.11,8.91-10.35,20.46-33.35,13.76-53.57,5.23,8.91,8.81,18.04,7.87,29.46,9.2-12.53,12.3-35.5,5.24-53.56,5.99,3.67,9.33,4.52,7.87,16.07,4-20.45,2.34-43.53-5.24-61.6-63.3-100.08-333.22-130.04-392.65,1.71h0Z"/>
              <path id="path10314-1-9" class="cls-12" d="M49.08,213.99c-10.56,7.75-11.28,14.53-24.24,22.28,3.41.83-3.46,1.27,5.48,5.24-5.57,9.96-3.91,8.11-10.72,13.11-.08,9.09,5.75,7.49,8.04,10.49-7.01,5.93-9.87,8.5-13.4,13.11,4.24,3.78,11.82,7.69,12.06,7.87-7.99,7.62-10.8,8.84-16.08,15.73,4.13,8.42,5.89,1.7,10.72,5.24-8.32,6.86-16.08,22.82-16.08,32.77,12.99-5.7-5.36,14.43,5.36,31.46,4.55-2.36,6.04-3.37,9.38-5.24-6.25,10.51-7.61,22.67-3.35,35.39,3.73-3.27,5.29-1.75,10.05-5.24-4.33,13.16-.79,22.36,8.04,28.84,9.38,4.15,15.67,18.7,24.12,24.9.89-2.62,1.79-5.24,2.68-7.86h1.34c7.2,13.05,10.2,17.99,25.46,20.97-.04-6.73,4.09-11.3,5.36-14.42.95,21.44,16.55,23.08,30.83,31.46-5.26-6.22,0-8.77,0-13.11,6.37,17.14,22.18,23.98,37.53,20.97-13.1-11.02-1.99-6.49-4.02-13.11,4.72,19,22.55,14.25,33.51,22.28-3.13-5.89-2.68-10.89-2.68-17.04,7.58,11.37,12.61,19.51,25.16,21.45,12.56-3.62,17.58-11.76,25.16-23.12,0,6.15.45,11.15-2.68,17.04,10.95-8.04,28.78-3.28,33.51-22.28-2.03,6.62,9.08,2.09-4.02,13.11,15.35,3,31.16-3.83,37.53-20.97,0,4.33,5.25,6.88,0,13.11,14.28-8.38,29.87-10.02,30.83-31.46,1.27,3.11,5.4,7.69,5.36,14.42,15.27-2.99,18.26-7.92,25.46-20.97h1.34c.89,2.62,1.79,5.24,2.68,7.87,8.46-6.2,14.74-20.75,24.12-24.91,8.84-6.48,12.37-15.67,8.04-28.84,4.76,3.49,6.33,1.97,10.05,5.24,4.26-12.72,2.9-24.88-3.35-35.39,3.35,1.87,4.83,2.88,9.38,5.24,10.72-17.03-7.63-37.16,5.36-31.46,0-9.95-7.76-25.9-16.08-32.77,4.83-3.54,6.59,3.18,10.72-5.24-5.28-6.88-8.09-8.12-16.08-15.73.24-.18,7.83-4.08,12.06-7.86-3.53-4.61-6.39-7.18-13.4-13.11,2.29-2.99,8.12-1.4,8.04-10.49-6.81-5-5.15-3.15-10.72-13.11,8.94-3.98-.55-5.72,2.86-6.55-12.96-7.76-11.06-13.23-21.62-20.97l-329.1,1.68Z"/>
            </g>
            <g id="g6458">
              <g id="g10222-3-8">
                <path id="path10001-1-9" class="cls-6" d="M172.37,51.91C165.95,30.77,124.38,6.15,103.65.37c-26.22-7.32-38.33,95.98-35.68,124.24-.01.47-.64,5.17.31,6.12,30.14,30.15,118.68-49.17,104.1-78.81Z"/>
                <path id="path10208-5-8" class="cls-10" d="M144.91,57.54c-.9-6.13-6.01-13.12-12.1-15.56-6.73-.11-2.56-1.32-7.49-2.31-4.99,1.32-6.56-.36-8.07,1.15-4.26-3.27-7.43-6.47-10.95-5.76-3.81,3.95-3.04,11.73-4.03,16.71-2.98-.32-4.41,1.19-5.76,1.73-1.36,5.02-.58,9.07-.58,13.83-2.04,1.65-3.55,3.55-4.61,4.61,1.41,5.64,1.9,11.25,2.88,16.13-3.9,5.48-.72,10.3,1.15,14.98,21.98,6.85,58.86-22.27,49.56-45.52h0Z"/>
              </g>
              <g id="g10234-8-8">
                <path id="path10001-4-1-0" class="cls-6" d="M267.34,55.26c6.43-21.14,47.99-45.76,68.73-51.54,26.22-7.31,38.33,95.98,35.68,124.24.01.48.64,5.17-.31,6.12-30.15,30.15-118.68-49.17-104.1-78.81h0Z"/>
                <path id="path10208-2-3-3" class="cls-10" d="M294.8,60.89c.9-6.13,6.01-13.12,12.1-15.56,6.73-.11,2.56-1.32,7.49-2.3,4.99,1.32,6.56-.36,8.07,1.15,4.26-3.26,7.43-6.46,10.95-5.76,3.81,3.95,3.04,11.73,4.03,16.71,2.98-.33,4.41,1.19,5.76,1.73,1.37,5.02.58,9.08.58,13.83,2.04,1.65,3.55,3.55,4.61,4.61-1.41,5.64-1.9,11.25-2.88,16.14,3.89,5.47.72,10.3-1.15,14.98-21.98,6.85-58.86-22.27-49.56-45.52h0Z"/>
              </g>
              <path id="path6145-2-4-39-7" class="cls-9" d="M261.39,346.28c.96-4.34-.5-10.57.2-16.13,2.91,2.18,9.72,11.67,14.8,13.77,0-3.36,7.93-6.4,3.29-13.15,6.75,5.07,6.78,8.82,11.5,14.58,2.75-3.66,4.66-4.63,5.03-12.84,6.89,2.76,10.08,2.24,14.57,11.71,1.1-4.94,7.2-1.49,2.67-12.02,9.26,1.85,12.93,3.21,18.69,13.35.23-.57,4.51-6.58,3.21-12.89,4.9.47,8.55-1.57,12.28.47,2.21-2.73,3.87-4.41,3.78-9.62,3.18,1.18,6.24.49,9.45,3.5.51-2.36,2.12-6.64,0-10.49,2.04-.38,5.89-2.41,9.46-1.75,1.32-3.05,3.67-5.42,0-11.36,4.15,0,8.21-.2,12.29.87,0-1.22-.04-9.29,0-13.12,3.28.67,4.85-1.73,8.51,1.75,1.14-5.26,2.13-10.83-2.84-15.74,3.96.73,7.68,1.44,12.29.87-.88-4.06-3.79-8.43-3.79-13.99h.95c1.58-1.17,3.15-2.33,4.73-3.5-1.22-2.83-2.8-5.18-3.78-9.62,2.82-1.04,5.03-2.36,9.46-4.37,0-6.66-1.71-8.24-7.56-13.11,4.55-1.68,7.34-3.43,14.18-2.62-1.21-5.6-5.23-10.09-8.51-15.74,2.98-1.1,5.09-1.62,6.62-6.12-2.35-5.43-4.66-9.85-8.51-14.87,1.76-1.39,1.92-3.87,6.62-5.24-1.93-4.46-2.8-6.64-9.46-8.75,2.52-3.11,3.19-3.89,8.51-6.99-4.49-3.12-7.43-7.04-16.08-7.87,3.21-2.97,5.49-4.87,7.56-9.62-2.63-2.43-7.13-7.01-11.35-8.74,2-2.77.15-4.91,5.67-7.87-3.73-2.58-5.16-5.17-11.35-6.99,1.9-2.92,3.04-5.51,5.67-8.75-3.95-4.87-6.03-5.54-13.24-6.12,1.28-2.96,3.93-5.17,4.73-10.49-2.8-1.55-8.72-3.55-13.24-6.12v-.87c.31-1.75.63-3.5.95-5.25-2.78-.51-8.07-1.77-12.29-.87-.89-4.1,1.15-7.19.97-12.03-4.24.78-8.42-1.38-13.01-.24-.87-4,2.58-5.03.03-9.62-4.91.91-9.69-1.93-14.67,1.54-1.16-1.8-1.16-7.81.49-11.15-3.49-1.29-10.44-.22-15.87,1.75,0-4.1-1.24-8.55.97-12.47-3.63-.67-11.05.93-15.87,1.11-.95-1.96,3.92-9.15,1.43-11.82-3.63-2.52-9.14.47-15.85,3.73-1.23-2.84-.49-8-1.64-11.39-4.68.87-8.16,3.37-13.49,3.95-.12-.96-.8-5.24-2.38-8.06-4.16,0-10.15,2.4-14.18,4.37-.43-3.59-1.42-2.92-.95-7.87-5.07,0-7.43-.18-13.24,4.37-2.29-3.18-3.39-1.28-8.79-6.71-2.75,1.91-1.19,5.91-6.02,6.38-1.51-1.4-3.2-4.92-6.45-6.85-3.96,3.59-3.5,5.79-5.01,7.19-4.83-.47-6.39-5.05-9.13-6.96-6.03,4.29-4.63,6.42-6.92,9.6-5.81-4.55-5.67-6.68-10.74-6.68.47,4.95-5.52,3.61-5.96,7.21-4.04-1.31-7.17-5.69-11.32-5.69-1.57,2.82-2.98,7.76-5.24,11.37-5.33-.57-5.24-5.07-9.92-5.93-1.15,3.39-4.7,9.21-5.93,12.05-6.71-3.27-7.21-2.94-10.84-4.39-2.49,2.66-2.63,11.17-3.58,13.14-4.82-.18-8.67-3.11-12.29-2.43,2.21,3.93-2.61,9.04-2.61,13.14-5.43-1.97-8.81-3.04-12.29-1.75,1.65,3.34.21,8.69-.95,10.49-4.98-3.46-7.62-.63-12.52-1.54-2.55,4.59,2.32,8.26,1.46,12.26-4.59-1.14-5.91-.3-10.15-1.09-.18,4.83-1,7.27-1.89,11.37-4.22-.89-9.52.36-12.29.87.31,1.75.63,3.5.94,5.25v.87c-4.52,2.57-10.44,4.57-13.24,6.12.8,5.32,3.45,7.53,4.73,10.49-7.22.58-9.29,1.25-13.24,6.12,2.64,3.23,3.78,5.82,5.67,8.74-6.19,1.82-7.62,4.41-11.35,6.99,5.52,2.96,3.68,5.1,5.67,7.87-4.22,1.73-8.72,6.31-11.35,8.75,2.08,4.75,4.36,6.65,7.57,9.62-8.65.83-11.58,4.75-16.08,7.87,5.33,3.1,5.99,3.88,8.51,7-6.66,2.1-7.53,4.28-9.46,8.74,4.71,1.38,4.86,3.85,6.62,5.24-3.85,5.02-6.16,9.44-8.51,14.87,1.53,4.5,3.65,5.02,6.62,6.12-3.28,5.65-7.3,10.15-8.51,15.74,6.84-.8,9.63.94,14.19,2.62-5.85,4.88-7.57,6.46-7.57,13.11,4.42,2.01,6.63,3.33,9.46,4.37-.98,4.44-2.56,6.79-3.78,9.62,1.58,1.17,3.15,2.33,4.73,3.5h.95c0,5.56-2.9,9.93-3.78,13.99,4.61.57,8.34-.14,12.29-.87-4.97,4.9-3.97,10.48-2.84,15.74,3.67-3.49,5.24-1.08,8.51-1.75.04,3.83,0,11.89,0,13.12,4.08-1.08,8.14-.87,12.29-.87-3.67,5.94-1.32,8.32,0,11.36,3.56-.66,7.41,1.37,9.46,1.75-2.12,3.85-.51,8.13,0,10.49,3.22-3.01,6.27-2.32,9.46-3.5-.08,5.21,1.57,6.89,3.78,9.62,3.73-2.03,9.03-3.29,12.2-3.15-3.03,6.92,1.26,12.93,1.49,13.5,5.76-10.14,9.43-11.5,18.69-13.35-4.52,10.53,1.57,7.08,2.67,12.02,4.5-9.47,7.68-8.95,14.57-11.7.37,8.21,2.28,9.17,5.03,12.84,4.72-5.75,4.75-9.51,11.5-14.58-4.63,6.76,3.29,9.79,3.29,13.15,5.08-2.11,11.89-11.59,14.8-13.77.71,5.56-.76,11.79.2,16.13,5.85-2.88,12.79-10.12,14.1-13.39,2.84,3.69,3.88,4.86,5.37,8.58,5.97-4,7.07-7.46,10.73-12.34,5.02,3.66,1.22,7.49,0,9.12,6.55-.4,10.77-7.18,11.8-12.34,3.74,7.27,5.91,10.95,13.41,13.95-1.64-5.33.26-8.76,2.15-11.27,2.3,7.87,7.29,12.92,13.41,15.02,1.1-4.77-2.42-8.29-1.61-12.34,4.76,6.97,10.32,14.22,15.38,16.74h0Z"/>
              <g id="g6077-1-7-0">
                <path id="path6067-5-5-6" class="cls-8" d="M142.6,202.41c4.27,5.77,10.51,9.74,17.1,10.73,6.84,1.04,14.05-1.13,19.77-7.8,5.94-6.92,6-21.86-8.98-30.96-14.9-9.06-35.62,17.57-27.89,28.03Z"/>
                <path id="path6069-0-4-9" class="cls-1" d="M162.59,206.04c19.09.46,15.47-26.6-1.18-25.1-15.07,1.36-14.85,24.7,1.18,25.1Z"/>
              </g>
              <path id="path6518-1-5-5-4-2" class="cls-2" d="M247.34,197.63c9.39-27.81,47.84-52.17,83.97-62.04-2.53-2.88-4.96-2.99-7.47-4,.42-2.7.57-5.42,0-8.28-2.21-.73-2.91-.87-4.36-1.31-2.48-3.25-2.36-7.44-3.05-10.89-1.91-1.37-4.56-.87-7.41-.87-.57-4.27-3.46-8.25-5.66-10.45-2.53-1.16-5.15-.87-7.84-.87-1.25-3.57-3.24-6.65-4.79-8.71-2.64,1.27-4.72,1.89-6.54,2.61-2.19-4.01-5.46-8.15-7.84-11.33-2.21-.04-3.97.63-5.66,1.31-3.52-3.88-5.53-7.31-9.15-10.02-2.76,0-4.85,1.15-7.41,2.18-1.88-2.98-2.8-4.9-4.36-6.97-3.27-.81-5.41,1.16-7.84,2.61-3.51-1.97-6.18-5.07-8.71-6.97-3.86.98-4.53,3.03-7.84,4.36-1.32-2.35-4.16-4.73-6.45-7.35-3.62,1.95-5.87,4.52-7.54,7.15-3.32-1.33-3.98-3.37-7.84-4.36-2.54,1.9-5.21,5-8.71,6.97-2.43-1.46-4.57-3.42-7.84-2.61-1.56,2.08-2.47,3.99-4.36,6.97-2.56-1.03-4.65-2.18-7.41-2.18-3.62,2.71-5.63,6.14-9.15,10.02-1.7-.68-3.46-1.34-5.66-1.31-2.38,3.18-5.65,7.32-7.84,11.33-1.82-.73-3.9-1.34-6.54-2.61-1.55,2.07-3.54,5.14-4.79,8.71-2.7,0-5.31-.29-7.84.87-2.21,2.2-5.09,6.19-5.67,10.46-2.85,0-5.5-.5-7.41.87-.69,3.45-.57,7.64-3.05,10.9-1.45.43-2.15.57-4.36,1.31-.57,2.85-.42,5.58,0,8.28-2.51,1-4.94,1.11-7.47,3.99,36.13,9.87,74.58,34.23,83.97,62.04,22.13-4.56,36.52-4,57.96.2h0Z"/>
              <g id="g6077-1-0-9-1">
                <path id="path6067-5-8-6-7" class="cls-8" d="M293.29,203.06c-4.27,5.77-10.51,9.74-17.1,10.73-6.84,1.03-14.05-1.14-19.77-7.81-5.94-6.92-5.51-21.1,8.97-30.96,16.22-11.03,35.62,17.57,27.89,28.03Z"/>
                <path id="path6069-0-1-7-7" class="cls-1" d="M273.3,206.69c-19.09.47-15.47-26.6,1.18-25.09,15.07,1.36,14.85,24.71-1.18,25.09Z"/>
              </g>
              <g id="g10080-2-9">
                <g id="g10122-1-7">
                  <path id="path6083-5-8-0-6" class="cls-5" d="M219.36,296.58c-19.48.92-37.8-13.54-44.73-25.25,3.41-18.93,85.11-19.6,88.69-1.51-4.21,15.5-24.48,25.84-43.95,26.76h0Z"/>
                </g>
              </g>
              <path id="path6338" class="cls-1" d="M186.6,274c3.97,6.58,9.62,10.45,17.66,10.45,2.07-3.64,1.71-10.56,1.71-13.12-6.36.1-15.26-.42-19.38,2.67Z"/>
              <path id="path6338-1" class="cls-1" d="M253.67,272.28c-3.96,6.58-9.99,11.96-18.04,11.96-2.07-3.64-1.71-10.56-1.71-13.11,6.36.1,15.64-1.94,19.75,1.15Z"/>
              <path id="path6336-7" class="cls-11" d="M244.75,273.41c-.45,11.81-10.77,26.8-24.81,26.91-14.04.1-24.36-14.89-24.81-26.7,1.33-7.58,18.71-7.41,24.81-7.51,6.1-.11,23.48-.27,24.81,7.31Z"/>
              <path id="path6079-3-1-2" class="cls-7" d="M165.97,227.86c-12.07,28.5,1.84,36.71,7.64,41.89,8.49,7.58,20.49,5.81,45.37.45,23.15,5.02,34.4,5.07,47.21-.78,7.08-3.23,16.25-16.14,5.04-39.45-12.32-25.63-33.28-39.86-51.2-40.13-17.92-.26-42.97,11.83-54.07,38.02Z"/>
              <path id="path6073-6-3-7" class="cls-1" d="M218.96,255.48c-1.35.12-2.39,1.24-2.42,2.59l-.33,10.39c-.05,1.46,1.1,2.69,2.56,2.74,1.46.05,2.69-1.1,2.74-2.56h0l.33-10.39c.07-1.46-1.05-2.71-2.51-2.78-.12,0-.25,0-.37,0h0Z"/>
              <path id="path6071-5-7-1" class="cls-1" d="M218.04,259.13c-26.3.42-35.42-40.91,0-41.16,35.42-.25,26.3,40.74,0,41.16Z"/>
            </g>
          </g>
        </g>
      </g>
    </g>
  </g>
</svg>