<?xml version="1.0" encoding="UTF-8"?>
<svg id="Layer_2" data-name="Layer 2" xmlns="http://www.w3.org/2000/svg" viewBox="0 0 105.89 178">
  <defs>
    <style>
      .cls-1 {
        fill: #eeb580;
      }

      .cls-1, .cls-2, .cls-3, .cls-4, .cls-5, .cls-6, .cls-7 {
        stroke-width: 0px;
      }

      .cls-2 {
        fill: #ffd1a4;
      }

      .cls-3 {
        fill: #ffd2a5;
      }

      .cls-4 {
        fill: #fcd29c;
      }

      .cls-5 {
        fill: #ffd8a6;
      }

      .cls-6 {
        fill: #f3c398;
      }

      .cls-7 {
        fill: #fcddac;
      }
    </style>
  </defs>
  <g id="Layer_2-2" data-name="Layer 2">
    <g id="svg6613">
      <g id="layer5">
        <g id="g3469">
          <path id="path36466-7-2-9" class="cls-4" d="M87.14,38.86c1.53-1.73,1.43-3.09,1.62-6.49,3.08-5.01,1.45-25.6-5.51-29.67C81.24,1.46,71.56-.03,66.39,0s-14.85,1.53-16.86,2.76c-4.73,9.1-5.88,20.98-5.63,30.18.32,2.9.22,4.26,1.69,6.19,3.31,2.55,33.27,3.13,41.56-.27h-.01Z"/>
          <path id="path36238-4" class="cls-1" d="M85.19,19.81c1.18,9.48,4.61,17.47,8.91,17.25,1.16-.06-.09-2.4.39-3.46,2.44-5.48,8.78-9.95,9.75-17.43-.35-4.96-12.27-8.22-16.56-12.32-1.3-1.15-3.29-2.28-4.5-.88-.24,3.31,1.66,13.9,2.02,16.84h-.01Z"/>
          <path id="path36238-2-8" class="cls-1" d="M47.6,19.87c-1.18,9.48-4.61,17.47-8.91,17.25-1.16-.06.09-2.4-.39-3.46-2.44-5.48-8.78-9.95-9.75-17.43.35-4.96,12.27-8.22,16.56-12.32,1.3-1.15,3.29-2.28,4.58-.88.17,2.17-1.73,13.9-2.09,16.84Z"/>
          <path id="path36466-7-2" class="cls-5" d="M98.58,89.77c1.15-1.43,2.29-2.42,2.62-4.92-.08-9.87-1.26-17.01-3.14-22.41-1.36-3.89-5.28-8.81-8.99-12.72-.29-3.15-.82-7.18-1.92-10.87-1.5-3.69-13.43-12.67-20.94-12.64-7.51.03-19,8.66-20.61,12.9-1.08,3.77-1.58,7.63-1.8,10.6-3.68,3.87-7.68,8.85-9.05,12.78-1.88,5.4-3.06,12.54-3.14,22.41.53,2.39,2.14,4.15,3.01,4.85,4.74,2.84,56.7,2.46,63.98,0l-.02.02Z"/>
          <path id="path36476-8" class="cls-7" d="M31.59,165.01c-2.97-4.93-4.48-10.91-4.67-17.01-.38-12.63,6.28-14.96,8.83-18.6-4.28-11.65-5.34-35.39-4.88-39.5.89-7.86,4.11-19.71,8.12-26.36,3.34-5.56,15.99-15.27,27.06-15.54,11.07-.27,24.57,10.55,28.09,15.52,3.52,4.96,6.88,18.46,7.77,26.32.47,4.11-.59,27.85-4.85,39.53,2.61,3.63,9.19,6.01,8.81,18.57-.4,13.27-7.06,25.95-21.43,28.53-6.49,1.17-15.61,1.18-18.04-.08-14.46-.95-28.55-6.33-34.8-11.38h-.01Z"/>
          <path id="path2455" class="cls-6" d="M96.13,129.07c-2.79-.49-4.09-3.21-2.11-5.13-.49,1.36.8,3.37,2.11,5.13Z"/>
          <path id="path2485-0" class="cls-3" d="M44.83,159.19c-3.48-4.2-2.34-6.4-1.22-9.76-2.34-7.02,2.98-11.53,6.1-14.03,2.31-2.62,4.88-6.71,6.71-9.76.06-4.5,2.62-9.45,1.83-12.81-.43-8.42.74-12.39-2.44-17.69.27-6.95-4.66-6.24-3.66-12.2-3.56-5.64-4.52-5.78-5.49-11.59,2.12-2.18,4.44-6.18,6.71-7.93,3.15-2.97,6.3-4.52,12.54-6.25,6.24,1.43,9.39,2.97,12.54,5.95,2.27,1.75,4.59,5.75,6.71,7.93-.97,5.81-1.93,5.95-5.49,11.59.99,5.96-3.94,5.25-3.66,12.2-3.18,5.3-2.01,9.27-2.44,17.69-.79,3.36,1.77,8.31,1.83,12.81,1.83,3.05,4.4,7.14,6.71,9.76,3.12,2.5,8.45,7.01,6.1,14.03,1.12,3.36,2.26,5.56-1.22,9.76-3.48,5.8-7.26,8.43-21.08,11.74-13.82-3.01-17.6-5.64-21.08-11.44h0Z"/>
          <path id="path3749-5" class="cls-2" d="M59.86,156.48c-2.18,7.82-23.08,8.79-32.77,9.19-12.2.5-25.57,1.56-27.09,10.67,5.63,2.34,15.06,1.13,24.08,1.38,19.47.53,42.86,1.01,46.37-5.43,7.02-8.53-3.9-21.47-10.58-15.81h0Z"/>
          <path id="path2455-0" class="cls-6" d="M36.69,129.02c2.79-.49,4.09-3.21,2.11-5.13.49,1.36-.8,3.37-2.11,5.13Z"/>
        </g>
      </g>
    </g>
  </g>
</svg>