<?xml version="1.0" encoding="utf-8"?>
<!-- Generator: Adobe Illustrator 28.1.0, SVG Export Plug-In . SVG Version: 6.00 Build 0)  -->
<svg version="1.1" id="Layer_2_00000106849697913732607500000009245757239552448946_"
	 xmlns="http://www.w3.org/2000/svg" xmlns:xlink="http://www.w3.org/1999/xlink" x="0px" y="0px" viewBox="0 0 269.1 158.3"
	 style="enable-background:new 0 0 269.1 158.3;" xml:space="preserve">
<style type="text/css">
	.st0{fill:#9F4000;}
	.st1{fill:#E6DBC5;}
	.st2{fill:#FFF6DD;}
	.st3{fill:#D45500;}
	.st4{fill:#C14D00;}
	.st5{fill:#FDF4D9;}
	.st6{fill:#F8EED2;}
	.st7{fill:#D36013;}
	.st8{fill:#B04B07;}
	.st9{fill:#AF571C;}
	.st10{fill:#B34800;}
</style>
<g id="svg6613">
	<g id="layer5">
		<g id="g3332">
			<path id="path9741-8-0" class="st0" d="M177.1,20.6c4.4-3.2,6.4-8.5,4-10.5c-8.5-1.2-9.3,8.2-5.9,9.6
				C176.2,20.9,176.6,21,177.1,20.6L177.1,20.6z"/>
			<path id="path9741-8-0-3" class="st1" d="M98.9,20.5c-4.3-3.2-6.4-8.5-4-10.5c8.5-1.2,9.3,8.2,5.9,9.6
				C99.8,20.8,99.5,20.9,98.9,20.5L98.9,20.5z"/>
			<path id="path43316-7-5-1" class="st2" d="M103.8,54.3c-0.6-1-1.6-3-1.9-4.8c-2.5-4.5-3.5-8.7-3.1-13.1c0.7-6.8,1.7-9.5,3.3-13
				c3.8-6.5,8.9-15,17.4-18.3c2.3-0.9,6.7-4.5,18.7-1.5c5.9-1.6,10-1.5,12.9-0.9c2.7,2.5,11.6,8.4,12.8,8.7
				c0.8,1.4,10.3,14.6,12.4,17c0.5,2,1,4.4,1.3,7.8c0.5,4.5-0.4,8.2-2.9,12.7c-1,2.7-2.3,3.7-4.1,4.8L103.8,54.3L103.8,54.3z"/>
			<path id="path43316-7-5-1-6" class="st3" d="M156.9,4.9c-1.2-0.5-2.9-1.6-5.5-2.1c-2.6,4.2-1.5,8.6,0.8,12.4c0.1,4-1,7.6,2.7,8.8
				c3.8-0.1,4.7,2.3,7.5,3.2c3.8,3.8,13.2,2,14.2,1.5c-0.4-2.3-1.4-3.8-2.2-5.3C169.4,14.3,163.3,7.5,156.9,4.9L156.9,4.9L156.9,4.9
				z"/>
			<path id="path9737-6-1" class="st4" d="M171.1,26.9c3.6-0.9,4.6-12.9,10.1-16.5c-6.3-5.6-15.2-9.7-17.1-10.2
				c-1.2-0.3-7,3-8.1,6.4c-1.4,2.4,0,5.9,0.1,6.3C158.3,21.2,162.9,24.8,171.1,26.9L171.1,26.9L171.1,26.9z"/>
			<path id="path9737-6-1-4" class="st5" d="M105,26.8c-3.7-0.9-4.6-12.9-10.1-16.5c6.3-5.5,15.2-9.7,17.1-10.2c1.2-0.3,7,3,8.1,6.4
				c1.4,2.4,0,5.9-0.1,6.3C117.8,21.1,113.2,24.7,105,26.8L105,26.8z"/>
			<path id="path43660-8-0" class="st6" d="M99.8,68.2c-0.5-1.6-1.2-5.7-1.4-8.8c0.3-2.9,1.6-7,3.2-9.7c0.9-1.5,2.5-3,4.2-3.7
				c6.8-6.1,22.4-10.4,32.7-10.4c10.2,0,29,6,32.2,10c1.8,1.2,3.5,2.6,4.4,4.1c1.7,2.8,2.9,6.9,3.2,9.7c1.8,4.3-2.6,8.7-2.7,8.8
				H99.8L99.8,68.2z"/>
			<path id="path43692-4-7" class="st7" d="M186.7,107.5c-0.9,2.3-0.7,3.8,0,5.2c2.7,1.9,7,3.8,7.7,11.6c0.8,8.5-6.3,13.8-11.7,17.7
				c-7.1,5.1-29.9,4.8-44.4,3.4c-14.4,1.5-37.3,1.8-44.4-3.3c-5.4-3.9-12.6-9.2-11.7-17.7c0.8-7.8,5-9.6,7.7-11.6
				c0.7-1.3,0.8-2.8,0-5.2c-2.6-7.1-3.8-15.4-0.3-21.9c-1.6-10,1.5-21,8.5-26.4c3.9-3,11.8-7.8,16.2-8.4c3.9-1.4,18.3-4.5,22.6-3.9
				c3.7,0.5,22.5,2.4,25.2,3.8c4.8,0.7,12.7,5.4,16.6,8.5c6.9,5.4,10,16.4,8.5,26.4C190.6,92.2,189.3,100.4,186.7,107.5L186.7,107.5
				L186.7,107.5z"/>
			<path id="path2660" class="st8" d="M96.8,74c-1,2-4.7,6.2-5.9,9.3C90.3,78.8,93,74.5,96.8,74z"/>
			<path id="path2662" class="st8" d="M92.6,111.7c4.5-1.9,9.2-0.2,13.9,3.2C104.9,108.3,95.3,107.5,92.6,111.7z"/>
			<path id="path8111" class="st9" d="M121.2,60.1c4.7-2.4,12-4.9,17.2-4.9c5.1,0,13.1,2.4,17.9,4.8
				C149.2,50.5,128.8,50.5,121.2,60.1z"/>
			<path id="path2660-0" class="st8" d="M180,74.4c1,2,4.7,6.2,5.9,9.3C186.5,79.2,183.8,74.8,180,74.4z"/>
			<path id="path2662-3" class="st8" d="M184.3,112.1c-4.5-1.9-9.2-0.2-13.9,3.2C171.9,108.6,181.6,107.9,184.3,112.1z"/>
			<path id="path8262" class="st10" d="M137.7,127.2c-3.6-2.2-5.8-0.1-7.6,1.4c-3.3,2.1-3.6,4-2.4,7.4l1.7-1.7
				c-4,3.4-0.2,7.2,0.7,8.3c0.3-0.5,0.2-1.1,0.4-1.7c0.1,2.6,1.1,1.8,1.7,2.8c3.5,0.1,5.6-0.4,7.2-2.6c2.7,0.2,4.6-2.3,4.3-3.8
				c1-1.6,2.4-2.8,1.4-5.5C144.1,128.6,141.3,126.5,137.7,127.2L137.7,127.2L137.7,127.2z"/>
		</g>
	</g>
</g>
</svg>
