<?xml version="1.0" encoding="UTF-8"?>
<svg id="Layer_2" data-name="Layer 2" xmlns="http://www.w3.org/2000/svg" viewBox="0 0 64.16 104.12">
  <defs>
    <style>
      .cls-1 {
        fill: #524c3f;
      }

      .cls-1, .cls-2, .cls-3 {
        stroke-width: 0px;
      }

      .cls-2 {
        fill: #c4b79a;
      }

      .cls-3 {
        fill: #6c6659;
      }
    </style>
  </defs>
  <g id="Layer_1-2" data-name="Layer 1">
    <g>
      <path class="cls-3" d="M8.19,47.12c2.23-5.61,5-15.12,4.95-20.84-.04-4.53.18-9.47,2.07-14.29-6.45-3.71-.68-17.31,6.99-9.46,2.2-1.3,7.12-2.16,10.05-2.23,2.93-.07,7.6.54,10.05,2.09,7.67-7.86,13.45,5.74,6.99,9.46,1.89,4.82,2.11,9.44,2.07,13.98-.05,5.65,1.89,15.43,4.16,21.38.9,7.63-48.29,5.52-47.33-.09h0Z"/>
      <path class="cls-2" d="M63.08,64.56c2.05,8.2,1.03,20.22-1.91,28.59-17.59,5.33-40.92,3.43-58.28-.16C-.06,84.29-.91,71.98,1.08,64.04c3.04-12.16,5.56-15.18,7.44-17.56,2.65-3.36,12.62-11.18,22.68-11.22,10.05-.04,21.09,7.71,24.15,11.66,2.29,2.96,4.7,5.48,7.75,17.64h0Z"/>
      <path class="cls-3" d="M61.51,92.16c-1.25,4.61-3.39,9.24-6.86,10.51-3.43,1.25-16.23,1.56-22.59,1.42-6.36-.14-19-.18-21.95-.97-3.13-.84-6.25-6.26-7.51-10.88,10.04-3.84,22.12,1.87,29.36,6.04,7.24-4.25,18.77-9.77,29.54-6.12h0Z"/>
      <path class="cls-1" d="M36.81,92.28c-7.82-8.11-7.97-17.11-1.34-24.77,4.85-5.59,16.6-13.05,13.84-17.74-2.91,1.38-11.88,5.33-14.38,6.88-7.61,4.72-12.75,7.97-15.94,17.82-2.89,8.92-2.15,18.75,6.88,25.31,3.07,4.9,16.31-2.13,10.94-7.5h0Z"/>
    </g>
  </g>
</svg>