<?xml version="1.0" encoding="UTF-8"?>
<svg id="Layer_2" data-name="Layer 2" xmlns="http://www.w3.org/2000/svg" viewBox="0 0 64.34 103.2">
  <defs>
    <style>
      .cls-1 {
        fill: #2b1100;
      }

      .cls-1, .cls-2, .cls-3, .cls-4, .cls-5, .cls-6 {
        stroke-width: 0px;
      }

      .cls-2 {
        fill: #453c27;
      }

      .cls-3 {
        fill: #ab2323;
      }

      .cls-4 {
        fill: #6c6659;
      }

      .cls-5 {
        fill: #fff1d2;
      }

      .cls-6 {
        fill: #ffd5d5;
      }
    </style>
  </defs>
  <g id="Layer_1-2" data-name="Layer 1">
    <g>
      <path class="cls-2" d="M43.79,101.76c2.23,1.03,7.4,2.77,10.08-.28,8.6-.96,12.63-24.15,9.31-37.42-3.04-12.16-6.21-15.51-9.3-20.65-8.39-6.48-33.21-3.68-43.61.45-2.89,5.21-6.06,8.57-9.1,20.72-3.32,13.27.71,34.71,8.43,37.13,3.3.96,8.65,1.04,10.73.16,4.42.71,19.63.93,23.46-.11h0Z"/>
      <path class="cls-4" d="M21.15,94.27c.17,8.4-1.11,9.31-8.36,8.53-4.56-.49-3.04-4.91-1.52-6.48.72-10.59-5.16-22.54-3.84-35.4,1.23-11.98,5.56-23.56,5.46-35.06-.04-4.53.18-9.16,2.07-13.98,2.93-3.94,3.84-5.45,6.99-9.46,2.45-1.55,7.12-2.16,10.05-2.09,2.93.07,7.85.93,10.05,2.23,2.81,3.56,3.84,4.96,6.99,9.46,1.89,4.82,2.11,9.76,2.07,14.29-.11,11.5,5.5,20.55,6.08,35.06.61,15.36-3.34,21.7-4.17,35.09,1.52,1.57,2.37,5.98-2.18,6.48-7.25.78-7.59-.13-7.69-8.53-.06-5.28-2.1-12.43-5.53-15.5-2.06-1.84-8.58-1.91-10.55.3-3.09,3.46-6.04,9.78-5.93,15.07h0Z"/>
      <path class="cls-5" d="M13.68,15.18c.3-1.34.72-2.5,1.27-3.32-6.45-3.71-.68-17.31,6.99-9.46,2.32.33,6.9.86,9.82.83,2.92-.03,7.55-.25,10.28-.7,7.67-7.85,13.44,5.75,6.99,9.46.56.93.98,2.34,1.29,3.96.3,10.93-11.43,16.19-17.46,16.37-6.04.18-19.87-5.56-19.18-17.15h0Z"/>
      <path class="cls-1" d="M31.48,20.14c-.19.03-.36.18-.4.38-.33,1.58-1.51,2.89-2.73,3.13-.25.05-.43.31-.39.56.05.25.31.43.56.39,1.39-.27,2.42-1.48,3.02-2.9.61,1.45,1.61,2.68,3,2.95.25.05.52-.12.58-.38.05-.25-.13-.52-.38-.57-1.22-.23-2.39-1.55-2.73-3.18-.05-.24-.31-.41-.55-.38h0Z"/>
      <path class="cls-4" d="M40.44,8.64c4.71,2.7,5.53,8.59,2.72,9.83-2.14.94-3.93-.52-5.92-2.71-1.13-1.25-3.9-1.86-5.87-1.88-1.97-.02-4.55.59-5.68,1.83-2,2.19-3.78,3.65-5.92,2.71-2.81-1.24-1.99-7.13,2.72-9.83,2.09-1.2,2.97-1.52,8.88-1.49,5.91.02,6.98.34,9.07,1.54h0Z"/>
      <path class="cls-1" d="M22.84,11.01c-1.85.1-2.49,3.77.28,3.56,2.67-.2,2.26-3.69-.28-3.56h0Z"/>
      <path class="cls-1" d="M40.2,11.35c1.85.1,2.49,3.77-.29,3.56-2.67-.2-2.26-3.69.29-3.56h0Z"/>
      <path class="cls-3" d="M31.04,16.43c-2.89.19-3.9,4.39.54,4.28,4.03-.11,3.35-4.54-.54-4.28h0Z"/>
      <path class="cls-6" d="M43.18,4.04c5.82-6.52,9.82,4.62,4.33,6.29-.75-1.99-2.71-4.98-4.33-6.29h0Z"/>
      <path class="cls-6" d="M20.88,4.07c-5.82-6.52-9.82,4.63-4.33,6.3.75-1.99,2.72-4.98,4.33-6.3h0Z"/>
    </g>
  </g>
</svg>