<?xml version="1.0" encoding="UTF-8"?>
<svg id="Layer_2" data-name="Layer 2" xmlns="http://www.w3.org/2000/svg" viewBox="0 0 66.42 66.03">
  <defs>
    <style>
      .cls-1 {
        fill: #cbe8e8;
      }

      .cls-1, .cls-2, .cls-3, .cls-4, .cls-5, .cls-6 {
        stroke-width: 0px;
      }

      .cls-2 {
        fill: #d9f5f5;
      }

      .cls-3 {
        fill: #b8dada;
      }

      .cls-4 {
        fill: #ffb380;
      }

      .cls-5 {
        fill: #ff1200;
      }

      .cls-6 {
        fill: #ed6835;
      }
    </style>
  </defs>
  <g id="Layer_1-2" data-name="Layer 1">
    <g>
      <path class="cls-1" d="M47.8,58.65c24.66-6.52,24.66-45.61,0-52.13l-29.07-.14c-24.93,6.44-24.93,45.53-.27,52.05l29.34.22Z"/>
      <path class="cls-3" d="M47.8,0l.19,6.61-28.97-.19V0h28.77Z"/>
      <path class="cls-3" d="M47.37,58.66v7.28l-28.59.09v-7.56l28.59.19Z"/>
      <path class="cls-2" d="M47.52,58.74c21.4-5.66,24.32-35.56,10.29-46.84l-49.37.02C-5.53,24.8-2.05,53.36,18.56,58.8l28.97-.06Z"/>
      <path class="cls-4" d="M34.62,23.92c-1.34-2.76,3.26-8.74-.97-11.27-1.93-.47.2,3.89-.89,5.2-1.07.79.59,2.11-.37,3.2-.51,1.28.17,2.61.96,3.17.73-.04.59.24,1.27-.3h0Z"/>
      <path class="cls-4" d="M37.59,49c.58.46,2.17,2.78,1.75,5.24-1.36-1.55-2.5-3.11-2.78-4.85.52-.25.46-.29,1.03-.39h0Z"/>
      <path class="cls-4" d="M30.78,49.55c-.04.7-1.86,4.04-2.94,4.7-.56-2.06,1.57-4.05,2.04-5.47.42.45.46.36.91.77h0Z"/>
      <path class="cls-5" d="M40.7,46.23c.07-6.21.41-12.87-2.15-18.41-1.16-2.39-2.66-4.29-4.35-4.2-1.44.07-4.15,2.61-5.62,5.94-.55,2.16-1.85,4.12-1.97,6.61-.27.59-.39,1.75-.37,2.38-.11,4.11.96,6.36,1.65,8.92,3.49,4.16,9.95,3.26,12.81-1.25h0Z"/>
      <path class="cls-4" d="M27.17,38.18c-8.59,4.24-8.45,18.01-2.77,13.28,5.37-4.48,5.68-12.19,9.99-14.75,5.65,1.64,3.31,7.56,9.99,14.84,5.04,5.5,7-7.95-1.51-13.53,1.61-6.25-2.05-15.49-8.64-6.26-4.5-6.96-9.59.68-7.05,6.43h0Z"/>
      <path class="cls-4" d="M34.18,39.23c-1.44.14-3.25,3.98-2.01,6.24,2.34-1.29,1.25-3.91,2.01-6.24h0Z"/>
      <path class="cls-4" d="M34.8,39.22c2.78,1.46,3.55,3.93,2.32,6.19-2.34-1.29-1.31-4.29-2.32-6.19h0Z"/>
      <path class="cls-6" d="M29.24,31.93c-.27.12-.05.64.23.52.36-.13,1.03-.16,1.73.05.7.21,1.45.62,2.05,1.38.08.14.3.18.43.08.13-.1.13-.33,0-.43-.68-.85-1.53-1.34-2.32-1.57-.8-.23-1.55-.22-2.07-.02h-.03Z"/>
      <path class="cls-6" d="M30.57,34.31c-.77.1-1.32.38-1.65.75-.11.12-.09.34.05.43.11.07.27.04.35-.05.4-.44,1.84-.95,3.92-.25.14.07.34,0,.39-.16.05-.15-.06-.34-.22-.37-1.11-.37-2.08-.45-2.85-.35h0Z"/>
      <path class="cls-6" d="M31.22,37.5s-.09.04-.13.07c-2.05,1.78-3.59,4.37-5,6.65-1.41,2.28-2.68,4.23-3.95,4.77-.17.02-.3.22-.23.38.06.16.29.22.43.12,1.57-.67,2.82-2.71,4.23-5,1.41-2.28,2.95-4.81,4.9-6.5.25-.14,0-.61-.25-.5h0Z"/>
      <path class="cls-6" d="M40.12,30.36c-1.88.31-4,1.13-5.17,3.32-.07.12-.04.29.07.38.13.1.35.05.43-.1,1.07-2,2.98-2.75,4.77-3.05.05,0,.11-.04.15-.07.17-.17-.01-.52-.25-.47h0Z"/>
      <path class="cls-6" d="M36.89,34.15c-.58.1-1.21.31-1.9.7-.26.14.02.64.28.5,1.29-.73,2.29-.81,3.07-.62.79.18,1.36.63,1.75,1.02.21.21.61-.19.4-.4-.43-.43-1.1-.96-2.02-1.18-.46-.1-.99-.12-1.57-.03h0Z"/>
      <path class="cls-6" d="M37.84,37.06c-.22.05-.26.43-.05.52,2.39,1.38,4.05,4.2,5.38,6.75.66,1.27,1.23,2.48,1.8,3.4.57.91,1.11,1.58,1.85,1.67.09.02.18,0,.25-.07.15-.15.03-.46-.18-.47-.4-.05-.91-.55-1.45-1.43-.54-.88-1.11-2.07-1.78-3.35-1.33-2.56-3.02-5.51-5.6-7-.07-.04-.15-.05-.23-.02h0Z"/>
    </g>
  </g>
</svg>