<?xml version="1.0" encoding="UTF-8"?>
<svg id="Layer_2" data-name="Layer 2" xmlns="http://www.w3.org/2000/svg" viewBox="0 0 66.42 66.03">
  <defs>
    <style>
      .cls-1 {
        fill: #2b1100;
      }

      .cls-1, .cls-2, .cls-3, .cls-4, .cls-5, .cls-6, .cls-7, .cls-8 {
        stroke-width: 0px;
      }

      .cls-2 {
        fill: #cbe8e8;
      }

      .cls-3 {
        fill: #d9f5f5;
      }

      .cls-4 {
        fill: #b8dada;
      }

      .cls-5 {
        fill: #fee434;
      }

      .cls-6 {
        fill: #ffb380;
      }

      .cls-7 {
        fill: #ff1200;
      }

      .cls-8 {
        fill: #ed6835;
      }
    </style>
  </defs>
  <g id="Layer_1-2" data-name="Layer 1">
    <g>
      <path class="cls-2" d="M18.61,58.64C-6.05,52.13-6.05,13.03,18.61,6.52l29.07-.14c24.93,6.44,24.93,45.53.27,52.05l-29.34.22Z"/>
      <path class="cls-4" d="M18.61,0l-.19,6.61,28.96-.19V0h-28.77Z"/>
      <path class="cls-4" d="M19.05,58.66v7.27l28.59.09v-7.56l-28.59.19Z"/>
      <path class="cls-3" d="M18.9,58.74C-2.51,53.08-5.42,23.18,8.6,11.89l49.37.02c13.98,12.88,10.5,41.44-10.11,46.89l-28.96-.07Z"/>
      <path class="cls-6" d="M25.34,44.67c-1.5,1.22-4.28,2.82-7.2,3.79,2.38,2.74,8.95,2.66,8.91-1.19-.35-.97-1.26-1.51-1.71-2.6h0Z"/>
      <path class="cls-8" d="M25.63,45.21c-.05.02-.09.06-.12.1-1.38,1.73-3.04,2.42-4.3,3.05-.03.01-.05.03-.07.05-.2.18.09.57.32.45,1.23-.62,3.01-1.35,4.48-3.2.11-.13.07-.35-.07-.43-.07-.04-.15-.05-.23-.03h0Z"/>
      <path class="cls-8" d="M26.35,46.23c-.1.01-.19.08-.23.18-.12.3-.65.89-1.33,1.42-.68.53-1.52,1.06-2.32,1.4-.28.12-.05.64.22.52.86-.36,1.73-.91,2.45-1.47.71-.57,1.29-1.12,1.5-1.65.09-.18-.1-.44-.3-.4h0Z"/>
      <path class="cls-6" d="M40,43.84c1.49.69,4.18.97,6.76.52-1.48,6.21-6.15,5.73-8.62,3.05.49-.75,1.31-2.41,1.86-3.57h0Z"/>
      <path class="cls-8" d="M39.63,44.38c-.16.04-.25.25-.18.4.14.3.44.5.8.67.36.17.81.3,1.3.4.98.21,2.12.29,3.1.13.3-.04.19-.63-.1-.55-.88.15-1.98.07-2.9-.12-.46-.1-.88-.23-1.18-.38-.3-.14-.48-.31-.53-.4-.06-.12-.2-.18-.32-.15h0Z"/>
      <path class="cls-8" d="M39.15,45.63c-.17.02-.29.22-.23.38.09.29.32.47.6.65.28.18.62.36,1,.5.75.28,1.63.45,2.3.45.16.03.34-.11.34-.28s-.17-.3-.34-.27c-.56,0-1.4-.17-2.1-.43-.35-.13-.67-.28-.9-.42-.23-.15-.36-.32-.38-.38-.04-.12-.17-.21-.3-.2h0Z"/>
      <path class="cls-6" d="M29.07,48.61c-.58.46-1.96,2.58-1.55,5.04,1.36-1.55,2.29-2.91,2.59-4.66l-1.04-.39Z"/>
      <path class="cls-6" d="M35.46,49.11c.04.7,1.75,3.74,2.84,4.39.56-2.07-1.47-3.76-1.94-5.17-.42.38-.45.44-.91.78h0Z"/>
      <path class="cls-7" d="M25.8,45.99c3.07,4.86,10.34,5.52,13.56.19,3.21-5.31-1.6-22.88-7.06-22.8-5.46.08-9.74,17.48-6.5,22.61h0Z"/>
      <path class="cls-5" d="M24.95,36.8c3.32.01,3.18,5.5-.27,5.05-.05-1.21-.04-3.21.27-5.05h0Z"/>
      <path class="cls-1" d="M24.84,37.71c2.46.19,2.39,3.24-.18,3.38,0-1.04-.02-2.28.18-3.38h0Z"/>
      <path class="cls-5" d="M40.01,36.77c-3.32.01-3.07,5.41.38,4.96.13-1.48-.21-3.69-.38-4.96h0Z"/>
      <path class="cls-1" d="M40.13,37.5c-2.46.19-2.3,3.38.27,3.52.04-1.07-.04-1.95-.27-3.52h0Z"/>
      <path class="cls-6" d="M27.08,44.55c-1.4,1.74,2.76,3.88,5.97,3.78,3.21-.1,6.64-2.3,5.19-3.72-1.34-1.32-2.73.76-5.23.79-2.5.03-4.91-2.13-5.93-.85h0Z"/>
      <path class="cls-6" d="M31.45,23.47c1.34-2.76-3.26-8.25.97-10.77,1.92-.47-.2,3.9.89,5.2,1.07.79-.59,2.11.37,3.2.51,1.28-.17,2.11-.96,2.67-.48-.38-.67-.16-1.27-.3h0Z"/>
      <path class="cls-1" d="M37.38,45.04c-.05.01-.11.04-.15.07-2.66,2.05-5.9,2.05-8.95.07-.32-.21-.72.39-.4.6,3.25,2.1,6.89,2.13,9.78-.1.27-.19.05-.71-.28-.65h0Z"/>
    </g>
  </g>
</svg>