<?xml version="1.0" encoding="UTF-8"?>
<svg id="Layer_2" data-name="Layer 2" xmlns="http://www.w3.org/2000/svg" viewBox="0 0 59.02 49.73">
  <defs>
    <style>
      .cls-1 {
        fill: #2b1100;
      }

      .cls-1, .cls-2, .cls-3, .cls-4, .cls-5, .cls-6 {
        stroke-width: 0px;
      }

      .cls-2 {
        fill: #cdc974;
      }

      .cls-3 {
        fill: #e3c775;
      }

      .cls-4 {
        fill: #fff3b0;
      }

      .cls-5 {
        fill: #00885b;
      }

      .cls-6 {
        fill: #00734c;
      }
    </style>
  </defs>
  <g id="Layer_1-2" data-name="Layer 1">
    <g>
      <path class="cls-6" d="M48.13,16.08c-.9-3.04-3.32-6.45-6.43-9.27,1.03-.59,2.02-4.56-.54-6.05-3.34-1.94-6.41.05-7.64,3.43-.99,0-2.47.12-4.01.74-1.54-.61-3.02-.73-4.01-.73-1.23-3.39-4.34-5.34-7.67-3.4-2.57,1.49-1.54,5.42-.51,6.01-3.24,2.93-5.72,6.51-6.53,9.65,10.96,5.29,26.76,5.82,37.35-.39h0Z"/>
      <path class="cls-4" d="M40.44,46.72c13.43-1.9,10.91-16.9,7.63-26.74,1.27-1.69.58-3.35.07-3.98-.72.42-1.53.84-2.16.94-4,3.41-11.85,2.18-16.45,3.75-4.59-1.28-12.45-.06-16.45-3.47-.62-.1-1.54-.41-2.27-.83-.5.63-1.09,2.18.18,3.87-3.28,9.84-5.68,24.52,7.75,26.42,2.96.71,6.43,1.11,10.78.96,4.35-.14,7.95-.22,10.91-.93h0Z"/>
      <path class="cls-5" d="M.05,31.8c1.31-3.57,6.38-10.63,11.01-11.4,2.47,4.67.81,10.46-1.21,13-.51.75-1.12,1.07-1.89,1.13-2.21-2.84-5.63-2.81-7.9-2.73H.05Z"/>
      <path class="cls-5" d="M51.04,34.46c.61-1,5.09-3.36,7.84-2.9-1.81-4.77-6.54-10.32-10.44-10.32-2.78,3.79-.89,9.39.57,11.83.47.57.96.95,2.03,1.39h0Z"/>
      <path class="cls-3" d="M17.36,6.93c4.82,1.74,5.99-5.78.48-6.15-2.62,1.19-1.97,5.24-.48,6.15h0Z"/>
      <path class="cls-1" d="M16.48,2.12c2.77-1.08,5.82,3.92.15,4-.64-.81-.82-3.19-.15-4h0Z"/>
      <path class="cls-3" d="M41.17.76c2.19.94,2.05,5.04.53,6.12-4.86,1.76-6.03-5.75-.53-6.12h0Z"/>
      <path class="cls-1" d="M42.42,2.14c-2.77-1.08-5.78,3.88-.1,3.96.75-.84.79-3.16.1-3.96h0Z"/>
      <path class="cls-1" d="M12.39,16.22c-.25.07-.42.34-.38.6.07.51.39.92.8,1.25.41.32.92.58,1.52.8,1.22.44,2.8.75,4.53,1,3.45.5,7.53.75,10.22,1.23.06.01.12.01.18,0,2.7-.47,6.77-.73,10.23-1.23,1.73-.25,3.29-.56,4.5-1,.6-.22,1.14-.47,1.55-.8.41-.33.72-.74.8-1.25.07-.28-.15-.59-.43-.64-.29-.04-.58.2-.59.48-.03.19-.15.36-.43.58-.28.22-.71.46-1.25.65-1.09.39-2.6.68-4.3.93-3.37.48-7.37.77-10.17,1.25-2.8-.48-6.79-.77-10.15-1.25-1.7-.25-3.22-.53-4.3-.93-.54-.19-.97-.43-1.25-.65-.27-.22-.4-.39-.42-.58-.03-.3-.36-.52-.65-.45h0Z"/>
      <path class="cls-1" d="M27.38,13.1c-.51.08-.87,1.09.11,1.39,1.19.38,1.04-1.56-.11-1.39h0Z"/>
      <path class="cls-1" d="M31.23,13.13c.51.08.87,1.09-.11,1.39-1.19.37-1.04-1.56.11-1.39h0Z"/>
      <path class="cls-2" d="M20.49,29.95c-2.1-2.05-4.17,4.9-1.12,4.38,2.12-.36,2.42-3.11,1.12-4.38h0Z"/>
      <path class="cls-2" d="M27.24,37.2c-1.49-.68-2.73,5.7.62,3.87,1.47-.8.57-3.33-.62-3.87h0Z"/>
      <path class="cls-2" d="M39.12,28.95c-1,.26-.72,3.97,1.88,3.75,2.69-.23.12-4.29-1.88-3.75h0Z"/>
      <path class="cls-2" d="M38.49,39.57c-.93.15-.81,3.74,1.75,3.12,2.07-.5-.68-3.3-1.75-3.12h0Z"/>
      <path class="cls-2" d="M14.24,42.45c-1.63-.98.07-3.43.5-3.25,1.93.79.89,4.08-1.12,2.88"/>
      <path class="cls-6" d="M.13,31.43c-.8,5.08,2.12,16.91,5.22,17.52,2.62.52,7.44,1.37,8.08.16.7-.97-1.82-1.23-2.8-1.6,2.95-.59,10.21,2.36,10.79,1.29.8-1.33-3.65-2.64-7.61-3.32,2.66.54,4.95,1.27,4.98.53.21-1.05-1.25-1.88-6.23-2.4-.74-5.5-4.1-10.33-6.85-11.33-1.21-1.12-3.62-1.68-5.56-.85H.13Z"/>
      <path class="cls-6" d="M53.32,32.27c-3.56,1.88-6.11,5.83-6.85,11.33-4.99.52-6.45,1.35-6.23,2.4.03.73,2.32,0,4.98-.53-3.96.69-8.42,1.99-7.62,3.32.58,1.07,7.83-1.88,10.79-1.29-.99.37-3.5.62-2.8,1.6.63,1.21,5.45.36,8.08-.16,3.1-.61,6.03-12.44,5.22-17.52-1.54-1.01-3.87-.04-5.56.85h0Z"/>
    </g>
  </g>
</svg>