<?xml version="1.0" encoding="UTF-8"?>
<svg id="Layer_2" data-name="Layer 2" xmlns="http://www.w3.org/2000/svg" viewBox="0 0 63.11 49.04">
  <defs>
    <style>
      .cls-1 {
        fill: #736448;
      }

      .cls-1, .cls-2, .cls-3, .cls-4 {
        stroke-width: 0px;
      }

      .cls-2 {
        fill: #007049;
      }

      .cls-3 {
        fill: #00623f;
      }

      .cls-4 {
        fill: #00734c;
      }
    </style>
  </defs>
  <g id="Layer_1-2" data-name="Layer 1">
    <g>
      <path class="cls-4" d="M12.87,16.22c.49-3.35,2.68-6.14,6.27-9.38-1.03-.59-2.06-4.59.51-6.08,3.34-1.94,6.44.08,7.67,3.47.99,0,2.47.12,4.01.74,1.54-.61,3.02-.73,4.01-.73,1.23-3.39,4.33-5.41,7.68-3.47,2.57,1.49,1.53,5.49.51,6.08,2.97,2.68,5.77,5.74,6.45,9.14-8.81,6.73-26.35,3.19-37.1.23h0Z"/>
      <path class="cls-3" d="M31.12,47.69c-3.8,1.29-10.66,1.1-13.72.22-5.98-3.8-5.25-9.15-8.7-17.17-.16-7.38,2.31-12.85,6.4-16.45,6.34-5.58,24.46-6.01,32.49-.49,4.15,2.85,6.79,9.89,6.47,16.95-.59,8.47-.93,13.44-6.24,17.72-3.35.83-12.61.45-16.71-.79h0Z"/>
      <path class="cls-2" d="M12.08,42.57c-2.25,1.72-7.18,2.52-9.57,3.86-1.93-3.4-4.09.79-.84,1.45,1.9,1.6,3.1.85,5.53.71,2.32-.13,4.25.62,6.6.41,4.81-.42,11.81-5.19,11.18-9.77-.53-3.86-3.51-7.12-12.88-8.01-4.21-.39-7.77.78-10.07,5.12-2.05,3.88,2.86,8.16,7.97,6.69,2.01-.58,3.94-.87,7.14-3.03"/>
      <path class="cls-2" d="M52.57,42.71c2.6,1.84,5.64,2.17,8.03,3.5,1.93-3.4,4.09.79.84,1.45-1.9,1.6-3.1.84-5.53.71-2.32-.13-4.25.62-6.61.41-4.81-.42-11.81-5.19-11.17-9.77.53-3.86,3.51-7.12,12.88-8.01,4.21-.39,7.77.78,10.07,5.12,2.04,3.86-2.83,8.22-7.87,6.72-2.28-.68-3.77-.85-6.29-2.58"/>
      <path class="cls-1" d="M27.9,13.48c-1.27-.3-3.4,3.09-1.58,3.83,1.86.75,3.52-3.37,1.58-3.83h0Z"/>
      <path class="cls-1" d="M19.27,17.72c-1.4-.09-2.99,2.89-.57,3.39,1.8.38,2.48-3.27.57-3.39h0Z"/>
      <path class="cls-1" d="M27.35,22.58c-1.57-.41-2.42,3.65-.06,4.3,1.96.54,2.16-3.75.06-4.3h0Z"/>
      <path class="cls-1" d="M27.37,36.93c-.23.37-1.38,3.33.93,3.33,2.07,0,.69-5.86-.93-3.33h0Z"/>
      <path class="cls-1" d="M16.95,26.02c-.5,2.17.24,3.48,1.98,4.49.35-1.45-.12-3.27-1.98-4.49h0Z"/>
      <path class="cls-1" d="M35.74,13.69c1.27-.3,3.4,3.09,1.58,3.83-1.86.75-3.52-3.37-1.58-3.83h0Z"/>
      <path class="cls-1" d="M46.22,18.72c1.41-.09,2.99,2.89.57,3.4-1.8.38-2.48-3.27-.57-3.4h0Z"/>
      <path class="cls-1" d="M36.55,25.43c1.58-.41,2.42,3.65.06,4.3-1.97.54-2.17-3.75-.06-4.3h0Z"/>
      <path class="cls-1" d="M36.26,38.9c.16.41.68,3.54-1.58,3.08-2.03-.42.51-5.88,1.58-3.08h0Z"/>
      <path class="cls-1" d="M46.69,27.02c.5,2.17-.24,3.48-1.98,4.48-.35-1.45.12-3.27,1.98-4.48h0Z"/>
    </g>
  </g>
</svg>