<?xml version="1.0" encoding="UTF-8"?>
<svg id="Layer_2" data-name="Layer 2" xmlns="http://www.w3.org/2000/svg" viewBox="0 0 57.53 89.27">
  <defs>
    <style>
      .cls-1 {
        fill: #f2f2f2;
      }

      .cls-1, .cls-2, .cls-3, .cls-4, .cls-5, .cls-6 {
        stroke-width: 0px;
      }

      .cls-2 {
        fill: #8b2d2d;
      }

      .cls-3 {
        fill: #1a1a1a;
      }

      .cls-4 {
        fill: #b72d2d;
      }

      .cls-5 {
        fill: #333;
      }

      .cls-6 {
        fill: maroon;
      }
    </style>
  </defs>
  <g id="Layer_1-2" data-name="Layer 1">
    <g>
      <path class="cls-1" d="M43.08,4.16C41.04,2.22,33.78-.13,28.66,0c-5.13.14-11.63,2.49-13.67,4.43-1.76,6.47-6.14,14.62-7.4,29.3,9.43-9.38,31.37-12,41.85,1.1.96-8.89-2.77-21.34-6.36-30.67h0Z"/>
      <path class="cls-4" d="M51.51,37.59c2.94-9.02,2.09-14.79.08-19.89-1.04-4.86-4.55-10.05-8.24-13.74-2.34-1.51-5.55-2.97-9.14-3.51,2.03,10.76,5.83,23.82,17.29,37.13h0Z"/>
      <path class="cls-5" d="M7.07,18.04c1.7-3.14,4.16-9.06,8.18-14.07,2.21-1.93,5.62-3.09,9.39-3.55-.48,11.51-5.12,23.68-19.11,37.06-2.91-12.91.21-16.66,1.54-19.44h0Z"/>
      <path class="cls-6" d="M51.62,17.63c2.33-.51,5.06-6.3,3.4-7.77-1.51-2.02-8.04-7.02-11.86-6.04,2.31,4.29,5.72,9.07,8.46,13.82h0Z"/>
      <path class="cls-3" d="M3.6,10.13c-1.66,1.47,1.17,7.45,3.5,7.96,1.23-2.86,5.87-10.62,8.17-14.08-3.82-.9-10.16,4.11-11.67,6.12h0Z"/>
      <path class="cls-2" d="M52.54,39.11c3.85,6.07,8.47,17.45.86,32.5-1.2,2.37-5.34,10.21-4.78,12.57,2.04,3.92-.19,5.64-4.66,4.86-4.9-.85-4.63-10.27-5.7-12.74-1.74.29-7.94,1.14-9.31,1.07-1.37-.06-8.06-.75-9.8-1.03-1.08,2.46-.28,11.89-5.18,12.73-4.47.78-6.71-.94-4.66-4.86.56-2.36-4.09-8.93-5.21-11.34-7.48-16.16-3.17-28.84.89-34.81,6-8.83,14.08-13.96,25.03-13.7,10.95.27,17.62,6.98,22.53,14.73h0Z"/>
      <path class="cls-3" d="M24.46,24.72c-3.07,6.61,3.77,13.91,12.44,15.99,5.55,1.33.63,5.79,12.11,9.32,5.13,1.58,3.27,5.35,8.39,7.11,1.04-9.43-4.34-19.42-10.98-26.02-6.26-6.22-15.79-7.91-21.96-6.4h0Z"/>
    </g>
  </g>
</svg>