<?xml version="1.0" encoding="UTF-8"?>
<svg id="Layer_2" data-name="Layer 2" xmlns="http://www.w3.org/2000/svg" viewBox="0 0 55.77 88.79">
  <defs>
    <style>
      .cls-1 {
        fill: #f2f2f2;
      }

      .cls-1, .cls-2, .cls-3, .cls-4, .cls-5, .cls-6, .cls-7 {
        stroke-width: 0px;
      }

      .cls-2 {
        fill: #2b1100;
      }

      .cls-3 {
        fill: #1a1a1a;
      }

      .cls-4 {
        fill: #b72d2d;
      }

      .cls-5 {
        fill: #333;
      }

      .cls-6 {
        fill: maroon;
      }

      .cls-7 {
        fill: #faa;
      }
    </style>
  </defs>
  <g id="Layer_1-2" data-name="Layer 1">
    <g>
      <path class="cls-1" d="M50.98,38.23c3.38,6.39,8.16,21.78,1.31,34.18-1.28,2.33-5.77,8.98-5.21,11.34,2.04,3.92-.19,5.64-4.66,4.86-4.9-.85-4.1-10.27-5.18-12.74-1.74.29-8.43.97-9.8,1.04-1.37.06-7.57-.79-9.31-1.07-1.07,2.46-.8,11.89-5.7,12.74-4.48.78-6.71-.94-4.66-4.86.56-2.36-3.36-10.33-4.78-12.57-6.36-10.04-.96-26.75,1.69-32.5.68-12.8,2.64-18.86,1.43-21.12,1.05-4.86,5.16-12.69,7.2-13.83C15.33,2.54,22.21-.13,27.34,0c5.13.14,11.32,2.59,14.04,3.96,4.4,3.68,5.35,9.78,8.19,14.06-2.46,2.4.23,7.76,1.41,20.21h0Z"/>
      <path class="cls-2" d="M26.72,31.57c-.31.01-.58.26-.6.54-.13,1.5.05,3.07-.1,5.09-.06.32.23.64.57.67.35.02.68-.27.66-.59.16-2.11-.01-3.72.11-5.07.03-.32-.29-.64-.64-.63h0Z"/>
      <path class="cls-2" d="M31.13,34.9c-.34.02-.63.35-.58.67.16.97-.18,1.67-.7,1.95-.52.28-1.43.28-2.75-.61-.21-.14-.53-.14-.74,0-1.31.9-2.2.89-2.72.61-.52-.28-.88-.96-.72-1.93.11-.32-.15-.7-.51-.75-.35-.04-.72.26-.71.59-.2,1.3.24,2.53,1.3,3.1.99.52,2.34.3,3.76-.55,1.41.83,2.75,1.06,3.73.53,1.07-.57,1.5-1.8,1.3-3.1-.03-.29-.34-.53-.66-.51h0Z"/>
      <path class="cls-4" d="M4.57,38.49c-3.89-13.94,2.64-18.86,1.43-21.12,1.05-4.86,3.52-10.14,7.2-13.83,2.34-1.52,5.65-2.59,9.23-3.13-4.27,9.5,4.36,17.63-1.62,23.91-4.72,4.96-5.01,13.63-4.19,19.25.22,1.49-8.5-1.42-12.04-5.09h0Z"/>
      <path class="cls-5" d="M49.58,17.99c-2.84-4.28-3.79-10.39-8.18-14.06-2.22-1.94-5.62-3.09-9.39-3.56,2.98,8.7-4.55,18.91,1.37,25.65,4.58,5.22,4.57,12.32,2.83,18.23-.73,2.46,11.43-1.7,14.81-5.97,4.05-13.67-3.9-17.9-1.44-20.29h0Z"/>
      <path class="cls-2" d="M16.78,13.04c-2.08-.4-4.18,4.4-1.15,5.17,2.52.63,3.77-4.67,1.15-5.17h0Z"/>
      <path class="cls-2" d="M36.87,13.3c2.08-.4,4.18,4.4,1.15,5.17-2.52.63-3.77-4.67-1.15-5.17h0Z"/>
      <path class="cls-6" d="M5.03,17.58C2.7,17.07-.03,11.28,1.63,9.81c1.51-2.02,7.85-7.02,11.67-6.04-.41,2.59-5.15,13.23-8.27,13.82h0Z"/>
      <path class="cls-3" d="M53.04,10.08c1.66,1.47-1.07,7.26-3.4,7.77-3.12-.59-7.85-11.38-8.27-13.89,3.82-.9,10.16,4.11,11.67,6.12h0Z"/>
      <path class="cls-7" d="M23.64,29.08c.33,3.39,5.32,5.11,6.45-.34-1.98-.49-4.88-.49-6.45.34h0Z"/>
      <path class="cls-2" d="M29.76,28.4c-.28.04-.52.29-.52.57-.16,1.79-1.27,2.55-2.4,2.58-1.12.03-2.27-.66-2.5-2.48-.03-.31-.35-.57-.66-.54-.32.04-.57.35-.54.66.29,2.31,2.02,3.59,3.73,3.55,1.7-.05,3.38-1.39,3.57-3.68.05-.36-.31-.72-.68-.67h0Z"/>
    </g>
  </g>
</svg>