<?xml version="1.0" encoding="UTF-8"?>
<svg id="Layer_2" data-name="Layer 2" xmlns="http://www.w3.org/2000/svg" viewBox="0 0 199.41 230.41">
  <defs>
    <style>
      .cls-1 {
        fill: #f8b9b9;
      }

      .cls-1, .cls-2, .cls-3, .cls-4, .cls-5, .cls-6, .cls-7 {
        stroke-width: 0px;
      }

      .cls-2 {
        fill: #7a7567;
      }

      .cls-3 {
        fill: #887646;
      }

      .cls-4 {
        fill: #726133;
      }

      .cls-5 {
        fill: #b2a789;
      }

      .cls-6 {
        fill: #a59772;
      }

      .cls-7 {
        fill: #ff8080;
      }
    </style>
  </defs>
  <g id="set">
    <g id="border">
      <g id="g14497">
        <g id="g13394">
          <path id="path31606-9-8-5-0" class="cls-4" d="M68.36,25.42c-3.44-12.16-14-28.52-27.37-24.92-11.89,3.21-15.77,24.34-9.54,35.1,6.3,10.9,13.12,10.63,17.8,9.54,6.55-1.43,16.85-14.38,19.11-19.73Z"/>
          <path id="path31606-1-9-7-8-5" class="cls-4" d="M164.77,38.74c6.66-10.5,2.85-32.16-8.1-35.46-13.43-4.05-24.44,11.77-28.37,23.78,1.29,3.73,12.86,18.65,20.06,21.12,2.86.65,9.66,1.2,16.41-9.43h0Z"/>
          <path id="path31608-9-1-04-7-5" class="cls-3" d="M137.56,153.86c13.43-4.27,30.49-14.1,33.86-38.89,2.41-17.71-3.45-31.33-9.68-44.71.05-2.59.19-11.92-9.55-22.49-6.6-9.18-10.36-17.12-21.48-22.49-23.26-5.78-41.75-5.72-64.6.66-11.1,7.3-15.94,12.63-23.47,21.44-5.89,9.61-8.54,18.06-8.59,20.65-6.78,13.11-13.18,26.48-11.5,44.27,2.35,24.91,21.71,36.97,36.01,41.68,18.88,6.22,31.34-.28,37.65-3.41,4.69,4.03,25.64,8.28,41.36,3.29h0Z"/>
          <path id="path31969-6-6" class="cls-7" d="M33.94,201c-3.94.58-15.7.53-21.23-1.53-7.21-2.69.07-14.13,11.48-13.81,11.46.32,20.54,13.76,9.75,15.34Z"/>
          <path id="path31969-6-6-9" class="cls-7" d="M167.25,199.01c3.94.58,15.7.53,21.23-1.53,7.21-2.69-.07-14.13-11.47-13.81-11.46.32-20.54,13.76-9.75,15.34Z"/>
          <path id="path5163-0" class="cls-6" d="M188.52,93.58c8.67,24.52,20.25,66.18-1.86,92.94-5.48,19.42-63.35,12.08-87.13,8.06-23.79,5.28-81.66,12.62-87.14-6.81-22.11-26.76-9.59-69.34-.93-93.87,11.76-33.29,51.83-60.41,87.13-61.04,35.31-.63,78.16,27.42,89.93,60.71Z"/>
          <path id="path12812" class="cls-2" d="M96.74,34.87c-3.63,3.07-3.31,8.36-6.17,11.23-.34.34,6.01,11.55,3.93,15.72-5.16,10.32,7.65,20.63,2.25,31.44-1.25,2.5-4.36,8.12-2.81,11.23,4.48,8.96,9.03,26.3,3.37,37.61-2.3,11.35,3.29,25.26,5.62,25.82,1.19.29,3.37-26.01,3.37-30.31,0-7.31,6.17-13.99,6.17-21.33,0-3.3-2.8-9.54-4.49-12.91-4.98-9.96,7.5-48.62,1.68-54.45-3.13-3.13-4.07-20.66-12.91-14.03Z"/>
          <path id="path10861-6" class="cls-5" d="M60.94,185.11c.26,18.2,26.62,31.48,41.87,31.07,15.26-.41,40.59-14.84,37.1-29.9-2.34-24.53-73.89-24.03-78.98-1.17Z"/>
          <path id="path31399-5-9" class="cls-1" d="M101.7,230.4c-7.62-.38-12.06-14.79-7.85-23.26,3.36-7.64,13-6.82,15.51,1.84.83,7.83-.04,21.79-7.66,21.41Z"/>
        </g>
      </g>
    </g>
  </g>
</svg>