<?xml version="1.0" encoding="UTF-8"?>
<svg id="Layer_2" data-name="Layer 2" xmlns="http://www.w3.org/2000/svg" viewBox="0 0 201.72 203.52">
  <defs>
    <style>
      .cls-1, .cls-2, .cls-3, .cls-4, .cls-5, .cls-6, .cls-7, .cls-8, .cls-9, .cls-10, .cls-11, .cls-12, .cls-13, .cls-14 {
        stroke-width: 0px;
      }

      .cls-2 {
        fill: #f9f9f9;
      }

      .cls-3 {
        fill: #5c4e2a;
      }

      .cls-4 {
        fill: #9b9060;
      }

      .cls-5 {
        fill: #d9cfb3;
      }

      .cls-6 {
        fill: #beb59c;
      }

      .cls-7 {
        fill: #a59772;
      }

      .cls-8 {
        fill: #907d4b;
      }

      .cls-9 {
        fill: #8d7c4e;
      }

      .cls-10 {
        fill: #8c7d54;
      }

      .cls-11 {
        fill: #ff8080;
      }

      .cls-12 {
        fill: #e4dbc3;
      }

      .cls-13 {
        fill: #e58d8d;
      }

      .cls-14 {
        fill: #ffd5d5;
      }
    </style>
  </defs>
  <g id="set">
    <g id="border">
      <g id="g14728">
        <g id="g13600">
          <path id="path31969-6-6-6" class="cls-13" d="M36.25,201.03c-3.94.58-15.7.53-21.22-1.53-7.21-2.69.06-14.13,11.47-13.81,11.46.32,20.54,13.76,9.75,15.34h0Z"/>
          <path id="path31969-6-6-9-1" class="cls-13" d="M169.56,199.04c3.94.58,15.7.53,21.22-1.53,7.21-2.69-.06-14.13-11.47-13.81-11.46.32-20.54,13.76-9.75,15.34h0Z"/>
          <path id="path5163-0-6" class="cls-6" d="M190.83,93.61c8.67,24.52,20.25,66.18-1.86,92.94-5.48,19.42-63.35,12.08-87.14,8.06-23.79,5.28-81.66,12.62-87.14-6.8-22.11-26.76-9.59-69.34-.93-93.87,20.54-23.1,165.52-13.44,177.06-.33Z"/>
          <path id="path5163-0-6-1" class="cls-10" d="M190.83,93.61c-13.1,19.37-26.67,46.29-90.24,6.11-57.72,37.91-77.99,14.58-86.82-5.78,11.76-33.29,51.83-60.41,87.14-61.04,35.31-.63,78.16,27.42,89.92,60.71h0Z"/>
          <path id="path31963-9-8-5-7" class="cls-5" d="M191.89,100.9c10.23,15.2,10.66,37.38,7.89,49.08-3.47,14.63-17.49,35.38-29.19,42.96-9.88,6.4-18.57,7.4-35.81,4.68-3.75-2.04-6.63-2.98-9.91-5.94-.59-1.37-2.84-9.31.21-11.19,18.99-11.66,19.37-30.21,16.32-39.77-5.44-17.05,16.45-10.82,20.71-21.41,6.04-7.08,2.64-34.5-.2-41.94,4.71-5.39,23.54,13.97,29.98,23.53h0Z"/>
          <path id="path31959-8-94-9-4" class="cls-13" d="M131.9,189.6c-.3.9-1.66,3.69-4.62,4.46.05,3.34-2.66,9.16-5.45,8.55-1.86-1.59.8-5.79-.34-8-.52,2.43-1.96,7.16-5.24,6.68-2.56-.4.88-6.8,1.71-8.65-2.88,2.74-3.51,6.95-6.29,5.96-2.12-.66-.65-6.38,1.12-8.67,1.53-6.15,6.81-5.63,9.41-8.59,5.73-3.73,13.26,4.79,9.7,8.28h0Z"/>
          <path id="path31963-9-8-5-2-8" class="cls-5" d="M9.66,101.77C-1.18,116.36-.98,142.08,1.16,153.91c2.86,15.85,21.16,34.16,29.8,39.89,9.8,6.51,18.57,7.4,35.81,4.68,3.74-2.04,6.62-2.98,9.91-5.94.59-1.37,2.7-9.1-.21-11.19-21.44-15.33-16.92-29.6-16.32-40.99.95-17.87-16.46-9.6-20.71-20.19-6.04-7.08-2.63-34.5.2-41.94-4.71-5.39-23.1,14.29-29.97,23.53h0Z"/>
          <path id="path31959-8-94-9-7-5" class="cls-13" d="M69.66,190.47c.3.9,1.66,3.69,4.62,4.46-.05,3.34,2.66,9.16,5.45,8.55,1.86-1.59-.8-5.79.34-8,.52,2.43,1.96,7.16,5.24,6.68,2.56-.4-.88-6.8-1.71-8.65,2.88,2.74,3.51,6.95,6.29,5.96,2.12-.66.65-6.38-1.12-8.67-1.53-6.15-6.81-5.64-9.41-8.59-5.73-3.74-13.27,4.79-9.7,8.28h0Z"/>
          <path id="path31608-9-1-04-7" class="cls-7" d="M139.7,153.85c13.43-4.27,30.49-14.1,33.86-38.89,2.41-17.71-3.45-31.34-9.68-44.71.05-2.59-1.62-11.92-8.34-20.69-6.6-9.18-10.37-17.72-21.48-23.09-14.03-1.52-54-1.41-65.8-.54-11.1,7.3-15.94,12.63-23.47,21.44-5.89,9.61-8.54,18.06-8.59,20.65-6.77,13.11-13.18,26.48-11.5,44.28,2.35,24.91,21.71,36.96,36.01,41.67,18.88,6.22,31.34-.28,37.65-3.41,4.69,4.03,25.64,8.28,41.36,3.29h0Z"/>
          <path id="path31703-7-7-3" class="cls-9" d="M90.43,132.56c-1.33,1.33-2.45,4.48.24,8.07,4.12,4.8,12.82,6,17.23.71,3.06-3.33,1.36-5.28,1.36-8.39l-18.83-.39Z"/>
          <path id="path4540-2-1" class="cls-2" d="M79.06,76.53c.06-13.75-22.73-16.89-22.17.96.39,12.35,22.11,12.43,22.17-.96Z"/>
          <path id="path4540-5-26-8" class="cls-2" d="M145.1,76.67c.06-13.75-22.73-16.89-22.17.96.39,12.35,22.11,12.43,22.17-.96Z"/>
          <path id="path31612-7-6-1-9" class="cls-1" d="M128.87,69.25c-8.4.47-9.63,13,.27,13.1,11.36.11,9.24-13.63-.27-13.1Z"/>
          <path id="path31614-7-1-0-6" class="cls-12" d="M124.66,94.83c5.64,4.78,14.1,18.43,11.06,30.33-4.07,15.97-23.05,21.76-36.35,11.73-13.69,8.64-31.71,2.28-35.83-13.68-2.92-11.3,7.37-25.26,12.29-29.85,5.91-5.52,14.77-9.28,23.75-9.31,8.97-.02,17.76,4.57,25.08,10.78h0Z"/>
          <path id="path31618-7-6-4" class="cls-4" d="M99.89,118.71c-.78-.01-1.43.61-1.44,1.39h0l-.38,11.94c-.07.78.51,1.46,1.29,1.53.78.07,1.46-.51,1.53-1.29,0-.05,0-.1,0-.15l.38-11.95c.04-.78-.57-1.45-1.35-1.48h-.05Z"/>
          <path id="path31616-5-15-3" class="cls-11" d="M100.03,116.69c3.97-.62,7.71-4.1,6.86-6.09-4.25-2.6-11.58-2.09-13.97-.66-2.39,1.44,3.92,6.62,7.12,6.75Z"/>
          <path id="path31612-7-9-3" class="cls-1" d="M62.95,69.46c-8.4.47-9.63,13,.28,13.1,11.36.11,9.24-13.63-.28-13.1Z"/>
          <path id="path31616-5-4-2-4-3" class="cls-4" d="M93.87,108.92c-.51-.01-.98.28-1.2.74-.47.97-.27,1.98.08,2.85.35.87.9,1.69,1.55,2.45,1.31,1.52,2.91,2.89,4.86,2.93.7.02,1.29-.54,1.3-1.25.01-.71-.54-1.29-1.25-1.31-.4,0-1.96-.86-2.99-2.04-.51-.59-.92-1.23-1.12-1.73-.2-.5-.15-.79-.15-.79.32-.63.06-1.4-.57-1.71-.17-.08-.35-.13-.53-.14h0Z"/>
          <path id="path31616-8-9-3-4-9-8" class="cls-4" d="M106.85,109.31c-.71.01-1.26.6-1.25,1.3,0,.17.04.34.11.5.03.06.06.26-.13.67-.19.42-.58.96-1.11,1.48-1.05,1.04-2.65,1.99-3.88,2.26-.7.11-1.17.76-1.06,1.46.11.7.76,1.17,1.46,1.06.05,0,.11-.02.16-.04,1.89-.42,3.74-1.57,5.12-2.94.69-.68,1.27-1.42,1.64-2.24.37-.82.55-1.8.14-2.73-.2-.49-.68-.8-1.2-.79Z"/>
          <path id="path9797" class="cls-3" d="M100.61,70.07c2.9-23.8,13.37-36.81,31.22-44.95-17.22-3.05-47.12-4.87-63.68-.94,14.93,7.73,28.72,22.38,32.46,45.89h0Z"/>
          <path id="path31606-9-8-5" class="cls-8" d="M70.5,25.42c-3.44-12.16-14-28.52-27.38-24.91-11.89,3.21-15.77,24.34-9.54,35.1,6.3,10.9,13.12,10.63,17.81,9.54,6.55-1.43,16.85-14.38,19.11-19.73h0Z"/>
          <path id="path31620-0-71-3" class="cls-14" d="M56.19,34.66c3.61-8.92,1.96-27.26-10.29-31.63-11.99.12-14.35,25.9-6.43,34.55,1.92,1.77,6.16,3.74,9.07,4.71,3.12-2.62,4.73-3.22,7.65-7.64h0Z"/>
          <path id="path31606-1-9-7-8" class="cls-8" d="M166.91,38.74c6.66-10.5,2.85-32.16-8.1-35.46-13.43-4.06-24.44,11.77-28.37,23.77,1.29,3.73,12.86,18.65,20.06,21.12,2.86.65,9.67,1.2,16.41-9.43Z"/>
          <path id="path31620-0-035-2-8" class="cls-14" d="M144.96,37.2c-3.61-8.92-1.96-27.26,10.29-31.63,11.99.12,14.35,25.9,6.42,34.55-1.91,1.77-6.16,3.74-9.06,4.71-3.12-2.62-4.73-3.22-7.65-7.64h0Z"/>
        </g>
      </g>
    </g>
  </g>
</svg>