<?xml version="1.0" encoding="UTF-8"?>
<svg id="Layer_2" data-name="Layer 2" xmlns="http://www.w3.org/2000/svg" viewBox="0 0 199.85 229.66">
  <defs>
    <style>
      .cls-1 {
        fill: #9b9797;
      }

      .cls-1, .cls-2, .cls-3, .cls-4, .cls-5, .cls-6, .cls-7 {
        stroke-width: 0px;
      }

      .cls-2 {
        fill: #ccc;
      }

      .cls-3 {
        fill: #d6d6d6;
      }

      .cls-4 {
        fill: #a6a6a6;
      }

      .cls-5 {
        fill: #916f6f;
      }

      .cls-6 {
        fill: #faa;
      }

      .cls-7 {
        fill: #ffd5d5;
      }
    </style>
  </defs>
  <g id="set">
    <g id="border">
      <g id="g14497">
        <g id="g13360">
          <path id="path31606-1-2-0-2" class="cls-5" d="M132.55,26.49c3.77-12.75,17.6-27.17,29.13-25.88,7.64.86,16.28,25.82,9.6,37.07-6.77,11.39-13.95,11.02-18.86,9.82-9.24-.08-21.22-16.87-19.86-21.01Z"/>
          <path id="path31606-45-1-6" class="cls-5" d="M70.62,25.49C66.63,12.81,52.57-1.38,41.06.11c-7.62.99-15.85,26.09-8.98,37.23,6.96,11.28,14.13,10.78,19.02,9.5,10.91,3.52,19.06-14.89,19.51-21.34h0Z"/>
          <path id="path31608-9-1-0-2-3-4" class="cls-1" d="M141.17,154.45c13.49-4.07,30.7-13.65,34.43-38.39,2.67-17.68.76-27.64-5.28-41.1-1.8-8.78-5.33-18.66-10.2-27.41-6.47-9.28-16.05-15.71-27.09-21.24-11.19-3.41-50.21-4.23-64.66-.94-5.8,2.93-15.88,10.99-21.24,20.28-4.97,4.76-9.99,20.74-11.32,27.69-6.97,13.01-10.46,23.79-9.04,37.86,2.51,24.89,21.16,37.28,35.39,42.2,18.79,6.5,31.34.18,37.7-2.85,4.63,4.1,25.52,8.66,41.3,3.9Z"/>
          <path id="path4566" class="cls-6" d="M22.98,189.49c-7.75.62-26.16,15.86-1,17.03,25.1,1.17,11.33-17.86,1-17.03Z"/>
          <path id="path4566-5" class="cls-6" d="M172.81,189.16c7.75.62,26.16,15.86,1,17.03-25.1,1.17-11.33-17.87-1-17.03Z"/>
          <path id="path31967-6-8-9-9" class="cls-2" d="M199.49,149.72c4.22-38.86-28.59-108.37-100.89-108.02C26.29,42.04-.16,113.62,0,147.54c.21,45.15,9.63,68.42,98.37,52.31,95.82,15.24,96.33-6.07,101.12-50.13Z"/>
          <path id="path12816" class="cls-4" d="M81.87,56.94c-1.78,1.78,4.08,6.65,4.51,7.08,3.33,3.33-4.35,11.1-1.29,14.16,3.85,3.85,4.56,26.5,9.01,35.41-1.48,11.84,2.1,54.55,3.22,50.21,1.84-7.12,7.08-25.56,7.08-30.26,0-10.27-1.87-39.39,0-43.13.94-1.89,3.22-5.8,1.29-7.72-.4-.4-3.68-5.97-1.93-7.73.97-.97,5.53-1.4,6.44-3.22,1.52-3.03-5.79-4.98-5.79-8.37,0-1.52,5.62-7.9,3.86-9.66-3.68-3.67-6.22-6.65-12.88-7.73-4.73,4.59-10.27,7.69-13.52,10.94Z"/>
          <path id="path10861-9" class="cls-3" d="M53.93,184.72c.26,18.2,26.62,31.48,41.87,31.07,15.26-.41,40.59-14.84,37.1-29.9-2.34-24.53-73.89-24.03-78.97-1.17Z"/>
          <path id="path31399-5-2" class="cls-7" d="M95.41,229.59c-7.66.93-10.05-11.67-9.46-19.91,2.39-5.68,14.01-7.23,16.59,1.89.71,5.88.07,19.12-7.13,18.01h0Z"/>
        </g>
      </g>
    </g>
  </g>
</svg>