<?xml version="1.0" encoding="UTF-8"?>
<svg id="Layer_2" data-name="Layer 2" xmlns="http://www.w3.org/2000/svg" viewBox="0 0 199.85 212.19">
  <defs>
    <style>
      .cls-1, .cls-2, .cls-3, .cls-4, .cls-5, .cls-6, .cls-7, .cls-8, .cls-9 {
        stroke-width: 0px;
      }

      .cls-2 {
        fill: #ccc;
      }

      .cls-3 {
        fill: #d6d6d6;
      }

      .cls-4 {
        fill: #a79898;
      }

      .cls-5 {
        fill: #916f6f;
      }

      .cls-6 {
        fill: #909090;
      }

      .cls-7 {
        fill: #848484;
      }

      .cls-8 {
        fill: #faa;
      }

      .cls-9 {
        fill: #e6e6e6;
      }
    </style>
  </defs>
  <g id="set">
    <g id="border">
      <g id="g14728">
        <g id="g13648">
          <path id="path4566-5-9" class="cls-8" d="M172.81,189.2c7.75.62,26.16,15.85,1,17.03-25.1,1.17-11.33-17.87-1-17.03Z"/>
          <path id="path4566-8" class="cls-8" d="M22.98,189.52c-7.75.62-26.16,15.86-1,17.03,25.1,1.17,11.33-17.87,1-17.03Z"/>
          <path id="path31967-6-8-9-9-5" class="cls-9" d="M199.49,149.75C187.59,29.23,14.56,33.3,0,147.57c.21,45.16,9.62,68.42,98.37,52.31,95.82,15.24,96.33-6.07,101.12-50.13Z"/>
          <path id="path31967-6-8-9-9-5-6" class="cls-7" d="M199.49,149.75c4.22-38.86-28.59-108.37-100.89-108.02C26.29,42.08-.16,113.65,0,147.57c14.56-19.7,46.42-28.24,95.87-4.43,60.9-22.8,86.36-13.55,103.61,6.61h0Z"/>
          <path id="path31963-6-9" class="cls-3" d="M44.55,92.19c-17.66,12.99-30.11,39.78-32.88,51.48-5.02,21.16,1.21,40.04,9.42,47.33,8.8,7.81,33.3,18.43,54.62,11.56,4.3-1.86,7.32-4.94,6.93-11.66-6.74-9.37-10.87-12.56-15.06-18.56-6.6-9.47-10.86-23.15-7.31-34.02,7.66-10.95,9.98-25.82,5.67-38.74-3.07-8.73-12.26-11.14-21.4-7.39Z"/>
          <path id="path31959-6-8" class="cls-8" d="M76.49,202.59c.59.75,2.82,2.91,5.87,2.61,1.09,3.15,5.62,7.7,8.04,6.17,1.2-2.13-2.73-5.17-2.41-7.64,1.32,2.11,4.29,6.06,7.21,4.49,2.27-1.25-3.15-6.09-4.57-7.55,3.64,1.59,5.67,5.34,7.95,3.45,1.77-1.35-1.56-6.22-4.01-7.77-3.54-5.26-8.33-2.97-11.78-4.86-5.18-.45-10.06,5.89-6.29,11.09h0Z"/>
          <path id="path31963-0-1-8" class="cls-3" d="M116.84,191.4c6.74-9.37,10.87-12.56,15.06-18.56,6.6-9.46,10.86-23.15,7.31-34.02-13.23-10.28-4.14-46.46,9.73-41.84,10.79,4.52,14.88,9.37,22.78,16.87,10.29,9.6,20.41,22.48,21.86,38.16,2.29,24.73-6.96,32.2-15.17,39.49-8.8,7.81-33.3,18.43-54.96,12.35-3.2-2.78-8.51-5.28-6.59-12.45Z"/>
          <path id="path31959-0-1-1" class="cls-8" d="M122.99,203.09c-.59.74-2.82,2.91-5.87,2.61-1.09,3.15-5.62,7.7-8.04,6.17-1.2-2.13,2.73-5.17,2.41-7.64-1.32,2.1-4.29,6.06-7.21,4.49-2.27-1.25,3.15-6.09,4.57-7.55-3.64,1.6-5.67,5.34-7.95,3.46-1.77-1.35,1.56-6.22,4.01-7.77,3.54-5.26,8.33-2.97,11.78-4.86,3.24,1.84,7.2,4.26,6.29,11.09h0Z"/>
          <path id="path31608-9-1-0-2-3" class="cls-2" d="M140.99,154.45c13.49-4.07,30.7-13.65,34.43-38.39,2.67-17.68.75-27.64-5.28-41.1-2.4-7.58-6.23-17.16-10.2-27.41-6.47-9.28-16.04-15.71-27.09-21.24-13.03.25-53.77.33-64.66-.94-11.21,7.14-12.58,4.08-21.24,20.28-4.97,4.76-9.99,20.74-11.32,27.69-6.97,13-10.46,23.78-9.04,37.86,2.51,24.89,21.16,37.28,35.39,42.2,18.79,6.5,31.34.18,37.7-2.85,4.64,4.09,25.52,8.66,41.3,3.9h0Z"/>
          <path id="path31703-89-4" class="cls-4" d="M94.37,140.81c4.26,4.68,12.99,5.63,17.24.21,6.73-6.67-10.91-17.94-17.49-7.25-1.38,2.24-3.22,3.97.25,7.04h0Z"/>
          <path id="path31614-7-1-3-9-4" class="cls-9" d="M126.82,93.2c5.57,5.08,13.82,19.45,10.61,31.82-4.31,16.61-21.77,21.31-34.92,10.64-13.81,8.81-33.35,2.92-37.23-13.79-2.75-11.84,7.74-26.24,12.73-30.96,5.99-5.67,14.91-9.46,23.88-9.35,8.97.11,17.69,5.04,24.92,11.64Z"/>
          <path id="path31618-3-4" class="cls-5" d="M102.97,118.81c-.69,0-1.24.57-1.23,1.25l-.04,11.95c0,.69.56,1.25,1.24,1.25.69,0,1.25-.55,1.25-1.24l.03-11.95c0-.69-.54-1.25-1.23-1.26h-.03Z"/>
          <path id="path31616-1-7" class="cls-8" d="M96.65,110.32c-.89,1.98,3.2,6.26,6.4,6.3,3.95-.74,7.59-4.32,6.67-6.28-3.53-1.41-9.21-1.27-13.08-.01h0Z"/>
          <path id="path31616-4-4-6" class="cls-5" d="M96.66,109.03c-.51,0-.98.3-1.18.77-.44.99-.21,1.98.16,2.84.38.86.95,1.68,1.63,2.42,1.36,1.48,2.99,2.8,4.94,2.79.71,0,1.27-.59,1.26-1.29s-.58-1.27-1.29-1.26h0c-.4,0-1.98-.8-3.04-1.96-.53-.58-.96-1.2-1.17-1.7-.22-.5-.17-.78-.17-.78.3-.64.02-1.4-.62-1.69-.17-.08-.35-.12-.53-.12h0Z"/>
          <path id="path31616-8-78-3" class="cls-5" d="M109.64,109.04c-.7.04-1.24.64-1.21,1.34,0,.17.05.34.13.49.03.06.07.25-.11.67-.18.42-.55.97-1.06,1.51-1.03,1.07-2.6,2.06-3.82,2.37-.68.18-1.1.87-.92,1.55.17.68.87,1.09,1.55.92,1.88-.48,3.68-1.67,5.03-3.08.67-.7,1.23-1.46,1.57-2.29.35-.83.5-1.82.07-2.74-.22-.48-.71-.78-1.24-.75h0Z"/>
          <path id="path31612-73-9" class="cls-1" d="M71.06,64.16c-10.03.85-11.07,15.88.78,15.66,13.59-.26,10.58-16.62-.78-15.66Z"/>
          <path id="path31612-73-5-2" class="cls-1" d="M132.28,64.76c10.06-.08,12.49,14.79.66,15.66-13.56,1-12.06-15.57-.66-15.66Z"/>
          <path id="path9643" class="cls-6" d="M101.29,56.7c3.87-14.3,14.02-29.89,32.61-29.89-17.77-5.68-48.74-6.27-65.21-.81,18.79,6.48,26,14.99,32.61,30.71h0Z"/>
          <path id="path31606-1-2-0" class="cls-5" d="M132.37,26.49c3.77-12.75,17.6-27.17,29.13-25.88,7.64.86,16.28,25.82,9.6,37.07-6.77,11.39-13.95,11.02-18.86,9.82-9.24-.08-21.22-16.87-19.86-21.01Z"/>
          <path id="path31620-1-2-4" class="cls-8" d="M159.02,3.45c9.31-.2,14.75,28.76,4.97,36.84-5.8,4.79-12.35,3.51-16.85-3.81-3.55-9.64-1.16-28.87,11.88-33.03Z"/>
          <path id="path31606-45-1" class="cls-5" d="M70.44,25.5C66.45,12.81,52.39-1.38,40.88.11c-7.62.99-15.85,26.09-8.98,37.22,6.96,11.28,14.13,10.79,19.03,9.5,10.91,3.52,19.06-14.89,19.51-21.34h0Z"/>
          <path id="path31620-03-7" class="cls-8" d="M43.87,2.68c-9.31-.24-14.89,28.68-5.14,36.82,5.77,4.82,12.34,3.56,16.87-3.73,3.6-9.62,1.3-28.87-11.72-33.09Z"/>
        </g>
      </g>
    </g>
  </g>
</svg>