<?xml version="1.0" encoding="UTF-8"?>
<svg id="Layer_2" data-name="Layer 2" xmlns="http://www.w3.org/2000/svg" viewBox="0 0 40 54.35">
  <defs>
    <style>
      .cls-1 {
        fill: #2b1100;
      }

      .cls-1, .cls-2, .cls-3, .cls-4, .cls-5, .cls-6, .cls-7 {
        stroke-width: 0px;
      }

      .cls-2 {
        fill: #ddcbcb;
      }

      .cls-3 {
        fill: #ff63ff;
      }

      .cls-4 {
        fill: #fff6f6;
      }

      .cls-5 {
        fill: #faa;
      }

      .cls-6 {
        fill: #f95;
      }

      .cls-7 {
        fill: #ffd5d5;
      }
    </style>
  </defs>
  <g id="Layer_1-2" data-name="Layer 1">
    <g>
      <path class="cls-6" d="M4.44,22.27c-.79-4.75,2.8-10.64,4.39-12.88C6,7.36,7.24.39,8.75.06c2.35-.51,5.02,2.3,6.29,3.98,3.23.01,6.67-.17,9.76.04,1.27-1.68,3.94-4.49,6.29-3.98,1.51.33,2.75,7.73-.08,9.76,1.59,2.24,5.52,7.7,4.72,12.44,1.9,1.54,3.16,4.34,3.79,7.25-16.54,10.6-30.77,6.42-38.76-.14.27-1.8,1.93-5.57,3.67-7.15h0Z"/>
      <path class="cls-1" d="M14.31,10.25c-1.98.02-2.09,2.85-.02,2.87,2.17.03,1.95-2.89.02-2.87h0Z"/>
      <path class="cls-1" d="M24.95,10.27c1.98.02,2.09,2.85.03,2.87-2.17.02-1.95-2.89-.03-2.87h0Z"/>
      <path class="cls-4" d="M8.37,29.19c.09-1.53-2.25-3.59-.66-5.19.95-.96,4.55.3,5.19-1.46-1.38-1.11-2.77-3.03-2.93-5.06.75,1.26,2.77,3.7,4.92,2.95,2.14-.75,2.55-2.14,5.19-2.25,2.73-.12,3.05,1.67,5.18,2.42,2.15.76,4.16-2.07,4.92-3.32-.09,1.94-1.55,3.95-2.93,5.05.63,1.77,4,.12,5.18,1.46,1.49,1.69-.75,3.66-.66,5.19.2,3.32,5.94,1.12,7.71.43,1.93,9.01-1.75,22.19-7.29,23.06-1.58.59-3.06.86-5.24.97-4.57.34-8.41.5-13.4-.04-1.76,0-3.47-.16-4.97-.83C1.28,51.48-1.49,38.07.76,29.34c1.67.98,7.41,3.18,7.61-.14h0Z"/>
      <path class="cls-5" d="M8.59,52.74c-.06-3.37,4.92-3.7,4.93.68,0,1.22-4.9,1.46-4.93-.68h0Z"/>
      <path class="cls-5" d="M32.37,52.61c-.36-3.31-5.12-3.15-5.07.27.03,2.32,5.27,1.48,5.07-.27h0Z"/>
      <path class="cls-3" d="M18.47,17.91c.94-.2,1.93-.08,2.82-.08-.16,2.25-2.58,2.27-2.82.08h0Z"/>
      <path class="cls-1" d="M21.22,17.53c-.15.05-.26.2-.27.35-.08.58-.25.95-.45,1.17-.2.22-.42.31-.62.3-.41-.02-.95-.47-1.1-1.48-.03-.21-.25-.37-.46-.34-.21.03-.37.25-.34.46.19,1.26.97,2.1,1.88,2.15.45.02.91-.17,1.25-.55.34-.38.56-.93.65-1.62.05-.27-.27-.54-.53-.45h0Z"/>
      <path class="cls-1" d="M19.87,19.36c-.22-.01-.43.18-.43.4-.02.73.03,1.11.02,1.63,0,.21.19.41.4.41s.4-.19.4-.41c0-.56-.04-.9-.02-1.6.01-.21-.17-.41-.38-.42h0Z"/>
      <path class="cls-1" d="M22.07,20.61c-.09.02-.17.07-.23.15-.19.23-.54.36-.9.4-.37.04-.75-.06-.85-.13-.14-.08-.32-.07-.45.03-.11.09-.45.19-.77.18-.33-.02-.65-.14-.85-.35-.14-.18-.43-.2-.59-.04-.16.15-.15.45.02.59.38.4.89.57,1.38.6.39.02.73-.1,1.05-.27.33.16.71.24,1.15.2.51-.05,1.05-.25,1.43-.7.21-.25-.05-.7-.38-.65h0Z"/>
      <path class="cls-2" d="M13.29,27.18c-.3.07-.48.45-.35.72.26.58.71,1.05,1.32,1.3.61.25,1.33.3,2.2.15.05,0,.1-.01.15-.03.92-.43,1.49-.67,1.75-.68.12,0,.17,0,.27.08.1.07.24.25.4.5.13.68.19,1.13.15,1.3-.04.18-.16.33-.65.73-.09.07-.15.17-.17.27-.93,3.69-3.24,5.45-5.88,5.83-1.07.15-2.92-.2-4.55-.9-1.63-.7-3.05-1.78-3.48-2.85-.08-.29-.43-.46-.7-.34-.27.11-.39.49-.25.74.61,1.52,2.25,2.64,4.02,3.4,1.77.77,3.69,1.18,5.1.98,2.98-.43,5.64-2.56,6.68-6.5.42-.36.78-.67.88-1.12.11-.53,0-1.01-.15-1.83-.01-.06-.04-.12-.07-.17-.21-.35-.43-.65-.7-.85-.27-.21-.59-.31-.93-.3-.62.02-1.22.33-2.05.72-.74.12-1.28.08-1.65-.07-.37-.15-.58-.39-.75-.77-.1-.23-.36-.36-.6-.3h0Z"/>
      <path class="cls-2" d="M26.22,27.26c-.16.03-.31.15-.38.3-.15.33-.41.54-.88.68-.47.13-1.12.15-1.88.02-.83-.4-1.43-.71-2.05-.73-.33,0-.65.09-.92.3-.27.21-.49.47-.7.82-.03.06-.04.12-.05.18-.15.82-.29,1.32-.17,1.85.1.46.45.77.88,1.12,1.06,4.03,3.8,6.14,6.88,6.5,1.39.16,3.35-.28,5.12-1.05,1.77-.77,3.4-1.79,3.82-3.23.08-.26-.09-.57-.35-.65-.26-.08-.57.09-.65.35-.23.78-1.58,1.86-3.23,2.57-1.64.71-3.57,1.09-4.6.97-2.72-.32-5.08-2.05-6.03-5.82-.03-.11-.11-.21-.2-.27-.49-.39-.59-.54-.62-.73-.04-.16,0-.61.13-1.3.16-.25.3-.43.4-.5.1-.08.15-.1.27-.1.26,0,.85.24,1.77.68.04.02.08.04.13.05.86.15,1.65.14,2.33-.05.68-.19,1.26-.61,1.55-1.25.16-.35-.2-.8-.57-.73h0Z"/>
      <path class="cls-7" d="M27.06,4.69c2.84-6.85,6.14.27,2.64,3.13-1.03-1.33-1.56-1.78-2.64-3.13h0Z"/>
      <path class="cls-7" d="M12.64,4.41c-2.84-6.85-6.15.27-2.64,3.13,1.03-1.33,1.56-1.78,2.64-3.13h0Z"/>
    </g>
  </g>
</svg>