<?xml version="1.0" encoding="UTF-8"?>
<svg id="Layer_2" data-name="Layer 2" xmlns="http://www.w3.org/2000/svg" viewBox="0 0 40.32 54.85">
  <defs>
    <style>
      .cls-1 {
        fill: #fff6f6;
      }

      .cls-1, .cls-2, .cls-3 {
        stroke-width: 0px;
      }

      .cls-2 {
        fill: #ffbaba;
      }

      .cls-3 {
        fill: #f95;
      }
    </style>
  </defs>
  <g id="Layer_1-2" data-name="Layer 1">
    <g>
      <path class="cls-1" d="M37.67,48.34c2.8-5.54,3.48-13.92,1.59-20.01-7.76-3.87-28.33-5.97-38.09-.88-1.85,5.64-1.45,13.57.91,19.31,11.72-1.83,22.92-2.01,35.6,1.57h0Z"/>
      <path class="cls-3" d="M39.82,30.59c-.68-3.5-2.09-6.52-4.27-8.29.79-4.74-3.13-10.21-4.72-12.45,2.83-2.03,1.59-9.43.08-9.76-2.35-.51-5.02,2.3-6.29,3.98-3.09-.21-6.53-.03-9.76-.04C13.59,2.37,10.92-.45,8.57.06c-1.51.33-2.75,7.3.08,9.33-1.59,2.24-5.18,8.13-4.39,12.88-1.68,1.52-2.85,3.91-3.53,6.71,4.38-.98,7.78-4.79,12.85-3.51,3.29.55,9.12,1.95,13.7,1.2,7.12-1.18,8.42,2.4,12.54,3.93h0Z"/>
      <path class="cls-3" d="M1.63,45.69c1.82-2.82,7.22-8.13,13.49-7.08,7.6-3.26,13.45-.23,16.17,3.71,3.42.62,5.32,2.6,6.78,5.04-1.1,3.18-3.58,5.71-6.09,6.43-4.73,1.11-19.82,1.88-24.92-.48-2.77-1.4-4.45-4.7-5.43-7.62h0Z"/>
      <path class="cls-2" d="M18.34,49.19c-.07-6.51,4.07-6.29,3.84,0-.37.77-3.16,1.17-3.84,0h0Z"/>
    </g>
  </g>
</svg>