<?xml version="1.0" encoding="UTF-8"?>
<svg id="Layer_2" data-name="Layer 2" xmlns="http://www.w3.org/2000/svg" viewBox="0 0 64.4 64.68">
  <defs>
    <style>
      .cls-1 {
        fill: #2b1100;
      }

      .cls-1, .cls-2, .cls-3, .cls-4, .cls-5, .cls-6 {
        stroke-width: 0px;
      }

      .cls-2 {
        fill: #b39393;
      }

      .cls-3 {
        fill: #a08675;
      }

      .cls-4 {
        fill: #ffecec;
      }

      .cls-5 {
        fill: #e2e2e2;
      }

      .cls-6 {
        fill: #ffd5d5;
      }
    </style>
  </defs>
  <g id="Layer_1-2" data-name="Layer 1">
    <g>
      <path class="cls-3" d="M19.08,61.94c-.42-.27-.73-.69-1.32-.68-.15.13-.77,1.03-1.25,1.44-.46-.4-.6-.94-1.32-1.18-.88.32-1.37,1.01-2.41,1.44,0-.7-.16-1.27.04-2.02-.73.13-1.75.69-3.14,1.41.27-.88.25-2.08.33-3.53-.83.26-1.84.68-3.28,1.32.17-.81.52-2.36.8-3.54-.88.16-2.02-.05-3.45.07.6-1.21,1.06-2.25,1.44-3.36-.89-.38-2.52-.88-3.74-1.53.96-.78,1.9-1.89,3.1-2.91-.41-.17-3.17-.81-3.9-1.01.93-1.12,2.15-1.9,2.79-2.93-.91-.51-2.11-.75-3.76-1.29.92-.82,2.29-2.35,3.79-3.29-.95-.37-1.88-.98-2.73-1.29.89-.96,2.54-1.9,3.63-2.75-.81-.34-1.49-.67-2.73-1.32.75-1.02,2.58-2.02,3.69-3.26-.64-.11-1.52-.79-2.34-1.12.95-.82,1.55-1.13,2.88-2.46-.67-.44-1.38-.47-2.16-1.42.8-.52,1.83-1.09,2.57-1.7-.66-.57-.94-1.04-2.06-1.79,1.13-.41,1.92-.77,3.09-1.28-.51-.69-1.16-1.59-2.06-2.96,1.24-.61,2.95-.65,4.29-1.17.19-3,3.44-5.64,6.33-7.58.12-1.67.15-3.14.31-4.18,1.16.63,1.8,1.76,2.57,2.22.06-1.71.26-3.52.62-4.93,1.34.97,2.31,2.14,2.78,3.08.65-2.52.91-4.18,1.65-6.4.53,1.48,1.49,3.03,2.26,4.19.6-1.13.69-2.45,1.34-3.45.92,1,1.3,1.93,1.85,2.83.58-.71,1.34-1.48,1.64-2.09.36,1.28,1.05,1.91,1.11,2.65.07-.62.75-.98,1.11-2.53.31.61,1.07,1.38,1.65,2.09.54-.9.93-1.83,1.85-2.83.65,1,.74,2.32,1.34,3.45.77-1.16,1.74-2.71,2.27-4.19.74,2.22,1,3.89,1.64,6.4.47-.94,1.45-2.11,2.78-3.08.35,1.41.56,3.22.62,4.93.77-.46,1.41-1.58,2.57-2.21.16,1.05.19,2.51.31,4.18,3.57,1.43,4.64,4.51,6.15,6.94,1.4.79,2.99,1.2,4.23,1.8-.89,1.38-1.55,2.28-2.06,2.97,1.17.51,1.96.87,3.09,1.28-1.12.75-1.4,1.22-2.06,1.79.74.61,1.77,1.18,2.58,1.7-.78.95-1.49.99-2.17,1.43,1.33,1.34,1.93,1.64,2.88,2.46-.82.33-1.7,1.01-2.34,1.12,1.11,1.25,2.94,2.24,3.7,3.26-1.24.66-1.92.99-2.73,1.32,1.09.86,2.74,1.79,3.63,2.75-.85.31-1.77.92-2.73,1.29,1.5.94,2.87,2.47,3.79,3.29-1.65.54-2.84.79-3.76,1.29.64,1.02,1.86,1.81,2.79,2.93-.73.2-3.49.84-3.91,1.01,1.2,1.01,2.14,2.13,3.1,2.91-1.22.65-2.84,1.15-3.73,1.54.38,1.1.84,2.15,1.44,3.35-1.43-.12-2.57.09-3.45-.07.29,1.17.64,2.72.8,3.54-1.43-.65-2.45-1.06-3.27-1.32.08,1.44.06,2.64.33,3.53-1.39-.72-2.4-1.28-3.14-1.41.2.75.03,1.32.03,2.02-1.05-.43-1.53-1.12-2.42-1.44-.72.24-.86.79-1.32,1.18-.48-.41-1.1-1.31-1.25-1.44-.59-.02-.91.41-1.32.68-4.79,4.28-24.4,2.68-26.23-.11h0Z"/>
      <path class="cls-5" d="M26.11,5.59l-.95.73,2,2.6.95-.72-2-2.6Z"/>
      <path class="cls-5" d="M36.84,6.64l-1.82,2.32.92.73,1.85-2.3-.95-.75Z"/>
      <path class="cls-5" d="M55.59,21.19s-1.53.46-2.03.63l.38,1.15c.43-.14,2-.62,2-.62l-.35-1.15Z"/>
      <path class="cls-5" d="M7.14,37.32l-3.08.3.12,1.2,3.08-.3-.12-1.2Z"/>
      <path class="cls-5" d="M57.17,41.01l-.35,1.15,4,1.23.35-1.12-4-1.25Z"/>
      <path class="cls-5" d="M6.52,45.19l-2.45.92.43,1.12,2.45-.92-.42-1.12Z"/>
      <path class="cls-5" d="M50.24,57.99l-.65,1.03,2.93,1.85.65-1.02-2.93-1.85Z"/>
      <path class="cls-5" d="M11.69,19.19l-3.07.62.25,1.17,3.05-.62-.23-1.17Z"/>
      <path class="cls-5" d="M46.39,10.07l-.15,2.77,1.2.05.15-2.75-1.2-.07Z"/>
      <path class="cls-5" d="M20.01,8.04l-.7,1,2.93,2,.68-1-2.9-2Z"/>
      <path class="cls-5" d="M43.55,7.87l-2.3,2.15.83.88,2.3-2.15-.83-.88Z"/>
      <path class="cls-5" d="M31.49,4.84l-.15,2.77,1.2.05.15-2.75-1.2-.08Z"/>
      <path class="cls-5" d="M7.31,27.54l-.55,1.07,2.6,1.37.57-1.05-2.62-1.4Z"/>
      <path class="cls-5" d="M54.61,29.01l-.18,1.2,3.83.6.2-1.18-3.85-.62Z"/>
      <path class="cls-5" d="M58.44,34.39l-2,.32.18,1.18,2-.3-.18-1.2Z"/>
      <path class="cls-5" d="M9.29,52.66l-2.33,1.82.75.95,2.33-1.85-.75-.92Z"/>
      <path class="cls-5" d="M33.79,61.39l-.15,2.6,1.2.08.15-2.6-1.2-.07Z"/>
      <path class="cls-5" d="M55.67,50.1l-.18,1.18,4.32.76.18-1.2-4.32-.73Z"/>
      <path class="cls-5" d="M12.77,57.76l-1.7,1.7.85.85,1.7-1.7-.85-.85Z"/>
      <path class="cls-5" d="M6.94,32.51l-.72.95,2,1.55.72-.95-2-1.55Z"/>
      <path class="cls-2" d="M45.54,12.81c1.33-1.91,5.53-3.66,7.2-2.18,3.13,2.78,3.27,8.45-1.05,11.92-5.2.09-7.95-4.8-6.14-9.74h0Z"/>
      <path class="cls-6" d="M47.61,13.32c3.97-3.68,7.66,3.46,1.69,6.91-3.46-.42-4.32-5.34-1.69-6.91h0Z"/>
      <path class="cls-2" d="M19.25,12.45c-1.33-1.91-5.45-3.63-7.12-2.15-3.13,2.77-3.52,8.75.81,12.22,5.81,1.25,8.06-4.73,6.31-10.07h0Z"/>
      <path class="cls-6" d="M16.53,12.83c-3.97-3.68-7.67,3.46-1.69,6.92,3.45-.42,4.33-5.33,1.69-6.92h0Z"/>
      <path class="cls-4" d="M39.12,63.12c-.34-.2-.95-.81-1.37-1.17-.45.75-.98,1.65-1.64,1.92-.53-.46-.83-1.48-1.23-1.99-.57.71-.88,1.57-1.78,2.12-.53-.32-1-1.19-1.23-1.99-.37.61-.53,1.3-1.23,1.92-1.12-.56-1.35-1.45-1.37-2.09-.53.59-.54,1.2-1.23,1.54-.78-.47-1.15-.83-1.51-1.92-.21.35-.37.59-.69,1.1-1.09-.07-1.46-.83-1.85-.95-1.44-.38-2.95-1.46-4.49-1.86-.45-.1-1.45-.62-1.68-1-.12.42-.6.83-.52,1.44-1.07-.39-1.72-.26-2.27-1.13-.11.35-.25.94-.18,1.46-1.12-.2-2.15-1.08-2.14-2.62-.41.36-.59.73-1.07,1.26-.57-.78-.68-1.67-.8-3-.6.11-1,.33-1.61.19-.56-1.01-.21-2.12.09-3.3-.64-.12-1.18.16-1.96.1-.28-.91.06-2.29,1.16-2.23-.61-.22-1.24-.28-1.96-.19,0-1.47,1.13-3.14,1.65-3.49-.51-.36-1.23-.64-1.92-.39-.27-1.74.88-2.31,1.34-3.79-.43-.37-.94-.76-1.79-.68-.25-1.59,1.29-2.46,1.96-3.78-.11-.02-1.07-.17-1.52,0,.27-1.73.97-2.26,2.5-3.01-.5-.33-1.1-.5-1.52-1.16.6-1.08,1.65-1.59,2.32-2.81-.62-.54-1.37-.62-2.32-1.07.51-.92,1.32-1.83,2.5-2.72-.4-.26-.79-.29-1.34-.68.71-.97,1.93-1.12,3.22-1.84-.27-.05-2-.75-2.19-1.34.86-.89,4.25-1.48,5.39-1.89-1.13-.93-1.33-1.84-2.24-2.64,1.2-.18,2.23-.32,3.12-.48-.66-.65-1.18-1.75-1.64-2.57,1-.34,1.83,0,2.75.17-.28-1.09-.71-2.05-.88-3.6,1.23.47,2.35.89,2.87,1.2.17-1.6.5-2.09.88-3.36,1.03,1.11,1.58,1.79,2.21,2.64.71-1.28,1.15-2.04,1.77-2.88,1.23.52,1.68,1.93,2.21,2.88.96-1.18,1.28-1.99,1.77-2.88.83.73,1.57,1.67,2.4,2.7.9-.56,1.52-1.1,2.23-2.27.52.86.97,1.48,2.37,2.33.54-.98,1.28-1.91,2.11-2.64.49.89.8,1.7,1.77,2.88.52-.95.98-2.36,2.21-2.88.61.84,1.06,1.6,1.77,2.88.63-.85,1.18-1.53,2.21-2.64.39,1.26.71,1.75.88,3.36.52-.31,1.63-.73,2.87-1.19-.18,1.55-.6,2.51-.88,3.59.91-.17,1.74-.51,2.74-.17-.45.82-.99,1.92-1.64,2.57.9.16,1.93.3,3.12.48-.91.79-1.1,1.71-2.23,2.64,1.14.41,4.53,1,5.39,1.89-.18.59-1.91,1.29-2.19,1.34,1.29.71,2.5.88,3.21,1.84-.54.39-.94.42-1.34.67,1.18.89,1.99,1.79,2.5,2.71-.95.45-1.7.53-2.32,1.07.67,1.22,1.72,1.73,2.32,2.81-.42.66-1.02.84-1.52,1.16,1.52.75,2.24,1.29,2.5,3.01-.45-.17-1.41-.02-1.52,0,.67,1.32,2.21,2.19,1.96,3.78-.84-.08-1.36.31-1.79.68.46,1.47,1.61,2.04,1.34,3.78-.69-.25-1.41.02-1.92.39.52.35,1.65,2.02,1.65,3.49-.72-.09-1.35-.03-1.96.19,1.1-.05,1.44,1.33,1.16,2.23-.79.06-1.32-.21-1.96-.1.3,1.18.65,2.28.09,3.3-.61.13-1-.08-1.6-.19-.13,1.33-.23,2.23-.81,3-.47-.53-.66-.9-1.07-1.26.01,1.54-1.02,2.41-2.14,2.62.07-.52-.14-1.66-.25-2-.55.87-.98,1.49-2.06,1.88.08-.61-.74-1.09-.86-1.51-.3.79-.82,1.04-1.55,1.55-1.27,1.08-2.99,1.75-4.32,1.3-.34.04-.55.8-1.41,1.26h0Z"/>
      <path class="cls-2" d="M19.62,61.59c-1.39,2.21-.59,3.14,1.56,2.75,1.89-.23,2.46-1.35,2.93-2.86-.19-4.77.44-9.93,1.66-13.88-1.72-2.21-5.55-1.12-7.12.37-1.02,2.93.98,9.3.98,13.62h0Z"/>
      <path class="cls-2" d="M45.46,47.93c1.31,3.08-.68,9.45-.68,13.77,1.39,2.21.6,3.14-1.56,2.75-1.89-.24-2.46-1.35-2.92-2.86.19-4.77-.45-9.93-1.66-13.88,2.26-1.78,5.35-1.64,6.83.22h0Z"/>
      <path class="cls-2" d="M39.34,27.75c2.04-1.89,4.15-.22,5.02-2.91.6-1.88-1.94-8.19-5.83-8.16-2.27.02-2.68,1.74-5.58,1.84-2.91.09-3.31-1.88-5.58-1.89-3.89-.03-6.9,6.29-6.3,8.16.87,2.69,3.78,1.5,5.83,3.38,1.56,1.42,2.48,3.15,6.05,3.29,3.57.14,4.49-1.93,6.39-3.7h0Z"/>
      <path class="cls-1" d="M32.55,23.55c-2.71.05-2.45,3.56.17,3.51s2.54-3.57-.17-3.51h0Z"/>
      <path class="cls-1" d="M32.81,26.64c-.14.02-.27.12-.32.25-.59,1.25-1.53,2.11-1.82,2.27-.2.12-.28.41-.17.61.12.2.41.28.61.16.5-.29,1.19-1.08,1.8-2.12.74,1,1.55,1.71,2,2.07.17.18.51.18.66-.02.16-.2.1-.53-.11-.66-.55-.44-1.47-1.15-2.2-2.35-.09-.16-.27-.25-.45-.22h0Z"/>
      <path class="cls-1" d="M39.45,18.08c2.39.18,2.8,5.74-.96,4.55-2.58-.82-1.06-4.7.96-4.55h0Z"/>
      <path class="cls-1" d="M24.98,17.96c-2.39.18-2.79,5.74.96,4.55,2.58-.82,1.06-4.7-.96-4.55h0Z"/>
    </g>
  </g>
</svg>