<?xml version="1.0" encoding="UTF-8"?>
<svg id="Layer_2" data-name="Layer 2" xmlns="http://www.w3.org/2000/svg" viewBox="0 0 64.4 64.52">
  <defs>
    <style>
      .cls-1 {
        fill: #a08675;
      }

      .cls-1, .cls-2 {
        stroke-width: 0px;
      }

      .cls-2 {
        fill: #e2e2e2;
      }
    </style>
  </defs>
  <g id="Layer_1-2" data-name="Layer 1">
    <g>
      <path class="cls-1" d="M38.57,62.57c-.31-.51-.47-.75-.68-1.09-.36,1.09-.73,1.45-1.51,1.92-.7-.35-.71-.95-1.23-1.54-.02.64-.26,1.54-1.37,2.09-.7-.62-.86-1.3-1.23-1.92-.24.8-.7,1.67-1.24,1.99-.9-.55-1.21-1.41-1.78-2.12-.4.51-.7,1.53-1.23,1.99-.66-.27-1.2-1.18-1.64-1.92-.41.36-1.03.97-1.37,1.17-.86-.46-1.07-1.22-1.22-1.94-.09.4-.47,1.67-.93,2.38-.5-.75-.11-1.39-1.42-2.13-.21.63-.43,1.76-.95,2.61-.45-.75-1.07-1.38-1.68-1.99-.42-.27-.73-.69-1.32-.68-.15.12-.77,1.03-1.25,1.44-.46-.4-.6-.94-1.32-1.18-.88.32-1.37,1.01-2.41,1.44,0-.7-.16-1.28.03-2.03-.73.13-1.75.69-3.14,1.41.27-.89.26-2.09.33-3.53-.83.26-1.84.67-3.28,1.32.17-.81.52-2.36.8-3.53-.88.15-2.02-.06-3.45.07.59-1.21,1.06-2.25,1.44-3.36-.89-.38-2.52-.88-3.74-1.54.96-.78,1.9-1.89,3.1-2.91-.41-.17-3.17-.81-3.9-1.01.93-1.12,2.15-1.91,2.78-2.93-.92-.51-2.11-.75-3.76-1.29.91-.83,2.29-2.35,3.79-3.29-.96-.37-1.88-.98-2.73-1.29.89-.96,2.54-1.89,3.63-2.75-.81-.34-1.49-.66-2.73-1.32.75-1.03,2.58-2.02,3.69-3.26-.64-.12-1.52-.79-2.34-1.12.95-.82,1.55-1.12,2.88-2.46-.67-.43-1.38-.47-2.16-1.42.8-.52,1.83-1.09,2.58-1.7-.66-.57-.94-1.04-2.06-1.79,1.13-.41,1.92-.77,3.09-1.28-.51-.69-1.17-1.59-2.06-2.97,1.24-.6,2.83-1.01,3.9-1.46-.79-.16-.82-2.55-1.27-5.2,1.55.57,3.93,1,4.5,1.18-.81-1.69-1.01-3.62-.71-5.45.91.58,3.14,1.12,3.64,1.69.44-1.16.47-2.63.62-3.68,1.16.63,1.81,1.76,2.58,2.21.05-1.71.26-3.52.62-4.93,1.34.97,2.3,2.14,2.78,3.08.64-2.52.9-4.18,1.65-6.4.53,1.48,1.49,3.03,2.26,4.19.6-1.12.69-2.45,1.34-3.45.91,1,1.3,1.93,1.85,2.83.57-.71,1.34-1.48,1.64-2.09.36,1.55,1.05,1.91,1.11,2.52.06-.74.75-1.36,1.11-2.65.31.61,1.07,1.38,1.65,2.09.54-.9.93-1.83,1.85-2.83.65,1,.74,2.33,1.34,3.45.77-1.16,1.74-2.71,2.27-4.19.74,2.22,1,3.89,1.64,6.4.47-.94,1.45-2.11,2.78-3.08.36,1.41.57,3.22.62,4.93.77-.46,1.41-1.58,2.57-2.21.16,1.05.19,2.52.44,3.98.3-.27,2.54-.81,3.45-1.39.3,1.82.1,3.75-.71,5.45.56-.19,2.95-.62,4.5-1.19-.44,2.65-.48,5.04-1.02,5.09,1.32.34,3.03.39,4.27,1-.9,1.38-1.55,2.28-2.06,2.97,1.17.51,1.96.87,3.09,1.28-1.12.75-1.4,1.21-2.06,1.79.74.61,1.77,1.18,2.58,1.7-.79.95-1.49.99-2.16,1.43,1.32,1.34,1.93,1.64,2.88,2.46-.82.33-1.7,1.01-2.34,1.12,1.11,1.25,2.94,2.24,3.7,3.26-1.24.66-1.93.98-2.73,1.32,1.09.86,2.75,1.79,3.63,2.75-.85.31-1.77.92-2.73,1.29,1.5.94,2.87,2.46,3.79,3.29-1.65.54-2.84.79-3.76,1.29.64,1.02,1.86,1.81,2.79,2.93-.73.2-3.49.84-3.91,1.01,1.2,1.01,2.14,2.13,3.1,2.91-1.22.65-2.84,1.15-3.74,1.54.39,1.11.85,2.15,1.44,3.36-1.43-.12-2.57.09-3.45-.07.29,1.17.63,2.72.8,3.54-1.43-.65-2.45-1.06-3.28-1.32.08,1.44.06,2.64.34,3.53-1.39-.72-2.4-1.28-3.14-1.41.2.75.03,1.32.03,2.02-1.05-.43-1.53-1.12-2.41-1.44-.72.24-.86.79-1.32,1.18-.47-.41-1.1-1.31-1.24-1.44-.59-.02-.91.41-1.32.68.62.94.55,1.57.55,2.57-.88-1.62-2.61-2.65-3.32-3.08-.41,1.29-.94,1.76-1.42,2.37.05-1.42-.76-1.89-1.08-2.39-.01.34-.38,1.1-1.47,1.16h0Z"/>
      <path class="cls-2" d="M32.96,49.31l-1.85,4.12,1.1.47,1.85-4.1-1.1-.5Z"/>
      <path class="cls-2" d="M33.68,15.86l-.75,3.38,1.18.25.75-3.35-1.18-.28Z"/>
      <path class="cls-2" d="M32.58,33.54l-1.33,3.9,1.15.4,1.3-3.93-1.12-.38Z"/>
      <path class="cls-2" d="M23.77,17.33l2.22,1.67.71-.96-2.2-1.66-.73.95Z"/>
      <path class="cls-2" d="M15.8,22.71l-.25,1.18,4.68.97.25-1.17-4.68-.98Z"/>
      <path class="cls-2" d="M21.8,35.46l-3.75,2.62.7.98,3.72-2.62-.68-.98Z"/>
      <path class="cls-2" d="M24.95,47.25l-1.68,3.55,1.1.52,1.68-3.55-1.1-.53Z"/>
      <path class="cls-2" d="M25.3,55.34l-1.3,3.52,1.12.43,1.3-3.55-1.12-.4Z"/>
      <path class="cls-2" d="M31.3,57.36l-1.2.08.2,2.8,1.2-.07-.2-2.8Z"/>
      <path class="cls-2" d="M17.73,52.61l-4.3,2.6.62,1.02,4.3-2.6-.62-1.03Z"/>
      <path class="cls-2" d="M12.41,46.41l-4.1,1.68.45,1.1,4.1-1.68-.45-1.1Z"/>
      <path class="cls-2" d="M7.46,37.41l-.1,1.2,3.73.38.13-1.2-3.75-.38Z"/>
      <path class="cls-2" d="M11.01,27.14l-.1,1.2,4.48.38.1-1.2-4.47-.38Z"/>
      <path class="cls-2" d="M16.78,13.91l-.85.85,2.98,2.97.85-.85-2.98-2.98Z"/>
      <path class="cls-2" d="M30.21,7.36l-1.2.12.55,4.68,1.2-.15-.55-4.65Z"/>
      <path class="cls-2" d="M23.08,9.94l-.75.95,3.55,2.8.72-.95-3.52-2.8Z"/>
      <path class="cls-2" d="M26.63,24.01l-3.9,1.1.32,1.18,3.9-1.12-.33-1.15Z"/>
      <path class="cls-2" d="M22.62,29.83l-5.23,2.6.53,1.07,5.22-2.6-.52-1.07Z"/>
      <path class="cls-2" d="M19.85,44.67l-2.98,2.98.85.85,2.97-2.97-.85-.85Z"/>
      <path class="cls-2" d="M14.46,40.44l-4.1,1.67.45,1.12,4.1-1.7-.45-1.1Z"/>
      <path class="cls-2" d="M30.33,41.79l-1.12,4.85,1.17.27,1.1-4.85-1.15-.28Z"/>
      <path class="cls-2" d="M25.39,40.06l-1.48,1.88.92.75,1.5-1.88-.95-.75Z"/>
      <path class="cls-2" d="M26.88,32.46l-2.62,1.48.6,1.05,2.62-1.5-.6-1.02Z"/>
      <path class="cls-2" d="M11.46,18.41l-.28,1.15,3.18.75.28-1.15-3.18-.75Z"/>
      <rect class="cls-2" x="7.03" y="32.56" width="5.05" height="1.2"/>
      <path class="cls-2" d="M19.73,56.04l-1.12,2.62,1.1.48,1.12-2.62-1.1-.48Z"/>
      <path class="cls-2" d="M42.63,16.69l-2.22,1.68-.71-.97,2.2-1.66.73.95Z"/>
      <path class="cls-2" d="M49.66,22.63l.25,1.17-4.67.98-.25-1.18,4.67-.97Z"/>
      <path class="cls-2" d="M43.66,35.38l3.75,2.62-.7.97-3.72-2.62.67-.97Z"/>
      <path class="cls-2" d="M43.13,47.73l1.67,3.55-1.1.52-1.67-3.55,1.1-.52Z"/>
      <path class="cls-2" d="M40.16,55.26l1.3,3.52-1.12.43-1.3-3.55,1.12-.4Z"/>
      <path class="cls-2" d="M34.16,57.28l1.2.07-.2,2.8-1.2-.07.2-2.8Z"/>
      <path class="cls-2" d="M47.73,52.53l4.3,2.6-.62,1.02-4.3-2.6.62-1.02Z"/>
      <path class="cls-2" d="M53.06,46.33l4.1,1.68-.45,1.1-4.1-1.68.45-1.1Z"/>
      <path class="cls-2" d="M58.01,37.33l.1,1.2-3.73.38-.12-1.2,3.75-.38Z"/>
      <path class="cls-2" d="M53.71,28.18l.1,1.2-4.48.38-.1-1.2,4.47-.38Z"/>
      <path class="cls-2" d="M48.68,13.83l.85.85-2.97,2.98-.85-.85,2.98-2.97Z"/>
      <path class="cls-2" d="M35.26,7.28l1.2.12-.55,4.68-1.2-.15.55-4.65Z"/>
      <path class="cls-2" d="M42.38,9.86l.75.95-3.55,2.8-.72-.95,3.52-2.8Z"/>
      <path class="cls-2" d="M38.83,23.93l3.9,1.1-.33,1.18-3.9-1.12.32-1.15Z"/>
      <path class="cls-2" d="M41.91,30.31l5.23,2.6-.52,1.08-5.23-2.6.52-1.08Z"/>
      <path class="cls-2" d="M44.31,41.23l2.97,2.98-.85.85-2.98-2.97.85-.85Z"/>
      <path class="cls-2" d="M51.01,40.36l4.1,1.67-.45,1.12-4.1-1.7.45-1.1Z"/>
      <path class="cls-2" d="M37.18,45.06l1.12,4.85-1.18.27-1.1-4.85,1.15-.27Z"/>
      <path class="cls-2" d="M38.95,39.61l1.47,1.88-.92.75-1.5-1.88.95-.75Z"/>
      <path class="cls-2" d="M37.09,31.64l2.62,1.47-.6,1.05-2.62-1.5.6-1.02Z"/>
      <path class="cls-2" d="M54.01,18.33l.27,1.15-3.17.75-.28-1.15,3.18-.75Z"/>
      <rect class="cls-2" x="53.38" y="32.48" width="5.05" height="1.2"/>
      <path class="cls-2" d="M45.73,55.96l1.12,2.62-1.1.47-1.12-2.62,1.1-.47Z"/>
      <path class="cls-2" d="M30.18,26.54l-1.47,2.8,1.05.55,1.5-2.78-1.08-.57Z"/>
      <path class="cls-2" d="M33.08,23.34l-.62,1,2.97,1.88.65-1.02-3-1.85Z"/>
    </g>
  </g>
</svg>