<?xml version="1.0" encoding="UTF-8"?>
<svg id="Layer_2" data-name="Layer 2" xmlns="http://www.w3.org/2000/svg" viewBox="0 0 63.26 139.4">
  <defs>
    <style>
      .cls-1 {
        fill: #2b1100;
      }

      .cls-1, .cls-2, .cls-3, .cls-4, .cls-5 {
        stroke-width: 0px;
      }

      .cls-2 {
        fill: #b68a6f;
      }

      .cls-3 {
        fill: #e6945f;
      }

      .cls-4 {
        fill: #ffd5d5;
      }

      .cls-5 {
        fill: #f5c4a2;
      }
    </style>
  </defs>
  <g id="Layer_1-2" data-name="Layer 1">
    <g>
      <path class="cls-2" d="M48.83,138.22c9.51.83,14.31-10.15,14.42-16.45.16-9.68-5.05-18.98-7.6-32.08-14.21-9.17-34.51-7.42-48.14-.24C5.12,102.4-.31,112.03.01,121.71c.21,6.3,3.56,17.09,13.05,16.1,3.02,1.22,6.62.89,10.53.3,4.94.41,9.7.4,15.49.23,3.28.63,6.11.7,9.75-.12h0Z"/>
      <path class="cls-3" d="M36.27,133.05c.6,4.14,2.18,6.02,5.78,6.29,6.54.49,10.33-1.75,6.25-10.68,4.07-14.43,13.78-27.61,2.82-55.09,4.28-5.45.68-14.21-2.21-20.42.43-3.38-.28-6.57-2.95-10.19,7.84-9.97,13.55-26.01,4.96-42.96-13.09,10.68-19.89,22.05-16.44,38.56-1.48-1.08-4.16-.89-5.82-.2C31.85,21.8,24.86,10.55,11.6.08c-8.31,17.09-2.34,33.04,5.66,42.88-2.61,3.66-3.27,6.87-2.78,10.24-2.79,6.26-6.25,15.08-1.88,20.45-11.38,26.79-4.05,40.41.83,55.06-3.93,8.99-.11,11.17,6.43,10.57,3.59-.33,5.14-2.23,5.67-6.39,1.39-10.85-2.11-28.16,5.14-27.51,7.25.65,4.02,16.84,5.59,27.66h0Z"/>
      <path class="cls-1" d="M26.92,57.77c-.41.1-.59.7-.29,1,1.46,1.57,2.82,2.87,4.86,3.64.15.05.33.04.48-.03,1.96-.95,3.57-2.32,4.77-3.64.21-.23.2-.64-.03-.86-.23-.21-.64-.19-.85.04-1.07,1.17-2.48,2.38-4.15,3.23-1.65-.68-2.82-1.72-4.18-3.19-.14-.17-.39-.25-.6-.19h0Z"/>
      <path class="cls-1" d="M31.6,61.23c-.28.05-.5.32-.5.6-.02.98.1,1.87.02,2.85-.02.31.24.62.56.64.31.02.62-.24.64-.55.1-1.15-.04-2.08-.02-2.93.02-.36-.35-.68-.7-.62h0Z"/>
      <path class="cls-1" d="M31.65,64.43c-.12.02-.24.09-.32.18-.76.8-1.68,1.53-2.61,2-.3.12-.46.53-.31.82.15.3.56.42.85.25.9-.45,1.71-1.13,2.46-1.84.79.86,1.67,1.55,2.59,2,.29.16.7.04.84-.26.14-.3-.02-.7-.32-.82-.94-.46-1.83-1.14-2.59-2.1-.13-.17-.36-.26-.57-.22h0Z"/>
      <path class="cls-5" d="M16.95,43.42c5.54.97,4.3,13.74-2.5,9.8-.72-3.93.59-7.46,2.5-9.8h0Z"/>
      <path class="cls-1" d="M16.7,44.49c3.27-.16,3.12,8.68-.22,8.38-3.74-.33-1.87-8.28.22-8.38h0Z"/>
      <path class="cls-5" d="M46.39,43.54c-5.52,1.06-4.16,13.85,2.57,9.8.52-4.5-.71-7.4-2.57-9.8h0Z"/>
      <path class="cls-1" d="M46.45,44.66c-3.28-.1-2.98,8.73.36,8.38,3.73-.39,1.73-8.31-.36-8.38h0Z"/>
      <path class="cls-4" d="M40.11,39.78c.23-5.9-2.16-12.21-2.19-16.9-.05-8.5,7.94-15.31,12.48-19.92,3.81,9.09,2.59,20.89-2.48,30.6-1.13,2.17-3.2,2.8-7.81,6.21h0Z"/>
      <path class="cls-4" d="M23.24,40.35c-.33-5.9,1.96-12.25,1.91-16.93-.09-8.5-8.19-15.18-12.8-19.71-3.66,9.15-2.25,20.93,2.98,30.56,1.17,2.15,3.25,2.74,7.91,6.09h0Z"/>
    </g>
  </g>
</svg>