<?xml version="1.0" encoding="UTF-8"?>
<svg id="Layer_2" data-name="Layer 2" xmlns="http://www.w3.org/2000/svg" viewBox="0 0 63.26 139.92">
  <defs>
    <style>
      .cls-1 {
        fill: #f6dccb;
      }

      .cls-1, .cls-2 {
        stroke-width: 0px;
      }

      .cls-2 {
        fill: #e6945f;
      }
    </style>
  </defs>
  <g id="Layer_1-2" data-name="Layer 1">
    <g>
      <path class="cls-2" d="M63.25,121.53c.25-9.68-5.27-19.27-7.86-32.62-1.12-4.79-2.71-9.78-5.13-15.34,4.33-5.42.8-14.2-2.04-20.44.46-3.38-.23-6.57-2.86-10.22,7.92-9.9,13.77-25.9,5.32-42.92-13.18,10.57-20.07,21.88-16.76,38.42-1.66-.68-4.35-.85-5.82.24C31.41,22.12,24.52,10.82,11.34.24c-8.45,17.02-2.61,33.01,5.31,42.92-2.63,3.65-3.32,6.84-2.86,10.22-2.84,6.24-6.38,15.02-2.04,20.44-2.24,5.74-3.58,10.86-4.34,15.82C4.9,103.09-.23,112.43,0,122.11c.16,6.3,5.05,17.96,14.4,16.89,6.35,1.41,27.28,1.02,35.14.06,9.56.66,13.54-11.23,13.7-17.53h0Z"/>
      <path class="cls-1" d="M29.07,136.76c-9.54,1.09-5.54-19.14,5.39-12.58,8.62,5.59,2.39,13.88-5.39,12.58h0Z"/>
    </g>
  </g>
</svg>